<svg xmlns="http://www.w3.org/2000/svg" width="100" height="100" viewBox="0 0 100 100"><path d="M51.7 11.3l.3-.2h-.3c.4-.3 1-.4 1.2-.5.7-.4 1.7-.5 2.5-.8l1-.5-.4.2h1c1.8 0 3.3.2 4.8 1.2l1.6.8 2 1.4c.4.6 1 1 1.6 1.4l1.7 1.7 1 1 1.7 2.2c.7 1.2 1.5 2.3 1.8 3.7l1 2.3c.2 1 .4 2.2.4 3.3 0 1.5-.3 3-1 4.3-.2.6-.6 1-.7 2h1c1 0 2 .3 2.7.8.3.2.6.2 1 .3.5.4 1.2.7 1.8 1l1.5 1 .5.7h-.2c.3.5.6 1.2.8 2 .2.3.2.6.2 1v.4h.6l1 .2c1.2 0 2 1 3 2 .5.5.8 1.4 1 2.3.2 1.5.3 3-.2 4.5l-1 3-1.3 1.7c0 .2-.4.2-.5.3l-1 .8c.3 0 .5.2.6.3 1 .5 1.5 1.4 2 2.2.3.5.2 1 0 1.6v.6c1 1.3 1.3 2.6 1.2 4 0 1-.3 1.6-.7 2.3l-.7.7c-.2.2-.2.3-.2.5.4.7.5 1.5.2 2.3-.2.8-.7 1.4-1.3 2-.3 0-.3 0-.2.3.6 1.6.3 3-.8 4.3-.3.2-.7.3-1 .6l.7 1.2c.4.7.4 1.3 0 2-.4 1.2-1.2 1.8-2.3 2.2-.2 0-.4.3-.6.4l-.2 2.5c0 1.2-.6 2-1.6 2.8-.3.3-.7.3-1 .4h-1.2c-.8 0-1.5 0-2.3-.2h.2v-.2l-.8-.5c-.6-.2-1-.5-1.6-.5-.7 0-1.3 0-2 .2l-1.3.3c.6 0 1 .2 1.6.3-.6 0-2 0-2.8-.6-.3-.2-.7-.3-1 0l-2 .7-3.8 1.5-.5.8s-.3 0-.3.2l-.7.7-1.8 1c-.4.5-.8.4-1.3.5l-3.4 1c-1 0-2 .5-2.8.8l-1.8.6L46 98c-.3 0-.4.4-.5.7-.2.4-.5.7-1 .8-1.4.3-2.7.2-4 0l-2.7-.8-1-.3c-.4-.2-.4-.6 0-1l.4-.6c.2-.2.4-.5.4-.8 0-.5.4-.8.6-1.2.3-.5.7-1 1.2-1.4.4-.4 1-.6 1.5-.8l-1.3 1c-.2 0-.5.2-.6.6 1-.5 1.6-1 2.3-1.5 0-.2.3-.4.5-.5l1.6-.7.7-.3-2-.6-3.3-1.3-2.2-.8c0-.2-.3-.3-.5-.4L34.8 87c-.2-.3-.2-.8-.3-1.2-.4 0-1-.3-1.4-.2-.6 0-1.2-.3-1.8-.5-.6 0-1.2-.4-2-.5-.7-.2-1.4-.6-2-1l-2-1.8-1-1.2c-.3-.3-.3-.8-.5-1-.4-.4 0-.8-.2-1h-1.8c-.6 0-1-.2-1.7-.3h-.3c-1.3-1-2-2.4-1.4-3.8V74c.3-.5.2-.6-.2-.8-.8-.4-1.7-.8-2.3-1.7l-1-1.4c-.3-.8 0-1.7.2-2.7 0-.6 0-.6-.4-1-1-.6-1.7-1.4-2-2.6V62c0-1 .3-2 .8-2.8 0-.2.3-.3.5-.5-1.2-1.4-.8-2.8-.5-4v-.4c.6-.6 1-1.3 1-2s.4-1 .8-1.5c.4-.3.4-.5.4-1 0-1-.6-1.8-.7-2.8v.6c0-.8-.2-1.5.2-2V45c.3-.5.5-1 1-1.5l1.5-2s0-.2.2-.3c0-.8.7-1.2 1-1.7.6-.6 1.4-.8 2-1.2 0-.3-.3-.6-.4-1-.4-.7-1-1.4-1.2-2.2-.3-.8-.7-1.7-.6-2.7V32c-.4-.6 0-1 .2-1.7l.3-.8c0-.4 0-1 .6-1.2V28h.2l1.5-1.4 1.2-1h.2c.2 0 .3-.2.4-.3l1.4-.6v.2c.8-.3 1.5-.6 2-1h1c.2 0 .5 0 .7-.2l.3-.3c0 .2.3.2.6 0 .5-.4 1-.8 1.6-1 .7-.6 1.5-1 2.4-1 1-.3 2-.6 2.8-1 1.4-.2 2.7-.2 4 0H42c.6 0 1.3.5 2 .2h2.5c.6 0 1-.3 1.4-.7v-.5c0-.8-.2-1.6-.4-2.4v-.5c0-.2-.4-.5-.7-.8h-.2c0-.3-.2-.5-.3-.6-.5-.2-.8-.6-1-1.2l-1-1.5c-.2-.2-.2-.5-.3-.8v-.3c.2 0 .4-.2.5-.3l.5-1v.2c0 .3 0 .5-.3.8-.4.2-.5.4-.2 1l.2-.8h.4v.3h.2v.7l.6-.6c0 .3-.2.6-.5 1l.5-.3c0 .4-.6.6-.2 1 .2 0 .4-.4.5-.6 0 .4-.4.7-.2 1l.6-.6-.5 1.2h.2c.2 0 .3-.3.5-.5 0 .3-.4.6-.2 1l1.2-1.6v.2c0 .3-.3.6-.5 1 0 .2-.4.4-.2 1 0-.3.2-.4.3-.6v.8l.6-.3c0 .3-.2.5-.3.7h.3c-.3.2 0 .5 0 .7.3.2.4.4.5.6l.3 1c.2.3.2.7.2 1 0 .3 0 .6-.2.8l-.2-.2c0 .2-.2.3-.3.5v.7H48c0 .3-.3.4-.5.6h-.5c-1 0-1.8 0-2.7-.2h-5c-.8 0-1.6 0-2.4.2-.7 0-1.4.4-2 .7-.5 0-1 0-1.3.2l-2.3 1-1.3 1-1 .3c-.5-.2-1 0-1.3.3l-2 1-2 1-2 1.8c-.7.6-1.2 1.4-1.6 2.3v.6c-.5.5-.4 1-.4 1.6 0 .7.4 1.4.6 2 .3 1 1 2 1.8 3l.3.3.5.6.6 1 .4 1.4c.3.8 1 1.4 1.5 2V43c.2 0 .3 0 .4.2l.7 1c.8.8 1.8 1.4 3 1.2.3 0 .4 0 .4-.3v-.5h.2c0 .5.3.7.6.8.2 0 .4.3.4.6.2.4.4 1 1 1.2l1.6.8c.5 0 1 0 1.5.2h.5c-.2-.5-.5-.7-.4-1.2.4.3.5.7.8.8l1 .6c.5.6 1.2.8 2 1 1.2.7 2.5.7 4 .6.2 0 .5 0 .7-.2.4 0 .5-.5.2-.8l-.8-.7h.8s.2 0 .2.2l1 .5.8.5.7.5c.2 0 .4 0 .6.2.6 0 1 .4 1.5.4h1.8l.7-.3-1-.8c.7-.2 1.2 0 1.7.2l.5.3 1.6.7c.2 0 .4 0 .7.2 0-.3-.2-.4-.3-.6h.3l.2.2 1 .6c1.6.5 3 .7 4.7.4 1-.3 2-.6 2.7-1.3l-.4-.5c.4-.2.8-.2 1 0h.3c1.2.4 2.4.6 3.7.4 1-.2 2-.3 2.7-1 .4-.5.5-1 .3-1.3v-.5l.2-.5-.7-1.2-1-1c.2 0 .5 0 .7.2.4.6 1 1 1.2 1.8l.3.3-.3-.8c.2 0 .4.3.6.6 0 .4.3.4.7.3.4 0 .7-.2 1-.5.8-.8 1.2-1.4.5-2.4L72.7 43c-.2-.3-.6-.2-1-.3l-1.3-.8c-.3-.3-.6-.5-1-.4l.6.5-1.3-.5.3.3h-1 .3c-.2.4-.5.3-.8.2-.2 0-.5 0-.4.3h-.4v.2l.6.3c-.3 0-.6 0-1-.2l-.8-.3c1 .5 2.2 1 3 2 0 0-.2.2-.2 0-.4 0-.8-.3-1.2-.6-.5-.2-1-.6-1.7-.7-.3 0-.6-.4-1-.3v.2h1c-.2.5.4.5.4.8l-1.5-.7h-.5v.2c-.6 0-1 .3-1.6.4l.2.4c-.6-.3-1-.2-1.2 0h-.6v.4c-.2 0-.4 0-.6-.2 0 .2 0 .3.2.5-.2 0-.4-.2-.5-.3 0 .2 0 .3.2.4-.3 0-.5-.2-.7-.3l.7.8 1 .8h-1c-1-.4-2.8-1-3.2-1v.3h-1l1 .5c-1 0-2-.2-2.8-.4v.2l.3.2.8.3s0 .3.2.4h-.4c-.4 0-.7-.3-1-.3-1 0-1.6-.5-2.4-.4l-1.7-.3c-.8 0-1.6 0-2.4-.2h-.5v-.2s.2 0 .3-.2H45h-.2l-.6 1.2-.3.4-.2-.4h-.2v-1c0-.2.4-.5.5-.8h-.6l-.7-.4-4-1H38c0 .3-.3.5-.5.7l.3-.6c-.3 0-.4.3-.5.6-.2.3-.2.3-.5 0 .6-.2 0-.7.3-1l-.2.2v-.5c-.2 0-.4 0-.6-.2-.2-.5-.8-.5-1.2-.7l-1.5-.4c0-.2 0-.2.3-.3h-.5V40c-.2 0-.3.3-.5.4-.4.3-.5.8-1 1l-.4.7c0-.3 0-.5-.2-.6V41H31h-.2l1.6-2-1.7 1.4v-.5l1-1.4H31l-1 .8c-.2 0-.5.2-.4-.2-.2 0-.3 0-.4.2V39h-.3s.2 0 .2-.3c-.3 0-.4.2-.8.3l1.5-1.4h-.2l-2 1.5c0-.3.7-.6.4-1h-1c-.2 0-.2 0-.3-.2-.2 0-.2-.3-.3-.5-.2.2-.5.2-.5 0 0-.6-.3-1-.2-1.7.2-1 .6-2 1.7-2.6 0 0 .2 0 .3-.2h-1.3c.6-.3 1-.3 1.6 0 .5 0 .8.4 1 1v-.3l.4.7 1.2 2s0 .3.4 0c-.2.5 0 .7.3 1l1.4 1.2 1.4 1h.5c.6.8 1.4 1.2 2.2 1.5 1.3.5 2.6 1.3 4 1.5l2 .5 2 .5h.2l.8.2H47.5c0 .2.2.2.4.2h3l.8-.2H56L61 43s0-.2-.2-.2l1.6-.5 3.6-1.5c1.3-.6 2.5-1.3 3.7-2.2.2 0 .3-.3.5-.6h-.3l-.3.2c-.7.6-1.3 1.3-2.3 1.4H67l-1.4 1-2.8 1c-.3.3-.7.3-1 .4l1-.5h-1c.3 0 .5-.2.8-.3l2.5-1 2.3-1 1-.8c1.5-.7 2.7-1.5 3.4-3l.2-.8v-.4l.3-.4s.2 0 .3.2v-.3c.7-1.2 1-2.4 1.3-3.6.2-1.7 0-3.5-.5-5.2-.2-.8-.4-1.6-.8-2.4-.5-1.2-1-2.4-2-3.5-.5-.8-1-1.4-1.6-2-.5-.7-1-1.4-1.8-2l-.6-.7c-.7-.7-1.5-1.3-2.3-1.8-1.3-1-2.7-1.8-4-2.5-1.5-.6-3-.5-4.5-.2-1 0-1.8.7-2.7 1-.4 0-.8.3-1.3.5zM19.3 58.7h.2c.5-.5 1-.7 1-1.5v-1-.4h-.2c0-.7-.2-1.4-.3-2-.3 0-.5-.2-.7-.3-.2 0-.4-.3-.6-.4h-.3l.2-.3c-.3 0-.5.2-.7.4 0-.3.2-.5.4-.8-.6-.2-.5.5-1 .6l.4-1c-.4.3-.5.7-.6 1-.2 0-.4.2-.5.3l-.2-.4c-.2 0-.2.6-.6.3h-.2-.2v-1c0 .4-.2.7-.3 1-.5 0-.7 0-.6.5 0 .4 0 .8.2 1.2h-.2c0-.2-.3-.5-.5-.8l-.2.4v.6c0-.2-.2-.2-.2-.3-.8 2.4-.2 3.6 1.7 4.8.2-.2.5-.3.6 0 0 0 .2 0 .3.2l-1 .3v-.4l-.8-.5H14c0 .3-.4.6-.5 1-.4.8-.6 1.8-.6 2.8 0 .5 0 1 .3 1.6.2.5.3 1 1 1.2.3.5.8.7 1.2 1l1 .6h1c.2-.2.4 0 .6-.2.2 0 .2 0 .2.2l-1 .5h-.3l-1.6-.7c-.3.7-.5 1.3-.4 2 0 .6 0 1.3.4 1.7.6.5 1 1.3 1.7 1.7l1.3.7c.7.4 1.5.5 2.2.4.4 0 .8 0 1-.3H21c.7-.5 1.5-.7 2-1.4-.5 0-1 .8-1.6.4l2.3-1.2c-.2-.4-.4-.2-.6-.2v-.2s.2 0 .3-.2V70H23h-.5l.6-.6h-.5l-1 .6H21c.7-.5 1.5-.8 2-1.5h-.2c-.7.3-1.4.7-2 1.2-.2 0-.2 0-.2-.2l1-.8c.3-.3.8-.4 1-1l-1.7 1c-.4.4-.7.3-1 .5l.7-.7c.3-.2.7-.3.7-.7l-1.5 1c-.4 0-.7.2-1 0-.2-.2-.4-.4-.6-.4-.3 0-.3-.2-.4-.4h-.3c.3-.4.6-.6 1-.8l.3-.3c.2-.5.3-1 1-1v-.4h-.6c.6-.7 1.5-1 2-2-.8.8-1.5 1.4-2.5 1.6 0 0 0-.3.3-.4h-1c.2 0 .3 0 .5-.2l1.5-1 .8-.7v-.2c-.7.4-1.3 1-2 1l1.6-1c.2-.2.4-.4.2-.6h-.4l-1.2 1h-.4c.4-.5 1-1 1.4-1.2-.6 0-1 .4-1.7.7l1-.8h-1c-.3.3-.5.2-.5 0-.7 0-.7 0-1-.4l1-.6.7-.4c-.5 0-.6 0-.7.4h-.2c-.3 0-.7.3-1-.2-.2 0-.3-.2-.4-.3l1-.3s0-.2.3-.3c0 0 .3 0 .4.2h.3c0-.2-.3-.3-.4-.5h.2c-.3-.2-.5-.2-.7 0l-.6-.3c.5 0 1 0 1.4-.5l1-.3zM76 36.4c-.3-.5-.8-.6-1.3-.8l1.3.8v.4c-.3 0-.6-.3-1-.5l-.8-.4c-.4-.3-.7-.3-1-.4l1.4.7c.5.2 1 .4 1.4 1-.5 0-.7-.4-1-.5-.4 0-.7-.2-1-.4-.4 0-.8-.2-1-.4 0 .5.5.5 1 .6.5.2.6.2.8.6l-1.7-.7 1 .8c-.2 0-.3 0-.5.2h-.3c0 .2.2.3.3.4h.8-1v.3c.5 0 1 .3 1.4.5 0 0 .3 0 .4.2l.8.6 1.2.5-.5.4 1.3 1h-.3v.3l-2-1.5.8 1-1.7-.8.2.4-.8-.6c0 .2 0 .4.2.6l-.7-.7v.2c-.3 0-.4-.3-.6-.4-.3 0-.5-.2-.8-.3.5.4 1 .8 1.2 1.6l-.7-.6c-.3-.2-.6-.3-1 0l1 .6v.2c-.8-.4-1.3-1-2.2-1l1.8 1v.2c-.7 0-1.2-.8-2-1l1 .7c.2.2.5.3.3.5l-1-.6c.3 0 .4.3.7.4h.3c0 .3 0 .5.3.6 0 .2.5.3.7.5l1.3 1c0 .3.3.4.4.6-.2-.7-.8-1-1.3-1.5.4 0 .8.3 1 .5.6.5.8 1.2 1 2l.2.8.7-.7-.4 1h2c.8 0 1.5-.3 2.2-.7.7-.5 1-1.2 1.5-2 .2-.2 0-.8.3-1V42c0-.5-.2-1-.7-1l-.5-1-.8-.6 1 .3c-.2 0-.3-.2-.4-.4l.2-.2-.3-.4c.2 0 .3.2.4.4-.2-.7-1.5-2-2-2-.2 0-.4 0-.6-.2-.3-.2-.4 0-.6 0 0 .2-.4.3-.6.2-.3 0-.5-.4-.8-.6zm.6 13.6c0-.2.2-.3.3-.5h-.2L75 50.7l1.7-1.5c.6-.4 1.3-1 2-1.3v-.2c-.4 0-.7 0-1 .3L75 50c-.2.2-.4.4-.3.6 0 .3.3.7.5 1h.3v.6c0 .2-.2.3-.4.3s0 0-.2-.3c0-.8-.3-1.6-1-2-.5-.4-1.2-.5-1.8-.7h-.5l-1.2.7c-.8.5-1.7 1-2.7 1H67v.2l.4.2c.5.4.7 1 .6 1.5v.5c0 .5.3 1 0 1.4l1.7.2h.3c.2 0 .4 0 .6.2h1l.4.3c0 .3.3.2.5.2 1.4 0 2.7 0 4-.4 1-.3 1.8-1 2.3-2 .8-1.5 1-3.3.3-5 0-.3-.2-.4-.4-.2l-1.3 1-.7.6zm-33 10.8c.3 0 .5.2.7 0 .5 0 1-.4 1.5-.6l3-1.5 1-.5h.5c1-.3 2.2-.8 3-1.4 1-.5 1.7-1.2 2.2-2V54h-.2c0-1-.3-2-1.3-2.4l-1.6-.8h-.7c-1 .4-2 .6-3 .5-.5 0-1-.2-1.6 0-1 0-2.2.4-3.3.8-.2 0-.3 0 0 .3 0 .3.2.5.3.7.2.4.4.5.8.3h.6c-.4.4-1 .5-.8 1 1.3 0 2.5-.2 3.6-.3l-2 .4c-.3 0-.7 0-1 .2-.4 0-1 .3-.8 1 0 0 0 .2-.2.3-.5.5-1 1-1.5 1.3-.7.2-1.2.7-1.8 1l-2 .5-1.7.6.8 1.8.7 1.8h.2l2.5-1.4v-.2l2-1.4c1-.5 2.4-1 3.5-1.3l1-.7c.3 0 .5-.3.7-.4l2-1c1-.3 1.6-.7 2.3-1v-.3h-.2c1-.5 1-1.3 1-2.2.4.8.2 1.8-.6 2.4-1 .6-1.8 1.2-2.8 1.6-1 .3-1.8.8-2.7 1.2-1.3.6-2.5 1-3.8 1.7-.2 0-.3.2-.4.3h-.3c-.2 0-.2.3-.3.4l-1 .6c0 .2.2.3.3.4l1.6-1-.4-.4zm21.2 13.7c0-.3 0-.7.4-.8l-1.8-.5-.3.3c0 .3 0 .6-.2 1-.2.6-.5 1.2-1 1.6-1.7 1.2-3.3.6-4.3-1-.4-.5-.6-1.3-.8-2 0-.6-.2-.7-.7-.6-.5 0-1 0-1.3.2-.7 0-1.4.2-2 .3l-.2.2H52c-.5-.3-1-.7-1.4-.8-.3 0-.5 0-.5.4l.4 2.3c.3 1.2.7 2.2 1.2 3 .3.7.7 1.3 1.2 1.8.6.7 1.5 1.3 2.4 1.7l2.6.6-.7-.4 1.6-.8 1-.6c.4-.3.4-.3.6.2l.6-.5s0 .3-.2.4l1.3-1h.3c.2-.4.5-.8.8-1V78c-.2 0 0-.2 0-.3l.8-1.2c.4-.2.3-.7.5-1 0-.5.2-1 .3-1.3l.2.3c0 .4-.2.8-.3 1 .3 0 .5-.4.8-.7l1.4-1c.2 0 .6 0 .7.2.3.4.4.5 1 .2 0 .5.3.6.7.5H71c.5.2 1-.3 1.6-.3.2 0 .5 0 .7-.2h-.5c.4-.3 1-.3 1.3-.3.2 0 .5 0 .7-.3l1.2-1c.3-.2.8-.5 1-.8 0-.7.3-.8.7-1v-.2c.5-1 1-1.7 1.2-2.5.6-1.4.8-3 1-4.4 0-1.2-.2-2.2-.4-3.2s-.7-2-1.4-2.8l-.5-.7c-.2-.4-.6-.5-1-.7H76l.4 1c-.3-.6-.6-1-1.3-1l-5-.8c-.3 0-.7 0-1-.2-.6 0-1.2-.2-1.8 0-.2.3-.5.4-.8.6.7 0 1.4.3 2.2.3 0 .2.2.2.4.3 1 .4 2 .5 3 1.2l1 1 1 1.8c.7 1.3.7 2.7.5 4-.2 1.2-1 2-1.8 2.4-1 .7-2.4.5-3.6.2-.6 0-1.2-.6-1.8-1-.7-.2-1.5-.5-2.3-.4-.4 0-.6.2-.6.5 0 .7-.2 1.4-.8 2-.2 0-.4.4-.6.6v1h.5c0 .3-.2.8-.5 1.2h-.2V71c0-.2.2-.3.3-.5l-.8 1H62v-.6c-.5 0-.3-.4-.5-.7v.7c0 1 .7 1.5 1.6 2l2.3.5.7.3h-.7c0 .3-.3.5-.5.7zM47.6 66v.7l-.4 1.3v1.6l-.3-.8c-.2.2-.2.4-.2.7-.3-1 .3-2 .3-3l-1 3 1-3.6c-.6.5-.7 1-1.3 3.7 0-1.6.4-3 1.2-4.4-1 1.2-2 2.5-1.8 4.2V69c-.2-1 0-2 .7-2.8v-.4c-1 1.2-1.3 2.7-1.5 4.2.3 0 .6 0 .8.2l2 .6c.3 0 .6.6 1 .2h.3c.2 0 .4.3.6.4h.4l.2.3c0 .3 0 .3.3.4l1.3.3c1.3 0 2.7.3 4-.2.4 0 1 0 1.3-.2h.2l1-.3 2-.7c.5-.2 1-.3 1.3-.6 1-.6 1.7-1.3 2.3-2l.6-1c.3-1.7.3-3.5-.4-5-.3-.8-.7-1.5-1.4-2-.6-.4-1.2-.8-2-1-.8-.2-1.5-.4-2.3 0-.4 0-.6 0-.7.5l.7-.3c0 .6-.6.8-1 1.2h.2l1.6-1.2c0 .4-.3.7-.4 1V60c-.6.5-1 1-1.7 1 0-.3.4-.6.6-1-.5.2-1 .7-1.5.7 0-.2.2-.2.3-.3.6 0 .8-.5 1-.8l-1 .8-1 .4.3-.6c-1 .4-1.5 1.2-2 2l1.6.3c1.3.3 2.6.7 3.7 1.7.6.6 1 1.4 1 2.3l-.3.6v-.3c0-1.3-.6-2.2-1.6-3L56 63c-1-.3-2.2-.6-3.3-.5h-.4c-.5 0-1-.2-1.2.2-.4-.3-1-.2-1.4 0-.6 0-.8.5-1.2 1-.6.6-1 1.4-.8 2.4v-.6h-.2v1.3c0-.2 0-.4.2-.6zm36-7.7H83v-.2c-.7.3-1.2.8-2 .8l1.2-1c-.7.2-1.2.6-1.8.7v-.2l.7-.4h-.7c-.2 0-.4.2-.6 0-.5-.3-1 0-1.5 0 .5 0 .3.7.7 1 .3.2.2.8.4 1.2h.4v1h.4v.7c0 .4.4.8 0 1.3v.6c.3.2 0 .4 0 .6h.3l-.6 1c.6 0 .6 0 .2.5h.4v.3l-.6.5h.4v.5c-.3 0-.5.3-.5.4 0 .3-.2.4-.3.5-.2 0-.3.3-.4.4H80c-.2 0-.2.2-.3.3-.2 0-.4.3-.6.4h.7v.2l-1.2.7h.7c-.4.4-1 .6-1.4.8v.2L79 71l-1.6 1 1.4-.3h.3l-2.3 1h.7c.3-.2.5-.4.8 0l-2.2.7c.7 0 1.4-.3 2-.3v.2l-1 .4h.6l-.4.4.4.2c-.4 0-.7.2-1 .3 0 .2 0 .3-.2.4l-.2.3c-.3-.4-.7 0-1 0h.8l-.5.2.6.8-1.5-.7c0 .2.2.3.3.4l-1.6-.8 1.4 1v.3l-2-1.2 1 1c0 .2-.2.3-.3.4l-.4-.2v.3l-1.3-.6.7 1H72c0 .2.4.5.6.8.3.3.6.4 1 .4h.4v.2h-.6v.5c-1-.4-2-1-3.2-1.4l1.8 1c0 .2-.2.3-.3.3l.6.8v.2c0 .4 0 .7.2 1H72h-.2v2.3c-.2.7-.2 1.4-.6 2-.5 1-1 1.7-2 2.3 0 0-.2 0-.3.3h.7c-.8-.3-1.4.3-2 .7h.3c.7 0 1.3.2 2 0l1.6-.2c1-.2 1.7.2 2.6.6.3.2.6.3 1 0h.2l.5.4h.3l.3-.4c.4 0 .5.6.7 1 0-.2-.2-.3-.3-.4-.3-.3-.6-.2-.8 0l.2.5c.7 0 1.4 0 2-.2 1-.3 1.6-1 1.8-2.2 0-1 .2-2 .3-2.8 0-.5 0-.6-.5-.6h-1.3c-.3 0-.4 0-.5.4 0-.7-.6-.4-1-.7h.4L75 82.3c.2 0 .4 0 .6.2l2 1H78.6c1 .4 2 .4 2.8 0 .4 0 1-.3 1.3-.6 1-.6 1.2-1.7 1-2.8 0-.3-.3-.6-.5-1h-.3.2l-.2.2c-.6 0-1.2-.2-2-.4.3.2.5.3.3.6.3 0 .4 0 .6.2-.5 0-.8-.2-1.2-.3h.4L80 79h.6l-1.7-.6-1.6-1-.7-.6c.2 0 .3 0 .5.2l1.8 1h.8l-.3-.2h.2c1 0 2-.3 2.8-.4.3 0 .4-.2.4-.5h-.7c.3-.2 1 0 1-.7-.5 0-.8.4-1 .4-.4 0-.7.2-1 0H81.2c.7-.4 1.5-.4 2-1-1 .2-2 .7-3 .6l3-.7.3-.3H82l2-.5-.5.6h.4c-.3 0-.4.3-.6.4l.4.2c-.7.3-.5 1-1 1.3h.7l-1 .6c.3.3.6.3 1 0l1-1.6c.4-1 .3-1.8 0-2.6 0-.2-.2-.3-.3-.3-.2 0-.4 0-.7.2.2 0 .2 0 .3.2-.7 0-2 .2-2.7 0h2.5v-.3H81c-1 0-2-.4-2.4-.7.6 0 1.3.2 2 .4h.3l1.4-.5c.6-.3 1.3-.4 2-.6h.4s0 .2-.2.2H84c.5.3.8.4 1 0 1-1 1.2-2.2 1-3.4l-.6-.3h-.6v.2l-1 .2h1l-.7.5c-1 0-2 0-3.2.4l1.4-.4-.6-.3h1c.5 0 1 0 1-.2H83v-.2l1.5-.3c-.7-.3-1.4.2-2-.2h.3c0-.2-.2-.3-.3-.4h.6c.4 0 .7-.3 1-.3.4.2 1 0 1-.3.4-.3.7-.2 1-.3v.2l-.7.3h.2c-.2 0-.4.2-.6.4.2.3.3.2.5 0l.2-.2c.6 0 .8-.2 1-.6l.5-2c.2-1 0-2-.4-3l-.5-1.2c-.6 1-1.6 1-2.3 1.6h.4l1.3-.5H86.3l-1 .6v.2h.4l-1.4.4v-.3h-.5l-.3-.2c0-.3-.3-.2-.5-.2H82l1-.4h-.6c0-.3.2-.4.3-.5l2.3-1c1.2-.3 1-1 .8-1.8 0-.3-.3-.6-.5-1-.4-.5-1-1-1.5-1l-.6-.3c0 .6-.7.8-1.2 1.2l1-.3c0-.2.3-.2.5-.2 0 .2 0 .3-.2.5zm-61 3.4h-.3c0-.5 0-1-.3-1.4v-.7c.2-.4 0-.7 0-1v-3-.2c-.2 0-.3 0-.4.2l-.4.2s0 .2.2.3c0 .5-.4.8 0 1.2l-.2.3c-.2-.2-.2-.5-.3-.7-.2.6-.2 1 .3 1.6l-.4.7v1.6c0 .2 0 .4.2.7.2 0 .3 0 .2.3-.3.2-.2.4 0 .7 0 0 .2.3 0 .4 0 .6.4 1 .5 1.6 0 .6.3 1 .5 1.7 0 .4.2 1 .4 1.3l.3 1c0 .6.4 1 .6 1.5v.5c.2 0 .4 0 .6-.2v.6l-.2.3c.4.4.7 1 1.2 1.4.5.5 1.2.8 1.4 1.6l2 1c.5 0 1-.2 1.2-.5.5-.4 1-.8 1-1.6v-1.5c0-1 0-1.7-.3-2.6l-.7-2.5c-.5-2-.8-3.7-.5-5.6 0-.7.4-1 1-1.3.4-.2.8 0 1 .2.5.2.8.6 1 1 .5 1 1.2 2 1.3 3.2.2.5.3 1 0 1.6v-.2c0-.5 0-1-.2-1.6-.2-.7-.6-1.4-1-2-.2-.7-.5-1.2-1-1.7-.3-.6-.6-.5-1-.2-.5.3-.6.7-.7 1 0 .8 0 1.6.3 2.4 0 .7.4 1.4.5 2l.6 2.6.5 1.7v1.6l.5 1.4c.2 1 .6 2 1.4 2.5l.4.4c.6.5 1.2 1 2 1.2H38c.2 0 .3 0 .4-.2.5-.5 1-1 1.2-1.8.3-1.2.3-2.3-.2-3.4-.5-1-1-2-1-3.3.2-.4 0-1 0-1.5v-1.2l-.8-3h-.2l-.5-.6c-.6-.8-1-1.6-1.8-2-.4-.4-.8-.6-1.2-.7l-2.4-.7c-.5 0-1 0-1.4-.4 0-.2-.4-.2-.6-.3 0 0-.3 0-.4-.2-.3 0-.5 0-.8-.2-.3 0-1 0-1.2.2l-.8 1.5c0 .4 0 1-.2 1.5 0 .4-.2.8 0 1.3v1.5l.3.6.2.2c0 .5.3 1 .5 1.6 0 .3 0 .6.2.8-.2 0-.2-.2-.3-.4l.2.8v1c0 .2 0 .5-.3.4 0-.5 0-.8-.2-1.2 0-.4-.3-1-.4-1.4l-1-2.4V63.3l-.4-2.5c0-.2 0-.5-.3-.7-.2-.2 0-.4 0-.7v-.6c0-.6-.2-1-.3-1.6 0-.3 0-.6-.2-1l-.4-.5c-.2-.2-.4-.4-.6-.2-.3.4-.7.8-.8 1.3v2.6c0 .4 0 .7.2 1 0 0 0 .3.2.4v1zm-2-20.7l.5-1.6c0 .2-.2.3-.3.4V41c0 .6 0 1 .3 1.6.2.3 0 .7.2 1H21l-.7-1h.2l-.6-2c-.5.3-.6.6-.4 1l.7 1.4-1-1.2c0 .3 0 .6.2.8l1.8 1.7s.2 0 .3.2V44h.3v.3c-.3.2-.3.3 0 .5l1 .6h-.2c-1-.7-2.2-1.2-3.4-1.5v.2h.3c0 1 .6 1.5 1.3 2l.8.4c1 .8 2.2 1.5 3.5 2 .4 0 .8.2 1.2.4l2.4 1 .6.2 2 .8 1.7.6 1.5.8 1 1c.4.3.6.7.7 1 .2.6 0 1-.5 1.3h-.7l-.4-.2-1-.3h.7c.4 0 .8 0 1.2-.2v-.3c0-.7-.6-1.3-1.2-1.7l-2-1c-.5 0-1-.3-1.5-.6l-1.5-.4-3-1-1-.6c-.7-.3-1.5-.3-2.2-.8h-.2c-.8-.2-1.4-.7-2-1.2L19.8 46l-1.5-1.5c-.2-.2-.4-.4-.6-.4-.2 0-.5.4-.6.6 0 .3-.2.7-.4 1 0-.3 0-.6.2-1-.2 0-.3 0-.4.2v.5c-.2 0-.2 0-.3-.2 0 .5 0 1 .2 1.2v-.5c.2 0 .3.2.3.3v.8c.3.7 1 1 1.3 2l.6.5v.3l1 1s.2 0 .3.2c-.8-.4-1.6-1-2.3-1.6v.2c0 .2 0 .4.3.6l-.4.2v.2c.2 0 .3 0 .3.2 0 .3.3.5.7.7h-.5l.3.3c.4 0 .5 0 .6.3.4 0 .7.4 1.2.4.2 0 .4.2.5.5l.5.3 2.2 1 1 .5h.3c.3 0 .5 0 .8.2l1.7 1h.8l.5.5 1.3.6H29v.3c.7 0 1.3.3 2 .4l1 .3c.6.2 1.3.6 2 .5h.4c.8.3 1.6.3 2.4.3 1.3 0 2.6-.4 3.8-1 1-.3 2.2-.8 2.8-2 .2-.4.4-.8.4-1.3 0-.8-.4-1.7-1-2.3-.5-.6-1-1.2-2-1-.2-.3-.5-.4-.8-.4h-.6c-1-.3-2-1-3-1.6-.3-.2-.7-.6-1-.6-1-.2-1.6-.2-2.4-.2l-.2-.2s-.2 0-.3-.2v.2h-.2l-1-1c-.3-.2-.8-.4-1-.8l-.4-.2c-1.3 0-2.5-.5-3.5-1.3l-2.7-2.3c-.6-.7-1-1.6-1.2-2.6 0-.3-.4-.6-.7-.7-.6 0-.7.3-.8.5l-.5 1.2zm11.7 33.5H32c-.3 1-1 1-1.7 1.2l-.6.3c-.2 0-.4.2-.6 0-.3 0-.5.3-.7.5 0 .2-.3.3-.3.4-.3.3-1 .6-.7 1.2 0 0 0 .2-.2.2-.3 0-.5.4-.8.6 0 0-.2 0-.3.2-.3-1-.3-1 0-1.3-.3-.5-.2-.8.2-1l1.5-1c.2 0 .4-.3.6-.5-.6 0-1 .4-1.7.7 0-.2 0-.3.2-.5l-.7.3v-1l-.8.7-.7 1.2c-1 1.5-.7 3 .5 4.2.6.7 1.3 1.2 2 1.7l1.5 1c1.4.4 3 1 4.4 1.2l3 .5c1 .2 2 0 3 0l4.4.3H48c1.2-.2 2.5-.2 3.8-.3l4.4-.6c1.3 0 2.5-.2 3.8-.4.4 0 .8 0 1-.2l1-.2c.7 0 1.3 0 2 .2.3 0 .4.5.2.8 0-.6 0-.7-.6-.8h-2c-.7.4-1.6.5-2.5.7-1.3.3-2.8.4-4.2.6-2.6.2-5 .7-7.7.7h-3c-1.5 0-3.2 0-4.8-.2l-1.3.2c-1 0-1.7-.2-2.6-.3H35v.5l.3.6.3.6c.2.5.5.8 1 1l1.7.7 3 1c.6.3 1.4.4 2 .6.7 0 1.5 0 2.2.2h5.3c2.7 0 5.4-.2 8-.5l3.5-.7c.3 0 .7 0 1-.3l2-.8 1-.8c.2 0 .3-.2.3-.3l.8-.3-.2-.2c.4 0 .8 0 1-.3.6-.2 1-.5 1.3-.8.6-.7 1.3-1.2 1.6-2.2.3-.6.6-1.3.5-2-.2-1-.4-2-1-2.7l-.6-1-1.4-1.3c-.2 0-.6-.4-.8-.3-.4 0-.5-.2-.6-.4-.4-.3-1-.5-1.5-.3-.7.2-1 .7-1 1.5 0 1.6-1.4 2.5-2.4 3.5-.6 0-1 .4-1.5.6-1.6.6-3.4.5-5 0-1-.2-2-.8-3-1.7l-.4-.4v.6c-.2.5-.3 1-.6 1.4-.6 1-1.7 1.4-2.7 1.7-1 .2-1.8 0-2.7-.4l-1-.7c0 .3-.3.6-.5.8-.8.8-1.7 1-2.8 1-1.4-.3-2.4-1.2-3.3-2.2l-.7-1-.3-.2H36c-.8 0-1.8-.3-2.6-.7-1-.5-2.3-1-2.2-2.5 0-.4.5-1.2 1-1.4 0 .3-.2.4-.3.6-.6.6-1 1.4 0 2 .8.8 1.8 1.2 2.8 1.4l2.4.4h.4c0-.5-.2-1-.4-1.3-.2-.6-.3-1.4-1-1.8.2 0 .3 0 .3-.2s-.2-.5-.4-.5c-.7-.3-1.3-.8-2-1.4l-1-.8v.5c-.3-.3-.5.5-.7 0v-.8zm15.5 8.8h.8l1-.5c.5 0 1-.3 1.3-.8l.8-2c.3-.3 0-.7-.2-1l-.7-1.5-1-2.8c0-.7 0-1.4-.2-2.2-.2.4-.3.2-.5 0s-.4-.5-.7-.6c-.5-.5-1-1-1.5-1-.5-.2-1.2-.2-1.8-.2-.4 0-.8 0-1 .2h.3v.2c-.8 0-1 .8-1 1.4-.3 1-.4 2 0 3 0 .6.2 1 .4 1.4 0 .8.4 1.6.6 2.4v.4c-.2 0-.4 0-.5-.2 0-.6-.3-1.2-.6-1.8 0-.4-.3-.7-.5-1l-.4-.4c0-.6-.2-1-.3-1.6v-2c0-1.2-.2-2.2 0-3.3 0-.7.5-1.5.7-2.2.2-.4.2-.8.4-1l1.7-2h.2l2.3-1.2.3-.2c-.2-.4.2-.3.3-.3.5 0 1 0 1.2-.6 0-.2.3-.4.4-.3.3 0 .4-.2.6-.3 0 0 .2 0 .2.2l1-.7v-.2l.3-.3 3-.8 4.3-1.3s0-.2.2-.2h.3c.2 0 .4 0 .6-.2l3-1 1-.4 1.3-.5c.5-.2 1-.4 1.6-1 .5-.7.8-1.7.5-2.6-.2-.4-.4-.8-.8-1-.3 0-.6 0-1-.2-.3 0-.7-.3-1-.4 0 0 0 .2.2.3h-1.3l.2-.3c-1 .3-2 1-2.8 1.4h1l.6-.3-.6.6H61l-1.6.2c.2 0 .3 0 .4-.2h-1-.2s0 .2-.2.2c-.8.2-1.5.7-2 1.3-.2 0-.2 0-.3.2l.5-.6c-.5.2-.7.6-.7 1v.3c-.2.4-.5 1-.8 1.2-1.3 1.3-3 2-4.7 2.6-1.2.4-2.5.8-3.6 1.5L44 61.8c-.6.4-1.3.7-1.8 1.2-1 .5-2 1.3-2.7 2-.4.4-.8.8-.8 1.4 0 1.4.2 2.8.7 4 0 .4.2.6.4.8.3.3.4.6.5 1v2c.2.8 0 1.6-.4 2.4l-1 1.2-.6.7.2-.5-1.3 1 .5 1.2 1.4 2c.6.8 1.2 1.3 2 1.6.6.2 1 .4 1.6.3.6 0 1-.5 1.6-1 .3-.2.7-.5.8-1 0 0 0-.2.2-.2l.2.2c.3 1 1.4 1.5 2.5 1l-.2-.2 1.4-.7v.5l1-.6v.2l-1.6.7c-.3 0-.5 0-.8.3zm13-24.3l.8.5 1.5 1.2c.8.7 1.2 1.6 1.4 2.6 0 .5.2 1 .3 1.3h.3s0 .2.2.3c0-.3 0-.4.2-.7 0 .3.3.5.3.7 0 .3.2.6 0 .7l2 1c1 .7 2.3.7 3.4.7h1c1-.6 1.8-1.3 2-2.5.3-1 .3-2 0-3l-.8-2c-.4-1-1.3-1.7-2.3-2.3l-2.6-1-.4.3v-.3c-.4 0-.8 0-1.3-.2v.2h.2c-.4 0-.8 0-1 .2-.4 0-.7.2-1 .4l.8-.8c-.7 0-1.3.5-2 .7l3.2 1.5c.7.4 1.4 1 1.7 1.7.3.6.3 1 0 1.3-.4.3-.8.3-1.2 0h.5c.5 0 1-.8.5-1.2-.5-.8-1-1.4-2-1.8-.3 0-.6-.3-1-.5l-1.6-.8c-.6-.2-1 0-1.6.2-.6.3-1 .6-1.6 1.3zm23-8.3c-.4-.6-.8-1.3-1.3-1.8-.4-.7-1-1-1.8-1-.3 0-.4 0-.4.3V51c0 .6-.3 1.4-.4 2l-.4 1-.3 1.5V55l-.6 1c.7 0 .7-.7 1-1l-.3 1c.3 0 .4-.3.5-.5v.3l.2-.4v.5l-.5.3c-.4-.5-.6.2-.8.3-.2 0-.2-.5-.4-.2-.2 0-.3.4-.4.6 0 .2 0 .4.4.4h1.6c1.3 0 2.3-.7 3.3-1.5.7-.6 1.2-1.4 1.7-2 .6-1 1.2-1.8 1.5-2.8.4-1.3.7-2.6.6-4 0-.5-.3-1-.5-1.6l-.8-1.4c-.6-.8-1.3-1.4-2.3-1.7h-.4l-.8.8c-.4.6-.8 1.2-1 2-.5.6-.7 1.3-.6 2v.4c.3 0 .6 0 .7.2.7.3 1.4.8 1.7 1.5.2.4.6.7.4 1.2zM44.5 97l.4-.3c.6-.4 1.3-.8 2-1 .5-.4 1-.7 1.7-.8 1.3-.5 2.6-1 4-1.2.5-.2 1-.6 1.8-.5.3 0 .6 0 1-.2-.6-.5-1.4-.4-2-1h-1.3c-1.2-.2-2.4 0-3.6-.2H45.2s.2 0 .3-.2h-.7c-.5 0-1 .3-1.5.5l-1.7 1c-.2.2-.6.3-.7.5l-.7.6-1.8 1.5-.7 1c0 .3-.3.5-.5.8.2 0 .3 0 .4-.2 0 .3 0 .4-.2.6 1 0 1.8-.2 2.7-.3 1 0 2 0 3 .4.5.2 1 .4 1.3 0l.4-.3.7-.7c-.4 0-.8.3-1.2.4zM57 72.7c.2 1 .4 2 1 3 1 1 2.4 1 3.2.4 1-.6 1.4-1.8 2-3-1-.4-1.8-.7-2-2-.7.5-1.3.8-2 1-.7.3-1.5.4-2.3.6zM22 74.3c-.3 0-.5 0-.8.2-.2 0-.5 0-.7.2 0-.2.3-.4.5-.5h-.8l-1.2-.4s-.2 0-.3.2c-.3.5-.6 1-.5 1.7 0 .6.4 1 .8 1.6.4.4.6 1 1.3.6h.2c.6.2 1.3.2 2 0 .5 0 .8-.2 1-.7l1-2c0-.2-.2-.3-.3-.4 0-.3.3-.4.5-.6.2 0 .2-.2 0-.4-.5 0-.7.6-1.3.5l1-.7h-.2c-.3 0-.6.2-.8.4-.2.2-.4.3-.7.2-.2-.2-.4 0-.6 0-.2.2-.5.5-1 .3l.8-.4zM64.4 76c-.3.6-.6 1-.8 1.7L63 79l-1 1c-1 .6-1.6 1.2-2.5 1.4-.4 0-.8.3-1.2.5.5 0 1 0 1.4-.2 1.2-.2 2.2-.7 3-1.5.8-.6 1.4-1.2 1.5-2 0-.8 0-1.5.2-2.2zm-18 20.3l1-.3c-1 .5-2 1.4-2.8 2.2h.4c0-.2.2-.3.3-.4l3-1.6h.2c-.2-.3 0-.3 0-.4.3 0 .6 0 .8-.2l2.5-.7 1.7-.6c-2.4 0-6.3 1-7.2 2zm31-48.8c-.6.2-1.2.6-2 .8-.5.2-.8.8-1.3 1.2v.4l.4-.2 1.3-1 1.8-1.3zm-30.7 3.7V51c-1.2.2-2.2.6-3.3 1 .6-.6 1.5-.6 2.2-1v-.3l-2.6 1c.2.5.3.5.7.3l2.4-.6.7-.2zm-3 19c.3 0 .5 0 .5-.2 0-.8 0-1.6.2-2.3l.2-1c-.6 1-1 2.3-1 3.5zM44 67c-.6.5-1 3-.7 3.4L44 67zm1.7-1.4h-.2l-.7 1-.5 2.4v.7c.3-1.4.5-3 1.4-4zM73 48.8l3.4-1.7c-.8 0-3.2 1.3-3.4 1.8zm-52.5-9H20V40.4l.4 1.3v-2zM20 65.6h.2c.2 0 .5-.3.7-.5.5-.4.5-.4.4-.6l-1.2.8s0 .3-.2.4zm18.6-.2l1.4-1.6c-.5.5-1.4.7-1.4 1.6zM80 45.8c-.8.2-1 1-.6 1.4l.5-1.4zM17 50c-.4-.7-.8-1.3-1-2-.2.7.5 2 1 2zm27.2 49.4c-1 0-2 0-3 .2 1 0 2 .3 3-.2zm25-58.7l1 .7.8.4v-.2l-1.7-1zm-53 12l.3-.5.4-.8v-.2H17c0 .4-.3.7-.4 1v.4zM21 66.3h-.3c-.4 0-.8.3-1.2.5v.2l1.4-.8zm53.3-18c-.4.2-1 .2-1 .7.2.4.4.3 1-.5zM24 71.5l-1.5 1c.7 0 1.7-.7 1.6-1zM27 56.8c-.7 0-1 .3-1 .8l1-.8zm47-9.2h.2c.4 0 1-.4 1.5-.6-.8 0-1 .4-1.6.6zm-57-5l.3.3c.6 0 1-.4.7-1l-.8.7zm50 8l-1.7-.2c.7.3 1.2.2 1.8 0zM47.4 64c.4-.2.7-.6 1-1-.7.3-1 .7-1 1zM80 47.7c.4 0 .2-.5.4-.7v-.2l-.5.8zm-.4-.2c.2-.4.6-.7.6-1V46l-.6 1.2zM82 78.7c.2.2.5.2.7.3v-.2c-.2-.3-.5 0-.8 0zm-61.7-19c-.4 0-.7 0-1 .3.4 0 .7 0 1-.3zm-1-16.8l1 1h.2l-1-1zm54.8 32.4h.2l-.8-.7v.2l.7.4zm-25.6-58h.2V17c-.4 0-.4.3-.2.5zM25.8 61.8c-.3.4 0 .7 0 1v-1zm20.4 3.6l.8-.7-.8.7zM56.6 53c-.4 0-.7.2-.8.6l.8-.6zm-10-31.8c.8 0 1 0 1.2-.4-.4 0-.7.3-1 .4zm39.3 40h-.2c-.3 0-.5 0-.8.3.3 0 .6 0 1-.2zM56 53c-.4 0-.5 0-.3.3l.4-.4zm24.6-6V47zm2-4.2c-.3 0-.4.3-.4.7l.5-.7zM26.3 56.2l-.4.6c.3 0 .4 0 .5-.2v-.4zm18.3 9.5h.2c.2 0 .3-.4.5-.7l-.7.7zM16 47v-1s-.2 0-.2.2v.8zm5 18.5c.3 0 .5-.2.7-.4l-.7.5zm-1.2-6.2c-.3 0-.5 0-.8.3.3 0 .6-.2.8-.3zm2 8.4c0-.2.3-.4.5-.5V67l-.6.7z"/><path d="M44.3 11.2v.3H44l-.2-.4.3-.4-.3.3-.3-.3-.8-2V8l.8 2.5h.2c0-.2 0-.4.2-.7h-.4c0-.4 0-.8-.2-1-.4-.6 0-1.2 0-1.8-.3 0-.4 0-.6.2V7c.5-.5.5-1.2.6-2v-.7c0-.2.4-.5.6-.7v-.2c.2-.6.6-1.2 1-1.6.7-.5 1.4-1.3 2.4-1.2.8 0 1.4.5 1.8 1l.7 1.2s0 .3-.2.5c0-1-.6-1.6-1.3-2.2-.6-.3-1.3-.2-2 0-.3.2-.5.6-.8 1 0 0-.3 0-.5.2v.4c-.4.4-.6.8-.8 1.2h.2l-.8 1.7.5-.3c0 .5-.7 1-.6 1.6l.4-.2c-.6.5-.4 1.2-.3 1.8l.8-1c-.2.6-.7 1-.7 1.8.4-.4.8-.6 1-1 0 .6-.7 1-.8 1.6l.6-.6c-.2.5-.4.8-.3 1.2l.7-.5-.4 1.2z"/><path d="M49.5 3.3l-.6.2c-1 .2-1.6 1.2-1.7 2-.2 1.5.4 2.7 1 4 0 .2.3.4.3.8l.4.4v-.2c.3.8 1 1.2 1.8 1 .3-.2.6-.2 1-.2-.4.3-.7.7-1.2.5v.5l-1-.6c-.6-.3-1-1-1.4-1.5-.2-.4-.6-.7-.5-1.3 0-.2 0-.3-.2-.4v-.2c-.5-1-.7-2-.5-3 .3-1.2 1.2-2.2 2.5-2zM41 92.8v-.3h.8c-.2 0-.4.3-.5.4l-.3-.2z"/><path fill="#FFF" d="M49.5 3.3c-1.3 0-2.2 1-2.5 2-.2 1 0 2.2.4 3v.3c.2 0 .4.2.3.3 0 .5.3.8.5 1.2.4.6.8 1.2 1.4 1.5l1 .6v-.5c.5.2.8-.2 1-.5l1.5-.6c1-.2 1.8-.8 2.8-1 1.5-.2 3-.3 4.4.3 1.4.7 2.8 1.5 4 2.5 1 .6 1.6 1.2 2.4 1.8.2 0 .4.4.6.6l2 2 1.5 2c1 1 1.5 2.2 2 3.4l.8 2.4c.5 1.7.6 3.5.4 5.3-.3 1.3-.7 2.5-1.3 3.7v.3l-.4-.2-.2.5v.3l-.3 1c-.7 1.3-2 2-3.3 2.8l-1 .7c-1 .5-1.7 1-2.5 1.3l-2.6 1c-.3 0-.5 0-.8.3l-1.3.3c.5 0 1-.3 1.3-.4.3 0 .6 0 1-.2l-1 .6c.3 0 .6 0 1-.3l2.8-1.2 1.4-.8h.3c1-.2 1.7-1 2.4-1.4l.3-.2h.3l-.5.6c-1.2 1-2.4 1.6-3.7 2.2l-3.6 1.6-1.6.3c0 .2.2.2.3.2h-.2l-4.8.7h-4.2c-.3 0-.5.3-.7.3h-3c-.2 0-.3 0-.4-.2h-1-.2-.3c-.3 0-.5 0-.8-.2H45l-2-.6c-.5 0-1-.3-1.7-.4-1.5-.3-2.8-1-4-1.7-1-.4-1.7-.8-2.2-1.5.3 0 .5.2.7.3l1 .7h.2c-1.7-1-3-2.2-4-3.5l1 .8c.7.4 1.2 1 1.8 1.3l.5.5c.5.7 1.2 1 2 1.3l4.2 1.5h.8l.4.3 4.4.7 5.7.3h.5v-.3h-3.5l1-.2h-2.3c-2 0-3.8-.3-5.7-1H43l-.6-.2c-.5 0-1-.5-1.5-.5 0-.4-.5-.3-.7-.4l-1.6-1c-.6-.2-1.3-.4-2-.8l-2.2-1.5-1.6-1.4-.5-.5c2 1.5 4 2.7 6.2 3.6l-1-.5c-.5-.5-1.2-.8-2-1.2l-3-2.3-1.6-1.6c0-.2 0-.3-.3-.3v.4l.8 1c0 .2 0 .4.2.6-.7-1-1.5-1.7-2.2-2.5v.2c0 .3.2.6.4 1l1.3 2c-.2.3-.3 0-.4 0-.5-.7-1-1.3-1.3-2l-.5-.7v.2c-.2-.5-.4-.8-1-1-.5-.2-1-.2-1.5 0H28c0 .2-.2.3-.3.3-1 .6-1.5 1.5-1.7 2.6l.2 1.6c0 .3.3.3.5 0 0 .3 0 .5.2.6v.2h1.2c.3.4-.4.7-.4 1l2-1.5c-.3.6-1 1-1.4 1.5.3 0 .5-.2.8-.3v.5l.3-.3v.4l.3-.2c0 .4.2.3.3.2l1.2-.7s.3 0 .4-.2l-1 1.4h.2s0 .2-.2.3l1.7-1.3-1.5 2h.4v.4s0 .3.2.5c0-.3.2-.6.5-.7.3-.3.4-.8.8-1 0-.2.3-.4.5-.5v.3h.4c0 .2-.2.2-.3.3l1.6.5c.4.2 1 .2 1.2.8h.5v.6c.2 0 .3-.2.4-.3-.2.3.4.8-.2 1 .3.3.3.3.4 0l.4-.7c0 .3 0 .5-.2.7.3 0 .5-.3.7-.5h.6c1.4.2 2.7.6 4 1 .3 0 .6 0 1 .3h-.2.7c0 .3-.3.6-.4 1v.8h.2v.4l.4-.4.6-1 .2-.2h1.7s-.2 0-.2.2l.6.2c1 0 1.7 0 2.5.2.6 0 1.2.4 1.7.3.8 0 1.5.4 2.3.4.4 0 .7.2 1 .3h.5l-.3-.3-.7-.3-.4-.2c1 0 2 .3 3 .4l-1-.6h1V45l3 1h1l-1-.7c-.2 0-.4-.4-.7-.7l.6.3s0-.2-.2-.3c.2 0 .4 0 .6.2 0-.2-.2-.3-.3-.5l.7.2V44h.6c.2-.4.6-.5 1.2-.2v-.4c.4 0 1-.3 1.4-.5v-.2c.3 0 .4-.2.6 0 .5 0 1 .3 1.5.6 0-.3-.6-.2-.4-.7.7 0 1.2.5 1.7.8l1.2.6c0 .2 0 0 .2 0-.8-1-2-1.5-3-2 .3 0 .6.2.8.3l1 .2-.6-.3h.5c0-.5.2-.4.5-.4s.5.2.8 0c0 0-.2 0-.3-.2h1l-.3-.2c.4 0 1 .2 1.3.4l-.6-.5c.4 0 .7 0 1 .4l1.4.8c.3 0 .6 0 1 .3L74 44c.7 1 .3 1.7-.5 2.5-.3.3-.6.5-1 .6-.4.2-.6.2-.8-.2 0-.3-.3-.5-.4-.7 0 0 0 .2-.2.2l.6.8c-.2 0-.3 0-.4-.2-.3-.7-.8-1.2-1.2-1.8-.2-.2-.5-.3-.8 0 .4.2.8.5 1 .8L71 47l-.4.5v.4c.3.2 0 .7-.2 1-.8 1-1.7 1-2.7 1.2-1.3.2-2.5 0-3.8-.3 0 0-.2 0-.3-.2-.4-.2-.7-.2-1 0 0 .2.3.4.4.5-.6.7-1.6 1-2.6 1.3-1.6.3-3.2 0-4.7-.4-.4 0-.7-.4-1-.6 0 0 0-.2-.2-.3h-.3c0 .3.2.4.3.6l-.7-.3-1.6-.7c-.2 0-.4-.2-.5-.3-.5-.2-1-.4-1.7-.2l1 .8-.7.2c-.6 0-1.2.2-1.8 0l-1.4-.3s-.3 0-.5-.2l-.7-.5c-.3 0-.6-.3-1-.5-.2 0-.5-.3-.8-.5h-.2c-.3-.2-.6-.2-1-.2l1 .7c.2.3 0 .7-.3.8l-.8.2c-1.4 0-2.7 0-4-.5-.7-.3-1.4-.5-2-1-.3-.3-.5-.5-1-.7-.2 0-.3-.5-.6-.8 0 .5.3.7.5 1l-.4.2c-.4 0-1 0-1.4-.2l-1.5-.7c-.6-.3-.8-1-1-1.4 0-.4-.2-.6-.4-.7-.3 0-.6-.3-.6-.7h-.2v.5c0 .3 0 .4-.3.4-1.3.2-2.3-.4-3-1.3-.4 0-.6-.5-.8-.8l-.4-.3v.4c-.6-.6-1.2-1.2-1.5-2 0-.4-.2-1-.4-1.4l-.7-1-.4-.5-.3-.4c-1-.7-1.5-1.7-1.8-2.8-.2-.7-.6-1.3-.6-2 0-.5 0-1 .3-1.6V31c.5-1 1-1.8 1.8-2.4l2-1.7c.5-.5 1.2-1 1.8-1.2l2-1c.5-.2 1-.4 1.5-.2.3-.2.6-.2 1-.3l1.4-1c.7-.5 1.5-.8 2.3-1l1-.4c1-.3 1.6-.7 2.4-.8h7.5c1 0 1.8 0 2.7.2h.6c0-.3.2-.4.4-.6h.2V20c.2 0 .3-.2.4-.4v.2h.2l.2-.7v-1l-.4-1c0-.2-.3-.4-.4-.6-.2-.2-.4-.4-.2-.8H48c.2 0 .2-.3.4-.5l-.6.5v-1c0 .3-.2.4-.3.7-.2-.5 0-.8.2-1l.6-1c-.5.4-1 1-1.3 1.5-.2-.4.2-.7.2-1l-.5.6h-.2L47 13l-.7.8c-.2-.4.3-.7.2-1l-.5.6c-.4-.5.2-.7.2-1 0 0-.3 0-.5.2l.6-1-.7.6v-.8h-.3v-.2H45V11c0-.3.2-.5.3-.8l-.6.7s-.3 0-.4.2c0-.4.2-1 .4-1.3-.2 0-.4.2-.6.4 0-.4.2-.7.4-1.2l-.6.6c0-.7.7-1 1-1.5-.4.3-.8.5-1.2 1 0-1 .5-1.3.8-1.8l-1 1c0-.7-.2-1.4.5-1.8H43.3c0-.6.4-1 .7-1.5 0 0-.2 0-.4.3l.8-1.6h-.2v-.2l.7-1.2v-.4s.3 0 .5-.2c.2-.4.4-.8.8-1 .6-.2 1.3-.3 2 0 .6.7 1.2 1.3 1.2 2.3zm19 27c.4 0 .6-.2.7-.6.2.2.4.4 0 .7l-1 1-1 1-1.4 1s.2.2.3 0c.4 0 .8-.4 1-.6l.6-.5.3-.3.4-.4c.8-1 1.6-1.6 2-2.7l.4-.7h-.4l.2-.5-.5.5-.4.7c0-.4 0-.7.3-1v-.4l.8-1c.2 0 .2.2.4.4l-.2-1s-.3 0-.3-.2v-.5c0-.3 0-.6.2-.8h-.2l-.2.4s-.2.2-.4 0l.7-2v-.5c-.2.7-.5 1.4-1 2 0-.2 0-.3-.2-.5-.5 1-1 1.6-1.6 2.3-.4-.2-.4-.4-.2-.7 0-.2 0-.4.2-.6h.2l1-2-.3.3-.8 1.4v.3l-.5.5s-.2.2-.3 0c0 0-.2 0-.3-.2 0-.2.2-.3.3-.5 0-.2.3-.3.5-.5 0 0 0-.2.2-.2l.2-.4c0-.2.2-.3.3-.5l-.6.6-.5.6c-.2.2-.3.5-.6.6-.3 0-.3.4-.5.6 0 .2-.3.3-.3.5l.8-.5h.2v.7l-1.3 1.3-1 .8h.2l2.4-2v.6l-1.2 1-.8 1c1-.6 1.7-1.4 2.5-2h.2s0 .3-.2.4l-1 1.2-1.4 1.2v.3H65l-.7.7v.2l1.2-1L67 29l1-1 .4-.2s.2.3 0 .4l-.8 1-.5.8-.4.3-1.6 1.4-.8.7c.3 0 .7-.2 1-.4l1-1h.5v.4h.4c0 .2.2.2.2.2 0 .3 0 .5-.2.7l.7-.6V31c.5 0 .7-.2.8-.6zm-13-19c-.5.2-.7.7-1 1h.2l.7-1c.3 0 .7-.3 1-.7l-.8.5c0 .2 0 .3-.2.4zm13 21.2h-.3c-.8.3-1.3 1-2 1.4.3 0 .6-.3 1-.4l-1.2 1 1.3-.7v.2l-1.7 1-2.5 1.4-1.5.7-1.4.7-1 .4s.2.2.3 0c.8-.2 1.8-.4 2.6-1 1-.4 2-1 3-1.6 1-.6 2-1 3-1.8l1.7-1.5c.3-.3.8-.5.5-1v-.2-.8l-.6.8-1 1v.2zM67 22c0-.2.3-.4.4-.5l.8-1.3V20L67 21c0 .2 0 .5-.2.7h-.2c-.3.5-.5 1-1 1.3v.2h.2l.8-1c0-.2 0-.4.2-.6zM67 36c-.2 0-.3 0-.4.2l-1.3.5-2.2 1c-.2 0-.5 0-.7.2l-1.5.5-2.3.8h.4l3-1c.4 0 .7-.3 1-.5.3 0 .6 0 1-.2l2.8-1.4v-.2c.5 0 .8-.3 1-.5h.3v-.2l-1 .7zm-6.5 4.2l1.2-.3v.4l.3-.3h.3c.4-.3 1-.4 1.4-.5.2 0 .4 0 .3-.4 0 0-.3 0-.4.2l-2 .6-1 .6H60c-.4 0-.7.2-1 .3l1.3-.3zm2.7-5l.4-.3c.3 0 .7-.3 1-.5l.2-.4-2.5 1.7-2.5 1v.4l-1.4.6c.6 0 1-.3 1.5-.5h.2c.6 0 1-.7 2-.4l1.8-1c.3 0 .5-.2.7-.3l1-.5c.2 0 .2-.2.2-.2-.5 0-1 .3-1.2.4l.8-.7-2.4 1zM61.7 39l-1.6.5c-.5.2-1 .4-1.7.5.5 0 1 0 1.5-.2 1.5-.2 3-.7 4.4-1.2l1.4-.7 1.3-.7 1-.8 2-1.6c.2-.4.3-.8.6-1v-.2h-.3v-.2.2L69 35c.5-.2.8-.6 1.2-1-.4.4-.6 1-1 1.3l-2.7 2c-1.2.6-2.4 1-3.7 1.5l-1 .4 2-1c-.8.2-1.4.5-2 1zm-24.5 9c0-.4 0-.8-.5-1 0-.2 0-.4-.2-.5 0-.3 0-.6-.3-1l-.5-.5c-.3 0-.2.2-.3.4H35c0 .5.2 1 .6 1.2v-.2s0 .3.2.4c0 .3.2.6.6.7 0 0 .3 0 .4.2.2 0 .3.2.4.4zm33.6-12.4v-.2c-.2 0-.3 0-.4.2-.4.5-1 .8-1.5 1L66.6 38c-.4 0-.8.2-1.2.4l-.3.4h.5l1.5-.8c.3 0 .5-.2.8-.4l1.8-1 1-1zM51.2 13.4c.4 0 .7-.4 1-.6.3 0 .4-.2.6-.3 0 0 .2 0 .3-.2.4-.3.8-.6.8-1h-.3c-.2.3-.5.6-.7.6-.5-.2-.5 0-.7.3 0 .2-.3.3-.6.5 0 .2 0 .4-.2.6zm14 6.5h.2s.2 0 .2-.2c.4-.7.4-1.5 1-2v-.4H66l-.5 1.4-.6 1zm.2 1h.2c.7-.8 1.2-1.7 1.5-2.8-.5 1-1 2-1.6 2.8zM37 45.5v.4c0 .7.6 1.4 1 2 0 .2.2.2.3.2L37 45.5zM66 17c-.4 0-.4 0-.5.3l-.6 1.4c-.2 0-.2.2-.2.3h.3c.2 0 .3-.2.3-.2L66 17zM40 49l-2-2.2c.2 1 1.4 2.2 2 2.2zm19-35.4l2.2-2c-.6 0-2.3 1.5-2.3 2zm-.3-2.7c-1 .4-1.7 1.2-2.4 2 1-.6 1.6-1.3 2.4-2zm8.8 8.7l-1 1.6c-.2 0-.3.4-.4.6.4 0 .6-.2.7-.4l.3-.5c0-.3.2-.5.3-.7 0-.2.4-.3.2-.6zM58 13h.2l1.2-1c.3-.2.7-.5 1-1l-.7.3-.8 1c-.4 0-.6.4-1 .6zM25.6 40.7c-.4.8 0 1.8.6 2 0-.7-.3-1.3-.5-2zM59.7 11c-1 .2-1.5 1-2.2 1.6v.2l2.2-1.8zm-35 30.6v-1c0-.3 0-.6-.3-.7 0 0 0-.2-.2-.2v.7l.5 1zm40.5-25.2v-.2c-.2 0-.3.2-.4.3l-.4.7c0 .3-.3.6-.4 1 .8-.5.8-1.3 1.2-1.8zm3.2 5l-1.3 2c.7 0 1.6-1.5 1.4-2zM31 45c.3 0 .4.4.5.4.4 0 .3-.4.4-.6 0-.2-.2-.3-.4-.3-.4 0-.4.2-.5.5zm28.7-31.7c.7-.3 1.4-.7 1.8-1.3l-1.8 1.3zm2.2 22c.6-.3 1.4-.5 2-1V34l-2 1.3zm1.6-18c.4 0 .5-.3 1-1.6-.2 0-.4 0-.4.2l-.6 1.2zm-4.4 20.4c1-.2 1.7-.5 2.5-1l-2.5 1zm7.8-14L65.7 25h.6v-.2l.4-.3s0-.4.3-.7zM64.2 15c-.5 0-1 .6-1 1.2.7 0 .5-1 1-1.3zM46.4 48.3c0 .5 1 1.3 1.4 1.3l-1.4-1.3zM55 11c-.4 0-1.2 1-1 1.3l.8-1s.2 0 .3-.2zm2.6-.2c-.3 0-1.3.6-1.4 1.2l1.4-1.2zm3 2.6l1.3-1c-.6 0-1 .5-1.4 1zm5 19.8c1-.8 1-.8 1-1-1 .6-1.2.8-1 1zM25 42c.3-.6.2-1 0-1.5 0 .5-.2 1 0 1.4zm15 6c.4.6 1 1 1.5 1L40 48zm-7-2h-.2v1c.2 0 .3 0 .3-.2v-1zm29.4-33L61 14c.6 0 1-.5 1.2-1zm-36 30.7c.4-.2 0-1.3-.3-1.6l.5 1.7zM64 37.2l1.8-.7c-.7 0-1.3.4-2 .7zm1.8-5V32c-.5.3-1 .6-1.3 1 .5-.3 1-.6 1.3-1zm-6 4.2c.8-.2 1.5-.5 1.6-.8l-1.6.8zm9.6-15h-.2l-.5 1 .2.2c0-.4.2-.8.4-1zM62 38.2c-.5 0-1 .3-1.5.5v.2L62 38zm-32.8 5H29c0 .5.2 1 .3 1.2h.2c0-.4-.2-.8-.3-1zm3.6-8c0-.4-.4-1-.8-1l.8 1zm-4.5 8.2c0 .4 0 .8.2 1.2 0-.4 0-.8-.2-1.2zm33-28.5h.2l1-.7c-.4 0-.7.4-1 .7zM64 37.4c-.4 0-.7.2-1 .3.3 0 .7 0 1-.3zm-4 1.5v-.2c-.4 0-1 .3-1.3.5.5 0 1-.3 1.4-.4zm-32.2 4c0 .6 0 1 .3 1l-.4-1zm4.8 3.2c0-.2 0-.4-.2-.6-.2.6-.2.6.2.6zm31-6V40l-1 .5h.2l1-.3zm2-2.7c-.4 0-.8.3-1.2.4.4 0 .8-.3 1.3-.5zm-2.8-23.2l-.8.7c.5 0 .7-.4.8-.7zM71.8 29c0 .4 0 .8.2 1.2 0-.4 0-.8-.2-1.3zM34.2 45.5H34c0 .3 0 .6.2 1v-.2-.8zm32.4-14.2c-.3 0-.5.2-.7.4.2 0 .4-.2.6-.4zM32.3 74.5v1c.2.3.4-.5.7-.2v-.5l1 .8 2 1.4c.3 0 .4.3.5.5 0 0 0 .2-.2.2.6.4.7 1.2 1 1.8l.3 1.2h-.4c-.8 0-1.6 0-2.4-.3-1-.2-2-.6-2.8-1.3-1-.6-.6-1.4 0-2 0-.2 0-.3.3-.5-.6 0-1 1-1 1.3-.2 1.6 1 2 2 2.5 1 .4 2 .6 3 .6h1.4s.3 0 .3.2l.7 1c1 1 2 2 3.3 2 1 .3 2 0 2.8-.8l.6-.8 1 .7c.8.5 1.8.6 2.7.4 1-.3 2.2-.7 2.8-1.7.3-.4.4-1 .5-1.4V80c.3 0 .5.2.6.3.7 1 1.7 1.5 2.8 1.7 1.7.5 3.4.6 5 0 .5-.3 1-.7 1.5-.7 1-1 2.3-2 2.3-3.5 0-.8.4-1.3 1-1.5.6-.2 1.2 0 1.6.3 0 .2.2.5.6.3.2-.2.6 0 .8.2l1.3 1.2c0 .3.3.7.5 1 .6 1 .8 2 1 2.8 0 .8-.2 1.4-.4 2-.2 1-1 1.5-1.5 2.2-.4.3-.7.6-1.2.8-.3.2-.7.2-1 .3v.2c-.2 0-.4 0-.7.2 0 0 0 .2-.2.2l-1.2.7-2 .7c-.2.2-.6.3-1 .4l-3.4.7c-2.6.3-5.3.7-8 .6h-5.4c-.6-.3-1.3-.2-2-.4l-2-.6-3-1-2-.8c-.3-.2-.6-.5-.8-1 0-.2-.2-.4-.3-.5l-.2-.5V86h.4c1 0 1.7 0 2.5.2H47c2.5 0 5-.4 7.6-.6L59 85c1 0 2-.2 2.7-.5.7-.2 1.3 0 2 0 .5 0 .5 0 .5.7.3-.3 0-.8-.3-.8l-2-.2-1 .2c-.2 0-.6 0-1 .2l-3.8.5-4.4.7c-1.3 0-2.6 0-4 .2h-4.4c-1.5 0-3 0-4.3-.2h-3l-3-.6c-1.6-.2-3-.8-4.5-1.3L27 83c-.7-.6-1.4-1-2-1.8-1.2-1.2-1.6-2.7-.5-4.3.2-.5.4-1 .8-1.3l.8-.7v1c.4 0 .6-.2.8-.3 0 .2 0 .3-.2.5l1.6-.8c0 .3-.3.4-.5.6l-1.5 1c-.4.2-.5.5-.2 1-.3.3-.3.3 0 1.2l.2-.2c.3-.2.5-.5 1-.6v-.2c0-.6.5-1 .8-1.3 0-.2.2-.3.3-.5.2-.2.4-.5.8-.4.3.2.5 0 .7 0l.6-.3c.6-.3 1.4-.2 1.7-1l.3-.2zm-5 6H27c.4-.6 0-1.2 0-1.8L26 80c.2 0 .3 0 .4-.2l.4-.2v.7c-.2.5 0 .6.4.4h.2zm1 1.2v-.5-.4l-.4-.5v.7c0 .6 0 .7.4.7zm9 3v-.2c-.3 0-.6 0-1-.2v.2h1z"/><path fill="#FFF" d="M47.8 83.3l.8-.4L50 82c.2 0 .2-.2.2-.3-.3 0-.7.3-1 .5V82l-1.4.8h.3c-1 .7-2 .3-2.4-.8l-.2-.2s-.2 0-.2.2c0 .5-.5.8-.8 1-.5.5-1 1-1.6 1-.5.2-1 0-1.5-.2-1-.3-1.5-.8-2-1.5-.6-.7-1-1.4-1.5-2.2-.3-.3-.4-.8-.5-1l1.3-1-.3.4.7-.6 1-1.2c.4-.8.5-1.6.4-2.5v-1.7c-.2-.5-.3-.8-.6-1l-.4-.8c-.5-1.3-.6-2.7-.7-4 0-.7.4-1 .8-1.5l2.7-2.2c.5-.4 1.2-.7 1.8-1l2.7-1.7c1.2-.6 2.4-1 3.6-1.4C52 58 53.7 57.3 55 56c.3-.4.6-1 1-1.3 0 0 0-.2-.2-.3 0-.4.2-.8.7-1l-.5.5c.2 0 .2-.2.3-.2.6-.6 1.3-1 2-1.3.2 0 .3 0 .3-.2H60l-.4.2H61c.3 0 .8 0 1.2-.3.2 0 .4-.3.6-.6l-.6.3h-1c1-.3 1.7-1 2.7-1.4 0 .2-.2.3-.3.4H65h-.4v-.2c.4 0 .8.3 1.2.4.3 0 .6 0 1 .2.3.2.5.6.7 1 .3 1 0 2-.6 2.6-.6.5-1 .8-1.7 1-.4.3-.8.4-1.2.5l-1 .5-3 1h-.5s-.2 0-.3.2l-.2.2-4.2 1.3-3 .8c-.2 0-.3.2-.4.3l-1 .7H50c-.2 0-.3.3-.6.2 0 0-.4 0-.4.2-.2.4-.7.4-1 .5-.2 0-.6 0-.4.3l-.3.3c-.8.5-1.5 1-2.3 1.3l-1.8 2c-.2.2-.2.6-.3 1-.2.7-.6 1.5-.7 2.2-.2 1 0 2 0 3.2v2c0 .6.2 1 .3 1.7 0 0 .3.2.3.4 0 .3.3.6.4 1l.7 1.8c.2 0 .4 0 .5.2v-.4c0-.8-.4-1.6-.6-2.4l-.6-1.3c-.3-1-.2-2 0-3 0-.7.3-1.4 1.2-1.5H44V71l1.2-.2c.6 0 1.3 0 2 .2.4 0 1 .5 1.4 1 .3 0 .5.3.7.6.2 0 .3.3.5 0 0 .7 0 1.4.3 2l1 3c0 .3.4.8.6 1.3.3.3.5.7.2 1-.3.7-.5 1.4-1 2-.2.5-.7.7-1.2.8-.4 0-.7.3-1 .4-.3 0-.5 0-.8.2zm-7.6-2l-.3-1c0 .5-.2 1 .2 1 0 1 .4 1.3.8 1.3l-.8-1.2zm6.7-1.2c-.2 0-.4-.3-.5-.5 0 .5 0 .5.4.6 0 .4-.2.6 0 1v.8l.2.2c.4 0 .7-.2.7-.5-.3 0-.5.3-.7.4 0 0 0-.2-.2-.2l.7-.8-.6.4c0-.4 0-.7.2-1-.2 0-.2-.2-.3-.3zm1.6 1.5c-.4.3-1 .6-1.3 1 .6-.2 1-.4 1.3-1zM45.3 76v.2c0 .3 0 .7.2 1h.2l-.4-1zM20.7 41l.5-1.2c0-.2.3-.5.7-.5.2 0 .6.4.6.8 0 1 .6 2 1.2 2.7l2.7 2.2c1 .7 2.2 1 3.4 1.2 0 0 .2 0 .3.2.2.4.7.6 1 1l1 .8h.3V48l.2.2s0 .2.2.2c.8 0 1.5 0 2.3.2.4 0 .8.4 1.2.6 1 .5 1.8 1.3 3 1.5h.5c.3 0 .6.2.7.6 1-.3 1.6.3 2.2 1 .4.5.8 1.4.8 2.2 0 .5-.2 1-.4 1.4-.6 1-1.7 1.5-2.8 2-1.2.4-2.5.7-3.8.8-.8 0-1.6 0-2.4-.4H34c-.7.2-1.4-.2-2-.4-.4 0-.7-.2-1-.3-.7 0-1.3-.3-2-.4V57h.3c-.4 0-1-.3-1.3-.5-.2 0-.3-.3-.5-.4h-.8L25 55c-.2 0-.4-.3-.7-.2H24l-1-.5-2.2-1c-.2 0-.4-.2-.5-.4 0-.4-.3-.6-.5-.6-.5 0-.8-.3-1-.4h-.2c0-.4-.2-.5-.5-.4l-.2-.2h.5c-.4-.3-.6-.5-.7-.8l-.2-.2v-.2h.2c.2.3.4.5.7.6l-.6-.8-.4-.6v-.2l2.3 1.7v-.2l-.2-.2-1-1v-.3c-.2-.2-.6-.4-.6-.6-.2-.8-1-1.2-1.2-2V46l-.3-.3v.5c-.2-.3-.2-.7-.3-1h.3V45c.2 0 .3-.2.4-.3v1l.4-1 .7-.4c.2 0 .4.3.6.5l1.5 1.6c.5.6 1 1 1.6 1.4.6.5 1.2 1 2 1 0 0 .2 0 .2.2.7.5 1.5.5 2.3 1l.8.3 3 1 1.5.4 1.5.7 2 1c.6.4 1 1 1.3 1.7v.3c-.5.3-1 .2-1.3 0h-.5v.2l.7.3h.3c.3.2.6.3.7.2.4-.3.7-.7.5-1.2 0-.4-.3-.8-.6-1-.4-.4-.8-.8-1.2-1l-1.5-1c-.5 0-1-.3-1.6-.5l-2-.8c-.3 0-.6 0-.8-.2l-2.5-1-1.2-.5c-1.3-.4-2.4-1-3.5-2-.3 0-.5-.2-.8-.4-.7-.3-1.2-1-1.3-1.7h-.2v-.4c1 .2 2.3.7 3.3 1.5l-.8-.7c-.3-.2-.3-.3 0-.5V44h-.3v.5c-.2 0-.4 0-.4-.2l-1.8-1.7c-.2-.2-.3-.5 0-.8l.8 1.2-.7-1.4c-.2-.4 0-.7.3-1 0 .6.3 1.3.5 2h-.2l.8 1h.2c0-.3 0-.7-.2-1-.4-.5-.3-1-.3-1.6zm9.7 7.4l-1.2-.8v.4l1.2.4 2 1.3c0-.4.2-.3.4-.2.3 0 .7.3 1 .4l-1.4-1c-.2 0-.4 0-.7-.2-.4 0-1-.3-1.3-.4zm.5.7l-.2.3.8.7c0 .2.4.3.6.3.4 0 .8.2 1 .5 0 .2.3.4.5.5l.7.3 1 .7h.3c-.3-.3-.5-.7-1-.7-.6-.5-1-1-1.5-1.2L31 49zm6.7 7c.8 0 1-1 .8-1.8l-.2.5c0 .5 0 1-.6 1.3zM24.2 45.6v-.2l-.8-.6h-.2v.3l1 .6zm-2.2 0l1.5.7-1.5-.8zm5 1.5l-1-.5c.3.3.6.4 1 .6z"/><path fill="#FFF" d="M22.7 61.7c0-.3.2-.7 0-1v-.4c-.3-.3-.3-.6-.2-1V58c0-.5-.2-1 0-1.4 0-.5.4-1 .7-1.3.2-.2.4 0 .6.2 0 .2.3.4.4.6l.2 1c0 .6.2 1 .3 1.7v.6c0 .3-.2.5 0 .8l.3.8c0 1 .2 1.7.3 2.5v.5l.2-.4 1 2.4c0 .5.2 1 .3 1.4v1.2c.3 0 .5-.2.5-.3v-1l-.2-.8.3.5v-1c-.3-.4-.5-1-.6-1.5 0 0 0-.2-.2-.3 0-.3-.3-.5-.3-.7v-1.5c-.2-.5 0-1 0-1.3 0-.5 0-1 .2-1.5.2-.6.5-1 .8-1.5.2-.3 1-.3 1.2-.2.3 0 .5 0 .8.2l.4.2c.2 0 .5 0 .6.2l1.4.3 2.4.7c.4 0 .8.3 1.2.6.8.5 1.2 1.3 1.7 2 0 .3.2.4.4.6 0 0 .2 0 .2.2l.7 3v1c0 .6.3 1.2.2 1.7 0 1.3.4 2.3 1 3.4.4 1 .4 2.2 0 3.5 0 .7-.6 1-1 1.6H38c-.4.2-1 .2-1.6.2-.8 0-1.4-.7-2-1.2-.2 0-.4-.3-.5-.4-1-.6-1.3-1.5-1.5-2.5l-.4-1.4v-1.6l-.6-1.7-.6-2.5c0-.7-.4-1.4-.5-2-.2-1-.4-1.7-.2-2.5.2-.3.3-.7.7-1 .5-.2.8-.3 1.2.3l1 1.6.8 2v1.6s.2 0 .2.2c.3-.5.2-1 0-1.6 0-1.2-.7-2-1.2-3-.2-.6-.5-1-1-1.3-.2-.3-.6-.5-1-.3-.6.3-1 .6-1 1.2-.3 1.8 0 3.7.5 5.5L31 69c0 .8 0 1.6.2 2.5V73c0 .7-.5 1-1 1.5-.3.3-.7.6-1.2.4l-2-1c-.2-.8-1-1-1.4-1.6-.5-.4-.8-1-1.2-1.5v-.4s0-.3.2-.5l-.5.3v-.5l-.7-1.4c0-.4-.3-.8-.4-1-.3-.5-.4-1-.5-1.4-.2-.6-.6-1-.6-1.7-.2-.6-.6-1-.5-1.6 0 0 0-.3-.2-.4 0-.3-.2-.5 0-.7.2-.2 0-.4 0-.3-.2-.3-.2-.5-.2-.7V59s0-.4.3-.6c-.5-.5-.5-1-.4-1.6v.7h.2v-.3c-.2-.4 0-.7.2-1 0-.2 0-.3-.2-.3v-.2l.4-.2s.2 0 .3-.2V58.5c0 .4.2.7 0 1v.7c.3.5.2 1 .3 1.5h.2c0 .2-.2.4 0 .5 0 .4 0 .8.3 1.2h.3V66c.2.3.2.8.3 1 .4 1 .7 2 1.3 3l.7 1-.7-1.7c-.4-.8-1-1.5-.8-2.5v-.2c0-.4-.3-.8-.3-1v-1l-.3-.4v-.7c-.3-.6-.4-1.2-.5-1.8zM83.5 58.3c0-.2 0-.3.2-.5H83l-.8.4c.5-.4 1-.6 1.2-1.3h.6c.6.3 1 .8 1.5 1.3l.6 1c.4.7.5 1.4-.7 1.8L83 62c-.2 0-.3 0-.4.3.2 0 .3 0 .5.2-.2 0-.5 0-.7.2h.6s.4 0 .4.4c0 .2.2.2.3.3h.6s0 .2-.2.2h.2c.4 0 1 0 1.4-.2h-.4V63c.3 0 .6-.3 1-.5h-.5l-1.3.5H84c.7-.6 1.7-.7 2.3-1.6l.5 1.2c.4 1 .6 2 .4 3 0 .8-.3 1.4-.6 2 0 .4-.3.7-1 .6v.2c-.3.2-.4.3-.7 0l.5-.4h-.2l.7-.4v-.2c-.3 0-.6 0-1 .4 0 .2-.6.4-1 .4h-1s-.3 0-.5.2l.3.3h-.3c.6.5 1.3 0 2 .3l-1.5.3v.2h.6c0 .2-.5.4-1 .3-.3 0-.6 0-1-.2l.6.4c-.5 0-1 .2-1.4.4 1-.2 2.2-.5 3.3-.5l1-.5h-1l1-.3-.2-.3h.6c.2 0 .4 0 .4.2.4 1.3.2 2.4-.7 3.5-.2.3-.5.2-1 0h.6s0-.2.2-.2h-.4c-.7 0-1.4.2-2 .4-.5 0-1 .2-1.5.4h-.5l-2-.4c.5.3 1.5.7 2.5.7h2.5v.2H81c.7.2 2 0 2.8 0 0-.2 0-.2-.3-.3l.7-.2s.3 0 .4.3c.2.8.3 1.7 0 2.6l-1 1.5c-.5.4-.8.3-1 0l1-.7h-.7c.3-.4 0-1 .8-1.3h-.4l.5-.6h-.5l.5-.6-2 .5h1.5l-.3.3-3 .7c1 0 2-.4 3-.5-.5.5-1.3.5-2 .8h.5l-.4.2h1c.2 0 .5-.4 1-.5 0 .7-.7.5-1 .7h.6c0 .2-.2.4-.5.4l-2.8.4h-.2.3c-.3.3-.5.3-.8.2l-1.8-1c-.2 0-.3 0-.5-.2l.7.6 1.5 1c.4.3 1 .3 1.6.7H80l.8.4h-.4l1 .5c0-.2.2-.2.2-.2-.2 0-.3 0-.5-.2.3-.3 0-.4 0-.4.6 0 1.2 0 1.8.3 0-.2 0-.2-.2-.3h.5l.6 1c.2 1 0 2.2-1 2.8l-1.3.7c-1 .3-2 .3-2.8 0-.2 0-.3 0-.3-.2h-.5l-2-1H75l2.6 1.4h-.3c.3.2 1 0 1 .6 0-.3 0-.4.4-.4H80c.5 0 .5 0 .5.6 0 1-.2 2-.3 2.8-.2 1-.8 2-1.8 2.2-.6.2-1.3.2-2 .3l-.2-.3c.2-.3.5-.4.8 0 0 0 .2 0 .3.2-.2-.4-.3-1-.7-1 0 .2-.2.4-.3.5H76l-.6-.4h-.2c-.4.3-.7.2-1 0-1-.3-1.7-.7-2.6-.5-.6 0-1 .3-1.7.3h-2-.4c.7-.5 1.3-1 2-.7H69c0-.3 0-.4.2-.4 1-.6 1.5-1.4 2-2.3.4-.6.4-1.3.5-2V81h.8l-.3-1v-.2c0-.3-.3-.6-.5-1h.3c-.6-.5-1.2-.8-1.8-1v-.2l3.3 1.5v-.4h.5l-.5-.2c-.3 0-.6 0-1-.4 0-.2-.4-.6-.6-.8h.4l-.7-1 1.2.7v-.2-.3s.2 0 .3.2l.4-.2-1-1v-.2c.5.4 1 .8 1.8 1.2v-.2l-1.4-1h.2l1.6.8-.3-.4 1.4.8c0-.4-.3-.6-.5-.8l.5-.2h-1c.5 0 1-.5 1.2 0 0-.2 0-.4.2-.5.3-.2.3-.3 0-.5.5 0 .8-.2 1.2-.3l-.4-.2.4-.2c-.2 0-.4 0-.5-.2.4 0 .7-.3 1-.4-.6 0-1.3.3-2 .3l2.2-1c-.3-.2-.5 0-.8 0l-.7.2 2.4-1H79c-.5 0-1 .2-1.4.3l1.7-1c-.4 0-.8 0-1.2.2l1.5-.8v-.2c-.3 0-.5 0-.8.2l1.3-.8v-.2H79c.3 0 .5-.3.7-.5 0-.2 0-.3.2-.4h-.5-.2l.4-.4s.3-.2.2-.5c0 0 0-.3.3-.4V67l-.3-.2.7-.5H80c.4-.8.4-.8 0-.8 0-.3.3-.5.5-.8h-.4c.2-.3.4-.5.2-.8v-.7c.3-.5-.2-1 0-1.4V61H80v-1h-.4c-.2-.4 0-1-.4-1.2-.4-.3-.2-1-.7-1 .5 0 1-.3 1.5 0 .2.2.4 0 .6 0h.7c-.3 0-.5.2-.8.3v.2c.7 0 1.2-.5 1.8-.7l-1 1c.7 0 1.2-.5 2-.7v.4h.2c-.5 0-1 .4-1.6.6h-.4v.2c1-.2 1.8-.3 2.5-1h-.5zm-5.8 29.5s0-.2.2-.3l.7.7v-.4l-1.5-1-.3-.2h-.2l.6.5c.3.3.4.5.3.8h-.3v.6l-.4.3.8.6s0-.3-.2-.5v-.4-.6zm7-27.2c-.5 0-.8.2-1 .3l.7-.5c.5-.2 1-.5 1.2-1l-1.4.6-1.4.6v-.2l1.8-1s.3 0 .4-.2l-2.7 1h.4l.2.2c-.3 0-.4 0-.5.2h.8s0 .2.2.3h-.4c-.5 0-.6.3-.8.5h.5l1.6-1c.4 0 1 .2 1.3-.2-.4-.2-1 0-1.4.3zm-.2 10c-1-.3-2.2.2-3.3 0 1 .5 2.2.3 3.3 0zm-2.4-11c1.2.3 1.8-.6 2.7-1l-2.6 1zm2 4.6c.7.2 1.4-.3 2.2-.7-.8 0-1.6.4-2.3.7zm2.4 0V64l-2 .8c.8 0 1.4-.3 2-.7zm-2.7 10.2c-.8 0-1.5.3-2.3.4.7 0 1.5 0 2.2-.2v-.2zm-1.5 6.2c-.4-.3-.8-.6-1.4-.6.4.5 1 .5 1.4.6zM85 71v-.2l-2 .6c.7 0 1.4-.2 2-.4zm0-5.6c.6 0 1.2-.3 1.8-.5v-.2l-1.8.6zm-.8 6.6c.3 0 1 0 1.2-.4-.4 0-.8.3-1.2.4zm-2.7 9.7v-1h-.2c0 .4 0 .7.2 1zm-4 4.4v.2c0 .2.4.4.7.7v-.3l-.8-.6zm8-19c.4 0 .7 0 1-.2v-.2c-.4 0-.7.2-1 .3zm1-1c-.3-.2-.5-.2-.4.3l.5-.4zM56 60.4s0 .2-.2.3c.6 0 1-.5 1.5-.6l-.7 1c.7 0 1.2-.5 1.7-1v.4l.6-1h-.2c-.5.5-1 1-1.6 1.3.2-.5.7-.7.8-1.3-.3 0-.5.2-.7.3 0-.4.3-.5.6-.6.7 0 1.4 0 2.2.2.8.2 1.4.6 2 1 .7.5 1 1.2 1.4 2 .7 1.5.7 3.3.3 5l-.7 1c-.6.7-1.4 1.4-2.2 2-.3.3-.7.5-1 .6l-2 .7c-.5 0-.8 0-1.2.2h-.2c-.4.4-1 .3-1.3.4-1.3.6-2.7.3-4 .3-.4 0-.8 0-1.2-.2 0 0-.3 0-.2-.3l-.2-.3h-.4c-.2 0-.4-.3-.6-.4h-.2c-.5.4-.8 0-1.2-.2l-2-.6c-.2 0-.4 0-.7-.2.2-1.5.4-3 1.4-4.2v.4c-.7 1-1 1.8-1 2.8 0 .2 0 .4.2.5-.2-1.7.7-3 1.7-4.2-1 1.4-1.3 3-1.3 4.5.6-2.8.7-3.3 1.3-4l-1 3.6 1-3c0 1-.5 2-.2 3V69c.2.2.2.5.3.8h.2v-.4-1c0-.6.2-1 .4-1.5V66c0-.8.2-1.7.8-2.4.4-.4.6-1 1.2-1 .5 0 1-.2 1.5 0 .4-.3.8-.2 1.3 0h.4c1-.2 2.2 0 3.3.4l1.8.8c1 .7 1.6 1.7 1.5 3v.3c0-.2.2-.3.3-.5 0-1-.3-1.7-1-2.3-1-1-2.3-1.4-3.7-1.7-.7 0-1.2-.2-1.8-.4.6-.6 1.2-1.4 2-1.7v.6c.3-.3.6-.5 1-.6zM63 66l-.6 1c-.4.3-.4.3-.5.8.6-.4 1-1 1-1.8.6-1 .7-2.3.3-2.6v1.2c0 .5 0 1-.2 1.4zm-4 3v.5c-.6 0-1 .3-1.5.5-.2 0-.5 0-.7.2v.2c1.6-.4 3-1.2 4.4-2-.7 0-1.3.8-2 .7zm-5.3 1h-.3c-.4 0-1 .4-1.5.7v-1c-.2 0-.2.4-.2.7 0 0 0 .3.2.4.2 0 .3 0 .5-.2.4-.3.7-.7 1.3-.6zm9.6-8l-.8.4c-.2.2-.6 0-.8.3.4 0 1.4-.2 1.7-.7zm-1.3-1v-.2l-1.4.8c.4 0 .7-.2 1-.3.2 0 .3-.3.4-.4zm-5 8.7c.5.3.8.2 1.4-.2-.4 0-.8 0-1.2.2zm-8.4-.7l-.2.7.4.2s.2-.3.4-.3h-.4V69zm2 1.4c-.3 0-.4 0-.4-.3s0-.7-.2-1c0 .4-.2 1 .2 1.7.2 0 .2-.2.3-.3zm13-7.2V63h-1c-.2 0-.2 0-.3.2h1.2zm-15 5.4v-2 2z"/><path fill="#FFF" d="M64.8 74.5l.6-.6v-.3h.6c-.2 0-.5 0-.7-.2-.8-.2-1.5-.3-2.2-.6-.8-.5-1.4-1-1.4-2v-.7c0 .3 0 .8.4.6v.4h.2l.7-1c0 .3 0 .4-.2.6v.3h.2c.3-.5.4-1 .5-1.4H63v-1l.6-.6c.6-.5.7-1.2.8-2 0-.2.2-.3.5-.4.7 0 1.5.2 2.2.5.6.3 1.2.8 2 1 1 .2 2.4.4 3.5-.3 1-.5 1.6-1.2 1.8-2.3.2-1.5.2-3-.5-4.2L73 59l-1-1c-1-.7-2-.8-3-1.2-.2 0-.5 0-.4-.4-.8 0-1.5 0-2.2-.2l.8-.5c.6-.3 1.2-.2 1.7 0h1l5 1c.8-.2 1 .3 1.3 1 0-.4 0-.7-.2-1h.3c.4 0 .8.2 1 .6 0 .3.3.5.5.7.7.8 1.2 1.7 1.4 2.8.2 1 .4 2 .3 3 0 1.6-.3 3-1 4.5-.2.8-.6 1.6-1 2.5v.2c-.5.2-.8.3-1 1 0 .2-.5.5-.8.7l-1.2 1c-.2.2-.5.2-.7.2h-1.3.5v.2c-.2 0-.4.3-.6.2-.6 0-1 .5-1.7.4h-1-.6c-.3 0-.6 0-.7-.6-.5.3-.6.2-1-.2h-.6c-.5.2-1 .4-1.4.8l-.8.8.3-1zm12-16.2v.3c.2.2.3.4.3.7h.6c-.4-.3-.6-.7-.8-1zM63.6 71c0 .6 0 .7.4.7 0-.3-.2-.5-.4-.8zM77.8 65l-1 .5c.5 0 .8 0 1-.5zM43.6 60.8l.3-.3 3.7-1.7c1-.4 1.8-1 2.7-1.2 1-.4 2-1 2.8-1.7.7-.7 1-1.7.5-2.5 0 1 0 1.7-1 2.2h.3v.2l-2.2 1-2 1c-.3 0-.5.2-.7.3l-1 .6c-1.2.3-2.4.7-3.5 1.2l-2 1.4v.2L39 63.2h-.3l-.6-1.8c0-.6-.4-1.2-.7-1.8L39 59c.6 0 1.3-.2 2-.4.5-.3 1-.8 1.7-1 .6-.3 1-.8 1.5-1.3l.2-.4c0-.7.4-1 .8-1 .3-.2.7-.3 1-.3.7 0 1.4-.2 2-.3-1 0-2.3 0-3.6.3-.2-.6.4-.7.8-1-.2 0-.4-.2-.6 0-.4 0-.6 0-.8-.4l-.4-.7c-.2-.2 0-.3 0-.3l3.5-1c.7 0 1.2 0 1.8.2 1 0 2 0 3-.5h.6l1.6.8c1 .5 1.4 1.3 1.3 2.5h.3v.4c-.6 1-1.3 1.6-2.2 2-1 .7-2 1.2-3 1.5h-.5l-1.3.5-3 1.5-1.4.7c-.2 0-.4 0-.7-.2zm8-9c.7.5 1 .6 1.4.3-.5 0-1 0-1.4-.2z"/><path fill="#FFF" d="M60.8 59c.5-.7 1-1 1.6-1.3.5-.2 1-.4 1.5-.2l1.6.8 1 .5c.8.4 1.4 1 2 1.8.3.4 0 1-.6 1.2h-.5c.4.3.8.3 1 0 .5-.4.5-.7.2-1.3-.3-.7-1-1.3-1.7-1.7l-3.2-1.5c.7-.2 1.3-.7 2-.8l-1 .8h.2c.3 0 .6-.3 1-.4.2-.2.6-.2 1-.2h-.3v-.3c.5 0 1 0 1.4.2v.3l.4-.2c1 .3 1.7.5 2.5 1C72 58 72.7 59 73 60l.8 2c.3 1 .3 2 0 3-.2 1-1 1.8-2 2.3h-1c-1 0-2.2 0-3.2-.6l-2.2-1c.3 0 .2-.4 0-.7 0-.2 0-.4-.2-.7 0 .3 0 .4-.2.6 0-.2 0-.4-.2-.5h-.3l-.4-1.2c0-1-.5-2-1.2-2.6-.3-.4-1-.8-1.4-1.2l-.8-.5zm11 1c.4-.2.5-.4.5-.8l-.8.5c0-.2.2-.4.3-.5-.4 0-.7.2-1 .3h.4c0 .2.2.3.4.3l.2.2-.2.4c.3 0 .6 0 .8-.2l-.6-.2zm-2.3-1.6c.2.2.3.6.7.4.3.4.8.3 1 0h-.8.2v-.4h-.2l-.4.2.2-.5-.7.4V58h-1 .4s.4 0 .3.4h.2zm-2.2 7v.7h.4l.3.4c0-.2.3-.3.4-.4-.6 0-.4-.5-.7-.6l-.3.3v-.4zm-.7.4c.5 0 .4-.3.5-.6h-.4v.6zm6.5-1.4H73c0 .2 0 .2.3.3l-.5.3c.4 0 .7 0 .6-.6zM64.8 74.5s0-.2-.2-.3l-.3 1.2c-.2.4 0 1-.5 1l-.7 1.3s-.2.3 0 .4v.3l-.7 1H62l-1.4 1.2c0-.2.2-.4.3-.5h-.2c-.2 0-.4.2-.6.4-.2-.5-.2-.5-.6-.2l-1 .6-1.5.8c.3 0 .6.2.8.4-1 0-1.8-.3-2.6-.5-1-.4-1.8-1-2.4-1.7-.5-.5-1-1-1.2-1.7-.5-1-1-1.8-1.2-3L50 73c0-.4.3-.4.6-.4.6 0 1 .5 1.3.8h.5V73l2.2-.4 1.3-.2c.5 0 .6 0 .7.5.2.7.4 1.5.8 2 1 1.6 2.6 2.2 4.2 1 .6-.3 1-1 1-1.5l.4-1c.2 0 .3-.3.4-.3.6 0 1.2.3 1.8.5-.4 0-.4.5-.4.8zM59 80.2c-.4 0-.6.4-1 .5.5 0 .7-.4 1-.5zm-7-5.4v1.4h.2v-1.4zm3.8 6l.6-.5c-.4-.2-.5.2-.7.3s0 .2 0 0zM83.8 50.7c.2-.5-.2-.8-.4-1.2-.3-.7-1-1.2-1.7-1.6 0-.2-.4-.2-.6-.3v-.3c-.2-.8 0-1.5.4-2.2l1-2c.3 0 .6-.4 1-.6h.3c1 .2 1.7.8 2.3 1.6l.8 1.4c.2.5.4 1 .5 1.7 0 1.3-.2 2.6-.6 4-.3 1-1 1.7-1.5 2.6-.5.6-1 1.4-1.7 2-1 .7-2 1.4-3.3 1.4h-1.6c-.3 0-.4-.2-.4-.4s.2-.5.4-.6c.2-.3.2 0 .3.2 0 0 .3-.8.7-.2l.5-.5v-.6c0 .2-.2.3-.3.4v-.3c-.2.2-.3.6-.6.4 0-.4.3-.7.4-1-.4.3-.4 1-1 1 0-.4.3-.7.4-1v.5l.4-1.4.3-1 .3-2v-.7-2c0-.2 0-.3.4-.3.7 0 1.4.3 1.8 1 .5.4 1 1 1.3 1.7zm.8 2.3h-.3c-.7.7-1.2 1.4-2.2 1.4-.2 0-.5.6-.8 1h.2c.3-.6 1-.7 1.6-1 .7-.4 1.2-.8 1.6-1.4.4-.2.8-1 .7-1.5-.2.6-.8 1-.7 1.5zm-.8-7c.3 0 .5 0 .7-.3.2 0 .3-.2.5-.3.2 0 .2 0 .2-.3l-1.4 1zm-3 9l-.3 1 .6-.8h-.2V55zm-.6 0v-.7c-.3.4-.3.4 0 .7zM22.5 70h1v.2c-.2 0-.3.2-.3.2l-1 .6s.7 0 1-.4c.3 0 .5-.2.7.2L21.4 72c.6.4 1-.3 1.7-.4-.5.7-1.3 1-2 1.3h.6c-.3.5-.7.4-1 .4-.8 0-1.6 0-2.3-.3-.4 0-.8-.4-1.2-.6-.7-.4-1-1.2-1.6-1.7-.4-.4-.4-1-.4-1.7s0-1.3.4-2l1.5.7c.5 0 .8-.3 1.2-.5V67c-.3 0-.5 0-.7.2h-1l-1-.6c-.4-.3-1-.5-1.2-1-.7 0-.8-.7-1-1.2-.3-.5-.3-1-.4-1.6 0-1 0-2 .5-3 0-.2.4-.5.6-.8h.5l.7.6v.4c.4 0 .8-.2 1-.3.3 0 .5-.2.7-.3l.5.4h.2l-.4.4-1 .3.4.2h.2c0 .6.5.3.8.2h.2l-1 .6c.3.4.3.4 1 .3 0 .2.2.2.6 0h.8c-.3 0-.6.4-1 .6l1.8-.7-1.4 1v.2h.4l1.2-1h.4c.2.2 0 .4-.2.5l-1.7 1c.7 0 1.3-.5 2-1v.2c-.2 0-.4.4-.7.5-.5.4-1 .8-1.5 1l-.4.4 1-.2c-.3 0-.4.2-.5.4 1-.2 1.6-.8 2.3-1.5-.4 1-1.3 1.2-2 2h.7v.2c-.7 0-.8.5-1 1 0 0-.2 0-.3.2l-1 .6c0 .2.2.2.3.2 0 .2 0 .4.4.4l.6.3c.3.3.6.2 1 0l1.4-1c0 .5-.4.5-.7.7l-.7.8c.3-.2.6 0 1-.4s1-.7 1.5-1c0 .5-.6.6-1 1l-1 .7.2.2 2-1.3h.2c-.5.8-1.3 1-2 1.5h.5l1-.6h.5c0 .2-.3.4-.5.6-.3 0-.6.2-1 .4h.3c.2 0 .7 0 .7-.4zM16 60c0 .4.2.4.4.3 0 0 .5 0 .3-.3 0-.2-.5 0-.7 0z"/><path fill="#FFF" d="M76.6 50l.7-.5c.4-.4.8-.8 1.3-1 .2-.3.4-.2.5 0 .7 1.8.6 3.6-.2 5.2-.5 1-1.2 1.6-2.2 2-1.4.3-2.7.3-4 .2-.3 0-.5 0-.6-.3 0 0-.2 0-.3-.2h-1L70 55h-2v-.3c.3-.5 0-1 0-1.5V53c0-.5 0-1-.6-1.4 0 0-.2 0-.3-.2l.6-.2c1 0 2-.5 2.7-1l1.2-.6h.5c.6 0 1.3.2 1.8.6.7.4 1 1.2 1 2 0 .2 0 .3.3.3s.4 0 .4-.3v-.8c.5-.3.8-.7 1-1V50h.2zM74.7 38.8l-1.4-.5V38h1-.8c0-.2-.2-.3-.3-.4h.3l.6-.3-1-.7c.7 0 1.2.4 1.8.6-.2-.4-.3-.4-1-.6-.3 0-.7 0-1-.5l1 .4c.5.2.8.4 1.2.4.3 0 .5.6 1 .4-.4-.5-1-.7-1.4-1-.5 0-1-.3-1.4-.6.3 0 .6 0 1 .3l1 .3c.2.2.5.4 1 .5l-.2-.4c.3.2.5.5.8.6h.6c.2-.2.4-.4.6-.2h.6c.6.3 1.8 1.5 2 2.2 0-.2-.2-.3-.3-.4 0 .2 0 .3.2.5 0 .2 0 .2-.2.3 0 .2.2.3.4.4-.4 0-.7-.2-1-.3l.8.6c.2.2.3.5.4 1 .4 0 .7.5.7 1v.2c-.4.3 0 1-.4 1.2-.5.7-.8 1.4-1.5 2-.6.3-1.4.7-2.2.6h-2c0-.4.2-.6.3-1l-.8.8c0-.4-.2-.6-.3-1-.2-.6-.4-1.3-1-1.8l-1-.5c.6.4 1.3.8 1.4 1.6l-.4-.4-1.3-1c-.2-.3-.6-.4-.8-.6-.3 0-.3-.3-.4-.5.2-.2 0-.3-.3-.4-.3 0-.6-.3-1-.5.8 0 1.3.8 2 1v-.2c-.5-.4-1-.8-1.8-1 1-.2 1.5.5 2.2 1V41l-1-.6c.4-.3.7-.2 1 0l.7.7c0-.7-.6-1-1.2-1.4.3 0 .5 0 .7.2l.4.4c.3 0 .5.4.7.7h.2c0-.4 0-.6-.2-.8l.8.6-.2-.4 1.7 1V41l-.8-1 2 1.5v-.3h.2l-1.2-1c.2 0 .3-.2.5-.3-.5 0-.8-.2-1.2-.4L75 39l2.2 1c0-.2-.2-.3-.4-.5h.7L76 39v-.2h.7c-.2 0-.3 0-.3-.2l.3-.2c-.4 0-.7 0-1-.2 0 0 0 .2.2.3h-2c.3 0 .5.2.7.3zM44.5 97c.4 0 .8-.2 1.2-.4l-.8.8c-.2 0-.4.2-.5.3-.4.4-.8.2-1.2 0-1-.4-2-.4-3-.4s-2 .2-2.8.3c0-.2.2-.3.3-.5l-.4.3c0-.3.3-.5.4-.8l.7-1 1.8-1.4c.2 0 .5-.2.6-.5 0-.2.4-.3.6-.5l1.7-1c.5 0 1-.3 1.5-.5h.7c0 .2-.2.3-.3.3h7l1.3.2c.6.6 1.4.5 2 1l-1 .3c-.7 0-1.3.3-2 .5l-3.8 1-1.8.8-2 1-.6.5zM17 59.4c-.3 0-.5.2-.7.3H16c0-.5-.3-.4-.5-.2-2-1.2-2.5-2.4-1.7-4.8v.3l.3-.6.3-.5.5.8v-1.3c-.2-.5 0-.6.5-.5 0-.3.2-.6.4-1v1h.2c.3.2.3-.3.5-.4 0 0 0 .3.2.5h.5c0-.5.2-1 .5-1 0 .2 0 .5-.2.8.4 0 .3-.8 1-.6-.3.3-.5.5-.6.8l.5-.4v.5h.2l.6.5.7.3.3 2 .2.5v1c0 .7-.5 1-1 1.3h-.2s0-.3.2-.5c-1 .7-2 1-3 1 .7.2 1.3.2 2 0-.5.3-1 .5-1.6.4zM57 72.6L59 72c.7-.2 1.3-.5 2-1 .2 1.3 1 1.6 2 2-.6 1.2-1 2.4-2 3-.8.6-2.3.6-3-.4-.8-1-1-2-1.3-3zM22.2 74.3c-.3 0-.5.2-.7.4.4.2.7 0 1-.2 0-.2.3-.3.5 0 .3 0 .5 0 .7-.3l.8-.5-.8.8c.6 0 .8-.6 1.3-.5.2.2.2.3 0 .4l-.5.5s.2 0 .3.2l-1 2c-.2.6-.5 1-1 1-.7 0-1.4 0-2-.3h-.2c-.7.2-1-.3-1.3-.7-.4-.5-.7-1-.8-1.6 0-.6.2-1.2.4-1.7 0 0 0-.2.2-.2l1.2.3c.3.2.5.2.8.2-.2 0-.4.3-.6.4h.8l.7-.4h.2zM64.4 76l-.2 2.2c0 1-.7 1.5-1.4 2-1 1-2 1.4-3 1.6h-1.5c.4 0 .8-.3 1.2-.4 1-.2 1.6-.8 2.4-1.4l1-1 .6-1.3.7-1.7z"/><path fill="#FFF" d="M46.3 96.3c1-1 4.8-2 7.2-2-.6.3-1 .5-1.7.6-.8 0-1.7.4-2.5.6-.2 0-.5 0-.7.2 0 0-.3 0 0 .3-.2 0-.3.2-.3.2l-3 1.6-.3.3c0 .2-.2.3-.4.2.8-.8 1.6-1.7 2.8-2V96c-.4 0-.7.2-1 .3zM76.6 50h-.2l-1 1.5h-.2l-.5-1s0-.3.3-.4l2.8-2c.2 0 .5 0 .8-.2-.6.5-1.2 1-2 1.4L75 50.6l1.8-1-.2.4z"/><path d="M74.7 38.8l-.6-.3h2l-.4-.2h1c0 .2-.2.2-.2.3l.3.3-.6-.2 1.5.7h-.7l.5.4-2.2-1s-.2 0-.3-.2z"/><path fill="#FFF" d="M77.5 47.5l-1.8 1.3-1.3 1H74v-.3c.6-.4 1-1 1.5-1.2.7-.2 1.3-.6 2-1v.2zM46.7 51.2c-.2 0-.4 0-.6.2l-2.3.6c-.4.2-.5.2-.7-.4l2.6-1v.3c-.7.4-1.6.4-2.2 1 1-.4 2-.8 3.2-1v.2zM35 39.5h-.6l-1.4-1-1.3-1.4c-.2 0-.5-.3-.3-.7v.3l1.2 1 2 1.7h.2v.2zM43.7 70.2c0-1.2.3-2.4 1-3.4l-.3 1c-.2.6-.3 1.4-.2 2.2 0 .3-.2.3-.5.2zM44 67l-.7 3.4c-.4-.4 0-3 .7-3.5zM43.6 60.8l.3.4-1.7 1-.2-.4 1-.6s0-.3.3-.4h.3z"/><path fill="#FFF" d="M35 39.5h-.2c0-.2-.2-.3-.3-.4-.5-.3-1-.7-1.4-1.2L31.6 36c-.2 0-.2-.2-.3-.3l4 3.8h-.3z"/><path d="M18.4 59c-.6.2-1.2.2-1.8 0 1 0 2-.3 2.8-1v.7l-1 .2z"/><path fill="#FFF" d="M45.7 65.6c-1 1.2-1 2.7-1.3 4h-.2V69l.6-2.3c0-.4.5-.8.7-1.2h.2zM73 48.8c.2-.5 2.6-1.7 3.4-1.7L73 49zM20.5 39.8v1.8l-.4-1.2v-.2-.4h.5zM20 65.6s0-.3.2-.4l1.2-.8c0 .2 0 .2-.5.7l-.8.7H20zM38.6 65.4c0-1 1-1 1.4-1.6-.3.7-1 1-1.4 1.6zM80 46l-.6 1.2c-.5-.4-.2-1.2.5-1.4z"/><path d="M23 63.5H23l-.4-1.3v-.4h.3c0 .5.2 1 .4 1.7z"/><path fill="#FFF" d="M41 92.8h.3L39 94.5c.2-.4.5-.5.7-.7.4-.3 1-.6 1.3-1zM17.2 50c-.5 0-1.2-1.3-1-2 .2.7.6 1.3 1 2zM44.4 99.4c-1 .5-2 .2-3 .2 1 0 2 0 3-.2zM69.5 40.7l1.8 1c-.4 0-.7 0-1-.3l-1-.6h.2zM16.5 52.6v-.3c0-.4.2-.7.3-1h.3c0 .4-.2.7-.3 1l-.2.3zM21 66.4l-1.5 1V67 67l1.2-.7h.2zM74.3 48.5c-.6.8-.8 1-1 .6 0-.4.6-.4 1-.5zM24 71.4c.2.3-.8 1-1.5 1l1.6-1zM20.7 41v-1.2l.4-.4c0 .6-.2 1-.3 1.6zM26.8 56.8l-1 .8c0-.5.3-.8 1-.8zM74 47.6c.4-.2.7-.7 1.5-.6l-1.5.7zM17 42.7c0-.2.4-.4.7-.6.2.6 0 1-.6 1v-.3zM66.8 50.5c-.6 0-1 .2-1.7 0H67zM17.7 60l-.2-.2c.2-.3.4-.3.7-.2H18c0 .3.2.4.3.5 0 .2 0 .2-.2.2l-.3-.3zM47.4 64c0-.3.3-.7 1-1-.3.4-.6.8-1 1z"/><path d="M23 70.6c-.3.3-1 .5-1 .4l1-.6v.2z"/><path fill="#FFF" d="M45 11v.2l-.2.8c-.3-.6-.2-.8 0-1zM56 60.4l1-1v.2c-.2.3-.4.7-1 .8zM80 47.6c0-.3 0-.5.3-.8 0 .3 0 .8-.3 1v-.2zM79.6 47.4l.5-1.2h.2c0 .5-.4.8-.5 1.2zM82 78.7c.2 0 .5-.2.8 0v.3c-.3 0-.6 0-1-.2zM20.3 59.7l-1 .4 1-.4z"/><path d="M17.7 50l.6.8c-.3 0-.5-.3-.7-.7z"/><path fill="#FFF" d="M19.4 43c.4.2.7.5 1 1l-1-1zM74 75.4l-.7-.5v-.3l1 .6H74zM65.3 42.8c-.3 0-.7 0-1-.2v-.2c.4 0 .7.3 1 .4zM48.4 17.5c-.2-.2-.2-.4 0-.6l.2.5h-.2zM25.8 61.7v1c0-.3-.3-.6 0-1zM46.2 65.3l.7-.8-.7 1v-.2zM47.6 66c0 .3-.2.5-.3.7v-1.3h.2v.7zM56.6 53l-.8.6c0-.4.4-.5.8-.6zM46.7 21.2c.4 0 .7-.3 1-.4 0 .3-.3.4-1 .4zM86 61.3c-.4 0-.7.2-1 .3l.8-.5v.3zM76 36.4l-1.3-.8c.5.2 1 .3 1.3.8zM56 53l-.3.3c-.2-.3 0-.4.4-.4zM80.6 47V47zM82.7 42.8l-.5.7c0-.4 0-.7.5-.7zM26.2 56.2c0 .2.2.4 0 .4 0 .2 0 .2-.3.3l-.2-.2.4-.6zM71.6 41.5h-.3l-.6-.5c.3 0 .6.3 1 .6zM44.5 65.7l.6-.7h.2l-.5.8h-.2zM16 47l-.2-.8c.2.2.2.5.3.7zM21 65.5l.6-.5c0 .3-.3.5-.6.6zM19.8 59.3l-.7.4.8-.5zM18 61c0-.4.2-.5.7-.4-.3 0-.5.2-.7.4zM21.7 67.7l.5-.7v.2l-.5.5z"/><path d="M35 39.5l-3.8-3.8s0 .3.3.4c.5.7 1 1.3 1.6 1.8.5.5 1 1 1.5 1.3 0 .2.2.3.3.4h-.3c-.6-.7-1.2-1.2-2-1.8l-1-1v-.3L29.8 34c-.3-.2-.4-.5-.6-.8.8.7 1.6 1.5 2.3 2.4 0-.2 0-.4-.2-.5-.2-.2-.5-.5-.7-1v-.3s.2 0 .3.2c.7.4 1.2 1 1.8 1.5l3 2.3 2 1 1 .6c-2.3-1-4.4-2-6.2-3.7 0 .3.2.4.3.6l1.5 1.5 2.3 1.4 2 1 1.5.7c.2 0 .6 0 .6.3.5 0 1 .4 1.5.5l.4.2c-.4 0-.8 0-1.2-.2l1.3.4c.2 0 .2 0 .3.2h-.8l-4.2-1.6c-.8-.3-1.5-.6-2-1.3 0-.2-.3-.3-.5-.4-.6-.3-1-.7-1.7-1.2l-1-.8c1 1.3 2.3 2.5 4 3.4h-.2c-.4 0-.7-.3-1-.6-.3 0-.5-.2-.7-.3zM70 27.6v.4c-.3.3-.4.6-.4 1l-.2-.4-.6.5c0-.4.8-.7.3-1.5 0 .4 0 .6-.2 1-.2 0-.4 0-.7.3-.2.4-.6.7-1 1l.6-.7 1-1s0-.3-.2-.4H68c-.2.5-.6 1-1 1.2-.5.5-1 1-1.5 1.3V30l1.4-1.2 1-1.2.2-.5c-1 .6-1.7 1.4-2.5 2 0-.3.4-.6.7-1l1.2-1v-.7l-2.4 2 .7-.8 1-1.3c.2-.2 0-.4.2-.6H67l-.8.3c0-.3.2-.4.3-.6.2-.2 0-.5.4-.6.2 0 .3-.4.5-.6 0-.2.3-.4.4-.6 0-.2.2-.4.4-.6 0 .3 0 .4-.2.6 0 .2-.2.3-.3.5 0 0 0 .2-.2.3l-.6.5v.5s0 .3.2.3h.3l.5-.6c0 .2 0 .4-.3.6-.2.3-.2.5.2.7l1.6-2.3c0 .2 0 .3.3.6.5-.7.8-1.4.8-2 .3 0 .3.2 0 .5 0 .8-.3 1.4-.6 2 0 0 0 .2-.2.2-.3.4-.5.8-.8 1L70 25v-.4c-.2 0-.4 0-.4.2L69 26l-.5.5h.4s0 .3.3.5l.7-1c.2-.3.2-.6.2-1 .2.2.3 0 .4 0 0-.2 0-.4.2-.5 0 .2 0 .5-.2.8v.5s.3 0 .4.2c0 .2 0 .6.2 1l-.4-.5-.7 1s0-.2.2-.3c0-.3.3-.5.4-.8.2-.3 0-.4-.3-.6l-.8 1.5c-.2.3 0 .4 0 .5.3 0 .4 0 .6-.2zm-1.4-.5v.7c.4-.3.4-.3 0-.6zM68.6 32.3l1-1 .7-.8v.8c.2.7-.3 1-.6 1.2L68 34l-3 1.8-3 1.7c-1 .5-1.8.7-2.7 1H59l1-.5 1.5-.7 1.6-.7c1-.4 1.8-1 2.6-1.4l1.6-1V34c-.3 0-.7.4-1 .6H66l1.2-1c-.4 0-.7.3-1 .4.7-.5 1.2-1.2 2-1.4l-.5.7 1-.7c.8-.6 1.4-1.2 1.5-1.6-.2 0-.3.3-.4.4l-.5.5c-.2 0-.5 0-.7.3zm.3.6l-1.4.7c.6 0 1-.4 1.3-.8l1-1c-.2 0-.4 0-.6.2 0 .2-.3.4-.5.7z"/><path fill="#FFF" d="M67 29.8c.4-.3.8-.6 1-1 .4-.2.6-.4 1-.4v-.8c.6.7 0 1 0 1.5l.4-.4c0 .2 0 .3.2.4l-.3.6-.8.8-.8.7c0 .2-.2.4-.5.2v-.5c-.5 0-.5-.2-.3-.6V30zm1.5-.3c-.3 0-.8.4-1 1l1-1z"/><path d="M43.3 42.4l-.2-.2V42h.7c2 .7 3.8 1 5.7 1h2.3l-1 .2h3.5v.3h-.5c-1.8 0-3.7 0-5.6-.2l-4.3-.7-.4-.2zM70.3 34s0-.2.2-.2c-.2.4-.3.8-.6 1l-2 1.7-1 .8-1.4.6-1.4.6c-1.4.5-3 1-4.4 1.2l-1.5.2c.6 0 1.2-.3 1.8-.5.6 0 1.2-.3 1.7-.4 0 0 0 .2.2.2l.8-.4 3.7-1.6c1-.5 1.8-1.2 2.7-2 .4-.2.6-.8 1-1.2zM64 35.6l-2 1c-.7-.3-1.2.3-1.8.5H60l-.2-.2 2.5-1h.4l.5-.4 2.4-1-.8.6-1 .3c-.5.4-1.2.7-1.8 1v.2l.6-.3 1.5-.6zM69.3 29.6l.3-.6.5-.7.5-.5v.6h.3l-.3.5c-.5 1-1.3 1.8-2 2.6l-.6.4c-.2 0-.3.2-.4.3 0 .2-.3.3-.5.5l-1 .7H66l1.3-1c.5-.4 1-.7 1.2-1l1-1c.4-.4.2-.6 0-1zm.5 0l.4-.6H70l-.2.5zM37.2 48l-.4-.3-.4-.2c-.4 0-.5-.4-.6-.7v-.4c-.2 0-.2 0-.2.2-.4-.3-.5-.7-.5-1l.4-.2c0-.2 0-.5.3-.4.2 0 .4.4.5.6.2.3.2.6.3 1 0 0 0 .2.2.3.4.2.4.6.5 1zm-.7-.7l-.5-1c0 .3 0 .8.5 1zM70.8 35.6l-1 1-1.8 1-.8.4-1.5.7h-.5l.3-.3 1.2-.5 2.2-1.3 1.4-1c0-.2.2-.2.3-.3v.2zM51.2 13.4l.2-.6.7-.5c.3-.2.3-.5.8-.4.2 0 .5-.4.7-.6 0 0 .2 0 .3-.2 0 .5-.4.8-.7 1 0 .2 0 .3-.2.3l-.5.2-1 .8zM67 29.8v.3c-.3.5-.3.6.2.7v.4h-.5v-.4h-.4l-1 1-1.2.5 1-.6c.5-.5 1-1 1.6-1.3 0 0 .3 0 .5-.2zM65 20l.7-1.2.5-1.3h.3v.2c-.5.6-.5 1.4-1 2v.4H65zM60.5 40.4l1.2-.6 2-.6h.3c0 .2 0 .3-.3.3-.5 0-1 .2-1.4.4H62c0 .2-.2.3-.4.4V40c-.3.2-.7.3-1 .3zM65.4 21l1.6-3v.2c-.2 1-.7 2-1.4 3l-.2-.2zM37 45.5c.5 1 1 1.8 1.3 2.7H38c-.4-.8-1-1.5-1-2.3v-.3-.2zM66 17l-.7 1.8-.2.2H65v-.3l.7-1.4c0-.2 0-.4.4-.2zM40 48.8c-.6 0-1.8-1.3-2-2.2l2 2.2zM59 13.4c0-.5 1.6-2 2.2-2l-2.3 2z"/><path d="M63 38l-1 .5-3 1h-.5l2.3-.8c.5 0 1-.3 1.5-.5.2 0 .5 0 .8-.2zM58.7 10.7l-2.3 2c.6-.8 1.2-1.6 2.3-2zM67 36.2l-.2.2-3 1.4c-.2 0-.5 0-.7.2l2.3-1c.4-.3.8-.4 1.3-.6 0 0 .2 0 .3-.2zM67.5 19.4c.2.3 0 .4-.2.6l-.3.7c0 .2-.2.4-.3.5 0 .2-.3.3-.6.4l.4-.6 1-1.6zM58 13l1-.8.7-1c.2 0 .5-.2.7 0l-1 1-1.2.8zM25.5 40.8l.6 2c-.5-.2-1-1.2-.5-2zM59.7 11l-2 1.8s-.2 0-.2-.2c.7-.5 1-1.4 2-1.7h.2zM24.7 41.6l-.5-1V40v-.2h.2c.4.2.2.5.3.7v1zM65.2 16.4c-.4.5-.4 1.3-1.2 1.7l.4-.8.4-.7.3-.3c.2 0 .2 0 .2.2zM63.2 35.4c-.2 0-.3.2-.5.3h-.4l2.5-1.6v.5l-1.2.6-.4.4zM68.4 21.5c.2.4-.7 1.8-1.3 2l1.4-2zM67 22c0-.3 0-.6.3-.8L68 20c.2 0 .2 0 .2.2l-.8 1.3-.4.4zM31 45c.2-.3.2-.5.6-.5.2 0 .3 0 .3.3-.2.2 0 .6-.5.6L31 45zM68.2 25v-.3l1-1.4s0-.2.2-.2l-1 2h-.2zM67 22s0 .3-.2.5l-.8 1h-.2v-.2c.5-.3.7-.8 1-1.3h.2zM59.7 13.3c.6-.5 1-1 1.7-1.4-.3.6-1 1-1.6 1.4zM62 35.3l2-1.2v.3c-.6.6-1.4.7-2 1zM63.6 17.2l.6-1.3c0-.2.2-.3.3-.3-.4 1.3-.5 1.5-1 1.5zM59.2 37.7l2.4-1c-.7.5-1.5.8-2.3 1zM67 23.8l-.3.7c-.2 0-.3.2-.4.3h-.6l1.3-1zM64.2 15c-.5.3-.3 1-1 1.2 0-.6.5-1.2 1-1.3z"/><path fill="#FFF" d="M68.6 32.3l.7-.4.5-.6.4-.4c0 .4-.7 1-1.6 1.6v-.3z"/><path d="M46.4 48.4l1.4 1.3c-.4 0-1.3-.8-1.4-1.3zM55 11c0 .2 0 .3-.2.4l-1 1c0-.5.8-1.3 1.3-1.3zM57.6 10.8L56.2 12c0-.6 1-1.3 1.4-1.2zM64 35.6l.8-.6c.3 0 .7-.3 1-.4v.2l-1 .5c-.3 0-.5.2-.7.3zM60.6 13.4c.3-.5.8-1 1.3-1l-1.3 1zM65.5 33.2c0-.2 0-.4 1-1 0 .2 0 .2-1 1zM25 42c-.2-.5 0-1 0-1.5.2.5.3 1 0 1.4zM40 48l1.5 1c-.5 0-1-.4-1.4-1zM33 46v1l-.2-.2V46h.2zM62.4 13c-.3.5-.6 1-1 1H61l1-1h.2zM26.5 43.7c0-.5-.2-1-.4-1.6.5.4.8 1.5.5 1.7zM70.3 34c-.5.4-.8.8-1.3 1l1.3-1.2v-.2.3zM64 37.2c.5-.3 1-.6 1.7-.8l-1.7 1V37zM65.8 32l-1.2 1c.2-.4.7-.7 1-1h.2zM59.8 36.4l1.6-.8c0 .3-.8.6-1.6.8zM69.4 21.5l-.5 1h-.3l.5-1h.2z"/><path fill="#FFF" d="M68.5 32.5l-.7 1v-.2l.4-.7h.3z"/><path d="M62 38l-1.4.7v-.2L62 38zM67.2 31.2c.3.2.4 0 .5 0v.2l-.7.5c0-.3 0-.5.2-.8zM61.7 39l2-1v.3l-2 .8zM65.5 30l-1.2 1v-.2l.8-.7h.5zM29.2 43l.3 1.2h-.2l-.3-1h.2zM32.8 35l-.8-1c.4 0 .8.6.8 1zM28.3 43.2c0 .4.2.8.3 1v.2l-.4-1V43zM60.5 40.4c-.4 0-1 .2-1.3.4l1-.5h.3zM60 37l-1.5.7c.3-.3.8-.4 1.2-.6h.2zM61.4 14.7l1-.8h.2l-1 .8h-.2zM55.4 11.4l-.7 1h-.2c.3-.4.5-1 1-1zM63.8 37.4l-1 .4 1-.5zM60 39c-.6 0-1 .2-1.5.3l1.3-.5zM27.6 43l.3 1c-.4 0-.5-.4-.4-1zM67.7 31c.3 0 .6-.3.8-.6 0 .4-.3.7-.8.7zM32.4 46.2c-.4 0-.4 0-.2-.6 0 .2 0 .4.2.6zM63.5 40.2c-.3 0-.6.3-1 .4l1-.6v.2zM65.5 37.5l-1.3.6 1.2-.6zM62.6 14.3c0 .3-.3.7-.8.7l.8-.7zM71.8 29L72 30l-.3-1.3zM68.5 30.4l.7-.7c0 .4-.3.6-.7.7zM61.6 41.6c-.4 0-.8.3-1.2.4l1.2-.4zM67 36.2l1-.7v.2l-1 .5zM34.2 45.6v.8c0-.2 0-.5-.2-.7h.2z"/><path d="M55.4 11.4s0-.2.2-.3l.7-.4c-.2.4-.6.6-1 .8zM66.6 31.4l-.6.5v-.2c0-.2.3-.4.5-.5z"/><path fill="#FFF" d="M69.2 29.6z"/><path d="M27.4 80.6h-.2c-.4.3-.6.2-.5-.3v-.7l-.3.2H26l.8-1c0 .5.4 1 0 1.7h.6zM28.4 81.7c-.4 0-.4 0-.4-.7v-.7c0 .2 0 .3.2.5v.4l.2.5zM37.3 84.6h-1v-.3c.4 0 .7 0 1 .2zM47 80v.5h.2c0 .2 0 .5-.2.8.3 0 .5 0 .7-.3l-.6.8h.3l.6-.3c0 .3-.4.6-.8.5 0 0-.2 0-.2-.2v-1c-.2-.2 0-.4 0-.7zM48.6 81.5c-.3.6-.7.8-1.3 1l1.3-1zM40.2 81.4c.3.4.5 1 .8 1.2-.4 0-.7-.3-.8-1.2zM45.3 76c0 .5.2.8.4 1.2h-.2l-.3-1zM40.2 81.4c-.4-.2-.3-.6-.3-1 0 .3 0 .7.2 1zM47 80c-.6 0-.6 0-.5-.5 0 .2.3.4.4.6zM31 49c.7.6 1.4 1 2.2 1.4l1.4 1v.2c.6 0 .8.4 1 .7l-1.2-.7-.7-.3c-.2 0-.4-.3-.5-.5-.2-.3-.6-.5-1-.5-.2 0-.5 0-.6-.3l-.8-.7V49zM30.4 48.4c.4 0 1 .3 1.3.4.3 0 .5 0 .7.2l1.5 1h-.2l-1-.5c-.2 0-.3-.2-.3.2l-2-1.3zM37.7 56c.6-.4.6-.8.6-1.3 0-.2 0-.4.2-.5.3.8 0 1.7-.8 1.8zM24.2 45.6l-1-.5c0-.2 0-.2.2-.2l1 .6-.2.2zM30.4 48.4c-.4 0-1-.3-1.3-.4.2 0 .2-.2.2-.4l1.2.8zM22 45.5l1.5.7c-.5 0-1-.3-1.5-.6zM27 47c-.4 0-.7-.2-1-.4.4 0 .7.2 1 .4zM23 63.5l.2.7c0 .2.2.3.3.5v.8l.3 1v.3c-.2 1 .4 1.7.7 2.5l1 1.7h-.2l-.7-1c-.6-1-1-2-1.3-3 0-.2 0-.7-.2-1v-1.4-.8-.3zM83.6 61c0-.2 0-.3-.2-.4h-1l.4-.2h-.3v.2l1.5-.5c.5 0 1-.3 1.4-.4-.3.4-.7.7-1.2 1-.3 0-.5.2-.8.3zM84.5 70.5c-1 .4-2.2.6-3.3 0 1 .3 2.2-.2 3.3 0zM82 59.5l2.6-1v.2c-.8.3-1.4 1.2-2.5.8z"/><path d="M83 60.4c-.2 0-.2-.2-.3-.2h-.4l2.7-1-.4.3-1.7 1zM83.5 58.3h.6c-.6.6-1.5.7-2.4 1V59h.3l1.5-.7zM84 64.2l2-.8h.2c-.8.5-1.5 1-2.3.8zM83.6 61l1-.4c-.6.3-1 .6-1.7.8h-.6c.2 0 .3-.4.8-.3h.4zM77.7 87.8c0-.3 0-.5-.3-.7l-.6-.3h.4l1.4 1v.5l-.7-.7c-.2 0-.2.2-.3.3zM86.4 64c-.6.5-1.2.8-2 .8l2-.8z"/><path d="M77.7 87.8c0 .2 0 .4-.2.6v.4c0 .2.3.4.3.5l-.8-.6c.2 0 .3-.2.4-.3V88l.3-.2zM83.7 74.4v.2c-.8 0-1.6.2-2.3.3v-.2c.8 0 1.5-.3 2.3-.4zM82.2 80.6c-.5 0-1 0-1.4-.6.6 0 1 .3 1.4.6zM85 71l-2 .5 2-.7v.2zM85 65.4l1.7-.6-1.6.7zM84.6 60.6c.3-.3 1-.5 1.3-.3-.5.4-1 .2-1.4.3zM84.2 72c.4 0 .8-.3 1.2-.4-.2.3-1 .5-1.2.4zM81.5 81.7c0-.3 0-.6-.2-1h.2v1zM77.4 86l1 .7c-.2 0-.2 0-.2.2l-.8-.8zM85.5 67l1-.4v.2l-1 .2zM86.5 66s-.2 0-.4.3c0-.5.2-.5.5-.4zM59 69c.7.2 1.3-.6 2-.7-1.3 1-2.8 1.7-4.4 2 .2-.2.5-.2.7-.3l1.4-.5.2-.4zM62.8 66c0 .8-.5 1.4-1 1.8 0-.5 0-.5.4-1l.6-.8zM53.5 70c-.6 0-1 .3-1.3.6-.2 0-.3 0-.5.2 0 0 0-.3-.2-.4v-.8l.2 1 1.5-.7h.3zM63 62c-.2.5-1.2.8-1.6.7.2-.4.6 0 .8-.3.3 0 .6-.2 1-.4zM62.8 66l.3-1.4v-1.2c.4.3.3 1.6-.2 2.6zM61.7 61l-.3.3c-.4 0-.7.2-1 .3l1.2-.8z"/><path d="M56.8 69.7l1.3-.2c-.5.4-.8.5-1.2.2zM48.3 69v.7h.4l-.3.2-.3-.3.3-.7zM50.3 70.4s0 .2-.3.3c-.4-.6 0-1.3-.2-1.8v1c0 .4.2.5.5.4zM63.2 63.2H62V63h1.2v.2zM48.2 68.6v-2 2zM76.8 58.3c.2.3.4.7.8 1H77c0-.3 0-.5-.2-.7v-.3zM63.6 71l.4.7c-.4 0-.5 0-.4-.8zM77.8 65.2c-.2.5-.5.5-1 .5l1-.5zM51.6 51.8c.5 0 1 .2 1.4.3-.4.4-.7.3-1.4-.2zM69.5 58.4l.6-.3h.2c0 .3 0 .4-.2.6.2 0 .3 0 .4-.2h.3v.3l-.3.2c.4 0 .6 0 1-.2-.4.3-1 .4-1 0H70c-.4.2-.5-.2-.7-.4zM71.8 60l-.2-.2c-.2 0-.3 0-.5-.2h.2-.5l1-.5v.2l-.3.4c.3 0 .6-.2 1-.4 0 .4-.2.6-.6.8zM67.3 65.3v.4c.2 0 .3-.2.4-.3.3 0 0 .7.7.5l-.4.4c0-.2-.2-.4-.3-.5h-.4v-.6zM66.6 65.8v-.6h.5c0 .3 0 .5-.4.6z"/><path d="M71.8 60h.6v.2l-.7.3V60zM69.5 58.4h-.2c0-.4-.2-.3-.4-.4h-.4.8v.4zM73 64.4c.2.5 0 .6-.5.6l.6-.3-.2-.2h.3zM59 80.2c-.3 0-.5.6-1 .5.4 0 .6-.6 1-.5zM52 74.8c.2.5.2 1 .2 1.4l-.3-1.4zM55.8 80.7c0-.2.2-.6.6-.4l-.6.4zM84.6 53c-.4.6-1 1-1.6 1.4-.6.3-1.3.4-1.6 1h-.2c.3-.4.6-1 1-1 1 0 1.4-.7 2-1.3h.4zM84.6 53c0-.6.5-1 .7-1.5 0 .5-.3 1.3-.7 1.5zM83.8 46l1.4-1c0 .4 0 .4-.2.4s-.3.2-.5.3l-.6.4h-.2zM80.8 55v.2h.2l-.4.7c0-.5 0-.8.2-1zM80.2 55c-.3-.3-.3-.3 0-.7v.7zM16 60c.2 0 .6-.2.7 0 .2.2-.2.2-.3.3-.2 0-.4 0-.4-.4zM22.5 70c0 .5-.5.3-.7.5h-.3l1-.5zM75.5 51.5l1-1.5v.3l-1 1.2z"/><path fill="#FFF" d="M43 42v.2L42 42v-.2l1 .2zM70.2 25c0 .4 0 .7-.2 1 0 .4-.4.6-.7 1l-.4-.6c-.2 0-.3 0-.4.2 0-.3.2-.4.3-.6 0-.4.3-.8.6-1.2l.3-.2v.4l-.8 1v.3l.8-1 .2-.3zM70 27.6l-.5.2s-.2-.2 0-.5l.8-1.5c.4.2.5.3.3.6 0 .3-.3.5-.4.8v.4zM68.6 27c.4.4.4.4 0 .7V27zM69 33l-1.3.8 1.2-1zM69 33c0-.4.3-.6.4-.8l.6-.3-1 1z"/><path d="M68.5 29.5l-1 1c.2-.6.7-1 1-1z"/><path fill="#FFF" d="M64.8 35l-.7.6-1.4.6-.6.3c.6-.5 1.3-.8 2-1.2l.8-.3zM69.8 29.5c0-.2 0-.4.2-.6h.2l-.3.6h-.2zM36.5 47.3c-.5-.2-.4-.7-.6-1l.5 1z"/></svg>