<?xml version="1.0" encoding="utf-8"?>
<!-- Generator: Adobe Illustrator 16.0.0, SVG Export Plug-In . SVG Version: 6.00 Build 0)  -->
<!DOCTYPE svg PUBLIC "-//W3C//DTD SVG 1.1//EN" "http://www.w3.org/Graphics/SVG/1.1/DTD/svg11.dtd">
<svg version="1.1" id="Layer_1" xmlns="http://www.w3.org/2000/svg" xmlns:xlink="http://www.w3.org/1999/xlink" x="0px" y="0px"
	 width="100px" height="100px" viewBox="0 0 100 100" enable-background="new 0 0 100 100" xml:space="preserve">
<g>
	<path fill-rule="evenodd" clip-rule="evenodd" d="M48.883,96.402c-4.566-0.005-9.103-0.311-13.576-1.345
		c-6.453-1.492-11.874-4.711-16.046-9.833c-3.663-4.497-7.235-9.078-10.631-13.779c-5.081-7.031-7.687-15.083-8.505-23.618
		c-0.815-8.501,2.473-15.834,7.603-22.408c3.499-4.484,7.874-7.864,13.01-10.37c2.745-1.34,5.311-3.082,7.849-4.805
		c3.666-2.49,7.29-5.047,11.627-6.243c9.112-2.511,17.847-1.802,26.042,3.219c1.296,0.792,2.587,1.612,3.955,2.265
		c2.612,1.245,5.213,2.552,7.929,3.527c12.841,4.616,19.861,13.841,21.584,27.195c0.363,2.814,0.14,5.718,0.044,8.576
		c-0.153,4.694-0.358,9.39-0.662,14.077c-0.246,3.804-0.982,7.526-2.345,11.111c-2.081,5.48-5.927,9.317-10.893,12.312
		C74.475,93.16,62.17,96.531,48.883,96.402z M48.071,95.606c14.459-0.021,25.163-3.042,36.966-9.763
		c6.689-3.809,10.817-9.301,12.316-16.782c0.494-2.464,0.886-4.975,1.02-7.481c0.347-6.412,0.91-12.845,0.686-19.247
		c-0.453-12.928-8.142-24.344-21.483-28.656c-2.415-0.781-4.717-1.94-7.006-3.059c-1.764-0.863-3.442-1.908-5.13-2.918
		c-7.964-4.769-16.41-5.326-25.179-2.856c-3.88,1.093-7.166,3.343-10.471,5.565c-2.831,1.903-5.659,3.885-8.711,5.374
		c-6.712,3.273-11.901,8.093-15.683,14.461c-3.229,5.437-5.171,11.294-4.46,17.676c1.013,9.08,3.973,17.483,9.576,24.824
		c2.704,3.539,5.442,7.054,8.176,10.572c4.373,5.623,9.933,9.41,16.94,10.989C40.001,95.288,44.437,95.571,48.071,95.606z"/>
	<path fill-rule="evenodd" clip-rule="evenodd" fill="#FFFFFF" d="M48.071,95.606c-3.634-0.035-8.07-0.318-12.444-1.303
		c-7.007-1.579-12.567-5.366-16.94-10.989c-2.734-3.519-5.473-7.033-8.176-10.572c-5.604-7.341-8.563-15.744-9.576-24.824
		c-0.711-6.382,1.231-12.239,4.46-17.676c3.782-6.368,8.971-11.188,15.683-14.461c3.052-1.489,5.88-3.471,8.711-5.374
		c3.305-2.222,6.591-4.472,10.471-5.565c8.769-2.469,17.215-1.912,25.179,2.856c1.688,1.01,3.366,2.055,5.13,2.918
		c2.289,1.119,4.591,2.278,7.006,3.059c13.342,4.312,21.03,15.728,21.483,28.656c0.225,6.402-0.339,12.835-0.686,19.247
		c-0.134,2.507-0.525,5.018-1.02,7.481c-1.499,7.481-5.627,12.974-12.316,16.782C73.234,92.564,62.53,95.585,48.071,95.606z
		 M97.617,44.175c-0.247-1.795-0.4-4.509-1.021-7.111c-2.684-11.209-9.271-18.862-20.609-21.989
		c-2.659-0.734-5.116-1.87-7.437-3.335c-2.159-1.366-4.285-2.791-6.485-4.084c-2.653-1.561-5.521-2.528-8.626-2.667
		c-7.181-0.32-13.79,1.323-19.849,5.343c-3.441,2.284-7.097,4.264-10.755,6.193c-7.089,3.74-12.779,8.914-16.744,15.9
		c-2.589,4.562-4.133,9.439-3.637,14.758c0.832,8.914,3.815,16.993,9.485,24.021c2.104,2.605,4.229,5.213,6.097,7.985
		c4.395,6.529,10.46,10.614,17.943,12.72c6.807,1.915,13.735,2.243,20.742,1.457c8.199-0.918,16.104-2.888,23.513-6.597
		c7.464-3.737,12.887-9.302,14.832-17.616c0.798-3.41,1.091-6.949,1.434-10.448C96.942,54.171,97.208,49.618,97.617,44.175z"/>
	<path fill-rule="evenodd" clip-rule="evenodd" d="M97.617,44.175c-0.409,5.443-0.675,9.996-1.118,14.529
		c-0.343,3.499-0.636,7.038-1.434,10.448c-1.945,8.314-7.368,13.879-14.832,17.616c-7.408,3.709-15.313,5.679-23.513,6.597
		c-7.007,0.786-13.935,0.458-20.742-1.457c-7.483-2.105-13.548-6.19-17.943-12.72c-1.868-2.772-3.993-5.38-6.097-7.985
		c-5.67-7.028-8.653-15.107-9.485-24.021c-0.496-5.318,1.048-10.196,3.637-14.758c3.965-6.987,9.654-12.161,16.744-15.9
		c3.658-1.93,7.314-3.91,10.755-6.193c6.06-4.02,12.668-5.663,19.849-5.343c3.105,0.139,5.973,1.106,8.626,2.667
		c2.2,1.294,4.326,2.718,6.485,4.084c2.32,1.465,4.777,2.601,7.437,3.335c11.338,3.127,17.926,10.78,20.609,21.989
		C97.217,39.666,97.37,42.379,97.617,44.175z M50.509,93.291c9.091-0.144,18.303-2.003,27.123-5.767
		c10.616-4.53,17.005-12.238,18.031-23.966c0.393-4.473,0.619-8.96,1.072-13.423c0.398-3.946,0.504-7.871-0.306-11.759
		c-2.457-11.809-9.116-19.759-21.004-23.066c-2.519-0.701-4.889-2.043-7.216-3.299c-2.211-1.195-4.24-2.724-6.414-3.998
		c-3.136-1.837-6.537-2.67-10.195-2.638c-6.389,0.057-12.285,1.628-17.59,5.262c-3.509,2.403-7.192,4.486-11.014,6.375
		c-7.056,3.487-12.571,8.714-16.482,15.561c-2.42,4.239-3.997,8.779-3.654,13.722c0.609,8.82,3.39,16.876,8.888,23.911
		c2.467,3.155,4.938,6.314,7.267,9.571c2.985,4.176,6.758,7.359,11.372,9.56C36.6,92.298,43.222,93.253,50.509,93.291z"/>
	<path fill-rule="evenodd" clip-rule="evenodd" fill="#FFFFFF" d="M50.509,93.291c-7.287-0.038-13.909-0.993-20.122-3.952
		c-4.614-2.2-8.387-5.384-11.372-9.56c-2.329-3.257-4.8-6.416-7.267-9.571C6.25,63.173,3.469,55.117,2.86,46.297
		c-0.342-4.943,1.234-9.483,3.654-13.722c3.912-6.847,9.426-12.074,16.482-15.561c3.822-1.889,7.504-3.973,11.014-6.375
		c5.306-3.634,11.202-5.205,17.59-5.262c3.658-0.032,7.06,0.801,10.195,2.638c2.174,1.274,4.203,2.803,6.414,3.998
		c2.327,1.256,4.697,2.598,7.216,3.299c11.888,3.307,18.547,11.257,21.004,23.066c0.81,3.888,0.704,7.812,0.306,11.759
		c-0.453,4.463-0.68,8.95-1.072,13.423c-1.026,11.728-7.415,19.436-18.031,23.966C68.812,91.288,59.6,93.147,50.509,93.291z
		 M32.935,24.981c0.182-0.982,0.84-0.885,1.493-0.8c0.149,0.019,0.322,0.095,0.446,0.047c0.658-0.25,1.305-0.532,2.014-0.829
		c0.211-0.569,0.492-1.324,0.706-1.902c-0.681-0.273-1.372-0.55-2.058-0.825c-0.328,0.852-0.968,1.071-1.827,0.502
		c0.254,1.205-0.854,1.089-1.378,1.555c-0.25-0.188-0.472-0.354-0.889-0.664c0.151,0.469,0.226,0.702,0.31,0.962
		c-0.759,0.299-1.458,1.012-2.317-0.143c0.05,0.469,0.074,0.692,0.113,1.053c-0.72,0-1.397,0-2.164,0
		c-0.305,0.705-1.036,0.852-1.923,0.201c-0.086,0.945-0.815,1.34-1.967,1.065c0.155,0.91-0.566,1.499-1.681,1.372
		c0.315,0.864-0.096,1.509-0.953,1.704c-0.079,0.903-0.154,1.758-0.22,2.517c0.67,0.215,1.315,0.424,1.929,0.621
		c0.552-0.862,1.04-1.936,1.809-2.74c0.773-0.807,1.826-1.345,2.756-2.003c0.091,0.105,0.182,0.208,0.273,0.312
		c-0.962,0.921-2.692,1.282-2.45,3.08c0.402,0.218,0.802,0.438,0.988,0.539c0.871-0.284,1.592-0.517,2.206-0.717
		c0.352-0.322,0.662-0.67,1.042-0.904c0.092-0.056,0.557,0.229,0.606,0.42c0.121,0.476-1.154,1.701-1.699,1.729
		c-0.149,0.008-0.314,0.05-0.439,0.129c-0.512,0.316-1.012,0.65-1.64,1.061c-0.155,0.566-0.654,0.954-1.385,0.861
		c0.071,0.714,0.138,1.379,0.203,2.036c1.201-0.176,2.395-0.289,3.259-1.313c0.117-0.14,0.627,0.049,0.955,0.087
		c-0.15,0.354-0.282,0.719-0.461,1.06c-0.052,0.098-0.253,0.108-0.356,0.192c-0.469,0.386-0.928,0.786-1.513,1.284
		c0.103,0.731-0.419,1.079-1.737,0.876c1.777,1.092,0.003,1.4-0.078,2.021c0.392,0.109,0.688,0.192,0.985,0.274
		c-0.112,0.334-0.161,0.71-0.347,0.995c-2.595,3.961-3.438,8.256-2.368,12.872c1.507,6.499,6.671,11.257,13.305,12.347
		c6.293,1.035,12.761-1.988,16.223-7.574c0.174-0.282,0.394-0.723,0.63-0.749c1.576-0.167,2.125-1.384,2.521-2.574
		c0.41-1.231,0.5-2.565,0.78-3.843c0.128-0.58,0.378-1.133,0.62-1.833c1.003,0.845,0.849,1.709,0.833,2.512
		c-0.012,0.651-0.254,1.324-0.147,1.945c0.08,0.461,0.494,1.111,0.873,1.201c0.36,0.086,1.047-0.342,1.27-0.729
		c0.366-0.634,0.654-1.42,0.653-2.14c-0.002-1.501-0.233-2.998-0.326-4.498c-0.018-0.295,0.166-0.603,0.256-0.905
		c0.247,0.156,0.626,0.259,0.714,0.478c0.224,0.562,0.359,1.17,0.451,1.771c0.104,0.677-0.037,1.438,0.227,2.031
		c0.205,0.46,0.834,0.917,1.336,0.995c0.29,0.045,0.764-0.619,1.028-1.043c0.163-0.261,0.143-0.679,0.106-1.014
		c-0.115-1.061-0.29-2.113-0.408-3.174c-0.023-0.206,0.099-0.427,0.154-0.643c0.225,0.108,0.528,0.16,0.66,0.338
		c0.199,0.268,0.345,0.613,0.395,0.944c0.213,1.426,0.423,2.855,0.558,4.289c0.101,1.068,0.52,1.683,1.311,1.668
		c0.769-0.015,1.283-0.701,1.203-1.735c-0.178-2.245-0.575-4.426-1.439-6.543c-0.482-1.177-0.56-2.519-0.812-3.788
		c-0.186-0.94-0.265-1.92-0.587-2.811c-0.124-0.347-0.841-0.746-1.188-0.669c-0.322,0.071-0.709,0.74-0.717,1.152
		c-0.011,0.665,0.308,1.329,0.404,2.005c0.061,0.412-0.028,0.848-0.052,1.273c-0.132-0.003-0.264-0.004-0.397-0.007
		c-0.065-0.249-0.141-0.495-0.191-0.747c-0.528-2.531-1.569-4.856-2.928-7.033c-0.631-1.009-1.585-1.211-2.271-0.654
		c-0.699,0.566-0.654,1.292,0.062,2.287c0.604,0.836,1.231,1.671,1.697,2.583c0.633,1.241,1.002,2.579,0.715,4.049
		c-0.598-1.146-1.035-2.346-1.395-3.569c-0.319-1.092-1.07-1.743-1.972-1.58c-0.918,0.165-1.618,1.163-1.386,2.215
		c0.149,0.685,0.598,1.299,0.853,1.967c0.326,0.853,0.638,1.717,0.85,2.603c0.048,0.202-0.302,0.669-0.534,0.723
		c-0.235,0.053-0.678-0.186-0.811-0.42c-0.321-0.565-0.503-1.208-0.763-1.81c-0.988-2.28-2.242-4.385-4.324-5.828
		c-0.504-0.349-1.273-0.323-1.924-0.449c-0.46-0.089-1.014-0.006-1.376-0.235c-2.166-1.372-4.477-2.322-7.038-2.574
		c-1.22-0.12-2.451-0.132-3.799-0.199c0.143-0.447,0.256-0.804,0.301-0.945c-0.6-0.29-1.135-0.549-1.669-0.806
		c0.034,0.057,0.066,0.114,0.1,0.172c-0.7,0.111-1.399,0.22-2.089,0.33c-0.548,0.192-1.137,0.399-1.728,0.607
		c-0.068-0.125-0.138-0.249-0.206-0.373c0.62-0.451,1.215-0.947,1.878-1.322c0.192-0.109,0.58,0.13,0.879,0.209
		c-0.054-0.059-0.108-0.118-0.161-0.176c0.537-0.358,1.074-0.718,1.516-1.015c0.138-0.559,0.284-1.154,0.396-1.61
		c-0.489-0.154-1.09-0.342-1.771-0.556c-0.466,0.197-1.13,0.478-2.077,0.879c0.118-0.526,0.094-0.954,0.252-1.038
		c0.678-0.358,1.41-0.615,1.961-0.842c-0.257-0.583-0.493-1.121-0.692-1.572c-0.544,0-1.151,0-1.842,0
		c-0.3,0.513-0.3,0.513-2.22,0.659C30.44,25.219,32.035,24.539,32.935,24.981z M58.422,70.204c0.117,0.1,0.233,0.197,0.351,0.295
		c-0.271,0.391-0.647,0.748-0.781,1.179c-0.13,0.417-0.009,0.912,0.003,1.37c0.431-0.165,1.09-0.212,1.254-0.521
		c0.771-1.438,1.899-2.398,3.332-3.137c0.405-0.208,0.886-1.006,0.77-1.342c-0.251-0.742-1.038-0.671-1.686-0.413
		c-0.503,0.2-0.969,0.492-1.45,0.744c0.069-0.278,0.206-0.441,0.381-0.525c0.932-0.446,1.926-0.795,2.788-1.349
		c0.36-0.231,0.456-0.881,0.672-1.341c-0.445-0.19-0.911-0.573-1.329-0.527c-0.623,0.069-1.275,0.349-1.806,0.701
		c-1.377,0.918-2.692,1.926-4.034,2.896c-0.081-0.078-0.163-0.156-0.244-0.233c0.367-0.244,0.769-0.451,1.098-0.738
		c0.646-0.568,1.324-1.129,1.849-1.801c0.233-0.299,0.131-0.861,0.18-1.306c-0.415-0.039-0.838-0.139-1.243-0.092
		c-0.287,0.032-0.603,0.212-0.817,0.418c-1.312,1.259-2.599,2.544-3.896,3.819c-0.263,0.259-0.531,0.508-0.798,0.762
		c-0.08-0.07-0.16-0.142-0.238-0.211c0.149-0.238,0.361-0.459,0.438-0.718c0.13-0.437,0.176-0.898,0.256-1.35
		c-0.449,0.159-1.041,0.188-1.321,0.499c-0.958,1.069-1.841,2.216-2.685,3.379c-0.424,0.587-0.636,1.377,0.054,1.86
		c0.71,0.501,1.18-0.147,1.604-0.67c0.346-0.428,0.718-0.838,1.076-1.253c0.1,0.062,0.197,0.127,0.298,0.19
		c-0.139,0.323-0.226,0.683-0.426,0.963c-0.561,0.786-1.225,1.503-1.742,2.313c-0.59,0.921-1.134,1.886-1.568,2.888
		c-0.282,0.652-0.092,1.424,0.661,1.591c0.267,0.06,0.935-0.604,1.03-1.027c0.62-2.759,3.227-4.296,4.145-6.861
		c0.069-0.193,0.552-0.239,0.842-0.353c0.065,0.373,0.286,0.81,0.164,1.103c-0.191,0.459-0.627,0.812-0.938,1.227
		c-0.475,0.632-0.994,1.242-1.369,1.932c-0.146,0.27,0.047,0.725,0.085,1.096c0.377-0.082,0.891-0.036,1.104-0.268
		c0.626-0.68,1.129-1.473,1.687-2.216C56.916,72.185,57.671,71.196,58.422,70.204z M89.918,64.35
		c-0.131-0.665-0.205-1.247-0.362-1.807c-0.34-1.212-1.156-1.919-2.395-2.149c-1.271-0.232-2.269,0.218-2.918,1.291
		c-0.498,0.82-0.943,1.693-1.258,2.597c-0.881,2.541-2.193,4.818-3.838,6.934c-0.587,0.757-1.188,1.56-1.522,2.443
		c-0.241,0.638-0.289,1.555-0.007,2.148c0.848,1.784,2.943,2.42,4.672,1.469c0.83-0.458,1.612-1.085,2.25-1.787
		c2.015-2.217,3.546-4.755,4.521-7.591C89.462,66.735,89.647,65.497,89.918,64.35z M35.765,87.689
		c1.797,0.035,2.997-0.884,3.514-2.507c0.414-1.298,0.049-2.118-1.399-3.092c-0.4-0.27-0.811-0.531-1.244-0.743
		c-2.536-1.243-4.807-2.838-6.778-4.875c-0.592-0.613-1.312-1.126-2.039-1.579c-1.021-0.637-2.047-0.495-2.983,0.252
		c-0.912,0.726-1.453,1.678-1.042,2.811c0.418,1.147,0.915,2.338,1.66,3.285c2.229,2.835,5.181,4.735,8.523,6.028
		C34.613,87.516,35.317,87.588,35.765,87.689z M52.017,10.962c-0.472,0.085-0.883,0.138-1.283,0.234
		c-1.504,0.359-2.337,1.376-2.431,2.943c-0.076,1.262,0.437,1.921,1.995,2.514c0.547,0.207,1.106,0.396,1.674,0.535
		c2.267,0.56,4.365,1.477,6.321,2.758c0.686,0.45,1.441,0.818,2.207,1.12c1.054,0.417,2.029,0.243,2.822-0.639
		c0.804-0.891,0.988-1.895,0.468-2.965c-0.267-0.55-0.609-1.096-1.033-1.534C59.808,12.875,56.019,11.641,52.017,10.962z
		 M72.375,28.728c-0.007,2.404,1.312,4.772,3.265,5.876c2.447,1.38,5.179,0.411,6.207-2.201c1.126-2.855-0.193-6.642-2.928-8.031
		c-0.812-0.413-1.863-0.668-2.754-0.562C73.844,24.086,72.38,26.118,72.375,28.728z M12.224,45.475
		c2.999-0.004,5.811-2.322,6.357-5.242c0.422-2.252-0.884-4.247-3.109-4.754c-2.936-0.669-6.376,1.379-7.351,4.376
		C7.139,42.879,9.037,45.479,12.224,45.475z M66.521,83.42c-0.011-3.226-3.581-5.471-6.94-4.366
		c-2.023,0.665-3.379,2.407-3.389,4.352c-0.012,1.963,1.303,3.688,3.334,4.386C62.904,88.95,66.532,86.682,66.521,83.42z
		 M13.356,56.92c-0.754,0.089-1.293,0.447-1.332,1.273c-0.038,0.812,0.432,1.287,1.203,1.405c0.705,0.108,1.423-0.575,1.411-1.312
		C14.628,57.471,14.148,57.053,13.356,56.92z M13.42,55.644c-0.006-0.796-0.626-1.437-1.335-1.39
		c-0.801,0.054-1.275,0.503-1.296,1.33c-0.019,0.737,0.579,1.323,1.317,1.293C12.935,56.843,13.332,56.349,13.42,55.644z
		 M10.503,55.254c-0.018-0.78-0.629-1.371-1.36-1.323c-0.819,0.054-1.257,0.529-1.268,1.345c-0.01,0.729,0.621,1.326,1.345,1.273
		C10.037,56.488,10.447,56,10.503,55.254z M12.2,52.775c-0.087-0.76-0.479-1.285-1.289-1.312c-0.802-0.024-1.279,0.438-1.359,1.235
		c-0.074,0.747,0.569,1.43,1.313,1.395C11.67,54.057,12.089,53.576,12.2,52.775z M15.104,53.183
		c-0.012-0.805-0.604-1.384-1.324-1.389c-0.762-0.004-1.388,0.629-1.315,1.386c0.077,0.799,0.544,1.249,1.356,1.227
		C14.646,54.382,15.016,53.859,15.104,53.183z M15.041,57.235c0.799-0.014,1.41-0.624,1.416-1.317
		c0.006-0.735-0.664-1.397-1.401-1.329c-0.803,0.075-1.262,0.563-1.241,1.36C13.835,56.755,14.348,57.164,15.041,57.235z
		 M11.503,58.102c-0.033-0.854-0.476-1.316-1.275-1.389c-0.713-0.063-1.343,0.553-1.337,1.283c0.006,0.819,0.443,1.317,1.262,1.343
		C10.975,59.364,11.408,58.876,11.503,58.102z M47.945,86.747c-0.359-0.273-0.563-0.542-0.787-0.56
		c-0.162-0.015-0.522,0.347-0.492,0.467c0.057,0.231,0.298,0.504,0.521,0.572C47.333,87.273,47.581,86.99,47.945,86.747z
		 M64.252,25.462c-0.245,0.429-0.483,0.665-0.47,0.885c0.009,0.165,0.347,0.44,0.529,0.431c0.184-0.008,0.502-0.311,0.495-0.473
		C64.798,26.083,64.539,25.871,64.252,25.462z M88.022,32.914c-0.271,0.295-0.583,0.493-0.565,0.651
		c0.029,0.23,0.295,0.434,0.457,0.649c0.201-0.186,0.497-0.34,0.563-0.564C88.522,33.499,88.244,33.251,88.022,32.914z
		 M74.835,84.282c0.271-0.334,0.582-0.567,0.545-0.707c-0.062-0.23-0.349-0.401-0.541-0.597c-0.176,0.182-0.469,0.349-0.493,0.547
		C74.325,83.71,74.591,83.928,74.835,84.282z M36.755,72.418c-0.435-0.252-0.669-0.492-0.893-0.483
		c-0.167,0.006-0.451,0.341-0.446,0.521c0.006,0.184,0.307,0.504,0.473,0.501C36.114,72.952,36.334,72.696,36.755,72.418z
		 M18.662,68.292c-0.268,0.372-0.533,0.583-0.544,0.808c-0.009,0.17,0.306,0.358,0.476,0.537c0.193-0.188,0.482-0.352,0.546-0.577
		C19.181,68.906,18.906,68.664,18.662,68.292z"/>
	<path fill-rule="evenodd" clip-rule="evenodd" d="M32.935,24.981c-0.899-0.443-2.495,0.238-3.026,1.202
		c1.92-0.146,1.92-0.146,2.22-0.659c0.691,0,1.298,0,1.842,0c0.199,0.451,0.435,0.988,0.692,1.572
		c-0.552,0.227-1.283,0.483-1.961,0.842c-0.159,0.084-0.135,0.512-0.252,1.038c0.946-0.401,1.61-0.682,2.077-0.879
		c0.681,0.214,1.282,0.402,1.771,0.556c-0.111,0.456-0.258,1.051-0.396,1.61c-0.442,0.297-0.979,0.656-1.516,1.015
		c0.053,0.059,0.107,0.117,0.161,0.176c-0.299-0.08-0.687-0.318-0.879-0.209c-0.663,0.375-1.258,0.871-1.878,1.322
		c0.068,0.124,0.138,0.248,0.206,0.373c0.59-0.208,1.18-0.416,1.728-0.607c0.69-0.109,1.389-0.219,2.089-0.33
		c-0.034-0.059-0.066-0.115-0.1-0.172c0.535,0.257,1.069,0.516,1.669,0.806c-0.044,0.141-0.158,0.498-0.301,0.945
		c1.348,0.067,2.58,0.08,3.799,0.199c2.561,0.252,4.873,1.202,7.038,2.574c0.362,0.229,0.917,0.146,1.376,0.235
		c0.651,0.126,1.42,0.1,1.924,0.449c2.082,1.442,3.336,3.547,4.324,5.828c0.26,0.602,0.441,1.244,0.763,1.81
		c0.133,0.234,0.575,0.474,0.811,0.42c0.232-0.054,0.582-0.521,0.534-0.723c-0.212-0.886-0.523-1.75-0.85-2.603
		c-0.255-0.668-0.703-1.283-0.853-1.967c-0.232-1.052,0.468-2.05,1.386-2.215c0.901-0.163,1.652,0.488,1.972,1.58
		c0.359,1.223,0.797,2.422,1.395,3.569c0.287-1.47-0.082-2.808-0.715-4.049c-0.466-0.912-1.094-1.748-1.697-2.583
		c-0.716-0.994-0.761-1.721-0.062-2.287c0.686-0.558,1.64-0.355,2.271,0.654c1.358,2.176,2.399,4.501,2.928,7.033
		c0.051,0.252,0.126,0.499,0.191,0.747c0.134,0.003,0.266,0.004,0.397,0.007c0.023-0.425,0.112-0.861,0.052-1.273
		c-0.097-0.677-0.415-1.34-0.404-2.005c0.008-0.413,0.395-1.081,0.717-1.152c0.348-0.077,1.064,0.322,1.188,0.669
		c0.322,0.891,0.401,1.87,0.587,2.811c0.252,1.27,0.329,2.611,0.812,3.788c0.864,2.117,1.262,4.298,1.439,6.543
		c0.08,1.034-0.435,1.721-1.203,1.735c-0.791,0.015-1.21-0.6-1.311-1.668c-0.135-1.434-0.345-2.863-0.558-4.289
		c-0.05-0.331-0.195-0.676-0.395-0.944c-0.132-0.178-0.436-0.23-0.66-0.338c-0.056,0.216-0.178,0.437-0.154,0.643
		c0.118,1.061,0.293,2.113,0.408,3.174c0.036,0.335,0.057,0.753-0.106,1.014c-0.265,0.424-0.738,1.088-1.028,1.043
		c-0.502-0.078-1.131-0.535-1.336-0.995c-0.264-0.593-0.122-1.354-0.227-2.031c-0.092-0.602-0.228-1.209-0.451-1.771
		c-0.088-0.219-0.467-0.322-0.714-0.478c-0.09,0.302-0.273,0.61-0.256,0.905c0.093,1.5,0.324,2.997,0.326,4.498
		c0.001,0.72-0.287,1.506-0.653,2.14c-0.223,0.387-0.909,0.814-1.27,0.729c-0.379-0.09-0.793-0.74-0.873-1.201
		c-0.106-0.621,0.136-1.294,0.147-1.945c0.016-0.803,0.17-1.667-0.833-2.512c-0.242,0.7-0.492,1.252-0.62,1.833
		c-0.28,1.277-0.37,2.611-0.78,3.843c-0.396,1.19-0.945,2.407-2.521,2.574c-0.236,0.026-0.456,0.467-0.63,0.749
		c-3.462,5.586-9.929,8.609-16.223,7.574c-6.634-1.09-11.798-5.848-13.305-12.347c-1.07-4.616-0.228-8.91,2.368-12.872
		c0.186-0.285,0.235-0.661,0.347-0.995c-0.297-0.082-0.594-0.165-0.985-0.274c0.081-0.621,1.854-0.929,0.078-2.021
		c1.318,0.203,1.84-0.145,1.737-0.876c0.585-0.499,1.044-0.898,1.513-1.284c0.103-0.084,0.305-0.094,0.356-0.192
		c0.179-0.34,0.311-0.706,0.461-1.06c-0.328-0.038-0.837-0.227-0.955-0.087c-0.864,1.025-2.059,1.137-3.259,1.313
		c-0.065-0.657-0.132-1.322-0.203-2.036c0.731,0.093,1.23-0.295,1.385-0.861c0.628-0.41,1.128-0.745,1.64-1.061
		c0.125-0.079,0.29-0.121,0.439-0.129c0.545-0.028,1.819-1.254,1.699-1.729c-0.049-0.19-0.515-0.476-0.606-0.42
		c-0.38,0.234-0.689,0.583-1.042,0.904c-0.614,0.2-1.335,0.433-2.206,0.717c-0.186-0.102-0.586-0.321-0.988-0.539
		c-0.242-1.797,1.488-2.158,2.45-3.08c-0.091-0.104-0.182-0.207-0.273-0.312c-0.931,0.658-1.983,1.196-2.756,2.003
		c-0.769,0.804-1.257,1.877-1.809,2.74c-0.614-0.197-1.259-0.406-1.929-0.621c0.066-0.759,0.141-1.614,0.22-2.517
		c0.856-0.195,1.268-0.84,0.953-1.704c1.114,0.126,1.835-0.462,1.681-1.372c1.152,0.275,1.881-0.12,1.967-1.065
		c0.887,0.651,1.618,0.504,1.923-0.201c0.767,0,1.443,0,2.164,0c-0.04-0.36-0.063-0.584-0.113-1.053
		c0.858,1.155,1.558,0.442,2.317,0.143c-0.084-0.26-0.159-0.494-0.31-0.962c0.417,0.31,0.639,0.476,0.889,0.664
		c0.524-0.465,1.632-0.35,1.378-1.555c0.859,0.569,1.499,0.349,1.827-0.502c0.686,0.274,1.376,0.552,2.058,0.825
		c-0.214,0.579-0.495,1.333-0.706,1.902c-0.709,0.296-1.356,0.579-2.014,0.829c-0.125,0.048-0.297-0.028-0.446-0.047
		C33.775,24.096,33.117,24,32.935,24.981z M53.542,56.98c0.068,0.068,0.136,0.136,0.203,0.203c0.354-0.338,0.761-0.639,1.054-1.022
		c1.062-1.388,1.132-3.074,1.375-4.713c0.095-0.64,0.243-1.3,0.525-1.873c0.333-0.671,0.984-0.69,1.388-0.054
		c0.244,0.387,0.404,0.896,0.409,1.352c0.01,0.892-0.181,1.788-0.152,2.679c0.012,0.371,0.37,0.731,0.571,1.096
		c0.305-0.235,0.746-0.409,0.884-0.719c0.274-0.616,0.539-1.312,0.529-1.97c-0.022-1.398-0.275-2.791-0.324-4.188
		c-0.017-0.476,0.294-0.963,0.453-1.442c0.45,0.222,1.061,0.335,1.309,0.696c0.329,0.479,0.431,1.145,0.526,1.747
		c0.086,0.54-0.085,1.141,0.076,1.645c0.146,0.454,0.584,0.819,0.894,1.222c0.273-0.414,0.78-0.829,0.778-1.239
		c-0.006-1.163-0.268-2.321-0.327-3.486c-0.021-0.412,0.25-0.838,0.387-1.257c0.427,0.208,0.924,0.34,1.26,0.647
		c0.25,0.229,0.36,0.674,0.413,1.039c0.214,1.46,0.39,2.927,0.56,4.394c0.065,0.572,0.107,1.198,0.854,1.18
		c0.77-0.018,0.783-0.669,0.758-1.229c-0.098-2.224-0.432-4.402-1.424-6.426c-0.606-1.24-0.841-2.525-0.816-3.906
		c0.013-0.812-0.172-1.649-0.403-2.434c-0.087-0.299-0.555-0.487-0.849-0.727c-0.135,0.323-0.414,0.665-0.375,0.965
		c0.091,0.71,0.348,1.397,0.511,2.1c0.143,0.62,0.105,1.272-0.626,1.418c-0.732,0.146-0.804-0.516-0.994-1.052
		c-0.714-2.009-1.458-4.009-2.252-5.989c-0.198-0.495-0.559-0.988-0.975-1.313c-0.278-0.217-1.02-0.313-1.148-0.148
		c-0.232,0.298-0.282,0.862-0.183,1.26c0.091,0.364,0.484,0.652,0.735,0.983c1.322,1.748,2.153,3.691,2.201,5.905
		c0.007,0.345-0.288,0.697-0.443,1.047c-0.274-0.233-0.682-0.413-0.803-0.71c-0.469-1.142-0.858-2.317-1.256-3.487
		c-0.231-0.681-0.6-1.196-1.39-1.144c-0.66,0.043-1.267,0.875-1.086,1.627c0.157,0.652,0.569,1.237,0.81,1.874
		c0.348,0.92,0.752,1.843,0.9,2.8c0.056,0.358-0.447,0.993-0.851,1.19c-0.606,0.297-1.126-0.111-1.391-0.722
		c-0.274-0.633-0.496-1.29-0.777-1.919c-0.971-2.169-2.175-4.181-4.189-5.54c-0.435-0.293-1.067-0.288-1.61-0.419
		c-0.029,0.098-0.06,0.195-0.089,0.293C55.15,42.808,56.564,49.407,53.542,56.98z M36.72,33.465
		c0.013-0.673-0.437-0.991-1.181-0.861c-0.916,0.16-1.809,0.468-2.728,0.577c-0.445,0.054-0.928-0.198-1.394-0.312
		c0.205-0.41,0.305-0.983,0.636-1.195c0.832-0.534,1.798-0.852,2.646-1.365c0.339-0.205,0.507-0.694,0.752-1.054
		c-0.409-0.15-0.826-0.438-1.228-0.421c-0.605,0.026-1.194,0.341-1.803,0.397c-0.744,0.067-0.977-0.436-0.582-0.982
		c0.321-0.446,0.899-0.702,1.336-1.074c0.231-0.195,0.406-0.459,0.605-0.694c-0.293-0.127-0.608-0.397-0.875-0.356
		c-0.676,0.105-1.321,0.423-1.997,0.511c-0.453,0.058-0.939-0.131-1.41-0.209c0.244-0.436,0.383-1.087,0.752-1.267
		c1.198-0.584,2.475-1.01,3.732-1.464c0.806-0.291,1.657-0.467,2.434-0.814c0.225-0.101,0.431-0.685,0.336-0.925
		c-0.089-0.225-0.626-0.453-0.898-0.39c-0.661,0.156-1.331,0.401-1.911,0.752c-2.035,1.228-4.206,2.035-6.553,2.428
		c-2.47,0.415-4.446,1.662-5.757,3.83c-0.369,0.611-1.027,1.449-0.079,1.97c0.892,0.488,1.331-0.413,1.686-1.08
		c0.696-1.307,1.74-2.238,3.082-2.795c0.409-0.168,0.941-0.04,1.417-0.047c-0.227,0.4-0.399,0.851-0.697,1.187
		c-0.265,0.3-0.736,0.42-0.996,0.722c-0.267,0.312-0.388,0.747-0.574,1.129c0.444,0.054,0.944,0.267,1.316,0.13
		c0.667-0.245,1.23-0.769,1.893-1.038c0.378-0.155,1.038-0.214,1.258,0c0.243,0.237,0.329,1.021,0.126,1.252
		c-0.617,0.703-1.387,1.282-2.135,1.861c-0.812,0.627-1.682,1.179-2.486,1.815c-0.155,0.123-0.241,0.562-0.143,0.711
		c0.103,0.156,0.526,0.259,0.709,0.173c0.616-0.289,1.193-0.667,1.776-1.023c0.511-0.312,1.121-0.54,1.459,0.048
		c0.22,0.38,0.164,1.023,0.016,1.479c-0.11,0.34-0.574,0.558-0.862,0.849c-0.65,0.657-1.356,1.276-1.904,2.011
		c-0.275,0.368-0.257,0.958-0.384,1.502c1.742-1.328,3.213-2.715,4.925-3.675C32.751,34.793,34.708,34.254,36.72,33.465z
		 M38.753,65.644c8.599,0.167,15.684-6.801,15.888-15.625c0.2-8.545-6.792-15.751-15.471-15.945
		c-8.623-0.193-15.767,6.751-15.978,15.53C22.982,58.293,29.948,65.474,38.753,65.644z"/>
	<path fill-rule="evenodd" clip-rule="evenodd" d="M58.422,70.204c-0.751,0.992-1.506,1.98-2.252,2.975
		c-0.558,0.743-1.061,1.536-1.687,2.216c-0.213,0.231-0.727,0.186-1.104,0.268c-0.038-0.371-0.231-0.826-0.085-1.096
		c0.375-0.689,0.895-1.3,1.369-1.932c0.312-0.414,0.747-0.768,0.938-1.227c0.122-0.293-0.099-0.729-0.164-1.103
		c-0.29,0.113-0.772,0.159-0.842,0.353c-0.918,2.565-3.525,4.103-4.145,6.861c-0.095,0.423-0.763,1.087-1.03,1.027
		c-0.753-0.167-0.943-0.938-0.661-1.591c0.434-1.002,0.978-1.967,1.568-2.888c0.517-0.811,1.181-1.527,1.742-2.313
		c0.2-0.28,0.287-0.64,0.426-0.963c-0.101-0.063-0.198-0.128-0.298-0.19c-0.358,0.415-0.73,0.825-1.076,1.253
		c-0.425,0.522-0.895,1.171-1.604,0.67c-0.69-0.483-0.479-1.273-0.054-1.86c0.844-1.163,1.727-2.31,2.685-3.379
		c0.28-0.311,0.872-0.34,1.321-0.499c-0.08,0.451-0.126,0.913-0.256,1.35c-0.077,0.259-0.289,0.479-0.438,0.718
		c0.078,0.069,0.158,0.141,0.238,0.211c0.267-0.254,0.535-0.503,0.798-0.762c1.297-1.275,2.583-2.561,3.896-3.819
		c0.215-0.206,0.53-0.386,0.817-0.418c0.405-0.047,0.828,0.053,1.243,0.092c-0.049,0.444,0.054,1.007-0.18,1.306
		c-0.524,0.672-1.202,1.232-1.849,1.801c-0.329,0.287-0.73,0.494-1.098,0.738c0.081,0.077,0.163,0.155,0.244,0.233
		c1.342-0.971,2.657-1.979,4.034-2.896c0.53-0.353,1.183-0.632,1.806-0.701c0.418-0.046,0.884,0.337,1.329,0.527
		c-0.216,0.46-0.312,1.109-0.672,1.341c-0.862,0.554-1.856,0.902-2.788,1.349c-0.175,0.084-0.312,0.247-0.381,0.525
		c0.481-0.252,0.947-0.544,1.45-0.744c0.647-0.258,1.435-0.329,1.686,0.413c0.116,0.336-0.364,1.134-0.77,1.342
		c-1.433,0.738-2.561,1.698-3.332,3.137c-0.164,0.309-0.823,0.355-1.254,0.521c-0.012-0.458-0.133-0.953-0.003-1.37
		c0.134-0.431,0.511-0.788,0.781-1.179C58.655,70.401,58.539,70.304,58.422,70.204z M62.975,68.231
		c-0.025-0.095-0.049-0.189-0.073-0.284c-0.479,0.089-0.971,0.128-1.427,0.277c-0.354,0.116-0.641,0.43-0.994,0.541
		c-0.246,0.079-0.554-0.033-0.835-0.061c0.064-0.272,0.036-0.678,0.207-0.795c0.647-0.445,1.351-0.811,2.047-1.18
		c0.396-0.208,0.857-0.309,1.214-0.565c0.234-0.17,0.336-0.528,0.496-0.803c-0.303-0.1-0.629-0.323-0.905-0.271
		c-0.495,0.092-1.022,0.261-1.426,0.554c-1.336,0.966-2.607,2.02-3.939,2.99c-0.25,0.183-0.666,0.139-1.004,0.2
		c0.059-0.31,0.015-0.712,0.196-0.909c0.652-0.708,1.4-1.323,2.07-2.018c0.373-0.386,0.664-0.854,0.992-1.285
		c-0.073-0.09-0.147-0.182-0.222-0.271c-0.342,0.085-0.751,0.081-1.015,0.275c-0.911,0.667-1.822,1.353-2.638,2.131
		c-0.769,0.735-1.381,1.631-2.138,2.377c-0.185,0.183-0.67,0.062-1.016,0.08c0.027-0.315-0.014-0.659,0.102-0.938
		c0.164-0.391,0.443-0.73,0.675-1.092c-0.113-0.075-0.226-0.15-0.336-0.226c-1.13,1.385-2.287,2.748-3.357,4.176
		c-0.167,0.222,0.064,0.74,0.111,1.122c0.312-0.152,0.683-0.245,0.925-0.474c0.395-0.376,0.666-0.881,1.069-1.245
		c0.184-0.165,0.624-0.244,0.819-0.134c0.16,0.09,0.265,0.588,0.162,0.784c-0.411,0.786-0.904,1.53-1.383,2.283
		c-0.697,1.099-1.454,2.163-2.08,3.302c-0.19,0.346-0.029,0.886-0.029,1.338c0.137,0.019,0.273,0.037,0.41,0.057
		c0.184-0.381,0.371-0.759,0.549-1.141c0.349-0.748,0.62-1.541,1.052-2.235c0.888-1.423,1.849-2.801,2.805-4.178
		c0.378-0.542,0.817-1.117,1.601-0.698c0.629,0.339,0.697,1.305,0.156,2.002c-0.529,0.682-1.128,1.31-1.644,1.998
		c-0.286,0.378-0.47,0.833-0.698,1.252c0.076,0.057,0.154,0.113,0.23,0.169c0.194-0.107,0.445-0.169,0.573-0.328
		c0.495-0.617,0.941-1.272,1.423-1.899c0.775-1.007,1.54-2.025,2.366-2.987c0.167-0.194,0.591-0.168,0.896-0.242
		c0.022,0.346,0.143,0.724,0.045,1.032c-0.109,0.344-0.438,0.612-0.627,0.939c-0.13,0.224-0.184,0.491-0.33,0.904
		C59.812,71.139,61.394,69.685,62.975,68.231z"/>
	<path fill-rule="evenodd" clip-rule="evenodd" d="M89.918,64.35c-0.271,1.147-0.456,2.386-0.857,3.548
		c-0.975,2.836-2.506,5.374-4.521,7.591c-0.638,0.702-1.42,1.329-2.25,1.787c-1.729,0.951-3.824,0.315-4.672-1.469
		c-0.282-0.594-0.234-1.511,0.007-2.148c0.334-0.884,0.936-1.687,1.522-2.443c1.645-2.115,2.957-4.393,3.838-6.934
		c0.314-0.903,0.76-1.776,1.258-2.597c0.649-1.073,1.646-1.523,2.918-1.291c1.238,0.23,2.055,0.938,2.395,2.149
		C89.713,63.103,89.787,63.685,89.918,64.35z M89.521,64.355c-0.054-0.019-0.107-0.038-0.162-0.058
		c-0.045-0.411-0.066-0.826-0.142-1.231c-0.244-1.303-0.924-2.005-2.126-2.233c-1.135-0.217-1.972,0.168-2.647,1.352
		c-0.428,0.744-0.796,1.536-1.076,2.348c-0.87,2.506-2.155,4.771-3.798,6.849c-0.426,0.539-0.821,1.11-1.184,1.697
		c-0.818,1.327-0.836,2.092-0.123,2.937c0.995,1.177,2.33,1.606,3.602,0.952c0.839-0.434,1.742-0.99,2.271-1.735
		c1.473-2.071,2.9-4.198,4.075-6.445C88.911,67.447,89.103,65.842,89.521,64.355z"/>
	<path fill-rule="evenodd" clip-rule="evenodd" d="M35.765,87.689c-0.448-0.102-1.152-0.174-1.788-0.42
		c-3.343-1.293-6.294-3.193-8.523-6.028c-0.745-0.947-1.242-2.138-1.66-3.285c-0.411-1.133,0.131-2.085,1.042-2.811
		c0.936-0.747,1.962-0.889,2.983-0.252c0.728,0.453,1.447,0.966,2.039,1.579c1.971,2.037,4.242,3.632,6.778,4.875
		c0.433,0.212,0.844,0.474,1.244,0.743c1.448,0.974,1.813,1.794,1.399,3.092C38.762,86.806,37.562,87.725,35.765,87.689z
		 M35.775,87.222c0.506-0.044,0.751-0.042,0.987-0.089c1.292-0.266,1.872-1.21,2.178-2.371c0.269-1.016-0.353-1.636-1.09-2.146
		c-0.566-0.392-1.158-0.758-1.772-1.063c-2.34-1.162-4.446-2.636-6.265-4.521c-0.523-0.545-1.118-1.033-1.735-1.47
		c-1.105-0.785-1.946-0.799-2.86-0.146c-1.002,0.717-1.376,1.658-0.888,2.913c0.381,0.981,0.902,1.958,1.565,2.769
		c2.167,2.647,4.959,4.467,8.125,5.712C34.65,87.059,35.352,87.127,35.775,87.222z"/>
	<path fill-rule="evenodd" clip-rule="evenodd" d="M52.017,10.962c4.002,0.679,7.791,1.914,10.739,4.967
		c0.424,0.438,0.767,0.984,1.033,1.534c0.521,1.07,0.336,2.074-0.468,2.965c-0.793,0.881-1.769,1.055-2.822,0.639
		c-0.766-0.301-1.521-0.669-2.207-1.12c-1.956-1.281-4.055-2.199-6.321-2.758c-0.567-0.139-1.127-0.328-1.674-0.535
		c-1.558-0.593-2.07-1.252-1.995-2.514c0.094-1.567,0.927-2.583,2.431-2.943C51.134,11.1,51.545,11.047,52.017,10.962z
		 M62.642,16.662l0.035,0.037c-0.529-0.574-0.984-1.244-1.598-1.704c-2.504-1.876-5.346-3-8.435-3.419
		c-0.784-0.106-1.665,0.026-2.422,0.283c-1.119,0.381-1.432,1.403-1.484,2.5c-0.049,1.027,0.653,1.544,1.463,1.763
		c3.553,0.96,6.89,2.39,9.992,4.372c0.028,0.018,0.063,0.027,0.095,0.04c1.353,0.548,2.279,0.307,2.978-0.773
		C63.915,18.754,63.693,17.65,62.642,16.662z"/>
	<path fill-rule="evenodd" clip-rule="evenodd" d="M72.375,28.728c0.005-2.609,1.469-4.642,3.79-4.919
		c0.891-0.105,1.942,0.15,2.754,0.562c2.734,1.389,4.054,5.176,2.928,8.031c-1.028,2.612-3.76,3.581-6.207,2.201
		C73.687,33.5,72.368,31.131,72.375,28.728z M81.823,30.52c-0.163-2.758-1.09-4.715-3.288-5.872
		c-2.075-1.092-4.31-0.258-5.261,1.881c-1.225,2.749,0.145,6.508,2.85,7.823c2.07,1.006,4.266,0.242,5.179-1.877
		C81.611,31.763,81.71,30.96,81.823,30.52z"/>
	<path fill-rule="evenodd" clip-rule="evenodd" d="M12.224,45.475c-3.187,0.004-5.085-2.595-4.103-5.62
		c0.975-2.997,4.415-5.045,7.351-4.376c2.226,0.507,3.531,2.502,3.109,4.754C18.035,43.152,15.223,45.471,12.224,45.475z
		 M12.207,45.047c2.758-0.001,5.44-2.201,5.933-4.867c0.401-2.174-0.912-4.007-3.102-4.325c-2.705-0.394-5.687,1.532-6.509,4.202
		C7.697,42.757,9.386,45.047,12.207,45.047z"/>
	<path fill-rule="evenodd" clip-rule="evenodd" d="M66.521,83.42c0.011,3.262-3.617,5.53-6.995,4.371
		c-2.031-0.697-3.346-2.423-3.334-4.386c0.01-1.944,1.365-3.687,3.389-4.352C62.94,77.949,66.511,80.194,66.521,83.42z
		 M61.391,79.227c-2.14-0.013-3.991,1.225-4.573,3.054c-0.696,2.182,0.653,4.447,3.07,5.161c2.615,0.772,5.447-0.654,6.06-3.053
		C66.624,81.746,64.416,79.245,61.391,79.227z"/>
	<path fill-rule="evenodd" clip-rule="evenodd" d="M13.356,56.92c0.792,0.133,1.271,0.551,1.283,1.366
		c0.012,0.737-0.707,1.421-1.411,1.312c-0.771-0.118-1.241-0.594-1.203-1.405C12.063,57.367,12.602,57.009,13.356,56.92z
		 M14.547,58.264c-0.554-0.4-0.892-0.833-1.19-0.808c-0.32,0.027-0.603,0.485-0.903,0.755c0.298,0.306,0.558,0.781,0.908,0.863
		C13.614,59.132,13.989,58.666,14.547,58.264z"/>
	<path fill-rule="evenodd" clip-rule="evenodd" d="M13.42,55.644c-0.088,0.705-0.485,1.199-1.314,1.233
		c-0.738,0.03-1.336-0.556-1.317-1.293c0.021-0.827,0.495-1.276,1.296-1.33C12.793,54.207,13.414,54.848,13.42,55.644z
		 M13.319,55.507c-0.577-0.366-0.937-0.777-1.237-0.737c-0.317,0.041-0.575,0.516-0.858,0.8c0.313,0.291,0.599,0.754,0.951,0.811
		C12.437,56.423,12.784,55.938,13.319,55.507z"/>
	<path fill-rule="evenodd" clip-rule="evenodd" d="M10.503,55.254C10.447,56,10.037,56.488,9.22,56.549
		c-0.724,0.053-1.355-0.544-1.345-1.273c0.011-0.815,0.449-1.291,1.268-1.345C9.875,53.883,10.486,54.474,10.503,55.254z
		 M9.19,56.457c0.397-0.559,0.828-0.897,0.8-1.194c-0.03-0.319-0.49-0.598-0.762-0.894c-0.305,0.298-0.781,0.558-0.859,0.908
		C8.313,55.53,8.782,55.902,9.19,56.457z"/>
	<path fill-rule="evenodd" clip-rule="evenodd" d="M12.2,52.775c-0.111,0.801-0.53,1.281-1.335,1.318
		c-0.744,0.035-1.387-0.647-1.313-1.395c0.08-0.797,0.558-1.26,1.359-1.235C11.721,51.49,12.113,52.016,12.2,52.775z M12.082,52.745
		c-0.556-0.388-0.941-0.851-1.201-0.788c-0.348,0.082-0.598,0.571-0.89,0.888c0.306,0.268,0.602,0.731,0.922,0.748
		C11.217,53.608,11.545,53.158,12.082,52.745z"/>
	<path fill-rule="evenodd" clip-rule="evenodd" d="M15.104,53.183c-0.087,0.677-0.458,1.199-1.283,1.224
		c-0.812,0.022-1.28-0.428-1.356-1.227c-0.072-0.757,0.554-1.39,1.315-1.386C14.499,51.799,15.092,52.378,15.104,53.183z
		 M13.757,54.34c0.416-0.554,0.891-0.924,0.836-1.18c-0.074-0.349-0.554-0.61-0.859-0.909c-0.278,0.291-0.75,0.564-0.779,0.88
		C12.926,53.431,13.358,53.775,13.757,54.34z"/>
	<path fill-rule="evenodd" clip-rule="evenodd" d="M15.041,57.235c-0.692-0.071-1.205-0.48-1.227-1.286
		c-0.021-0.797,0.438-1.285,1.241-1.36c0.737-0.068,1.407,0.594,1.401,1.329C16.451,56.611,15.84,57.222,15.041,57.235z
		 M16.349,55.957c-0.543-0.429-0.864-0.878-1.167-0.867c-0.315,0.013-0.614,0.473-0.919,0.734c0.283,0.321,0.52,0.815,0.865,0.907
		C15.381,56.799,15.774,56.343,16.349,55.957z"/>
	<path fill-rule="evenodd" clip-rule="evenodd" d="M11.503,58.102c-0.095,0.774-0.528,1.263-1.351,1.237
		c-0.818-0.025-1.255-0.523-1.262-1.343c-0.006-0.73,0.625-1.347,1.337-1.283C11.027,56.785,11.47,57.248,11.503,58.102z
		 M11.42,58.034c-0.563-0.403-0.902-0.838-1.202-0.812c-0.317,0.027-0.596,0.492-0.893,0.766c0.298,0.307,0.557,0.785,0.905,0.862
		C10.487,58.908,10.86,58.442,11.42,58.034z"/>
	<path fill-rule="evenodd" clip-rule="evenodd" d="M47.945,86.747c-0.364,0.243-0.612,0.526-0.757,0.479
		c-0.223-0.068-0.464-0.341-0.521-0.572c-0.03-0.12,0.33-0.481,0.492-0.467C47.382,86.205,47.586,86.474,47.945,86.747z"/>
	<path fill-rule="evenodd" clip-rule="evenodd" d="M64.252,25.462c0.287,0.409,0.546,0.621,0.555,0.843
		c0.007,0.163-0.312,0.465-0.495,0.473c-0.183,0.009-0.521-0.266-0.529-0.431C63.769,26.127,64.007,25.892,64.252,25.462z"/>
	<path fill-rule="evenodd" clip-rule="evenodd" d="M88.022,32.914c0.222,0.338,0.5,0.585,0.455,0.736
		c-0.066,0.224-0.362,0.379-0.563,0.564c-0.162-0.215-0.428-0.419-0.457-0.649C87.439,33.406,87.752,33.209,88.022,32.914z"/>
	<path fill-rule="evenodd" clip-rule="evenodd" d="M74.835,84.282c-0.244-0.354-0.51-0.572-0.489-0.757
		c0.024-0.198,0.317-0.365,0.493-0.547c0.192,0.195,0.479,0.366,0.541,0.597C75.417,83.715,75.105,83.948,74.835,84.282z"/>
	<path fill-rule="evenodd" clip-rule="evenodd" d="M36.755,72.418c-0.421,0.278-0.642,0.534-0.866,0.539
		c-0.167,0.003-0.467-0.317-0.473-0.501c-0.005-0.181,0.279-0.516,0.446-0.521C36.086,71.926,36.321,72.166,36.755,72.418z"/>
	<path fill-rule="evenodd" clip-rule="evenodd" d="M18.662,68.292c0.244,0.372,0.52,0.614,0.478,0.768
		c-0.063,0.226-0.353,0.389-0.546,0.577c-0.17-0.179-0.485-0.367-0.476-0.537C18.129,68.875,18.394,68.664,18.662,68.292z"/>
	<path fill-rule="evenodd" clip-rule="evenodd" fill="#FFFFFF" d="M53.542,56.98c3.022-7.574,1.608-14.173-4.371-19.768
		c0.029-0.098,0.06-0.196,0.089-0.293c0.543,0.131,1.175,0.126,1.61,0.419c2.015,1.359,3.219,3.371,4.189,5.54
		c0.281,0.629,0.503,1.286,0.777,1.919c0.265,0.61,0.784,1.019,1.391,0.722c0.403-0.197,0.906-0.832,0.851-1.19
		c-0.148-0.957-0.553-1.88-0.9-2.8c-0.24-0.637-0.652-1.222-0.81-1.874c-0.181-0.752,0.426-1.584,1.086-1.627
		c0.79-0.052,1.158,0.463,1.39,1.144c0.397,1.17,0.787,2.346,1.256,3.487c0.121,0.297,0.528,0.477,0.803,0.71
		c0.155-0.35,0.45-0.702,0.443-1.047c-0.048-2.214-0.879-4.157-2.201-5.905c-0.251-0.331-0.645-0.619-0.735-0.983
		c-0.1-0.398-0.05-0.962,0.183-1.26c0.129-0.165,0.87-0.069,1.148,0.148c0.416,0.325,0.776,0.818,0.975,1.313
		c0.794,1.98,1.538,3.98,2.252,5.989c0.19,0.536,0.262,1.198,0.994,1.052c0.731-0.146,0.769-0.798,0.626-1.418
		c-0.163-0.703-0.42-1.39-0.511-2.1c-0.039-0.3,0.24-0.642,0.375-0.965c0.294,0.239,0.762,0.428,0.849,0.727
		c0.231,0.785,0.416,1.621,0.403,2.434c-0.024,1.381,0.21,2.666,0.816,3.906c0.992,2.023,1.326,4.202,1.424,6.426
		c0.025,0.561,0.012,1.212-0.758,1.229c-0.746,0.019-0.788-0.607-0.854-1.18c-0.17-1.467-0.346-2.933-0.56-4.394
		c-0.053-0.365-0.163-0.81-0.413-1.039c-0.336-0.307-0.833-0.44-1.26-0.647c-0.137,0.419-0.408,0.846-0.387,1.257
		c0.06,1.165,0.321,2.323,0.327,3.486c0.002,0.41-0.505,0.825-0.778,1.239c-0.31-0.402-0.748-0.768-0.894-1.222
		c-0.161-0.504,0.01-1.104-0.076-1.645c-0.096-0.602-0.197-1.268-0.526-1.747c-0.248-0.361-0.858-0.474-1.309-0.696
		c-0.159,0.479-0.47,0.966-0.453,1.442c0.049,1.397,0.302,2.79,0.324,4.188c0.01,0.658-0.255,1.354-0.529,1.97
		c-0.138,0.31-0.579,0.483-0.884,0.719c-0.201-0.364-0.56-0.725-0.571-1.096c-0.028-0.891,0.162-1.787,0.152-2.679
		c-0.005-0.456-0.165-0.965-0.409-1.352c-0.403-0.636-1.055-0.617-1.388,0.054c-0.282,0.573-0.431,1.233-0.525,1.873
		c-0.243,1.639-0.313,3.325-1.375,4.713c-0.293,0.384-0.7,0.685-1.054,1.022C53.678,57.116,53.61,57.049,53.542,56.98z"/>
	<path fill-rule="evenodd" clip-rule="evenodd" fill="#FFFFFF" d="M36.72,33.465c-2.012,0.789-3.969,1.328-5.685,2.292
		c-1.712,0.96-3.183,2.348-4.925,3.675c0.127-0.545,0.109-1.134,0.384-1.502c0.548-0.735,1.254-1.354,1.904-2.011
		c0.288-0.291,0.752-0.509,0.862-0.849c0.147-0.456,0.204-1.099-0.016-1.479c-0.339-0.588-0.949-0.36-1.459-0.048
		c-0.583,0.356-1.16,0.734-1.776,1.023c-0.184,0.085-0.607-0.017-0.709-0.173c-0.098-0.149-0.012-0.589,0.143-0.711
		c0.805-0.636,1.675-1.188,2.486-1.815c0.749-0.579,1.518-1.158,2.135-1.861c0.203-0.231,0.117-1.015-0.126-1.252
		c-0.22-0.214-0.88-0.155-1.258,0c-0.663,0.27-1.225,0.793-1.893,1.038c-0.372,0.136-0.872-0.076-1.316-0.13
		c0.186-0.382,0.307-0.817,0.574-1.129c0.26-0.302,0.73-0.422,0.996-0.722c0.298-0.336,0.47-0.787,0.697-1.187
		c-0.476,0.007-1.008-0.122-1.417,0.047c-1.341,0.557-2.385,1.489-3.082,2.795c-0.354,0.667-0.794,1.568-1.686,1.08
		c-0.948-0.521-0.29-1.359,0.079-1.97c1.312-2.168,3.287-3.416,5.757-3.83c2.348-0.393,4.518-1.2,6.553-2.428
		c0.581-0.351,1.25-0.596,1.911-0.752c0.272-0.063,0.809,0.166,0.898,0.39c0.095,0.24-0.112,0.824-0.336,0.925
		c-0.777,0.347-1.628,0.523-2.434,0.814c-1.258,0.454-2.535,0.88-3.732,1.464c-0.369,0.179-0.508,0.831-0.752,1.267
		c0.471,0.078,0.957,0.267,1.41,0.209c0.676-0.088,1.32-0.406,1.997-0.511c0.268-0.041,0.582,0.229,0.875,0.356
		c-0.199,0.235-0.374,0.499-0.605,0.694c-0.438,0.373-1.015,0.628-1.336,1.074c-0.395,0.546-0.162,1.049,0.582,0.982
		c0.608-0.056,1.197-0.371,1.803-0.397c0.402-0.017,0.819,0.271,1.228,0.421c-0.245,0.36-0.413,0.85-0.752,1.054
		c-0.848,0.513-1.814,0.831-2.646,1.365c-0.331,0.212-0.431,0.786-0.636,1.195c0.466,0.114,0.949,0.366,1.394,0.312
		c0.919-0.109,1.812-0.417,2.728-0.577C36.284,32.474,36.733,32.792,36.72,33.465z"/>
	<path fill-rule="evenodd" clip-rule="evenodd" fill="#FFFFFF" d="M38.753,65.644c-8.805-0.17-15.771-7.351-15.562-16.04
		c0.211-8.779,7.355-15.724,15.978-15.53c8.679,0.194,15.671,7.4,15.471,15.945C54.437,58.843,47.352,65.811,38.753,65.644z
		 M23.992,49.917c0.009,8.356,6.62,15.046,14.863,15.039c8.205-0.006,14.861-6.771,14.844-15.089
		c-0.015-8.315-6.688-15.055-14.897-15.049C30.592,34.826,23.983,41.563,23.992,49.917z"/>
	<path fill-rule="evenodd" clip-rule="evenodd" fill="#FFFFFF" d="M62.975,68.231c-1.581,1.453-3.163,2.907-4.922,4.525
		c0.146-0.413,0.2-0.681,0.33-0.904c0.188-0.327,0.518-0.596,0.627-0.939c0.098-0.309-0.022-0.687-0.045-1.032
		c-0.306,0.074-0.729,0.048-0.896,0.242c-0.826,0.962-1.591,1.98-2.366,2.987c-0.481,0.627-0.928,1.282-1.423,1.899
		c-0.128,0.159-0.379,0.221-0.573,0.328c-0.076-0.056-0.154-0.112-0.23-0.169c0.229-0.419,0.412-0.874,0.698-1.252
		c0.516-0.688,1.114-1.316,1.644-1.998c0.541-0.697,0.473-1.663-0.156-2.002c-0.783-0.419-1.223,0.156-1.601,0.698
		c-0.956,1.377-1.917,2.755-2.805,4.178c-0.433,0.694-0.703,1.487-1.052,2.235c-0.178,0.382-0.366,0.76-0.549,1.141
		c-0.136-0.02-0.272-0.038-0.41-0.057c0-0.452-0.161-0.992,0.029-1.338c0.625-1.139,1.382-2.203,2.08-3.302
		c0.479-0.753,0.972-1.497,1.383-2.283c0.103-0.196-0.002-0.694-0.162-0.784c-0.195-0.11-0.636-0.031-0.819,0.134
		c-0.403,0.364-0.675,0.869-1.069,1.245c-0.242,0.229-0.613,0.321-0.925,0.474c-0.047-0.382-0.277-0.9-0.111-1.122
		c1.07-1.428,2.227-2.791,3.357-4.176c0.11,0.075,0.223,0.15,0.336,0.226c-0.231,0.361-0.511,0.701-0.675,1.092
		c-0.115,0.279-0.074,0.623-0.102,0.938c0.346-0.019,0.831,0.103,1.016-0.08c0.757-0.746,1.369-1.642,2.138-2.377
		c0.815-0.778,1.727-1.464,2.638-2.131c0.264-0.194,0.673-0.19,1.015-0.275c0.074,0.089,0.148,0.181,0.222,0.271
		c-0.328,0.432-0.619,0.899-0.992,1.285c-0.67,0.694-1.418,1.31-2.07,2.018c-0.182,0.197-0.138,0.6-0.196,0.909
		c0.338-0.062,0.754-0.018,1.004-0.2c1.332-0.971,2.604-2.024,3.939-2.99c0.403-0.293,0.931-0.462,1.426-0.554
		c0.276-0.052,0.603,0.172,0.905,0.271c-0.16,0.274-0.262,0.633-0.496,0.803c-0.356,0.257-0.818,0.357-1.214,0.565
		c-0.696,0.369-1.399,0.734-2.047,1.18c-0.171,0.117-0.143,0.522-0.207,0.795c0.281,0.027,0.589,0.14,0.835,0.061
		c0.354-0.111,0.641-0.425,0.994-0.541c0.456-0.149,0.948-0.188,1.427-0.277C62.926,68.042,62.949,68.137,62.975,68.231z"/>
	<path fill-rule="evenodd" clip-rule="evenodd" fill="#FFFFFF" d="M89.521,64.355c-0.419,1.486-0.61,3.092-1.31,4.431
		c-1.175,2.247-2.603,4.374-4.075,6.445c-0.529,0.745-1.433,1.302-2.271,1.735c-1.271,0.654-2.606,0.225-3.602-0.952
		c-0.713-0.845-0.695-1.609,0.123-2.937c0.362-0.587,0.758-1.158,1.184-1.697c1.643-2.078,2.928-4.343,3.798-6.849
		c0.28-0.812,0.648-1.604,1.076-2.348c0.676-1.184,1.513-1.568,2.647-1.352c1.202,0.229,1.882,0.931,2.126,2.233
		c0.075,0.405,0.097,0.82,0.142,1.231C89.414,64.317,89.468,64.337,89.521,64.355z M83.968,66.16
		c-0.342,0.261-0.877,0.466-0.898,0.716c-0.133,1.453-1.35,2.296-1.864,3.52c-0.097,0.231-0.202,0.576-0.383,0.638
		c-0.834,0.282-1.183,0.856-1.309,1.688c-0.037,0.249-0.312,0.495-0.53,0.678c-1.094,0.922-1.079,2.03,0.062,2.922
		c1.121,0.873,1.759,0.903,2.87-0.022c0.981-0.815,1.92-1.691,2.827-2.591c0.248-0.244,0.322-0.667,0.467-1.011
		c0.475-1.11,0.94-2.226,1.423-3.333c0.03-0.073,0.188-0.082,0.266-0.145c1.062-0.842,1.303-1.664,0.999-2.631
		c0.387-1.023,0.908-1.772,0.877-2.5c-0.031-0.778-0.501-1.583-0.931-2.287c-0.381-0.628-1.486-0.58-1.979,0.076
		c-0.307,0.414-0.409,0.98-0.645,1.577C84.092,63.945,83.784,64.543,83.968,66.16z"/>
	<path fill-rule="evenodd" clip-rule="evenodd" fill="#FFFFFF" d="M35.775,87.222c-0.424-0.095-1.125-0.163-1.756-0.412
		c-3.165-1.245-5.958-3.064-8.125-5.712c-0.663-0.811-1.185-1.787-1.565-2.769c-0.488-1.255-0.114-2.196,0.888-2.913
		c0.914-0.653,1.754-0.64,2.86,0.146c0.617,0.437,1.211,0.925,1.735,1.47c1.819,1.886,3.925,3.359,6.265,4.521
		c0.615,0.306,1.206,0.672,1.772,1.063c0.737,0.51,1.359,1.13,1.09,2.146c-0.306,1.161-0.886,2.105-2.178,2.371
		C36.526,87.18,36.282,87.178,35.775,87.222z M27.794,81.996c1.252,1.117,2.33,2.099,3.437,3.046
		c0.158,0.135,0.503,0.031,0.691,0.151c1.057,0.672,2.236,0.979,3.41,1.366c0.73,0.241,1.272,0.439,1.873-0.036
		c0.625-0.495,1.226-1.292,0.762-1.944c-0.63-0.886-0.8-2.56-2.592-2.002c-0.285-1.438-1.232-1.641-2.078-1.518
		c-0.744-0.606-1.312-1.07-2.104-1.717c-0.053-0.739-0.87-0.958-1.776-1.032c-0.314-1.072-0.583-2.15-2.018-2.099
		c-0.097,0.003-0.204-0.166-0.299-0.259c-0.567-0.554-1.262-0.425-1.666,0.027c-0.432,0.485-0.987,1.528-0.79,1.779
		c0.595,0.758,0.324,2.03,1.457,2.425c0.086,0.028,0.153,0.225,0.163,0.35C26.359,81.666,27.012,82.089,27.794,81.996z"/>
	<path fill-rule="evenodd" clip-rule="evenodd" fill="#FFFFFF" d="M62.642,16.662c1.052,0.988,1.273,2.092,0.624,3.098
		c-0.698,1.08-1.625,1.321-2.978,0.773c-0.031-0.013-0.066-0.022-0.095-0.04c-3.102-1.982-6.438-3.411-9.992-4.372
		c-0.811-0.219-1.513-0.735-1.463-1.763c0.052-1.097,0.365-2.119,1.484-2.5c0.757-0.257,1.638-0.39,2.422-0.283
		c3.089,0.419,5.931,1.543,8.435,3.419c0.613,0.46,1.068,1.13,1.597,1.702c-0.606-0.241-1.213-0.479-1.91-0.755
		c-0.312-1.351-0.597-1.58-1.927-1.424c-0.702-1.268-1.075-1.429-2.589-1.115c-0.878-1.167-1.183-1.249-2.327-0.816
		c-0.768-0.275-1.327-0.64-1.879-0.631c-0.613,0.01-1.398,0.197-1.787,0.609c-0.467,0.498-0.731,1.298-0.813,1.999
		c-0.04,0.345,0.506,1.062,0.827,1.088c0.927,0.073,1.651,0.487,2.399,0.927c0.142,0.083,0.372,0.155,0.495,0.095
		c0.637-0.308,1.021,0.075,1.531,0.372c0.877,0.513,1.912,0.704,2.856,1.12c1.153,0.508,2.198,1.25,3.4,1.63
		c0.417,0.133,0.941,0.22,1.324,0.076c0.301-0.112,0.637-0.606,0.641-0.936C62.928,18.18,62.745,17.421,62.642,16.662z"/>
	<path fill-rule="evenodd" clip-rule="evenodd" fill="#FFFFFF" d="M81.823,30.52c-0.113,0.441-0.212,1.243-0.521,1.956
		c-0.913,2.119-3.108,2.883-5.179,1.877c-2.705-1.314-4.074-5.074-2.85-7.823c0.951-2.139,3.186-2.973,5.261-1.881
		C80.733,25.804,81.66,27.762,81.823,30.52z"/>
	<path fill-rule="evenodd" clip-rule="evenodd" fill="#FFFFFF" d="M12.207,45.047c-2.821,0-4.509-2.29-3.678-4.99
		c0.822-2.67,3.804-4.596,6.509-4.202c2.189,0.318,3.503,2.15,3.102,4.325C17.646,42.846,14.964,45.045,12.207,45.047z"/>
	<path fill-rule="evenodd" clip-rule="evenodd" fill="#FFFFFF" d="M61.391,79.227c3.025,0.019,5.233,2.52,4.557,5.162
		c-0.612,2.398-3.444,3.825-6.06,3.053c-2.417-0.714-3.767-2.979-3.07-5.161C57.399,80.451,59.251,79.214,61.391,79.227z"/>
	<path fill-rule="evenodd" clip-rule="evenodd" fill="#FFFFFF" d="M14.547,58.264c-0.558,0.402-0.933,0.868-1.186,0.811
		c-0.35-0.082-0.609-0.558-0.908-0.863c0.3-0.27,0.583-0.728,0.903-0.755C13.655,57.431,13.993,57.863,14.547,58.264z"/>
	<path fill-rule="evenodd" clip-rule="evenodd" fill="#FFFFFF" d="M13.319,55.507c-0.535,0.432-0.882,0.916-1.145,0.873
		c-0.352-0.057-0.637-0.52-0.951-0.811c0.283-0.284,0.542-0.759,0.858-0.8C12.382,54.729,12.742,55.141,13.319,55.507z"/>
	<path fill-rule="evenodd" clip-rule="evenodd" fill="#FFFFFF" d="M9.19,56.457c-0.408-0.555-0.877-0.927-0.82-1.18
		c0.078-0.351,0.554-0.61,0.859-0.908C9.5,54.665,9.96,54.943,9.99,55.263C10.018,55.56,9.587,55.898,9.19,56.457z"/>
	<path fill-rule="evenodd" clip-rule="evenodd" fill="#FFFFFF" d="M12.082,52.745c-0.537,0.413-0.865,0.863-1.169,0.848
		c-0.32-0.017-0.617-0.48-0.922-0.748c0.292-0.316,0.542-0.806,0.89-0.888C11.141,51.895,11.526,52.357,12.082,52.745z"/>
	<path fill-rule="evenodd" clip-rule="evenodd" fill="#FFFFFF" d="M13.757,54.34c-0.399-0.564-0.831-0.909-0.803-1.209
		c0.029-0.315,0.501-0.589,0.779-0.88c0.306,0.299,0.786,0.561,0.859,0.909C14.648,53.416,14.173,53.786,13.757,54.34z"/>
	<path fill-rule="evenodd" clip-rule="evenodd" fill="#FFFFFF" d="M16.349,55.957c-0.574,0.386-0.968,0.842-1.222,0.774
		c-0.345-0.092-0.582-0.586-0.865-0.907c0.305-0.262,0.604-0.722,0.919-0.734C15.484,55.079,15.805,55.528,16.349,55.957z"/>
	<path fill-rule="evenodd" clip-rule="evenodd" fill="#FFFFFF" d="M11.42,58.034c-0.56,0.408-0.933,0.874-1.189,0.816
		c-0.349-0.077-0.607-0.556-0.905-0.862c0.296-0.273,0.576-0.738,0.893-0.766C10.518,57.196,10.856,57.631,11.42,58.034z"/>
	<path fill-rule="evenodd" clip-rule="evenodd" d="M23.992,49.917c-0.009-8.354,6.6-15.091,14.81-15.099
		c8.209-0.006,14.883,6.734,14.897,15.049c0.017,8.318-6.639,15.083-14.844,15.089C30.612,64.963,24.001,58.273,23.992,49.917z
		 M35.409,64.131c0.686,0.109,1.283,0.205,1.866,0.298c0.445-1.424,0.566-1.483,1.989-2.083c0.334-0.142,0.563-0.654,0.723-1.046
		c0.107-0.262-0.09-0.654,0.026-0.908c0.154-0.339,0.449-0.789,0.741-0.837c0.272-0.043,0.811,0.323,0.891,0.607
		c0.161,0.564,0.152,1.203,0.088,1.797c-0.041,0.378-0.305,0.731-0.422,0.991c1.697,1.31,3.154,0.643,4.643-0.42
		c-0.542-0.717-0.301-1.341,0.212-2.015c0.716-0.941,0.28-2.095-0.879-2.432c-0.705-0.204-1.286-0.434-0.946-1.335
		c0.296-0.784,1.168-1.189,1.846-0.692c0.665,0.487,1.205,1.182,1.685,1.866c0.28,0.398,0.339,0.956,0.447,1.289
		c0.556-0.028,1.006,0,1.422-0.101c0.161-0.04,0.389-0.504,0.337-0.566c-0.185-0.221-0.514-0.314-0.72-0.524
		c-0.362-0.367-0.799-0.742-0.958-1.197c-0.084-0.244,0.304-0.911,0.554-0.954c0.382-0.066,0.828,0.242,1.17,0.363
		c0.594-0.088,1.17-0.175,1.885-0.281c0.216-0.72,0.699-1.562,0.626-2.351c-0.052-0.57-0.905-1.031-1.282-1.618
		c-0.207-0.323-0.36-1.051-0.206-1.173c0.939-0.734,0.254-1.079-0.207-1.619c-0.402-0.471-0.714-1.078-0.875-1.677
		c-0.078-0.291,0.279-0.698,0.437-1.052c0.345,0.156,0.733,0.257,1.021,0.484c0.257,0.202,0.402,0.547,0.597,0.831
		c0.721-0.232,1.125-0.772,0.674-1.307c-0.445-0.53-1.188-0.993-1.861-1.103c-1.13-0.183-1.205-0.201-0.9-1.283
		c0.111-0.4-0.061-1.248-0.266-1.304c-1.066-0.294-1.822-0.589-1.23-1.939c0.17-0.388,0.026-0.914,0.026-1.376
		c0.103-0.096,0.204-0.19,0.307-0.284c-0.457-0.113-0.968-0.415-1.358-0.3c-0.841,0.248-0.283,0.883-0.201,1.376
		c0.056,0.335,0.253,0.792,0.109,0.99c-0.72,0.99-0.715,2.148-0.923,3.265c-0.049,0.26-0.214,0.507-0.36,0.74
		c-0.385,0.614-0.929,1.253-1.651,0.817c-0.73-0.441-0.124-1.091,0.146-1.622c0.031-0.061,0.127-0.115,0.121-0.161
		c-0.065-0.43,0.004-1.009-0.249-1.261c-0.877-0.874-0.901-0.855,0.057-1.583c0.251-0.192,0.398-0.562,0.503-0.879
		c0.036-0.108-0.256-0.46-0.311-0.441c-0.335,0.113-0.646,0.299-0.966,0.462c-0.385,0.199-0.77,0.4-1.156,0.6
		c-0.009-0.483-0.07-0.975-0.004-1.447c0.034-0.24,0.285-0.46,0.461-0.669c0.872-1.054,0.861-1.299-0.074-2.33
		c-0.132-0.146-0.216-0.34-0.296-0.523c-0.3-0.694-2.724-1.205-3.257-0.649c-0.302,0.317-0.537,0.706-0.76,1.088
		c-0.272,0.467-0.498,0.961-0.744,1.443c-0.386-0.31-0.738-0.677-1.166-0.91c-0.395-0.214-0.972-0.504-1.278-0.358
		c-0.333,0.159-0.587,0.771-0.614,1.203c-0.021,0.352,0.43,0.709,0.516,1.098c0.22,0.984,0.444,1.985,0.485,2.986
		c0.025,0.614-0.319,1.323-1.125,1.167c-0.753-0.144-0.816-0.838-0.753-1.5c0.042-0.451,0.078-0.904,0.104-1.207
		c-0.66-0.035-1.162-0.063-1.664-0.09c0.12-0.465,0.284-0.924,0.348-1.396c0.052-0.381,0.105-0.842-0.057-1.16
		c-0.486-0.951-1.526-0.794-2.376,0.392c0.29-0.026,0.52-0.085,0.737-0.057c0.278,0.036,0.789,0.162,0.784,0.219
		c-0.056,0.787-0.158,1.576-0.318,2.348c-0.028,0.136-0.376,0.278-0.58,0.284c-0.168,0.004-0.332-0.245-0.518-0.283
		c-0.467-0.094-0.944-0.158-1.421-0.183c-0.259-0.014-0.599,0.204-0.773,0.099c-0.696-0.414-0.792,0.149-1.047,0.5
		c0.61,0.723,0.61,0.723,1.444,0.429c1.312-0.462,2.373,0.235,2.459,1.616c0.019,0.298,0.038,0.597,0.065,1.001
		c1.438-0.312,2.351,0.484,3.267,1.394c-0.011-0.401-0.173-0.623-0.289-0.865c-0.121-0.254-0.197-0.53-0.293-0.794
		c0.307,0,0.635-0.069,0.917,0.014c0.532,0.158,1.037,0.403,1.557,0.613c0.117-0.601,0.103-1.126,0.32-1.523
		c0.522-0.949,0.451-1.841,0.021-2.773c-0.188-0.406-0.376-0.822-0.469-1.255c-0.055-0.254,0.079-0.548,0.128-0.825
		c0.274,0.086,0.643,0.089,0.803,0.273c0.395,0.454,0.691,0.991,1.143,1.667c0.16-0.243,0.312-0.397,0.37-0.579
		c0.196-0.609,0.131-1.409,1.11-1.419c0.01,0,0.09-0.429,0.013-0.602c-0.37-0.83,0.013-1.433,0.932-1.414
		c1.139,0.025,1.771,1.123,1.236,2.361c-0.338,0.78-0.913,1.455-1.354,2.194c-0.262,0.438-0.559,0.888-0.676,1.373
		c-0.109,0.447,0.022,1.015,0.702,0.718c0.77-0.336,1.095-0.062,1.163,0.575c0.424,0.028,0.888-0.075,1.08,0.108
		c0.22,0.209,0.387,0.822,0.247,1.001c-0.752,0.961,0.03,1.39,0.49,2.056c0.726,1.055,1.562,0.268,2.317,0.249
		c0.301-0.008,0.671-0.585,0.858-0.975c0.25-0.522,0.258-1.171,0.549-1.659c0.213-0.359,0.714-0.549,1.087-0.813
		c0.246,0.376,0.655,0.73,0.706,1.131c0.167,1.308-0.019,2.562-1.25,3.493c0.292,0.142,0.433,0.23,0.586,0.283
		c1.316,0.452,1.685,1.299,1.286,2.637c-0.087,0.293,0.201,0.754,0.417,1.069c0.457,0.666,1.058,1.243,1.439,1.943
		c0.155,0.286-0.105,0.8-0.178,1.209c-0.417-0.168-0.874-0.272-1.24-0.516c-0.475-0.315-0.823-0.854-1.322-1.089
		c-0.906-0.426-1.232-1.008-1.005-1.98c0.091-0.389,0.172-0.943-0.029-1.194c-0.302-0.382-0.829-0.706-1.307-0.79
		c-0.379-0.067-0.829,0.261-1.247,0.413c0.405,0.172,0.826,0.144,1.24,0.184c0.307,0.029,0.723,0.056,0.877,0.253
		c0.17,0.216,0.175,0.643,0.1,0.941c-0.059,0.229-0.379,0.382-0.536,0.603c-0.249,0.351-0.72,0.831-0.625,1.074
		c0.14,0.358,0.659,0.641,1.076,0.809c0.521,0.208,1.205,0.297,0.979,1.031c-0.223,0.727-0.8,0.934-1.579,0.614
		c-1.312-0.539-2.095-0.329-2.607,0.593c-0.542,0.974-0.325,1.533,0.773,2.536c0.234,0.214,0.272,1.077,0.233,1.089
		c-1.037,0.313-0.848,1.168-0.963,1.927c-0.048,0.312-0.381,0.585-0.584,0.874c-0.25-0.255-0.528-0.486-0.737-0.772
		c-0.111-0.153-0.173-0.405-0.142-0.594c0.289-1.724-0.197-2.959-2.051-3.375c-0.064-0.015-0.131-0.016-0.086-0.011
		c-0.475,1.087-0.73,2.32-1.457,3.136c-0.623,0.699-1.44,1.212-1.843,2.135c-0.091,0.208-0.497,0.276-0.758,0.409
		c-0.124-0.248-0.278-0.485-0.361-0.746c-0.067-0.212,0.02-0.49-0.08-0.676c-0.803-1.474-0.706-1.679,0.944-1.858
		c1.444-0.158,1.94-0.922,1.473-2.4c-0.773,0.352-0.427,3.072-2.25,1.051c-0.225,0.253-0.369,0.513-0.59,0.644
		c-0.601,0.359-1.212,0.039-1.296-0.598c-0.044-0.331-0.192-0.649-0.293-0.974c-0.247,0.207-0.525,0.388-0.732,0.629
		c-0.724,0.849-1.53,1.573-2.735,1.279c-0.334-0.081-0.75-0.534-0.793-0.86c-0.03-0.229,0.476-0.722,0.794-0.77
		c0.937-0.145,1.298-0.716,1.154-1.509c-0.092-0.501-0.479-1.008-0.862-1.379c-0.343-0.333-0.642-0.528-0.213-0.98
		c0.354-0.373,0.82-0.713,0.997-1.163c0.156-0.396-0.018-0.922-0.046-1.39c-0.672,0.182-1.262-1.145-1.831-0.433
		c0.285,0.794,0.735,1.402,0.625,1.884c-0.185,0.82-0.967,0.383-1.553,0.437c-0.511,0.045-1.133,0.444-1.43,0.877
		c-0.444,0.647-0.25,1.359,0.42,1.899c0.342-0.191,0.626-0.451,0.944-0.502c0.481-0.078,1.01-0.093,1.468,0.04
		c0.17,0.05,0.375,0.726,0.256,0.877c-0.285,0.364-0.716,0.739-1.15,0.833c-0.749,0.165-1.021,0.535-1.091,1.263
		c-0.087,0.907,0.243,1.525,1.087,1.982c0.641-0.863,1.286-0.817,1.992,0.017c0.117,0.138,0.668-0.025,0.98-0.146
		c0.141-0.056,0.14-0.437,0.288-0.52c0.401-0.227,0.849-0.372,1.279-0.551c0.15,0.408,0.396,0.812,0.422,1.229
		c0.025,0.411-0.172,0.838-0.274,1.267C35.739,62.436,35.862,62.617,35.409,64.131z M42.149,47.179
		c0.345,0.414,0.703,0.747,0.938,1.151c0.372,0.639,0.523,1.415-0.208,1.833c-0.751,0.43-0.782-0.487-1.131-0.834
		c-0.205-0.203-0.567-0.248-0.858-0.364c0.142,0.872-1.007,1.443-0.488,2.48c0.262,0.522,0.172,1.273,0.077,1.897
		c-0.035,0.233-0.534,0.396-0.822,0.59c-0.149-0.282-0.333-0.551-0.444-0.848c-0.231-0.614-0.264-1.388-0.666-1.839
		c-1.02-1.146,0.732-1.994,0.209-3.056c-0.068-0.14,0.249-0.54,0.465-0.729c0.16-0.142,0.499-0.078,0.665-0.217
		c0.229-0.193,0.527-0.498,0.517-0.744c-0.021-0.552-0.215-1.097-0.353-1.708c-0.925,1.138-0.925,1.138-1.847,0.904
		c0.213,1.827,0.148,2.607-0.406,3.337c-0.181,0.239-0.521,0.358-0.788,0.532c-0.159-0.285-0.428-0.559-0.458-0.856
		c-0.111-1.125-0.631-2.181-1.492-2.815c-0.022-0.017-0.066-0.006-0.099-0.009c-1.2,0.825-1.199,0.865,0.037,1.689
		c1.074,0.713,1.162,1.609,0.334,2.597c-0.227,0.271-0.24,0.713-0.375,1.067c-0.103,0.266-0.191,0.661-0.387,0.734
		c-0.191,0.072-0.586-0.121-0.757-0.316c-0.538-0.614-0.604-1.271-0.049-1.963c0.162-0.202,0.252-0.579,0.179-0.815
		c-0.055-0.173-0.469-0.393-0.646-0.339c-0.283,0.087-0.658,0.344-0.72,0.598c-0.2,0.821-0.275,1.671-0.374,2.345
		c0.557,0.351,0.9,0.596,1.272,0.788c0.266,0.139,0.584,0.176,0.851,0.312c0.278,0.146,0.725,0.346,0.735,0.542
		c0.017,0.327-0.205,0.707-0.417,0.997c-0.211,0.285-0.748,0.479-0.758,0.73c-0.013,0.336,0.34,0.688,0.571,1.095
		c0.748-0.973,1.555-1.688,1.438-2.883c-0.024-0.238,0.141-0.565,0.325-0.74c0.274-0.26,0.642-0.418,0.97-0.621
		c0.114,0.37,0.291,0.734,0.327,1.11c0.046,0.486,0.015,0.989-0.041,1.479c-0.053,0.463-0.151,0.925-0.281,1.374
		c-0.116,0.396-0.493,0.827-0.402,1.143c0.077,0.268,0.656,0.39,0.975,0.558c0.504-0.896,1.06-1.515,0.832-2.545
		c-0.123-0.556,0.615-0.527,0.977-0.165c0.327,0.33,0.544,0.771,0.844,1.214c0.865-0.412,0.531-1.208,0.729-1.804
		c0.12-0.356,0.514-0.621,0.784-0.927c0.234,0.292,0.561,0.552,0.679,0.888c0.15,0.422,0.131,0.902,0.185,1.357
		c0.121,0.038,0.242,0.076,0.363,0.113c0.361-0.654,0.922-1.289,0.988-1.973c0.027-0.278-1.023-0.654-1.575-1
		c-0.396-0.248-0.879-0.449-1.133-0.808c-0.185-0.261-0.062-0.74-0.076-1.124c0.308,0.062,0.613,0.139,0.924,0.178
		c0.462,0.057,0.947,0.186,1.387,0.1c0.373-0.072,0.695-0.405,1.286-0.78c-0.51-1.093-1.075-2.302-1.66-3.555
		C42.757,46.841,42.466,47.002,42.149,47.179z M32.781,47.498c-0.604-0.808-0.958-1.776-2.284-1.613
		c-0.705,0.088-1.073-0.496-1.159-1.204c-0.18-1.468-0.195-1.482-1.429-0.733c-0.523,0.318-0.903,0.239-1.217-0.266
		c-0.141-0.228-0.275-0.46-0.412-0.691c-0.224,0.254-0.281,0.5-0.213,0.707c0.314,0.96,1.2,0.73,1.902,0.862
		c0.628,0.118,1.093,0.458,0.922,1.084c-0.059,0.217-0.778,0.396-1.167,0.351c-0.93-0.109-3.084,1.081-3.165,2.009
		c-0.119,1.39-0.031,2.799-0.031,4.062c0.71,0.202,1.238,0.353,2.07,0.586c-0.246-0.534-0.372-0.907-0.572-1.233
		c-0.885-1.444-0.752-3.17,0.334-4.072c0.646-0.535,1.672-0.62,2.08-0.1c0.606,0.771-0.113,1.156-0.556,1.604
		c-0.048,0.049-0.108,0.086-0.158,0.134c-0.624,0.606-0.66,1.218-0.011,1.895c0.612-0.546,1.114-1.284,1.791-1.518
		c0.674-0.233,1.523,0.042,2.394,0.1c0.322-0.702-0.173-1.246-1.479-1.136c-0.641,0.054-1.074-0.102-1.073-0.751
		c0-0.668,0.375-1.176,1.124-0.97C31.231,46.811,31.949,47.166,32.781,47.498z M28.4,48.099c-0.141-0.161-0.281-0.321-0.421-0.481
		c-1.336-0.257-2.33,0.926-1.937,2.405c0.165,0.619,0.625,1.152,0.816,1.766c0.104,0.337,0.043,0.847-0.16,1.113
		c-0.142,0.185-0.652,0.11-0.998,0.11c-0.236,0.002-0.473-0.067-0.71-0.104c-0.029,0.255-0.163,0.56-0.07,0.758
		c0.792,1.712,1.621,3.407,2.459,5.098c0.087,0.176,0.311,0.285,0.564,0.506c-0.037-0.956,0.093-1.67,0.986-1.988
		c0.446-0.158,1.234,0.137,1.149-0.798c-0.486,0.074-1.029,0.035-1.446,0.247c-0.824,0.415-1.309,0.171-1.658-0.589
		c-0.384-0.835-0.266-1.612,0.288-2.334c0.511-0.666,1.149-0.95,1.997-0.718c0.237,0.065,0.508,0.011,0.948,0.011
		c-0.226-0.326-0.311-0.579-0.481-0.67c-0.497-0.266-0.982-0.525-0.531-1.162c0.406-0.571,0.926-0.949,1.673-0.497
		c0.241,0.146,0.508,0.251,0.763,0.375c0.086-0.089,0.171-0.177,0.258-0.269c-0.174-0.241-0.296-0.567-0.53-0.709
		c-1.283-0.784-1.529-0.685-2.672,0.591c-0.279,0.311-0.862,0.648-1.172,0.551c-0.341-0.107-0.741-0.708-0.731-1.084
		c0.015-0.555,0.29-1.155,0.607-1.635C27.569,48.322,28.054,48.256,28.4,48.099z M40.434,36.875
		c-0.079,0.683-0.023,1.258-0.232,1.714c-0.236,0.519-0.739,0.913-1.072,1.398c-0.61,0.887-1.185,0.881-1.684-0.053
		c-0.138-0.259-0.275-0.52-0.412-0.779c-0.114,0.016-0.228,0.031-0.342,0.047c1.361,1.692,0.854,3.423,0.097,5.157
		c0.167,0.043,0.334,0.085,0.501,0.127c0.159-0.271,0.32-0.543,0.478-0.816c0.177-0.305,0.351-0.611,0.526-0.917
		c0.208,0.263,0.41,0.532,0.626,0.789c0.225,0.267,0.415,0.643,0.704,0.759c0.821,0.331,1.684,0.552,2.578,0.831
		c0.159-0.318,0.328-0.655,0.497-0.992c-0.952,0.384-1.355-0.069-1.608-0.75c-1.331,0.273-2.046-0.485-1.608-1.722
		c0.19-0.538,0.603-0.995,0.898-1.498c0.399-0.68,0.899-1.33,1.148-2.062C41.867,37.116,41.346,36.678,40.434,36.875z
		 M43.338,35.888c-0.113,0.083-0.226,0.166-0.338,0.25c2.65,1.566,0.396,2.93-0.187,4.543c1.502-1.275,2.093-1.426,2.597-0.786
		c0.549,0.699,0.274,1.442-0.722,2.217c0.276,0.602,0.727,1.159,0.74,1.726c0.013,0.566-0.414,1.142-0.647,1.714
		c1.012-0.501,1.394-1.282,1.332-2.341c-0.024-0.406,0.051-0.942,0.301-1.215c0.532-0.579,0.578-1.136,0.284-1.794
		c-0.375-0.845-0.349-1.591,0.796-2.182C45.984,37.245,44.661,36.567,43.338,35.888z M48.475,44.065
		c-0.144-0.038-0.288-0.075-0.432-0.11c-0.209,0.625-0.456,1.241-0.617,1.877c-0.255,1.007-0.712,1.695-1.898,1.651
		c-0.274-0.011-0.801,0.297-0.794,0.438c0.021,0.422,0.171,0.896,0.432,1.219c0.123,0.154,0.694,0.135,0.92-0.018
		c0.702-0.474,1.231-0.211,1.771,0.241c0.699,0.584,0.734,1.34,0.621,2.168c-0.052,0.384-0.116,0.96,0.093,1.148
		c0.794,0.711,1.698,1.3,2.586,1.953c0.121-1.09-0.616-1.678-1.376-2.207c-0.673-0.471-0.865-0.999-0.546-1.77
		c0.35-0.847,0.046-1.466-0.799-1.79c-1.291-0.494-1.333-0.649-0.479-1.683C48.75,46.227,48.831,45.172,48.475,44.065z
		 M37.596,57.75c-2.558-0.467-4.271-1.929-5.354-4.201c-0.309,0.471-0.566,0.863-0.85,1.298c0.998,0.496,1.072,1.412,0.983,2.379
		c-0.108,1.183-1.108,1.391-1.987,1.866c0.545,0.141,1.119,0.228,1.534,0.009c0.491-0.26,0.815-0.815,1.268-1.173
		c0.321-0.254,0.827-0.626,1.083-0.526c0.35,0.138,0.562,0.666,0.788,1.054c0.085,0.146,0.044,0.364,0.063,0.59
		c1.279-0.799,1.279-0.799,2.325-0.252C37.493,58.479,37.535,58.178,37.596,57.75z M45.338,50.984
		c-0.061,2.965-1.585,5.078-4.579,6.563c3.224,0.219,2.307,2.648,2.789,4.264c0.571-2.034,0.571-2.034,1.339-2.536
		c-0.194-0.155-0.371-0.298-0.548-0.437c-0.925-0.729-1.174-1.805-0.656-2.855c0.602-1.221,1.585-1.575,3.053-1.14
		c0.331,0.098,0.697,0.079,1.047,0.116c0.005-0.108,0.01-0.217,0.015-0.325c-0.156-0.059-0.31-0.127-0.471-0.174
		c-1.922-0.559-2.168-1.52-0.75-2.917c0.185-0.183,0.333-0.403,0.586-0.713C46.462,50.89,45.978,50.93,45.338,50.984z M38.668,35.28
		c-2.197,0.004-4.244,0.505-6.28,1.535c1.354,0.942,1.391,2.035,0.465,3.31c1.74-0.532,1.97-0.308,1.783,1.431
		c-0.041,0.387,0.04,0.787,0.08,1.442c0.951-0.921,0.873-1.76,0.639-2.536c-0.225-0.749-0.674-1.425-0.974-2.156
		c-0.35-0.849,0.01-1.634,0.874-2.034c0.908-0.42,1.596-0.189,2.072,0.683c0.118,0.217,0.271,0.414,0.408,0.62
		c0.112-0.023,0.224-0.048,0.335-0.07c0-0.377-0.072-0.772,0.02-1.125C38.182,36.021,38.436,35.704,38.668,35.28z M27.296,43.559
		c1.959-1.098,2.209-0.965,2.637,1.089c0.061,0.289,0.566,0.527,0.91,0.706c0.462,0.24,1.019,0.323,1.436,0.615
		c0.332,0.232,0.516,0.675,0.792,1.062c0.275-0.328,0.493-0.59,0.912-1.092c-0.724-0.412-1.35-1.038-2.021-1.088
		c-1.037-0.077-1.388-0.354-1.332-1.41c0.061-1.143-0.805-1.708-1.862-1.249c-0.773,0.335-1.359,0.328-1.789-0.521
		C26.114,42.611,27.201,42.945,27.296,43.559z M49.445,59.867c-1.23,0.339-1.333,0.21-1.846-0.991
		c-0.348-0.813-0.865-1.619-1.5-2.226c-0.587-0.562-1.103-0.181-1.304,0.539c0.089,0.107,0.122,0.186,0.176,0.206
		c2.188,0.847,2.49,1.749,1.327,3.792c-0.15,0.266-0.055,0.671-0.073,1.012c0.117,0.044,0.234,0.087,0.352,0.131
		C47.532,61.509,48.49,60.688,49.445,59.867z M40.52,44.914c0.145,0.507,0.184,0.669,0.237,0.827
		c0.445,1.306,0.314,1.59-0.961,2.087c-0.097,0.037-0.266,0.058-0.278,0.114c-0.197,0.941-0.583,1.907-0.493,2.824
		c0.078,0.794,0.701,1.533,1.009,2.149c0.001-0.026,0.095-0.318,0.018-0.554c-0.363-1.095-0.445-2.165,0.166-3.193
		c0.192-0.323,0.443-0.757,0.743-0.83c0.312-0.077,0.76,0.159,1.064,0.377c0.254,0.181,0.386,0.535,0.571,0.811
		c0.081-0.031,0.16-0.066,0.24-0.099c-0.143-0.381-0.249-0.781-0.439-1.136c-0.213-0.393-0.708-0.746-0.704-1.112
		c0.004-0.356,0.485-0.705,0.825-1.146C41.942,45.709,41.359,45.385,40.52,44.914z M37.801,64.608
		c1.555-0.14,2.99-0.268,4.424-0.395c0.002-0.109,0.004-0.217,0.007-0.325c-0.351-0.078-0.795-0.053-1.025-0.263
		c-0.229-0.209-0.35-0.663-0.322-0.994c0.031-0.354,0.41-0.682,0.424-1.03c0.022-0.54-0.134-1.087-0.214-1.632
		c-0.15,0.012-0.301,0.022-0.45,0.033c-0.062,0.34-0.207,0.689-0.17,1.018c0.12,1.079-0.262,1.698-1.383,1.885
		C38.361,63.026,37.869,63.48,37.801,64.608z M50.693,46.8c-0.103,1.313-0.062,1.422,0.669,2.066
		c1.007,0.885,1.049,1.492,0.117,2.527c0.451,0.428,0.902,0.854,1.591,1.505c0-1.806,0-3.324,0-4.707
		c-0.464,0-0.987,0.153-1.305-0.039C51.37,47.917,51.143,47.396,50.693,46.8z M35.143,62.988c-1.63-0.208-1.747-0.41-1.327-1.902
		c0.078-0.273,0.04-0.58,0.056-0.872c-0.142-0.084-0.283-0.169-0.424-0.252c-0.099,0.221-0.176,0.454-0.3,0.659
		c-0.897,1.468-1.036,1.476-2.398,0.435c-0.181-0.14-0.56-0.02-0.847-0.02c-0.026,0.165-0.051,0.33-0.076,0.495
		c1.598,0.843,3.197,1.686,4.883,2.574C34.899,63.617,35.004,63.347,35.143,62.988z M52.423,45.417
		c-0.257-2.012-2.449-5.374-3.368-5.294c0,0.589,0,1.168,0,1.584c0.541,0.394,1.248,0.659,1.488,1.152
		c0.252,0.521,0.056,1.259,0.056,1.672C51.227,44.837,51.809,45.12,52.423,45.417z M38.502,57.317c1.525,0.053,2.821-0.42,3.917-1.3
		c-0.177-0.805-0.335-1.519-0.5-2.271c-0.287,0.838-0.344,1.775-0.841,2.292c-0.896,0.933-1.298-0.257-1.696-0.675
		C39.108,55.974,38.841,56.563,38.502,57.317z M36.103,60.842c0.356,0.74,0.625,1.302,0.867,1.806
		c0.265-0.39,0.495-1.131,0.967-1.349c1.536-0.711,1.465-2.243,2.118-3.498c-0.839-0.153-0.799,0.358-0.83,0.828
		c-0.086,1.292-0.515,1.771-1.77,1.995C37.03,60.699,36.604,60.763,36.103,60.842z M37.188,48.785
		c0.101,0.015,0.203,0.029,0.306,0.043c0.111-0.708,0.415-1.452,0.297-2.122c-0.284-1.632-0.236-1.781,1.271-1.592
		c-0.487-0.738-2.61-0.391-3.31,0.425c0.527,0.401,1.292,0.703,1.523,1.236C37.516,47.33,37.239,48.107,37.188,48.785z
		 M31.128,38.903c-0.584-0.029-1.219-0.227-1.698-0.037c-0.485,0.194-0.818,0.771-1.218,1.181c0.045,0.104,0.091,0.21,0.136,0.315
		c0.943-0.613,1.843-0.649,2.705,0.124C31.08,39.917,31.102,39.45,31.128,38.903z M28.326,45.651
		c0.011-0.105,0.021-0.213,0.032-0.318c-0.935-0.279-1.871-0.558-2.93-0.874c-0.199,0.663-0.471,1.568-0.743,2.475
		c0.07,0.061,0.141,0.121,0.211,0.182C25.653,45.724,26.671,44.944,28.326,45.651z M35.858,56.729
		c0.341-0.546,0.608-0.966,0.865-1.391c0.119-0.194,0.322-0.409,0.307-0.601c-0.056-0.716-0.187-1.424-0.312-2.293
		c-0.419,1.366-0.389,2.87-1.783,3.765C35.428,56.485,35.69,56.633,35.858,56.729z M33.125,47.878
		c1.549,0.465,1.797,1.032,1.002,2.202c-0.363,0.535-0.26,0.909,0.05,1.19c0.293-0.542,0.621-1.024,0.815-1.554
		c0.146-0.396,0.316-1.067,0.127-1.244c-0.479-0.448-1.153-0.686-1.758-0.991C33.354,47.479,33.233,47.694,33.125,47.878z
		 M51.53,56.806c-0.072-0.104-0.145-0.209-0.217-0.312c-0.334,0.189-0.688,0.562-0.997,0.526c-0.415-0.048-0.794-0.409-1.191-0.637
		C48.914,57,48.914,57,50.708,58.203C50.983,57.734,51.257,57.269,51.53,56.806z M41.982,51.267
		c-0.046,0.104-0.091,0.208-0.136,0.313c0.903,0.38,1.808,0.759,2.759,1.158c0-0.512,0-1.069,0-1.626
		C43.666,52.016,42.836,51.769,41.982,51.267z M32.293,52.184c0.332,0.858,0.581,1.503,0.818,2.118
		c0.576-0.358,1.044-0.649,1.405-0.876C33.846,53.052,33.21,52.696,32.293,52.184z M32.263,48.239
		c-0.422-0.684-1.041-1.17-1.951-1.116c-0.179,0.011-0.343,0.264-0.56,0.441C30.709,47.821,31.498,48.033,32.263,48.239z"/>
	<path fill-rule="evenodd" clip-rule="evenodd" d="M83.968,66.16c-0.184-1.617,0.124-2.215,1.252-2.706
		c0.235-0.597,0.338-1.163,0.645-1.577c0.493-0.656,1.599-0.704,1.979-0.076c0.43,0.704,0.899,1.509,0.931,2.287
		c0.031,0.728-0.49,1.477-0.877,2.5c0.304,0.967,0.062,1.789-0.999,2.631c-0.078,0.062-0.235,0.071-0.266,0.145
		c-0.482,1.107-0.948,2.223-1.423,3.333c-0.145,0.344-0.219,0.767-0.467,1.011c-0.907,0.899-1.846,1.775-2.827,2.591
		c-1.111,0.926-1.749,0.896-2.87,0.022c-1.142-0.892-1.156-2-0.062-2.922c0.219-0.183,0.493-0.429,0.53-0.678
		c0.126-0.831,0.475-1.405,1.309-1.688c0.181-0.062,0.286-0.406,0.383-0.638c0.515-1.224,1.731-2.066,1.864-3.52
		C83.091,66.626,83.626,66.421,83.968,66.16z M83.846,72.442c-0.063,0.101-0.125,0.2-0.188,0.301
		c-0.177-0.038-0.379-0.036-0.529-0.122c-0.479-0.272-0.922-0.61-1.411-0.861c-0.654-0.335-1.221-0.185-1.577,0.48
		c-0.357,0.665-0.077,1.049,0.564,1.372c0.523,0.265,0.964,0.698,1.439,1.058c-0.058,0.097-0.114,0.191-0.171,0.287
		c-0.283-0.115-0.58-0.203-0.843-0.354c-0.389-0.219-0.733-0.525-1.134-0.716c-0.618-0.291-1.289,0.18-1.276,0.85
		c0.021,1.035,1.503,1.89,2.541,1.398c-0.483-0.435-0.953-0.852-1.419-1.269c0.076-0.099,0.151-0.198,0.229-0.298
		c0.61,0.385,1.224,0.768,1.832,1.146c1.313-0.807,1.3-1.413-0.032-2.188c-0.342-0.197-0.647-0.451-0.97-0.68
		c0.087-0.131,0.173-0.263,0.26-0.395c0.757,0.46,1.515,0.916,2.483,1.502c0.278-0.398,0.909-0.904,0.863-1.337
		c-0.058-0.532-0.646-1.035-1.068-1.491c-0.262-0.28-0.645-0.447-0.973-0.667c0.062-0.115,0.126-0.23,0.19-0.347
		c0.415,0.171,0.854,0.297,1.236,0.521c0.4,0.238,0.742,0.569,1.116,0.864c0.773-0.617,1.157-1.419,0.69-2.21
		c-0.37-0.635-1.119-1.05-1.701-1.561c0.072-0.113,0.146-0.226,0.221-0.335c0.747,0.438,1.497,0.88,2.323,1.364
		c1.971-1.52,0.191-2.416-1.059-3.407c0.103-0.065,0.203-0.13,0.306-0.193c0.512,0.198,1.024,0.398,1.685,0.658
		c0.245-0.467,0.619-0.913,0.715-1.412c0.223-1.168-1.174-0.993-1.677-1.734c0.386-0.126,0.66-0.215,1.04-0.338
		c-0.751-0.519-1.203-0.316-1.52,0.315c-0.316,0.637-0.013,0.936,0.597,1.121c0.396,0.12,0.757,0.353,1.134,0.535
		c-0.045,0.133-0.088,0.267-0.133,0.4c-0.508-0.147-1.023-0.277-1.522-0.448c-0.695-0.237-1.237-0.124-1.502,0.621
		c-0.246,0.698-0.213,1.247,0.679,1.497c0.546,0.152,1.035,0.51,1.55,0.775c-0.274,0.283-0.482,0.378-0.638,0.323
		c-0.422-0.148-0.808-0.394-1.23-0.54c-0.775-0.27-1.354,0.008-1.692,0.744c-0.381,0.829,0.239,0.925,0.803,1.17
		c0.569,0.248,1.064,0.673,1.591,1.021c-0.077,0.127-0.152,0.253-0.23,0.379c-0.249-0.115-0.502-0.23-0.75-0.354
		c-0.4-0.194-0.78-0.484-1.204-0.572c-0.837-0.172-1.348,0.311-1.703,1.031c-0.379,0.766,0.291,0.828,0.685,1.096
		C82.933,71.767,83.386,72.109,83.846,72.442z"/>
	<path fill-rule="evenodd" clip-rule="evenodd" d="M27.794,81.996c-0.782,0.093-1.435-0.33-1.529-1.462
		c-0.01-0.125-0.077-0.321-0.163-0.35c-1.133-0.395-0.862-1.667-1.457-2.425c-0.197-0.251,0.358-1.294,0.79-1.779
		c0.404-0.452,1.099-0.581,1.666-0.027c0.096,0.093,0.203,0.262,0.299,0.259c1.435-0.052,1.703,1.026,2.018,2.099
		c0.906,0.074,1.723,0.293,1.776,1.032c0.792,0.646,1.36,1.11,2.104,1.717c0.846-0.123,1.793,0.079,2.078,1.518
		c1.792-0.558,1.961,1.116,2.592,2.002c0.464,0.652-0.137,1.449-0.762,1.944c-0.601,0.476-1.143,0.277-1.873,0.036
		c-1.174-0.387-2.353-0.694-3.41-1.366c-0.188-0.12-0.534-0.017-0.691-0.151C30.124,84.095,29.046,83.113,27.794,81.996z
		 M35.399,85.979c0.43,0.073,0.946,0.326,1.184,0.165c0.426-0.287,0.685-0.822,1.014-1.255c-0.094-0.066-0.188-0.133-0.281-0.202
		c-0.214,0.252-0.428,0.503-0.812,0.955c-0.197-1.09,1.024-2.639-1.023-2.594c-0.321,0.744-0.629,1.456-0.938,2.168
		c-0.104-0.034-0.208-0.069-0.312-0.102c0.009-0.219-0.012-0.443,0.035-0.65c0.127-0.569,0.351-1.126,0.408-1.699
		c0.062-0.626-0.272-1.038-0.944-1.131c-0.65-0.09-0.793,0.301-0.944,0.817c-0.127,0.438-0.419,0.826-0.638,1.237
		c-0.096-0.047-0.193-0.093-0.289-0.14c0.026-0.183,0.044-0.368,0.081-0.549c0.122-0.596,0.351-1.195,0.333-1.786
		c-0.01-0.314-0.444-0.618-0.686-0.925c-0.228,0.203-0.476,0.391-0.681,0.614c-0.404,0.439-0.785,0.899-1.176,1.351
		c-0.105-0.085-0.21-0.172-0.314-0.257c0.196-0.29,0.413-0.567,0.582-0.871c0.214-0.383,0.538-0.792,0.537-1.187
		c0-0.342-0.343-0.74-0.64-0.984c-0.089-0.074-0.575,0.238-0.806,0.453c-0.406,0.379-0.755,0.819-1.128,1.231
		c-0.094-0.083-0.188-0.168-0.281-0.253c0.27-0.373,0.561-0.732,0.807-1.119c0.544-0.856,0.173-2.271-0.625-2.489
		c-0.418-0.114-0.825-0.371-1.239-0.375c-0.391-0.004-0.871,0.145-1.146,0.404c-0.204,0.191-0.142,0.664-0.198,1.014
		c0.331-0.042,0.66-0.086,0.99-0.126c0.153-0.018,0.306-0.031,0.458-0.046c-0.075,0.383-0.245,0.624-0.477,0.749
		c-0.429,0.229-0.724,0.526-0.35,0.941c0.106,0.119,0.648-0.041,0.908-0.205c0.409-0.256,0.749-0.625,1.118-0.945
		c0.091,0.101,0.182,0.201,0.273,0.302c-0.277,0.316-0.51,0.694-0.84,0.941c-0.686,0.513-0.903,1.136-0.259,1.718
		c0.634,0.575,1.204,0.09,1.668-0.426c0.329-0.365,0.655-0.732,0.982-1.099c0.107,0.083,0.214,0.165,0.32,0.248
		c-0.476,0.649-0.952,1.298-1.527,2.083c0.323,0.302,0.628,0.798,1.053,0.942c1.195,0.41,1.228-1.149,2.165-1.355
		c-0.137,0.498-0.286,1.013-0.621,1.337c-0.592,0.576-0.461,1.022,0.086,1.45c0.646,0.508,1.069,0.126,1.434-0.421
		c0.242-0.361,0.506-0.708,0.76-1.06c0.114,0.072,0.228,0.145,0.342,0.217c-0.305,0.58-0.61,1.158-0.939,1.783
		c1.657,2.052,2.298-0.128,3.238-1.03c0.072,0.096,0.146,0.19,0.219,0.285C36.016,84.666,35.753,85.225,35.399,85.979z"/>
	<path fill-rule="evenodd" clip-rule="evenodd" d="M62.642,16.662c0.104,0.759,0.286,1.518,0.276,2.275
		c-0.004,0.329-0.34,0.824-0.641,0.936c-0.383,0.144-0.907,0.057-1.324-0.076c-1.202-0.38-2.247-1.122-3.4-1.63
		c-0.944-0.417-1.979-0.607-2.856-1.12c-0.51-0.297-0.895-0.68-1.531-0.372c-0.123,0.06-0.354-0.012-0.495-0.095
		c-0.748-0.44-1.472-0.854-2.399-0.927c-0.321-0.026-0.867-0.743-0.827-1.088c0.082-0.701,0.347-1.501,0.813-1.999
		c0.388-0.413,1.173-0.599,1.787-0.609c0.552-0.009,1.111,0.356,1.879,0.631c1.145-0.433,1.449-0.351,2.327,0.816
		c1.514-0.314,1.887-0.153,2.589,1.115c1.33-0.156,1.614,0.073,1.927,1.424c0.697,0.275,1.304,0.514,1.91,0.755
		C62.677,16.699,62.642,16.662,62.642,16.662z M50.51,12.915c-0.246,0.492-0.409,0.711-0.467,0.956
		c-0.119,0.512-0.238,1.158,0.458,1.252c0.3,0.04,0.737-0.412,0.993-0.732c0.247-0.308,0.344-0.737,0.504-1.113
		c0.134,0.048,0.265,0.094,0.397,0.142c-0.173,0.622-0.348,1.245-0.522,1.871c1.403,1.642,2.062,0.245,2.818-1.022
		c0.348,0.999-0.869,2.11,0.655,2.465c1.329,0.311,0.972-1.305,1.99-1.621c-0.114,0.477-0.119,0.866-0.291,1.154
		c-0.363,0.6-0.135,1.097,0.365,1.261c0.318,0.104,0.835-0.209,1.184-0.45c0.288-0.197,0.459-0.563,0.682-0.854
		c0.095,0.058,0.188,0.116,0.282,0.174c-0.216,0.502-0.433,1.004-0.612,1.417c0.652,1.376,1.526,0.613,2.561-0.005
		c-0.271,0.666-0.392,0.963-0.576,1.418c0.436,0.083,0.782,0.149,0.958,0.183c0.079-0.622,0.207-1.078,0.172-1.521
		c-0.031-0.386-0.143-0.949-0.403-1.092c-0.476-0.26-0.899-0.02-1.005,0.62c-0.038,0.229-0.272,0.427-0.416,0.64
		c-0.182-0.78-0.07-1.46-0.147-2.119c-0.038-0.325-0.425-0.609-0.655-0.911c-0.238,0.254-0.51,0.486-0.707,0.769
		c-0.203,0.295-0.335,0.639-0.498,0.963c-0.103-0.04-0.204-0.08-0.307-0.12c0.1-0.481,0.246-0.956,0.283-1.441
		c0.053-0.688-0.208-1.269-0.957-1.376c-0.748-0.107-0.864,0.442-0.95,1.044c-0.065,0.456-0.282,0.892-0.432,1.336
		c-0.129-0.036-0.257-0.072-0.388-0.108c0.044-0.343,0.097-0.685,0.132-1.028c0.036-0.374,0.199-0.825,0.051-1.106
		c-0.214-0.4-0.628-0.896-1.017-0.954c-0.526-0.08-0.877,0.335-0.84,1.012c0.021,0.397-0.235,0.807-0.368,1.211
		c-0.565-0.933,0.357-2.265-1.066-2.647c-1.319-0.354-1.209,1.024-1.74,2.007C50.581,13.921,50.559,13.588,50.51,12.915z"/>
	<path fill-rule="evenodd" clip-rule="evenodd" fill="#FFFFFF" d="M35.409,64.131c0.453-1.514,0.33-1.695-1.257-1.918
		c0.103-0.429,0.3-0.855,0.274-1.267c-0.026-0.418-0.272-0.821-0.422-1.229c-0.43,0.179-0.877,0.324-1.279,0.551
		c-0.148,0.083-0.147,0.464-0.288,0.52c-0.312,0.121-0.863,0.284-0.98,0.146c-0.706-0.834-1.351-0.88-1.992-0.017
		c-0.844-0.457-1.174-1.075-1.087-1.982c0.07-0.728,0.342-1.098,1.091-1.263c0.434-0.094,0.865-0.469,1.15-0.833
		c0.119-0.151-0.086-0.827-0.256-0.877c-0.458-0.133-0.987-0.118-1.468-0.04c-0.318,0.051-0.603,0.311-0.944,0.502
		c-0.67-0.54-0.864-1.252-0.42-1.899c0.297-0.433,0.919-0.832,1.43-0.877c0.586-0.054,1.369,0.384,1.553-0.437
		c0.11-0.481-0.34-1.09-0.625-1.884c0.569-0.712,1.159,0.614,1.831,0.433c0.028,0.468,0.203,0.994,0.046,1.39
		c-0.177,0.45-0.643,0.79-0.997,1.163c-0.428,0.452-0.129,0.647,0.213,0.98c0.383,0.371,0.77,0.878,0.862,1.379
		c0.144,0.793-0.217,1.364-1.154,1.509c-0.318,0.048-0.824,0.54-0.794,0.77c0.043,0.326,0.459,0.779,0.793,0.86
		c1.206,0.294,2.011-0.431,2.735-1.279c0.207-0.241,0.485-0.422,0.732-0.629c0.101,0.324,0.249,0.643,0.293,0.974
		c0.084,0.637,0.695,0.957,1.296,0.598c0.221-0.131,0.365-0.391,0.59-0.644c1.823,2.021,1.477-0.699,2.25-1.051
		c0.467,1.479-0.029,2.242-1.473,2.4c-1.65,0.18-1.747,0.385-0.944,1.858c0.1,0.186,0.013,0.464,0.08,0.676
		c0.083,0.261,0.237,0.498,0.361,0.746c0.261-0.133,0.667-0.201,0.758-0.409c0.402-0.923,1.22-1.436,1.843-2.135
		c0.726-0.815,0.982-2.049,1.457-3.136c-0.044-0.005,0.022-0.004,0.086,0.011c1.854,0.416,2.34,1.651,2.051,3.375
		c-0.031,0.188,0.03,0.44,0.142,0.594c0.209,0.286,0.488,0.518,0.737,0.772c0.203-0.289,0.536-0.562,0.584-0.874
		c0.115-0.759-0.074-1.613,0.963-1.927c0.039-0.012,0.001-0.875-0.233-1.089c-1.098-1.003-1.315-1.562-0.773-2.536
		c0.512-0.922,1.296-1.132,2.607-0.593c0.779,0.319,1.356,0.112,1.579-0.614c0.226-0.734-0.458-0.823-0.979-1.031
		c-0.417-0.168-0.936-0.45-1.076-0.809c-0.095-0.243,0.376-0.724,0.625-1.074c0.157-0.221,0.478-0.373,0.536-0.603
		c0.075-0.299,0.07-0.726-0.1-0.941c-0.155-0.197-0.571-0.224-0.877-0.253c-0.415-0.04-0.835-0.012-1.24-0.184
		c0.418-0.152,0.868-0.48,1.247-0.413c0.479,0.084,1.005,0.408,1.307,0.79c0.201,0.251,0.12,0.806,0.029,1.194
		c-0.227,0.973,0.1,1.555,1.005,1.98c0.5,0.235,0.848,0.773,1.322,1.089c0.366,0.243,0.823,0.348,1.24,0.516
		c0.072-0.409,0.333-0.923,0.178-1.209c-0.381-0.7-0.982-1.277-1.439-1.943c-0.216-0.315-0.505-0.776-0.417-1.069
		c0.399-1.338,0.031-2.185-1.286-2.637c-0.153-0.053-0.294-0.142-0.586-0.283c1.231-0.931,1.417-2.185,1.25-3.493
		c-0.051-0.401-0.46-0.755-0.706-1.131c-0.373,0.264-0.874,0.454-1.087,0.813c-0.291,0.487-0.298,1.136-0.549,1.659
		c-0.187,0.39-0.557,0.967-0.858,0.975c-0.754,0.019-1.591,0.806-2.317-0.249c-0.459-0.667-1.242-1.095-0.49-2.056
		c0.141-0.18-0.027-0.792-0.247-1.001c-0.192-0.183-0.656-0.081-1.08-0.108c-0.068-0.637-0.393-0.911-1.163-0.575
		c-0.68,0.297-0.811-0.271-0.702-0.718c0.118-0.485,0.415-0.935,0.676-1.373c0.441-0.739,1.016-1.414,1.354-2.194
		c0.534-1.238-0.098-2.336-1.236-2.361c-0.919-0.019-1.302,0.584-0.932,1.414c0.077,0.173-0.002,0.602-0.013,0.602
		c-0.979,0.01-0.914,0.81-1.11,1.419c-0.059,0.182-0.21,0.335-0.37,0.579c-0.451-0.675-0.748-1.213-1.143-1.667
		c-0.16-0.184-0.529-0.187-0.803-0.273c-0.049,0.277-0.183,0.571-0.128,0.825c0.093,0.433,0.282,0.849,0.469,1.255
		c0.43,0.933,0.501,1.824-0.021,2.773c-0.218,0.397-0.204,0.922-0.32,1.523c-0.52-0.21-1.025-0.455-1.557-0.613
		c-0.282-0.083-0.61-0.014-0.917-0.014c0.096,0.264,0.172,0.54,0.293,0.794c0.116,0.242,0.278,0.464,0.289,0.865
		c-0.917-0.909-1.829-1.705-3.267-1.394c-0.027-0.404-0.046-0.703-0.065-1.001c-0.086-1.381-1.147-2.078-2.459-1.616
		c-0.834,0.294-0.834,0.294-1.444-0.429c0.254-0.351,0.351-0.914,1.047-0.5c0.174,0.105,0.514-0.113,0.773-0.099
		c0.477,0.024,0.954,0.088,1.421,0.183c0.186,0.038,0.349,0.287,0.518,0.283c0.204-0.006,0.551-0.147,0.58-0.284
		c0.16-0.772,0.262-1.561,0.318-2.348c0.004-0.057-0.506-0.183-0.784-0.219c-0.218-0.028-0.448,0.031-0.737,0.057
		c0.85-1.187,1.89-1.343,2.376-0.392c0.162,0.317,0.109,0.778,0.057,1.16c-0.064,0.472-0.228,0.931-0.348,1.396
		c0.501,0.027,1.003,0.055,1.664,0.09c-0.026,0.303-0.062,0.755-0.104,1.207c-0.062,0.662,0,1.356,0.753,1.5
		c0.806,0.156,1.151-0.553,1.125-1.167c-0.042-1.001-0.266-2.001-0.485-2.986c-0.086-0.389-0.537-0.746-0.516-1.098
		c0.027-0.431,0.28-1.044,0.614-1.203c0.306-0.146,0.883,0.144,1.278,0.358c0.427,0.233,0.78,0.601,1.166,0.91
		c0.246-0.482,0.472-0.976,0.744-1.443c0.223-0.382,0.458-0.771,0.76-1.088c0.533-0.555,2.957-0.045,3.257,0.649
		c0.08,0.183,0.164,0.378,0.296,0.523c0.935,1.031,0.945,1.276,0.074,2.33c-0.176,0.209-0.427,0.429-0.461,0.669
		c-0.066,0.472-0.005,0.963,0.004,1.447c0.386-0.2,0.771-0.401,1.156-0.6c0.32-0.164,0.631-0.35,0.966-0.462
		c0.055-0.019,0.347,0.333,0.311,0.441c-0.105,0.317-0.252,0.687-0.503,0.879c-0.958,0.728-0.934,0.71-0.057,1.583
		c0.253,0.252,0.184,0.831,0.249,1.261c0.006,0.046-0.09,0.101-0.121,0.161c-0.27,0.531-0.876,1.18-0.146,1.622
		c0.723,0.437,1.267-0.203,1.651-0.817c0.146-0.233,0.311-0.48,0.36-0.74c0.208-1.116,0.203-2.275,0.923-3.265
		c0.144-0.198-0.054-0.655-0.109-0.99c-0.082-0.493-0.64-1.128,0.201-1.376c0.39-0.114,0.901,0.187,1.358,0.3
		c-0.103,0.094-0.204,0.188-0.307,0.284c0,0.462,0.144,0.988-0.026,1.376c-0.592,1.35,0.164,1.645,1.23,1.939
		c0.205,0.056,0.376,0.904,0.266,1.304c-0.304,1.083-0.23,1.101,0.9,1.283c0.674,0.11,1.416,0.572,1.861,1.103
		c0.451,0.534,0.047,1.075-0.674,1.307c-0.194-0.284-0.34-0.628-0.597-0.831c-0.288-0.227-0.677-0.328-1.021-0.484
		c-0.158,0.354-0.515,0.761-0.437,1.052c0.162,0.599,0.473,1.206,0.875,1.677c0.461,0.54,1.146,0.884,0.207,1.619
		c-0.154,0.122-0.001,0.85,0.206,1.173c0.377,0.587,1.23,1.048,1.282,1.618c0.073,0.789-0.41,1.631-0.626,2.351
		c-0.715,0.106-1.291,0.193-1.885,0.281c-0.342-0.121-0.789-0.43-1.17-0.363c-0.25,0.043-0.639,0.71-0.554,0.954
		c0.159,0.455,0.595,0.83,0.958,1.197c0.207,0.21,0.535,0.304,0.72,0.524c0.052,0.062-0.176,0.526-0.337,0.566
		c-0.416,0.101-0.866,0.072-1.422,0.101c-0.108-0.333-0.167-0.891-0.447-1.289c-0.48-0.685-1.021-1.379-1.685-1.866
		c-0.678-0.497-1.549-0.092-1.846,0.692c-0.34,0.901,0.241,1.131,0.946,1.335c1.16,0.337,1.596,1.49,0.879,2.432
		c-0.513,0.674-0.754,1.298-0.212,2.015c-1.489,1.062-2.946,1.729-4.643,0.42c0.117-0.26,0.381-0.613,0.422-0.991
		c0.063-0.594,0.073-1.232-0.088-1.797c-0.08-0.284-0.618-0.65-0.891-0.607c-0.292,0.048-0.587,0.498-0.741,0.837
		c-0.116,0.254,0.081,0.646-0.026,0.908c-0.16,0.392-0.389,0.904-0.723,1.046c-1.423,0.6-1.544,0.659-1.989,2.083
		C36.692,64.336,36.095,64.24,35.409,64.131z M31.838,42.413c-0.138,0.74-0.206,1.472,0.606,1.47
		c0.947-0.003,0.679-1.035,0.921-1.607c0.049-0.113-0.484-0.641-0.809-0.714C31.736,41.376,31.676,41.919,31.838,42.413z"/>
	<path fill-rule="evenodd" clip-rule="evenodd" fill="#FFFFFF" d="M42.149,47.179c0.317-0.177,0.608-0.338,1.154-0.643
		c0.585,1.253,1.15,2.462,1.66,3.555c-0.59,0.375-0.913,0.708-1.286,0.78c-0.44,0.086-0.925-0.043-1.387-0.1
		c-0.311-0.039-0.616-0.116-0.924-0.178c0.014,0.384-0.109,0.863,0.076,1.124c0.254,0.358,0.737,0.56,1.133,0.808
		c0.552,0.346,1.602,0.722,1.575,1c-0.066,0.684-0.627,1.318-0.988,1.973c-0.121-0.037-0.242-0.075-0.363-0.113
		c-0.054-0.455-0.034-0.936-0.185-1.357c-0.118-0.336-0.445-0.596-0.679-0.888c-0.27,0.306-0.665,0.57-0.784,0.927
		c-0.199,0.596,0.135,1.392-0.729,1.804c-0.3-0.443-0.517-0.884-0.844-1.214c-0.361-0.362-1.099-0.391-0.977,0.165
		c0.229,1.03-0.327,1.649-0.832,2.545c-0.318-0.168-0.898-0.29-0.975-0.558c-0.091-0.315,0.286-0.747,0.402-1.143
		c0.13-0.449,0.229-0.911,0.281-1.374c0.056-0.489,0.087-0.992,0.041-1.479c-0.037-0.376-0.213-0.74-0.327-1.11
		c-0.329,0.203-0.696,0.361-0.97,0.621c-0.184,0.175-0.35,0.502-0.325,0.74c0.118,1.194-0.69,1.91-1.438,2.883
		c-0.231-0.406-0.584-0.759-0.571-1.095c0.011-0.251,0.547-0.445,0.758-0.73c0.212-0.29,0.434-0.67,0.417-0.997
		c-0.01-0.196-0.457-0.396-0.735-0.542c-0.266-0.137-0.584-0.174-0.851-0.312c-0.372-0.192-0.715-0.438-1.272-0.788
		c0.099-0.674,0.174-1.524,0.374-2.345c0.062-0.254,0.437-0.511,0.72-0.598c0.177-0.054,0.591,0.166,0.646,0.339
		c0.073,0.236-0.017,0.613-0.179,0.815c-0.555,0.692-0.488,1.349,0.049,1.963c0.17,0.195,0.565,0.389,0.757,0.316
		c0.195-0.073,0.284-0.469,0.387-0.734c0.136-0.354,0.149-0.797,0.375-1.067c0.828-0.988,0.74-1.884-0.334-2.597
		c-1.236-0.824-1.237-0.864-0.037-1.689c0.033,0.003,0.077-0.007,0.099,0.009c0.861,0.634,1.381,1.69,1.492,2.815
		c0.03,0.297,0.298,0.572,0.458,0.856c0.268-0.174,0.607-0.293,0.788-0.532c0.554-0.73,0.619-1.51,0.406-3.337
		c0.922,0.234,0.922,0.234,1.847-0.904c0.137,0.611,0.331,1.156,0.353,1.708c0.01,0.246-0.288,0.55-0.517,0.744
		c-0.166,0.139-0.504,0.075-0.665,0.217c-0.217,0.189-0.534,0.589-0.465,0.729c0.523,1.062-1.229,1.91-0.209,3.056
		c0.402,0.451,0.435,1.225,0.666,1.839c0.111,0.297,0.294,0.565,0.444,0.848c0.288-0.194,0.787-0.356,0.822-0.59
		c0.095-0.624,0.186-1.375-0.077-1.897c-0.52-1.037,0.63-1.608,0.488-2.48c0.291,0.116,0.653,0.161,0.858,0.364
		c0.349,0.347,0.38,1.264,1.131,0.834c0.73-0.418,0.58-1.194,0.208-1.833C42.852,47.926,42.494,47.593,42.149,47.179z"/>
	<path fill-rule="evenodd" clip-rule="evenodd" fill="#FFFFFF" d="M32.781,47.498c-0.832-0.332-1.549-0.687-2.308-0.895
		c-0.749-0.206-1.124,0.301-1.124,0.97c-0.001,0.649,0.432,0.805,1.073,0.751c1.306-0.11,1.8,0.434,1.479,1.136
		c-0.871-0.059-1.72-0.333-2.394-0.1c-0.676,0.233-1.179,0.972-1.791,1.518c-0.648-0.677-0.613-1.288,0.011-1.895
		c0.049-0.047,0.11-0.085,0.158-0.134c0.443-0.448,1.162-0.833,0.556-1.604c-0.408-0.52-1.434-0.435-2.08,0.1
		c-1.086,0.902-1.219,2.628-0.334,4.072c0.2,0.326,0.327,0.699,0.572,1.233c-0.832-0.233-1.359-0.384-2.07-0.586
		c0-1.263-0.088-2.671,0.031-4.062c0.08-0.929,2.234-2.118,3.165-2.009c0.389,0.045,1.108-0.134,1.167-0.351
		c0.171-0.626-0.294-0.966-0.922-1.084c-0.702-0.131-1.588,0.098-1.902-0.862c-0.068-0.206-0.011-0.452,0.213-0.707
		c0.137,0.231,0.271,0.463,0.412,0.691c0.313,0.505,0.694,0.584,1.217,0.266c1.234-0.749,1.249-0.735,1.429,0.733
		c0.086,0.708,0.454,1.292,1.159,1.204C31.823,45.721,32.176,46.689,32.781,47.498z"/>
	<path fill-rule="evenodd" clip-rule="evenodd" fill="#FFFFFF" d="M28.4,48.099c-0.347,0.157-0.831,0.223-1.008,0.494
		c-0.317,0.48-0.592,1.08-0.607,1.635c-0.01,0.376,0.39,0.977,0.731,1.084c0.311,0.098,0.893-0.24,1.172-0.551
		c1.144-1.275,1.39-1.375,2.672-0.591c0.234,0.142,0.356,0.468,0.53,0.709c-0.087,0.092-0.172,0.18-0.258,0.269
		c-0.255-0.124-0.522-0.229-0.763-0.375c-0.747-0.452-1.267-0.074-1.673,0.497c-0.452,0.637,0.034,0.896,0.531,1.162
		c0.17,0.091,0.255,0.344,0.481,0.67c-0.44,0-0.71,0.055-0.948-0.011c-0.847-0.232-1.485,0.052-1.997,0.718
		c-0.554,0.722-0.671,1.499-0.288,2.334c0.349,0.76,0.834,1.004,1.658,0.589c0.417-0.212,0.96-0.173,1.446-0.247
		c0.084,0.935-0.703,0.64-1.149,0.798c-0.894,0.318-1.023,1.032-0.986,1.988c-0.253-0.221-0.477-0.33-0.564-0.506
		c-0.838-1.69-1.667-3.386-2.459-5.098c-0.093-0.198,0.041-0.503,0.07-0.758c0.237,0.036,0.474,0.105,0.71,0.104
		c0.346,0,0.856,0.074,0.998-0.11c0.203-0.267,0.265-0.776,0.16-1.113c-0.191-0.613-0.652-1.146-0.816-1.766
		c-0.393-1.479,0.6-2.662,1.937-2.405C28.119,47.778,28.26,47.938,28.4,48.099z"/>
	<path fill-rule="evenodd" clip-rule="evenodd" fill="#FFFFFF" d="M40.434,36.875c0.912-0.197,1.433,0.241,1.096,1.234
		c-0.249,0.732-0.749,1.382-1.148,2.062c-0.296,0.502-0.708,0.96-0.898,1.498c-0.438,1.237,0.278,1.995,1.608,1.722
		c0.253,0.68,0.656,1.134,1.608,0.75c-0.168,0.337-0.337,0.673-0.497,0.992c-0.894-0.279-1.757-0.5-2.578-0.831
		c-0.29-0.116-0.479-0.492-0.704-0.759c-0.216-0.256-0.417-0.526-0.626-0.789c-0.175,0.305-0.349,0.611-0.526,0.917
		c-0.158,0.273-0.319,0.545-0.478,0.816c-0.167-0.042-0.334-0.084-0.501-0.127c0.756-1.734,1.264-3.465-0.097-5.157
		c0.114-0.016,0.228-0.031,0.342-0.047c0.137,0.259,0.273,0.52,0.412,0.779c0.499,0.934,1.074,0.939,1.684,0.053
		c0.333-0.485,0.835-0.879,1.072-1.398C40.411,38.133,40.355,37.558,40.434,36.875z"/>
	<path fill-rule="evenodd" clip-rule="evenodd" fill="#FFFFFF" d="M43.338,35.888c1.323,0.679,2.646,1.357,4.156,2.132
		c-1.146,0.59-1.172,1.336-0.796,2.182c0.293,0.658,0.248,1.215-0.284,1.794c-0.25,0.273-0.325,0.809-0.301,1.215
		c0.062,1.059-0.32,1.84-1.332,2.341c0.234-0.572,0.66-1.148,0.647-1.714c-0.013-0.567-0.463-1.124-0.74-1.726
		c0.997-0.775,1.271-1.518,0.722-2.217c-0.504-0.64-1.095-0.489-2.597,0.786c0.583-1.613,2.837-2.977,0.187-4.543
		C43.112,36.054,43.225,35.972,43.338,35.888z"/>
	<path fill-rule="evenodd" clip-rule="evenodd" fill="#FFFFFF" d="M48.475,44.065c0.356,1.107,0.276,2.162-0.518,3.12
		c-0.854,1.033-0.812,1.188,0.479,1.683c0.845,0.323,1.149,0.943,0.799,1.79c-0.319,0.771-0.127,1.299,0.546,1.77
		c0.76,0.529,1.497,1.117,1.376,2.207c-0.888-0.653-1.792-1.242-2.586-1.953c-0.209-0.188-0.146-0.765-0.093-1.148
		c0.113-0.828,0.078-1.584-0.621-2.168c-0.54-0.452-1.069-0.715-1.771-0.241c-0.226,0.153-0.798,0.172-0.92,0.018
		c-0.261-0.323-0.411-0.797-0.432-1.219c-0.007-0.141,0.52-0.449,0.794-0.438c1.186,0.043,1.644-0.645,1.898-1.651
		c0.161-0.637,0.407-1.253,0.617-1.877C48.187,43.99,48.331,44.027,48.475,44.065z"/>
	<path fill-rule="evenodd" clip-rule="evenodd" fill="#FFFFFF" d="M37.596,57.75c-0.061,0.428-0.103,0.729-0.147,1.043
		c-1.046-0.547-1.046-0.547-2.325,0.252c-0.019-0.226,0.022-0.444-0.063-0.59c-0.227-0.388-0.438-0.916-0.788-1.054
		c-0.256-0.1-0.762,0.272-1.083,0.526c-0.452,0.357-0.776,0.913-1.268,1.173c-0.415,0.219-0.988,0.132-1.534-0.009
		c0.879-0.476,1.879-0.684,1.987-1.866c0.089-0.967,0.015-1.883-0.983-2.379c0.284-0.435,0.542-0.827,0.85-1.298
		C33.325,55.821,35.038,57.283,37.596,57.75z"/>
	<path fill-rule="evenodd" clip-rule="evenodd" fill="#FFFFFF" d="M45.338,50.984c0.64-0.055,1.124-0.095,1.826-0.153
		c-0.253,0.31-0.401,0.53-0.586,0.713c-1.418,1.397-1.172,2.358,0.75,2.917c0.161,0.047,0.314,0.115,0.471,0.174
		c-0.005,0.108-0.01,0.217-0.015,0.325c-0.35-0.037-0.716-0.019-1.047-0.116c-1.468-0.436-2.451-0.081-3.053,1.14
		c-0.518,1.051-0.269,2.127,0.656,2.855c0.177,0.139,0.354,0.281,0.548,0.437c-0.768,0.502-0.768,0.502-1.339,2.536
		c-0.482-1.615,0.435-4.045-2.789-4.264C43.753,56.062,45.277,53.949,45.338,50.984z"/>
	<path fill-rule="evenodd" clip-rule="evenodd" fill="#FFFFFF" d="M38.668,35.28c-0.232,0.424-0.486,0.741-0.579,1.099
		c-0.091,0.354-0.02,0.749-0.02,1.125c-0.112,0.022-0.224,0.047-0.335,0.07c-0.137-0.206-0.29-0.403-0.408-0.62
		c-0.476-0.873-1.164-1.103-2.072-0.683c-0.864,0.399-1.223,1.185-0.874,2.034c0.3,0.731,0.749,1.407,0.974,2.156
		c0.234,0.775,0.312,1.615-0.639,2.536c-0.04-0.655-0.121-1.055-0.08-1.442c0.187-1.738-0.043-1.963-1.783-1.431
		c0.926-1.275,0.89-2.368-0.465-3.31C34.424,35.785,36.471,35.284,38.668,35.28z"/>
	<path fill-rule="evenodd" clip-rule="evenodd" fill="#FFFFFF" d="M27.296,43.559c-0.096-0.613-1.182-0.947-0.315-1.887
		c0.43,0.848,1.016,0.856,1.789,0.521c1.057-0.458,1.923,0.106,1.862,1.249c-0.056,1.056,0.295,1.333,1.332,1.41
		c0.67,0.05,1.297,0.676,2.021,1.088c-0.419,0.502-0.637,0.764-0.912,1.092c-0.277-0.388-0.46-0.831-0.792-1.062
		c-0.417-0.292-0.974-0.375-1.436-0.615c-0.344-0.179-0.849-0.417-0.91-0.706C29.506,42.593,29.256,42.46,27.296,43.559z"/>
	<path fill-rule="evenodd" clip-rule="evenodd" fill="#FFFFFF" d="M49.445,59.867c-0.956,0.821-1.913,1.642-2.869,2.463
		c-0.118-0.044-0.234-0.087-0.352-0.131c0.018-0.341-0.078-0.746,0.073-1.012c1.163-2.043,0.862-2.945-1.327-3.792
		c-0.055-0.021-0.087-0.099-0.176-0.206c0.202-0.72,0.717-1.102,1.304-0.539c0.635,0.606,1.153,1.412,1.5,2.226
		C48.112,60.077,48.215,60.206,49.445,59.867z"/>
	<path fill-rule="evenodd" clip-rule="evenodd" fill="#FFFFFF" d="M40.52,44.914c0.839,0.471,1.422,0.795,1.999,1.119
		c-0.339,0.44-0.821,0.79-0.825,1.146c-0.004,0.367,0.49,0.72,0.704,1.112c0.19,0.355,0.296,0.755,0.439,1.136
		c-0.08,0.033-0.16,0.067-0.24,0.099c-0.186-0.275-0.317-0.629-0.571-0.811c-0.304-0.218-0.752-0.454-1.064-0.377
		c-0.3,0.073-0.551,0.507-0.743,0.83c-0.61,1.028-0.529,2.099-0.166,3.193c0.078,0.235-0.017,0.527-0.018,0.554
		c-0.309-0.616-0.931-1.355-1.009-2.149c-0.089-0.917,0.296-1.883,0.493-2.824c0.012-0.056,0.181-0.077,0.278-0.114
		c1.275-0.497,1.406-0.781,0.961-2.087C40.704,45.583,40.665,45.421,40.52,44.914z"/>
	<path fill-rule="evenodd" clip-rule="evenodd" fill="#FFFFFF" d="M37.801,64.608c0.068-1.128,0.56-1.582,1.292-1.703
		c1.121-0.187,1.502-0.806,1.383-1.885c-0.037-0.328,0.107-0.678,0.17-1.018c0.149-0.011,0.3-0.021,0.45-0.033
		c0.08,0.545,0.237,1.092,0.214,1.632c-0.015,0.349-0.394,0.677-0.424,1.03c-0.028,0.331,0.092,0.785,0.322,0.994
		c0.229,0.21,0.674,0.185,1.025,0.263c-0.003,0.108-0.005,0.216-0.007,0.325C40.791,64.341,39.356,64.469,37.801,64.608z"/>
	<path fill-rule="evenodd" clip-rule="evenodd" fill="#FFFFFF" d="M50.693,46.8c0.449,0.596,0.677,1.116,1.072,1.353
		c0.317,0.191,0.841,0.039,1.305,0.039c0,1.383,0,2.901,0,4.707c-0.688-0.651-1.14-1.077-1.591-1.505
		c0.932-1.035,0.89-1.642-0.117-2.527C50.632,48.222,50.591,48.114,50.693,46.8z"/>
	<path fill-rule="evenodd" clip-rule="evenodd" fill="#FFFFFF" d="M35.143,62.988c-0.139,0.358-0.244,0.629-0.434,1.117
		c-1.686-0.889-3.285-1.731-4.883-2.574c0.025-0.165,0.05-0.33,0.076-0.495c0.287,0,0.666-0.12,0.847,0.02
		c1.362,1.041,1.501,1.033,2.398-0.435c0.124-0.205,0.202-0.438,0.3-0.659c0.142,0.083,0.282,0.168,0.424,0.252
		c-0.016,0.292,0.022,0.599-0.056,0.872C33.396,62.578,33.513,62.78,35.143,62.988z"/>
	<path fill-rule="evenodd" clip-rule="evenodd" fill="#FFFFFF" d="M52.423,45.417c-0.614-0.297-1.196-0.58-1.824-0.886
		c0-0.413,0.196-1.152-0.056-1.672c-0.24-0.494-0.947-0.759-1.488-1.152c0-0.416,0-0.995,0-1.584
		C49.974,40.043,52.166,43.405,52.423,45.417z"/>
	<path fill-rule="evenodd" clip-rule="evenodd" fill="#FFFFFF" d="M38.502,57.317c0.339-0.754,0.606-1.344,0.881-1.953
		c0.398,0.418,0.8,1.607,1.696,0.675c0.497-0.517,0.554-1.454,0.841-2.292c0.165,0.752,0.322,1.466,0.5,2.271
		C41.323,56.897,40.027,57.37,38.502,57.317z"/>
	<path fill-rule="evenodd" clip-rule="evenodd" fill="#FFFFFF" d="M36.103,60.842c0.501-0.079,0.927-0.143,1.353-0.218
		c1.255-0.225,1.684-0.703,1.77-1.995c0.031-0.47-0.009-0.981,0.83-0.828c-0.653,1.255-0.583,2.787-2.118,3.498
		c-0.472,0.218-0.703,0.959-0.967,1.349C36.729,62.144,36.459,61.582,36.103,60.842z"/>
	<path fill-rule="evenodd" clip-rule="evenodd" fill="#FFFFFF" d="M37.188,48.785c0.05-0.678,0.327-1.456,0.087-2.009
		c-0.231-0.533-0.996-0.835-1.523-1.236c0.7-0.816,2.823-1.163,3.31-0.425c-1.507-0.189-1.556-0.04-1.271,1.592
		c0.118,0.669-0.186,1.413-0.297,2.122C37.392,48.814,37.29,48.8,37.188,48.785z"/>
	<path fill-rule="evenodd" clip-rule="evenodd" fill="#FFFFFF" d="M31.128,38.903c-0.026,0.547-0.048,1.014-0.075,1.583
		c-0.861-0.773-1.762-0.737-2.705-0.124c-0.045-0.105-0.091-0.211-0.136-0.315c0.399-0.41,0.732-0.987,1.218-1.181
		C29.909,38.676,30.543,38.874,31.128,38.903z"/>
	<path fill-rule="evenodd" clip-rule="evenodd" fill="#FFFFFF" d="M28.326,45.651c-1.654-0.707-2.673,0.072-3.429,1.464
		c-0.071-0.061-0.141-0.121-0.211-0.182c0.271-0.907,0.543-1.812,0.743-2.475c1.059,0.316,1.995,0.595,2.93,0.874
		C28.347,45.438,28.336,45.546,28.326,45.651z"/>
	<path fill-rule="evenodd" clip-rule="evenodd" fill="#FFFFFF" d="M35.858,56.729c-0.168-0.096-0.43-0.243-0.923-0.52
		c1.394-0.895,1.364-2.398,1.783-3.765c0.125,0.869,0.256,1.577,0.312,2.293c0.015,0.191-0.188,0.406-0.307,0.601
		C36.466,55.763,36.199,56.183,35.858,56.729z"/>
	<path fill-rule="evenodd" clip-rule="evenodd" fill="#FFFFFF" d="M33.125,47.878c0.108-0.184,0.229-0.399,0.236-0.396
		c0.604,0.305,1.278,0.543,1.758,0.991c0.189,0.177,0.019,0.848-0.127,1.244c-0.194,0.529-0.521,1.012-0.815,1.554
		c-0.31-0.281-0.413-0.655-0.05-1.19C34.922,48.91,34.674,48.343,33.125,47.878z"/>
	<path fill-rule="evenodd" clip-rule="evenodd" fill="#FFFFFF" d="M51.53,56.806c-0.273,0.463-0.547,0.929-0.822,1.397
		C48.914,57,48.914,57,49.125,56.383c0.397,0.228,0.777,0.589,1.191,0.637c0.308,0.035,0.663-0.337,0.997-0.526
		C51.386,56.597,51.458,56.701,51.53,56.806z"/>
	<path fill-rule="evenodd" clip-rule="evenodd" fill="#FFFFFF" d="M41.982,51.267c0.854,0.502,1.684,0.749,2.623-0.154
		c0,0.557,0,1.114,0,1.626c-0.951-0.399-1.855-0.778-2.759-1.158C41.891,51.475,41.936,51.371,41.982,51.267z"/>
	<path fill-rule="evenodd" clip-rule="evenodd" fill="#FFFFFF" d="M32.293,52.184c0.917,0.513,1.553,0.868,2.223,1.242
		c-0.361,0.227-0.83,0.518-1.405,0.876C32.874,53.687,32.625,53.042,32.293,52.184z"/>
	<path fill-rule="evenodd" clip-rule="evenodd" fill="#FFFFFF" d="M32.263,48.239c-0.765-0.206-1.554-0.417-2.511-0.675
		c0.217-0.178,0.381-0.431,0.56-0.441C31.223,47.069,31.841,47.555,32.263,48.239z"/>
	<path fill-rule="evenodd" clip-rule="evenodd" fill="#FFFFFF" d="M83.846,72.442c-0.46-0.333-0.913-0.676-1.382-0.997
		c-0.394-0.268-1.063-0.33-0.685-1.096c0.355-0.721,0.866-1.203,1.703-1.031c0.424,0.088,0.804,0.378,1.204,0.572
		c0.248,0.123,0.501,0.238,0.75,0.354c0.078-0.126,0.153-0.252,0.23-0.379c-0.526-0.349-1.021-0.773-1.591-1.021
		c-0.563-0.245-1.184-0.341-0.803-1.17c0.339-0.736,0.917-1.014,1.692-0.744c0.423,0.146,0.809,0.392,1.23,0.54
		c0.155,0.055,0.363-0.04,0.638-0.323c-0.515-0.266-1.004-0.623-1.55-0.775c-0.892-0.25-0.925-0.799-0.679-1.497
		c0.265-0.745,0.807-0.858,1.502-0.621c0.499,0.171,1.015,0.301,1.522,0.448c0.045-0.134,0.088-0.268,0.133-0.4
		c-0.377-0.183-0.738-0.415-1.134-0.535c-0.609-0.186-0.913-0.484-0.597-1.121c0.316-0.632,0.769-0.834,1.52-0.315
		c-0.38,0.123-0.654,0.212-1.04,0.338c0.503,0.741,1.899,0.566,1.677,1.734c-0.096,0.499-0.47,0.945-0.715,1.412
		c-0.66-0.26-1.173-0.46-1.685-0.658c-0.103,0.063-0.203,0.128-0.306,0.193c1.25,0.991,3.029,1.888,1.059,3.407
		c-0.826-0.484-1.576-0.926-2.323-1.364c-0.074,0.109-0.148,0.222-0.221,0.335c0.582,0.511,1.331,0.926,1.701,1.561
		c0.467,0.791,0.083,1.593-0.69,2.21c-0.374-0.295-0.716-0.626-1.116-0.864c-0.383-0.224-0.821-0.35-1.236-0.521
		c-0.064,0.116-0.128,0.231-0.19,0.347c0.328,0.22,0.711,0.387,0.973,0.667c0.423,0.456,1.011,0.959,1.068,1.491
		c0.046,0.433-0.585,0.938-0.863,1.337c-0.969-0.586-1.727-1.042-2.483-1.502c-0.087,0.132-0.173,0.264-0.26,0.395
		c0.322,0.229,0.628,0.482,0.97,0.68c1.332,0.775,1.346,1.382,0.032,2.188c-0.608-0.379-1.222-0.762-1.832-1.146
		c-0.077,0.1-0.152,0.199-0.229,0.298c0.466,0.417,0.936,0.834,1.419,1.269c-1.038,0.491-2.521-0.363-2.541-1.398
		c-0.013-0.67,0.658-1.141,1.276-0.85c0.4,0.19,0.745,0.497,1.134,0.716c0.263,0.151,0.56,0.239,0.843,0.354
		c0.057-0.096,0.113-0.19,0.171-0.287c-0.476-0.359-0.916-0.793-1.439-1.058c-0.642-0.323-0.922-0.707-0.564-1.372
		c0.356-0.665,0.923-0.815,1.577-0.48c0.489,0.251,0.933,0.589,1.411,0.861c0.15,0.086,0.353,0.084,0.529,0.122
		C83.721,72.643,83.782,72.543,83.846,72.442z"/>
	<path fill-rule="evenodd" clip-rule="evenodd" fill="#FFFFFF" d="M35.399,85.979c0.354-0.755,0.617-1.313,0.879-1.873
		c-0.073-0.095-0.147-0.189-0.219-0.285c-0.94,0.902-1.581,3.082-3.238,1.03c0.329-0.625,0.634-1.203,0.939-1.783
		c-0.114-0.072-0.229-0.145-0.342-0.217c-0.254,0.352-0.519,0.698-0.76,1.06c-0.365,0.547-0.788,0.929-1.434,0.421
		c-0.547-0.428-0.678-0.874-0.086-1.45c0.334-0.324,0.484-0.839,0.621-1.337c-0.937,0.206-0.969,1.766-2.165,1.355
		c-0.425-0.145-0.73-0.641-1.053-0.942c0.575-0.785,1.051-1.434,1.527-2.083c-0.106-0.083-0.213-0.165-0.32-0.248
		c-0.327,0.366-0.653,0.733-0.982,1.099c-0.464,0.516-1.034,1.001-1.668,0.426c-0.644-0.582-0.427-1.205,0.259-1.718
		c0.33-0.247,0.562-0.625,0.84-0.941c-0.091-0.101-0.182-0.201-0.273-0.302c-0.369,0.32-0.708,0.689-1.118,0.945
		c-0.26,0.164-0.801,0.324-0.908,0.205c-0.374-0.415-0.079-0.712,0.35-0.941c0.231-0.125,0.402-0.366,0.477-0.749
		c-0.152,0.015-0.306,0.028-0.458,0.046c-0.33,0.04-0.66,0.084-0.99,0.126c0.056-0.35-0.006-0.822,0.198-1.014
		c0.275-0.26,0.755-0.408,1.146-0.404c0.414,0.004,0.82,0.261,1.239,0.375c0.798,0.219,1.169,1.633,0.625,2.489
		c-0.246,0.387-0.537,0.746-0.807,1.119c0.093,0.085,0.187,0.17,0.281,0.253c0.374-0.412,0.723-0.853,1.128-1.231
		c0.231-0.215,0.717-0.527,0.806-0.453c0.297,0.244,0.64,0.643,0.64,0.984c0.001,0.395-0.323,0.804-0.537,1.187
		c-0.169,0.304-0.386,0.581-0.582,0.871c0.104,0.085,0.209,0.172,0.314,0.257c0.391-0.451,0.771-0.911,1.176-1.351
		c0.205-0.224,0.453-0.411,0.681-0.614c0.242,0.307,0.675,0.61,0.686,0.925c0.019,0.591-0.211,1.19-0.333,1.786
		c-0.037,0.181-0.054,0.366-0.081,0.549c0.096,0.047,0.192,0.093,0.289,0.14c0.219-0.411,0.511-0.799,0.638-1.237
		c0.15-0.517,0.294-0.907,0.944-0.817c0.672,0.093,1.007,0.505,0.944,1.131c-0.057,0.573-0.281,1.13-0.408,1.699
		c-0.047,0.207-0.025,0.432-0.035,0.65c0.104,0.032,0.208,0.067,0.312,0.102c0.309-0.712,0.617-1.424,0.938-2.168
		c2.047-0.045,0.826,1.504,1.023,2.594c0.384-0.452,0.599-0.703,0.812-0.955c0.094,0.069,0.188,0.136,0.281,0.202
		c-0.329,0.433-0.588,0.968-1.014,1.255C36.345,86.306,35.829,86.053,35.399,85.979z"/>
	<path fill-rule="evenodd" clip-rule="evenodd" fill="#FFFFFF" d="M50.51,12.915c0.049,0.674,0.071,1.006,0.12,1.676
		c0.531-0.983,0.421-2.362,1.74-2.007c1.424,0.382,0.501,1.714,1.066,2.647c0.133-0.404,0.39-0.814,0.368-1.211
		c-0.037-0.676,0.313-1.091,0.84-1.012c0.389,0.058,0.803,0.553,1.017,0.954c0.148,0.281-0.015,0.732-0.051,1.106
		c-0.035,0.344-0.088,0.686-0.132,1.028c0.131,0.036,0.259,0.072,0.388,0.108c0.149-0.444,0.366-0.88,0.432-1.336
		c0.086-0.602,0.202-1.151,0.95-1.044c0.749,0.107,1.01,0.688,0.957,1.376c-0.037,0.485-0.184,0.96-0.283,1.441
		c0.103,0.04,0.204,0.08,0.307,0.12c0.163-0.324,0.295-0.667,0.498-0.963c0.197-0.283,0.469-0.515,0.707-0.769
		c0.23,0.302,0.617,0.586,0.655,0.911c0.077,0.658-0.034,1.339,0.147,2.119c0.144-0.213,0.378-0.41,0.416-0.64
		c0.105-0.64,0.529-0.88,1.005-0.62c0.261,0.143,0.372,0.706,0.403,1.092c0.035,0.443-0.093,0.899-0.172,1.521
		c-0.176-0.034-0.522-0.1-0.958-0.183c0.185-0.455,0.306-0.752,0.576-1.418c-1.034,0.618-1.908,1.381-2.561,0.005
		c0.18-0.414,0.396-0.916,0.612-1.417c-0.094-0.059-0.188-0.116-0.282-0.174c-0.223,0.292-0.394,0.658-0.682,0.854
		c-0.349,0.241-0.865,0.554-1.184,0.45c-0.5-0.164-0.729-0.661-0.365-1.261c0.172-0.288,0.177-0.677,0.291-1.154
		c-1.019,0.316-0.661,1.932-1.99,1.621c-1.524-0.355-0.308-1.466-0.655-2.465c-0.756,1.267-1.415,2.664-2.818,1.022
		c0.175-0.626,0.35-1.249,0.522-1.871c-0.133-0.047-0.264-0.094-0.397-0.142c-0.16,0.376-0.257,0.806-0.504,1.113
		c-0.256,0.321-0.693,0.772-0.993,0.732c-0.696-0.094-0.577-0.74-0.458-1.252C50.101,13.626,50.264,13.406,50.51,12.915z"/>
	<path fill-rule="evenodd" clip-rule="evenodd" d="M31.838,42.413c-0.163-0.493-0.103-1.037,0.718-0.852
		c0.325,0.073,0.858,0.601,0.809,0.714c-0.243,0.572,0.026,1.604-0.921,1.607C31.632,43.885,31.7,43.152,31.838,42.413z"/>
</g>
</svg>
