<svg xmlns="http://www.w3.org/2000/svg" width="100" height="100" viewBox="0 0 100 100"><path d="M99.4 35.2l-.8 1.6c-.3.5-.3 1 0 1.4 1 1.2.8 3.7-.3 4.7-.6.4-1 1-2 1.3 1 2.4.3 4.4-1.2 6.2h.3v.4c-2.7 2.3-5.5 4-9 5-1 .4-2 .4-3.2.5l-2.7.6c-.3.2-.5.4-.6.8-.2 1-.4 2-.7 2.7-.3.7-.8 1.3-1.2 1.8-1 1.3-2.4 2.4-3.8 3.3-2.7 1.6-5.5 2.6-8.6 3-1.7.4-3.3.2-5 0-.5-.2-1-.2-1.8-.3H58l-.6-.2c0 .3 0 .4.3.6h-.4l-1.2-.7c-.3-.4-.4-.2-.6.2L54 71c-1 1.5-2 2.8-3.4 4l-1.8 2.3-1 1.5c-1.4 1.7-2.4 3.6-3.2 5.5l-1.5 4v.3c0-1 .4-1.8.6-2.7-.7 1-1.2 2.3-1.6 3.5-.4 1-.8 2-1.4 2.8-.2.4-.8.7-1.2 1H39l.3-.2c.6-.2 1-.5 1-1.2.7-2.2 1.7-4.3 2.7-6.3l1-2c0-.4.2-.8.4-1 0-.3.2-.6.5-.4l1-1.4h-.2l-.7.8c0-.3.2-.4.3-.6.6-.8 1.2-1.7 1.4-2.7v-1.4s0-.3-.2-.4l-2.2 6H44v-.4l2.2-5.8.2-.3.2.3.2-.3.4.7.2-.5c.2 0 .2.2.3.3.8 0 1.5-.3 2-.8 1.6-1.4 3-3 3.8-4.8.6-1 1-2 1.5-3.3-1 0-2.2-.3-3.3-.5.3 1.3-.2 2-1.4 2.7-.3 0-.6.3-1 0-.3 0-.7 0-1 .2v-.2l.2-.2L50 69c1-.4 1-1 1-1.8l-.4-.3c-.4-.2-.7-.2-1-.2-.6 0-.8.3-1 .8 0 .7-.3 1.3-.6 2l-.2-.2-1 1.3h.4c-.5.4-1 .8-1.5 1l.5 1.3c.3 1 0 1.8-.6 2.6-.6 1-1.4 1.7-2.3 2.4l-.3.5c-.2 1.7-1 3-1.8 4.5l-.8 1.3c0-.4 0-.6.2-1l-1 1.3c.2.8-.5 1.3-.7 2l-1 2c0-.8.4-1.6.7-2.3h-.3V86c1-1 1.6-2.3 2.4-3.3.8-1 1.3-2 1.6-3.2v-.3-.3l-1 .8c-1 .8-2 1.2-3 1.7-.3 0-.4.2-.5.4l-.6 3v.2c-.8 2.2-1 4.5-1.6 6.8l-.3 1v-.3c0-1.2 0-2.5.3-3.7 0-.8.6-1.6.7-2.4l.6-3.4v-1h-3.3c-1 0-2.2 0-3.2-.2.2-.2.4-.2.6-.2-.4-.3-1 0-1.5 0-1.7.3-3.4.5-5 .4-.5 0-.8 0-1.2-.2-1.5-.4-3-1-4.2-1.8l-1-1c-1-.7-1.7-1.5-2.5-2.3l-.6-1.2c-.3-.5-.5-1-1-1l.4-.2c0-.5.2-1 .3-1.4v1c0 .4 0 .6.5.7 2.6.8 5.2.6 7.8-.6l3.3-1.2h.4l-4 1.6h.8c0 .2 0 .3-.2.3-1.2.3-2.3.6-3.5.7-1.6.2-3.3.2-4.8-.5l1.3 1h-.6c.4 1 1.3 1.2 2 1.4v.2l-1-.2c.7.6 1.4.4 2 .6v.2h-1c2 1.7 3.6 2.3 6 .7 1.5-.8 3-2 4.4-2.8l2.2-1v.3c-2.4.8-4.3 2.4-6.3 3.8-1 .5-2 1-3 1l2 .8v.2c-1.2 0-2.2-.8-3.3-1 .4.3.8.7 1.4.7h.7c2 1 4 1 6 .8.7 0 1.4-.3 2.2-.4h.3l-.6-.2c0-.2.2-.2.4-.2l4.2-.7c1.4-.3 2.8-.7 4.2-1.3 1.8-.8 3.6-1.6 5.2-2.7.8-.6 1.4-1.3 2-2.2v-.4-.6-.6c-.2 0-.3-.2-.4-.4-1.8.7-3.6.4-5.4 0l-8.6-2.3c-.4 0-.8 0-1.3-.3h.4c1 0 2 0 3 .4l6.6 2c1 0 2 .3 2.7 0 1 0 2 0 2.8-.5.7-.3 1.2-1 1.8-1.7.2-.2.2-.6.7-.7v-.4c-1 0-1.8-.2-2.7 0h-1c-1.5 0-3 .6-4.7.4-.6 0-1.3 0-2-.2l-1.8-.2h-2l.7-.4c1-.4 2.4-.5 3.6-.3v-.2h-.3l-4.7-.4c-2.7-.3-5.4 0-8 .6-2.5.4-5 1-7.5 1.7l-1 .2c-1.2 0-1.7.6-2 1.8v1.6c-.2.2-.2.3-.2.5-.4-.3-.5-.6-.5-1 0-.2 0-.5-.2-.7v-.6c0-.4.3-1 .5-1.4-.8.2-1.7.2-2.5.5-.8.2-1.5.7-2.3 1l2.7-1.6c-.6-.3-1-.2-1.5 0 0 .2-.2.2-.2.2-1.2 0-2.3 0-3.3-.8-1.2-1-2-2-2.6-3.4l-.8-1c-.7-.5-1.4-1.2-1.8-2-.3-.8-.8-1.5-1.2-2.3-.8-1.8-.7-3.5-.4-5.3v-3.4-1.8c0-1-.2-2 0-3 .4-.7.5-1.6 1-2.2.3-.2.4-.4.4-.7 0-1.3.3-2.5.7-3.8.3-.8.6-1.5 1.2-2l.2-.4c0-2 1-3.5 2.7-4.4.2 0 .3-.2.5-.3.4-.3.8-.6.6-1.4v-1l.5-2.3c.3-1.2.7-2.4 1.3-3.4.8-1.2 2-2 3.3-2.4l1.5-.6c.5-.2.6-.4.5-.7-.2-.7-.2-1.4.2-2 1.4-2 2.7-4 4.8-5.5 1.2-1 2.6-1.6 4-2l6.3-3c1-.6 2.2-1 3.4-1.3 1.3-.5 2.6-.8 4-1 1-.4 2-.2 3.2 0 .4 0 .8 0 1.2-.2.6-.4 1.2-1 2-1.2.7-.2 1.5-.4 2.3-.4h4.3c.5 0 1 .3 1.4.4.6 0 1 0 1.7-.2 2-.6 3.8-.7 5.8-.5 1.2.3 2.4.7 3.4 1.4.3 0 .5.2.8 0 .8-.3 1.6-.2 2.4 0 2.7.5 5.4 1 8.2 1.7 2.4.7 4.7 1.6 6.6 3.3 0 0 .2 0 .3.3.4 1 1.3 1.3 2.2 1.5l2 .7c2.3.7 4 2.2 5.6 4.2l3 4c1 1.3 2 2.3 2.7 3.4L98 28l.8 1s.4.2 0 .3v.3c.5 1.2.7 2.4.6 3.7v1.9zM6 60v-.3l-.8-1-1-2h.3l.3.5c.6 1.4 1.3 2.6 2.4 3.6.8.8 1.8 1.3 2.7 2 .2 0 .4.4.6.6-.2 0-.3 0-.4.2 0 .3 0 .5-.2.7 0 .3 0 .7-.3 1l-1.2 3c0 .3-.2.5.2.6.4 0 .8.2 1 .3h.5c1.2-.5 2.5-.7 3.8-1 .2 0 .4 0 .4-.2 1.8-2.8 4.4-5 7.4-6.5l.3-.2c-2.2-.2-3.5-1.8-5.2-2.8h.5l2 1.5c.5.3 1 .6 1.8.6 1.6 0 3.2.2 4.7.6l1 .2c2-.4 4-1 5.8-1.3 1.8-.3 3.5-.4 5.3 0 2 .2 4 .2 5.8 0 .5 0 1-.2 1.4-.4v-.2l-1.2-.6v-.2l1.8.8.3.3c2 1 4 1.6 6.4 1.5 1 0 2-.2 2.8-.3v-.2c-.2 0-.4-.2-.6-.4h1L55 60l2 1s-.3 0-.4.2l.3.3 3.6 1.2 1 .4v.3H61l-1-.3c-1.4 0-2.5-.7-3.5-1.5-.4-.2-.8-.3-1.2-.2l-2.4.3c-2.4 0-4.6-.4-6.7-1.4-.3 0-.7-.5-1 0H45c-2 .5-4 .4-6 .3h-4.8c-2 0-4 .6-6 1l-.5.3c.3 0 .5.3.7.4h-.8v.2c-.8 0-.6.5-.5 1 0 .2 0 .5.2.7 0 0 0 .2-.2.2 0 0 0-.2-.2-.3v.6h-.5v-1c-.2-.8-1-1.7-1.5-1.8-.4 0-1 0-1.3-.2-.7 0-1.3 0-1.8.5-1.5 1.3-2.7 3-4.4 4-.6.3-1 .8-1.6 1-.6.3-.7.8-1 1.3 1 0 1.7 0 2.5-.2 3-.4 5.8-1 8.8-1.2 2.7-.4 5.5-.6 8.3-.7 3 0 5.8 0 8.6-.2h7c1.2 0 2.3 0 3.3.4.6 0 1 .4 1.7.5h.6c.3 0 .4.3.6.3.8 0 1.6 0 2.4.2h.4v.2h-1.2v.2l5 .6c1 0 2.2.2 3.3 0l2.6-.7 3.6-1.3c-.5-.2-.3-.3 0-.3.6-.5 1.3-1 2-1.3l1-.7c-.5 0-1 .2-1.4.3l-4 .4h-3c-1.3 0-2.5.2-3.3 1.4 0 .2-.2.2-.3.2.6-1 1.4-2 2.7-2.2-.2 0-.2-.2-.3-.4h1c1 .4 2 .5 3.2.4 1.4-.3 3-.3 4.2-1l1-.2c.7 0 1.2-.6 1.8-1 .4-.2.7-1 1-1.4.3-.4.5-1 .5-1.6l-.5 1v-.2c0-1 0-1.8.2-2.7h.2c0 .2 0 .5.3 1v-.4c.2-1 .4-2.2.4-3.3.2-1.5-.4-2.8-1.5-4-1-.8-2-1.4-3-2-1.3-1-2.7-1.7-3.7-3-.3-.4-.8-.6-1.3-.8-1.6-.5-3.3-1-5-1H57c.6.5 1 1 1.7 1.4-1 0-1.4-.7-2.2-1l2.7 2.8h-.5c-1-1-1.7-2-2.7-2.7l-1.6-1c-1.6-.5-3.2-.7-5-.8h-2l.7-.8c-.8-.5-1.8-.8-3-.8h-3.3c-.2 0-.4 0-.6.2l-.4.4c-1 .5-2 1-3.3 1.4 0 0 0 .5-.3.3v.5c-.5-.2-.7-.8-1-.4h-.2l.4-.3c-.3-1-.5-2 0-3l1 2.4 1-.8c.6-.3 1-.5 1-1l-1-.5h1c-2.8-1-4.3-3.6-6-5.8 0 0 .3 0 .4.2l2 2.4c.8 1 1.6 1.8 2.8 2.3 1.6.6 3.3 1 5 1 1.4-.2 2.5-.8 3.6-1.4-.6-.8-.4-1.7-.6-2.6.4-.2.5 0 .5.3 0 1 .5 2 1 2.8l1 1c1.3.6 2.5 1 3.8 1l1.5-.3s.2 0 .3-.3l.6-2.2c.3-.8.7-1.5 1.3-2l.4-.2c-.8.6-1.2 1.4-1.5 2.2-.3.7-.7 1.5-.6 2.4h.8l-1 .6.6.6c1 .8 2 1 3 .7.4 0 .7 0 1-.2 1 0 2 0 3-.2H58c3.2-.2 6.3-.3 9.3 1v-.7c0-2 .3-3.7.4-5.5.2-2.5 1-4.8 2-7l.7-.8v.3C69 32 68 34.6 68 37.6c0 1 0 2-.2 3 0 .6 0 1.3-.2 2 0 .3 0 .5.4.7.4 0 .8.3 1 .4.6.2 1 .5 1.7.5.6 0 1.3 0 2-.2 1.3-.3 2.4-1.2 3.4-2.2 1-1 2-2 3.3-3 1-.4 1.8-.7 2.8-.6h.3l-2 1c-.4 0-.8.3-1.2.7-.6.4-1.2 1-1.8 1.7-1.4 1.4-2.7 3-4.8 3.3 0 .2.3.2.4.2l1 .6c1.6.8 3 1.8 4.3 3.2.5.4 1 1 1.3 1.6L82 49h.4c-.3.5-.8.8-1.2 1.2l1.3.4 2.2.6c.4 0 .7.3 1 .4h1.8l.3.2h-1.6c1.2.8 2.4 1.3 3.7 1.5h-.6c-1 0-2-.4-3-1-.6-.2-1.2-.6-2-.7-.7 0-1.4-.5-2.2-.6-.8 0-1.6 0-2.3.3-.2 0-.3.3-.3.4.3 1 .3 2.3.2 3.5v.7l.5-.2h2.7c1.5-.2 3-.4 4.3-1l4.4-2c1-.7 2.3-1.4 3-2.6 1-1.3 2-2.5 1.5-4 0-.7-.2-1.3-.3-1.8h-.7V44l.7-.3c.7-.4 1.4-.7 2-1.3 1-1.4 1-3.3-.2-4.8l-.3.2v-.7l-.4-.3-.5 1.2V38l.3-1v-.3l-1.8-2c-.2.4-.5.8-1 1-.6.7-1.3 1.2-2 1.8-.3.2-.3.4 0 .7 0 .3.3.7.4 1 .5 1.7 0 3.2-.4 4.7l-.4.2H91c.2 0 .2-.2.3-.3.7-.8 1-1.6 1-2.6 0-1.2-.4-2.4-1-3.5-.2-.7-.3-.8-1-.7l.3-.5c-1-.4-1.8-1-2.7-1.3-.3 0-.4-.2-.5-.3.3 0 .6 0 1 .2v-.2l-3.7-1.4c1.4 0 2.7.7 4 1.3h-.3l-2.8-1.5-.3-.2V33c2 1 3.7 1.8 5.2 3.3L92 36l2.3-1.6c.4-.3.6-.7.4-1.2v-.5h.2v.5c.6-.7.6-1.5.4-2.3 0-1-.8-1.6-1.5-2.2-1-.7-2-1.2-3-1.5l-3.8-1 .2 2.7c0 1.3-.3 2.2-.8 2.4L87 30s-.2.2-.2 0l-.2-.2v-2.3c-.3-1.2-.4-2.5-1.2-3.5-.8-1-1.6-2.2-2.6-3.2-1-1.3-2.4-2.2-4-2.6-.4 0-.6 0-.7.3 0 0 0 .2-.2.3 0-.3 0-.5.2-.8h-3v-.2h3L77 17h1l-1.2-.8c-1.7-1-3.6-1.4-5.6-1.4h-3.6v-.2c.7 0 1.4-.3 2-.4.8 0 1-.3 1-1 0-.6 0-1.2-.2-1.8 0-.4.3-.8.4-1.2 0 .7 0 1.4.2 2 0 .5.2 1 .3 1.4 0 .3.2.4.5.4 1.7 0 3.3.4 5 1 .6.5 1 1 1.3 1.8 0 .3.2.4.5.4 1.3.3 2.6.8 3.6 1.7.4.2.7.5 1 1 .2-1 .8-2 1.4-2.2 0 0 0 .2-.2.3l-.6 1c-.2.5-.4 1 0 1.3 1 1.3 2 2.6 2.5 4.2l.2.2 1.2.6c1.2.7 2.7 1.2 4.2 1.5h.3v.3H92c1 .4 2.3 1 3.3 2-.2-.7-.5-1.2-1-1.4l-2-1h-.5v-.3l1.3.4c1 .4 2 .8 2.5 2l.7 1.8.2.8c0 1 0 2-.7 3l1.7 2 .7-1.7c.7-1.6.7-3.2 0-4.8-1-2-2.2-4-3.5-5.8l-1-1.2c0-.2 0-.6-.2-.8-1.6-1.7-3-3.3-4.8-5-.6-.6-1.4-1-2.2-1.7v.2L88 17v.2l-1-.7c.7 1.4 1 3 1 4.4l-.2-.2-1-3c-.6-1-1-2-2-2.6l-1.3-1c-.7 0-1.4-.2-2-.7-.2 0-.5-.2-.7.2L80 13l-3-2c-1.6-1-3.3-1.3-5-1.4-.6 0-1 0-1.5-.3l-1.7-1s0-.2-.2-.3c.5 0 1 .3 1.3.6l1 .6c.6.2 1.2 0 2 0l-.5-.4h.7l1 .4c.8 0 1.7.2 2.4.6 1.2.5 2.2 1 3 2l.3.6c.3.5 1 .3 1.5.3 0-.2-.2-.3-.3-.4l-2-1.8c-2-1.3-4.4-2-6.8-2.4-2-.3-3.8-.8-5.7-1.2l-2.5-.3c-.3 0-.5 0-.8.2V7l3 1.6s-.2 0-.2.2l-.7-.4-3.7-2c-1.8-.7-3.6-1-5.5-.5-1 .2-2 .2-3 .2-.6 0-1 0-1.6.3h-.4l.5-.4h-1.4c-1.4-.2-3-.3-4.4 0-1.4 0-2.7.7-3.8 1.6-.2 0-.4.4-.5.3-.4-.2-.5 0-.7.3h-.3v-.7c-1.6 0-3 0-4.6.2L32 9.3c.6 0 1.3.2 1.4 1l-.3 1.6c1.2-.3 2.7-.3 4-.3v.2h-1.5l2.3 1.2.2-.3c0 .2.2.3.3.5.2.3.3.6.6.8.2 0 .3.4.4.6l1 1.7c0 .2.3.4.5.5h.5l1.4-.8-1.4-1c-.6-.5-1-1.2-1.3-2v-.5C41 15 42.5 16.3 45 16l-.4.2c-1 0-1.6.5-2.2 1-1 1-1 2-.3 3 .8.7 1.5 1.6 2.2 2.4l1.4 1.5s.2-.3.4-.3h.4l2.2-1s.2 0 .3.2c-.2 0-.4 0-.5.2l-1.8.6c-.5.2-1 .6-1 1.3v.5c-.4.7-.4 1.6-.4 2.4 0 1.2 0 2.5.2 3.8v1.7s-.2 0-.2-.2v-1c-.3-1.4-.4-2.8-.5-4.3v-2.6c0-.6-.2-1-.5-1.6l-3.5-5h-.3c0-.3-.2-.5-.5-.4-.4-.2-.7-.4-1-.4-1 0-2.3-.3-3.5-.3-1.6 0-3.2 0-4.8.5-.6.2-1.2.5-1.6 1 2-.6 3.7-1 5.7-1-.3 0-.6 0-1 .2 0 0-.3 0-.4.2L31.5 21h.3l-.6.6-2.5 1.8c-.8.6-1.6 1.2-2 2.2-.4 1.3 0 2.5.8 3.5.2.2.7.2 1 .3.4 0 .6 0 .6-.3h.3c.3 0 .6-.2.8-.3 1.2-.8 2.3-1.4 3.6-1.5h2.2c.4 0 .6 0 .6-.5v-1.7c0-.7-.2-1.4-.3-2 0-.4 0-.8.2-1.2l.5 1.2s0-.2.2-.3c0 1 0 2.2.4 3.3L37 28l.4.2-.4.3.5.3c-.2 0-.3 0-.4.2l.2.2 2.3 2.6c.3.3.5.6.3 1h-.6l-3-3.4-.3.2V29c0-.3-.2-.7-.5-.7-1.2 0-2.4 0-3.6.3-.5 0-1 .4-1.2.7-.3.3-.5.7-.8.8-.6.3-1 .6-1 1.2 0 .4-.3 1-.4 1.3l-.2.8h-.2c0-.6.2-1 .3-1.5-.7 1.8-.5 3.8-.5 5.7.3 0 .5 0 .7-.2v.2l-.7.4-.3 1.8v-.3l-.4-1.5s0-.3-.2-.3l-1-.6c-1-.5-1.6-1.5-2-2.5v-.2c.2 0 .3.2.4.3l1.7 1.6c.6.4 1 .3 1-.3 0-.7.2-1.4.3-2l.8-3.2c.3-.6.4-.5 0-1-1-.4-1.7-1-2-2l-.5-.4-1.8-.6c-.8-.2-1.7-.3-2.5.2-1.3.7-2.2 1.7-3 2.8-.4.5-.8 1-1 1.5h-.3c.3-.8.7-1.4 1.3-2 .5-.7 1-1.3 1.6-1.8-1 .2-1.6.7-2.2 1.5-.7 1-1 2.3-1.5 3.4-.5 1.3-1 2.6-1.3 4 0 0-.2 0-.2.2V36l.8-2.8c.6-2 1.2-3.7 2.5-5.3.5-.3 1-.8 1.6-1 1.6-.8 3.4-1 5.2-1 .2 0 .4 0 .6.2l-1.2.4 1.6.6c.2-1.5 1-2.6 2.2-3.5 1.3-1 2.7-2 3.7-3.2.4-.5 1-1 1.4-1.7h-.7c-2 .5-4 1-5.6 2.8h-.2l-.4.3-.5.4h-.3l2.3-2h-.8l-3.4 1.2-1.4.7c-.5 0-.8.2-1 .3-2 .6-3.3 2-4.4 3.5-1 1.4-1.7 2.8-2.6 4-.3.6-.6 1-1 1.4 0-.3 0-.5.2-.7l1.3-2.2c.7-1 1.5-2.3 2.4-3.4 1-1.4 2.8-2.5 4.6-3.3.3 0 .5-.3.5-.6v-1.5l-.3-1c0-.3.2-1 .5-1.2h.4c-.3.3-.3.6-.2 1v1.2c0 1 1 1.5 1.8 1h.2c.3-.3.4-.3.5 0h.3l2-.7 1.5-.5 1.5-1c1.4-.5 3-.6 4.5-.6s3-.2 4.5.2V16c-.3-1.2-.8-2.2-2-3H37c-1-1-2.6-1-3.8-.4l-1 .6-1.2.7c0-.2-.3 0-.5 0-.8.4-1.6.7-2.3.8-1.8.3-3.5.8-5 2H23h-.2l2-1.4h-.4c-.5 0-1 .3-1.3.4-.8.2-1.4.8-2 1.5-.7 1-1.4 2-2.2 2.8l-1 1h.2l.6-.3c-.6.6-1.3 1-2 1.5l-2 1.6c-.5.5-1 1-2 1.4V25h.3l1-1c.5-.3.6-.6.4-1h-.6l-1 .7c-1.7 1-3.2 2.3-4 4.2-.4 1-.8 2.2-.5 3.6H9c.5-.6 1-1 1-2V29v-.4c.2.4.2.7.2 1v2.7c0 .7-.2 1.5-.6 2l-1 1.7-.2.3c-.4-.2-.4.2-.6.4h-.3c1.2-1.5 2-3.2 2.2-5.2 0 0 0 .2-.2.3l-1 1.3-.5.8s-.3 0-.5.2c-.4.3-.8.6-1 1L5 36c-.4.7-.7 1.3-.3 2l.4.8h-.3c-.2 0-.3 0-.5.2-1 .8-1.4 2-1.8 3v1.7l-.8 2-1 2.3v3L1 53c0 .8 0 1.5-.2 2.3-.3 1.6-.2 3.2.2 4.8.2.8.7 1.6 1 2.3l1.7 1.7.7-1c.4-1 1-1.6 1.7-2 0-.2 0-.2.2-.2-.4.6-1 1-1.3 1.5L4 64c-.3.4-.2.6 0 1 .3 0 .5.2.6.4 0 .4.3.6.5.8.5.3 1 .6 1.2 1 .6.5 1 1 2 1.4 0-.4.2-.7.4-1v-.3-.5l1-2.4v-1c-.5-.6-1-.8-1.4-1-2-1.2-3.5-3-4.3-5l-.3-.7H4c.4 1.2 1 2.4 2 3.3zm10-38c.2-.2.8-.3 1-.6 1.4-1.3 2.7-2.6 3.7-4 .6-1 1.5-1.8 2.3-2.4.7-.6 1.4-1 2.2-1.2 1.4-.5 2.8-.5 4.2-.5.2 0 .5 0 .7-.2.6 0 1-.3 1.5-.5.3 0 .4-.3.4-.6 0-.7.2-1.2.4-1.8 0-.3 0-.4-.3-.5h-.5l-.3-.2-8.6 4c-.7.2-1.5.5-2 1l-3.2 3c-1 1-2 2.2-2.2 3.7 0 .6 0 .7.7.7zm15 59c.2.7.8.6 1.3.7-.2 0-.5-.3-.7-.5.6 0 1 .6 1.8.4 0 0 0-.2.2-.2l1 .2H36c-.5-.3-1-.4-1.5-.8 1 .2 2 .7 3 .4-.2 0-.3 0-.5-.2h.3l1.8-.7c.4 0 .7-.3 1-.7.2-.5.5-1 1-1 0-.2 0-.2.2-.3-1.7.6-3.3 1.3-5 1.8-1.7.6-3.4.8-5 1zM18.7 68.8c.5.3 1 .2 1.5 0l4-1c3.5-.5 7.2-.7 11-.8l5-.3v-.3c-7.4-.2-14.4 1-21.5 2.3zm28-1.4h-.2c-.4 0-.8-.2-1.2 0l-2.7.8c-1.2.6-2.4.6-3.6.4-1-.2-2-.3-3.2-.2.3 0 .7 0 1 .2 1 0 1.8.3 2.8.4 1.5 0 3-.3 4.4-.5h1c.6-.4 1-.3 1.6-.2l1.6.2v-.6h-1.7v-.2h.2zM26.4 67H26c-.7 0-1.4.2-2 .3l-8.7 1.2c-.4 0-.7 0-1 .3-.6-.3-1 0-1.6 0l-1.6.5c1 .4 2 .5 2.8.3l2-.6 3-.6 7.7-1.4zm20-26.7l2 1h.5c1 0 1.7 0 2.6.2 1.4 0 2.8.6 4 1.3h.7c-.2 0-.3-.2-.4-.3l-1.4-1-.6-.3h-1.6c-1.4.2-2.6-.2-3.7-1l-.8-.7-1.2.8zm-11.8 27H40c.2.4.4.3.6.3H42l3-.7v-.2h-1.2l-5.2.2c-1.3 0-2.6 0-4 .2zm39-21.3v.2l2.2 1.6c1.6 1.2 2.7 2.7 3 4.6l.7 2c0-1.2 0-2-.4-3l-.2-.2v-.7c-1-1.7-2.4-2.8-4-3.7L74 46zm7.4-7.5c-.8 0-1.6.5-2.3 1l-2.8 3c-1.4 1-3 2-4.8 2H71s0 .2.3.2c1.2.3 2.3 0 3.3-1 .8-.5 1.5-1.2 2-2 1.4-1.2 2.7-2.6 4.5-3.2zm-13.8 5c-2.5-1-5-1.2-7.6-1 1 .3 2.2 0 3.3.2v.2c-1.8 0-3.4 0-5 .3 3 0 6-.4 9.2.2zm11.2-25.7c3.2.8 5 3 7 5.6-1.2-3-4.5-5.6-7-5.6zm12.5.7c-1.7-2-3.6-4-6.3-4.6 2.3 1 4.4 2.6 6.2 4.5zM21 62.3c-1.3.4-5 3.5-5 4.4l5-4.4zm57-45.8c-.3-.6-.7-1-1-1l-2.3-1-2.2-.3v.2l.4.2s.4 0 .7.2c1.4.3 2.8.7 4.2 1.7zM5.3 66.8c1 1.8 2.8 3.2 4.3 2.8L8.3 69l-.3.3c0-.4-.2-.5-.4-.7-.4-.3-.8-.6-1-1-.5-.2-.8-.5-1.2-.8zm35.2 12v.2c1.5-.7 2.8-1.5 4-2.6.3-.3.7-.7.8-1.4-1.4 1.6-3 2.7-4.8 4zm57-42.2l1-1.4c0-.3.3-.5.4-.8.2-1 0-2-.2-3 .2 2-.5 3.6-1.2 5.2zM78.4 51.2c-.2-1-1-2-1.6-2.3l-3-1.8c-.2 0-.2 0-.2.2 1.7 1 3.6 2 4.8 3.8zM47.7 76.6l-.8 2.7 1.4-2s0-.2-.3-.2l.8-.6c-.4 0-.8 0-1 .2zm.6-10v-.2h-5 5zM12 23.7c-1.2.5-2.2 1.2-2.7 2.3 1-.6 1.7-1.4 2.7-2.2zm26.4 44c1 .5 2.3.5 3.5 0h-3.6zm60.4-37.4c-.3-1.4-1-2.7-2-3.8l2 3.8zM75.3 47.8c-.4-.4-1-1-1.5-1.3h-.2c-.2.3-.4 0-.6 0 0 0-.2 0-.3-.2v.2c.8.4 1.7 1 2.6 1.3zm4.2 8.7h-.2c0 .8-.6 1.5-.4 2.3l.5-2.3zm-31 10.3h-2c.3.2.8.3 1.3.4.3 0 .5 0 .6-.4zm47.2-33c.5-1 .7-2 .3-3v1l-.3 2zm-56.3-1.7l-1.8-2 1.8 2zm-7-19.7c.8.3 1.4-.2 2-.3-.6 0-1.3 0-2 .3zm43.7 50.4L74 64c.8-.3 1.6-.5 2-1.3zM95 29.2c-.6-1-1.4-1.2-2.2-1.6l2.2 1.6zm-8-2.3v2.4c.4-1 .2-1.7 0-2.5zm-31-21.2h-1.3c-.4-.2-.7 0-1 .2.7 0 1.4 0 2.2-.2zm-1 37l2.6 1.4c-.8-.6-1.6-1.2-2.7-1.4zm-5.5-1l2.4.3-2.4-.3zM51 68.3c.5-.3.6-1 .2-1.4v1.4zM23.8 15.2v.2l1.2-.7h-.2c-.4 0-.7.3-1 .5zm2.6 11.2c-.4.5 0 1 0 1.7v-1.6zm48 37c-.6 0-1.3.3-2 .5l2-.6zM39.8 80v.2l1.4-1c-.4.3-1 .6-1.3 1zm-.2-62.5c.6-.3.4-.7.2-1 0 .3 0 .6-.2 1zm55 17.6l-1 1v.2l1-1zm-47 4.2c-.2 0-.2 0-.2-.2l-1 .6c.3 0 .7-.2 1-.4zm-21-25c-.4 0-.8.2-1.3.4v.2l1.4-.6zm20.6 62.4v1c.4-.6.4-1 0-1zM36.4 41.4H36l.4 1h.2l-.3-1zm2 18.8l-2-.2c.7.2 1.3.2 2 .2zm-1.8-37c0 .5 0 1 .2 1.4 0-.5 0-1-.2-1.4zM86 55.6c.6 0 1.2-.2 1.7-.4-.5 0-1 .2-1.7.4zm-58.3-41c-.6-.3-1 .2-1.4.3.4-.2 1-.3 1.4-.3zm9 14.8h.2l-.4-1c0 .3-.2.3-.2.4 0 .2.3.4.4.6zm50-4.5l1 .7h.2l-1.2-.8z"/><path d="M46.5 70.3c-.6.5-1.4.8-2.2 1-1.2 0-2.3 0-3.5-.3L33 69.4h-2l-.3-.2V69h.6l4.4.7 5.8 1.2c1.3 0 2.6.2 3.8-.3.3 0 .5-.3.8-.4.2 0 .4 0 .5-.2v.3zM40.6 88c0 1.4-1 4.3-2 4.2 1.4-1 1.4-2.7 2-4.2z"/><path fill="#FFF" d="M6 60c-1-1-1.6-2-2-3.4h-.3c0 .3 0 .5.2.7.7 2.2 2.2 4 4.2 5 .5.3 1 .5 1.3 1 .2.4.2.7 0 1l-1 2.5v.7c0 .4-.2.7-.4 1-.7-.2-1.2-.8-1.8-1.4l-1-.8c-.3-.2-.5-.4-.6-.8 0-.2-.3-.3-.5-.5-.2-.4-.3-.6 0-1l1-1.5L6 61s-.2 0-.2.2c-1 .5-1.4 1.2-1.8 2l-.7 1c-.6-.5-1.2-1-1.6-1.6-.5-.7-1-1.5-1.2-2.3-.4-1.6-.5-3.2-.2-4.8.2-.8 0-1.5.2-2.3V51c0-1-.2-2 0-3 0-1 .5-1.6.8-2.4l.7-2v-1.5c.5-1 1-2.2 2-3l.4-.3s.2 0 .3.2v-.2c0-.2 0-.6-.3-.8-.4-.7 0-1.3.3-2l1.4-1 1-1 .7-.2.5-.7 1-1.2s0-.2.2-.3c-.2 2-1 3.7-2.3 5.2H8c.2-.2.2-.6.6-.4 0 0 0-.2.2-.3l1-1.6c.4-.6.5-1.4.6-2v-2.7-1s-.2 0-.3.2v.7c0 .8-.5 1.3-1 1.8h-.6c-.4-1.3 0-2.4.4-3.6.8-2 2.3-3.2 4-4.3l1-.6h.7c0 .4 0 .7-.4 1l-1 1h-.4s0 .2.2.2l2-1.5 2-1.5c.5-.5 1.2-1 2-1.4h-.2c-.2 0-.4 0-.6.2l.8-1 2.3-2.7c.6-.7 1.2-1.3 2-1.5.5 0 1-.3 1.4-.4h.4c-.7.5-1.3 1-2 1.3v.2l.5-.3c1.4-1 3-1.6 5-2 .7 0 1.4-.3 2.2-.6.2 0 .4-.2.5 0l1-.6 1.2-.6c1.2-.7 2.8-.6 4 .4 1.3.8 1.8 1.8 2 3 .3.5 0 1 0 1.7-1.4-.5-3-.4-4.4-.3-1.6 0-3 0-4.5.7l-1.5.8c-.4.3-1 .4-1.5.6l-2 .6-.4.2c-.2-.4-.3-.4-.6-.2l-.2.2c-1 .4-1.7 0-1.8-1v-1.3c0-.4 0-.7.2-1h-.3c-.4.2-.7 1-.6 1.3l.3 1V21c0 .4 0 .6-.4.7-1.8.8-3.5 2-4.7 3.4-1 1.2-1.7 2.4-2.5 3.5l-1.3 2.2c0 .2 0 .4-.2.6h.2l.8-1.2c1-1.2 1.7-2.6 2.6-4 1-1.4 2.4-2.8 4.3-3.4.2 0 .5-.3 1-.3.4 0 .8-.5 1.3-.7l3.4-1.2h.8c-1 .7-1.6 1.3-2.3 2h.3l.6-.5.5-.3h.2c1.5-1.8 3.5-2.4 5.6-2.8.3-.2.5-.2.8-.2-.4.6-1 1-1.3 1.7-1 1.3-2.4 2.2-3.7 3.2-1 1-2 2-2.2 3.5l-1.6-.6c.5 0 .8-.2 1.2-.3l-.6-.3c-1.8 0-3.6.2-5.2 1-.6.2-1 .7-1.5 1-1.2 1.7-1.8 3.5-2.4 5.4l-.8 2.7v.5l.2-.2c.4-1.3.8-2.6 1.4-4 .4-1 .7-2.3 1.5-3.3.4-.8 1-1.3 2-1.5-.6.5-1.2 1-1.7 1.8-.6.6-1 1.2-1.4 2l1.2-1.5c.8-1 1.7-2 3-2.8.8-.5 1.7-.4 2.5-.2.6 0 1.2.4 1.8.6.2 0 .3.2.4.4.3 1 1 1.6 2 2 .4.5.3.4 0 1l-.7 3.2c0 .6 0 1.3-.3 2 0 .5-.4.6-1 .2l-1.6-1.6-.3-.3v.2c.5 1 1 2 2 2.6l1 .7c.2 0 .3.2.3.3l.3 1.5v.3l.4-2c.3 0 .5-.2.8-.3v-.2l-.8.2c0-2-.2-4 .4-5.8 0 .5 0 1-.2 1.5h.2c0-.2 0-.4.2-.7 0-.4.3-1 .4-1.3 0-.6.4-1 1-1 .3-.2.5-.6.8-1 .3-.2.7-.6 1-.6l3.7-.3c.3 0 .6.4.5.7v.4l.3-.2 3 3.3h.5c.2-.3 0-.6-.3-1-.8-.7-1.5-1.6-2.3-2.5v-.2l.3-.2c-.2 0-.4-.2-.5-.3 0 0 .2 0 .4-.3-.2 0-.3 0-.5-.2 0-.4.2-1 .4-1.4C37 25 37 24 37 23c-.2 0-.2 0-.3.2 0-.3-.3-.7-.5-1-.3.3-.2.7 0 1 0 .7.2 1.4.3 2V27c0 .4-.3.6-.7.6-.8 0-1.5-.2-2.2 0-1.3 0-2.4.6-3.5 1.4l-.7.3H29c0 .3 0 .4-.4.3-.4 0-1 0-1-.3-1-1-1.3-2.2-.8-3.5.3-1 1-1.6 2-2.2l2.4-1.8.6-.5h-.3c.6-1 1.2-1.6 1.8-2.4 0-.2.3-.3.5-.3.3 0 .6 0 1-.3-2 0-4 .5-5.7 1l1.7-1c1.6-.4 3.2-.5 4.8-.5 1.2 0 2.4 0 3.6.2.4 0 .6.2 1 .3.4 0 .5.2.5.6h.3l3.5 5c.3.5.5 1 .5 1.6v2.6c0 1.5.2 3 .4 4.4v1h.2V32v-3.8c0-.8 0-1.7.3-2.4v-.5c0-.7.5-1 1-1.3l1.8-.6h.4V23h-.4l-2.2.7H46c-.2 0-.3.2-.4.3l-1.4-1.5-2-2.5c-.8-.8-.7-2 .2-2.8.6-.6 1.3-1 2.2-1 0 0 .2 0 .3-.3-2.5.2-4-1-4.6-3.3v.3c0 1 .6 1.6 1.2 2l1.3 1-1.5.8c-.2.2-.4.3-.6.2-.3 0-.5-.3-.7-.5l-1-1.8c0-.3 0-.6-.4-.7-.4-.2-.5-.5-.7-.8L38 13l-.2.2c-.8-.4-1.5-.8-2.3-1 .5-.2 1-.3 1.6-.3v-.3c-1.3 0-2.8 0-4 .2L33 10c0-.7-.8-.8-1.4-1L36 8c1.6-.3 3.2-.2 4.7-.2v.8h.3c.2-.3.3-.6.7-.5l.5-.4c1-1 2.4-1.5 3.8-1.7 1.5-.3 3-.2 4.4 0h1.4l-.5.5h.4l1.5-.3c1 0 2 0 3-.3 2-.5 3.8-.3 5.6.4l3.7 2 .7.4v-.2c-1-.5-2-1-2.8-1.7v-.3l.8-.2 2.5.3c2 .4 3.8 1 5.7 1.3 2.4.5 4.7 1.2 6.8 2.5l2 1.8.3.4c-.6 0-1.2.2-1.6-.3-.2 0-.3-.4-.4-.5-.8-1-1.8-1.7-3-2.2-.7-.4-1.6-.5-2.4-.6-.4 0-.7-.2-1-.3l-.6-.3c0 .2 0 .3.3.5-.8 0-1.4.2-2 0l-1-.6-1.3-.7v.3l1.8 1c.4.3 1 .3 1.5.4 1.7 0 3.4.2 5 1.2l3 2 .8.7c.2-.4.5-.3.7-.2.6.5 1.3.6 2 .8.5.2 1 .6 1.4 1 .8.6 1.2 1.6 1.7 2.6.4.8.7 1.8 1 2.8h.3c0-1.4-.3-3-1-4.3l1 .7V17l-1.8-1.5v-.2c1 .6 1.7 1 2.3 1.8l4.8 5 .4.8.8 1.2c1.3 1.8 2.6 3.7 3.5 5.8.7 1.6.7 3.2 0 4.8 0 .6-.4 1-.6 1.8-.6-.8-1-1.4-1.7-2 .7-1 .8-2 .7-3 0-.3 0-.6-.2-1l-.7-1.8c-.5-1-1.4-1.5-2.4-2-.3 0-.7 0-1-.3 0 0 0 .2-.2.2.2 0 .3 0 .4.2l2 1c.6 0 1 .6 1 1.2-1-1-2-1.6-3.3-2h.5l-.3-.2c-1.5-.3-3-.8-4.3-1.5l-1.3-.6s0-.2-.2-.2c-.6-1.6-1.4-3-2.6-4.2-.4-.3-.2-.8 0-1.2 0-.3.4-.6.6-1l.2-.2c-.6 0-1.2 1.2-1.3 2l-1-1c-1-.8-2.4-1.3-3.7-1.6-.3 0-.5 0-.5-.4-.2-.8-.7-1.3-1.4-1.7-1.7-.6-3.3-1-5-1-.3 0-.5 0-.5-.4l-.3-1.4v-2H71c0 .5-.4.8-.4 1.2 0 .6 0 1.2.2 1.8 0 .7-.2 1-1 1-.6 0-1.3.3-2 .4v.2h3.5c2 0 4 .5 5.7 1.4l1 .8h-.8l.7.8h-3v.2h3c0 .3-.2.5-.3.7.2 0 .3 0 .4-.2.2-.4.4-.3.7-.3 1.7.4 3 1.3 4 2.6 1 1 2 2 2.7 3.2.8 1 1 2.3 1 3.5.2.8.2 1.5.2 2.3 0 0 0 .3.2.3 0 .2.2 0 .3 0 0 .5-.2 1-.4 1.4.6-.2 1-1 .8-2.4 0-1 0-1.8-.2-2.8l3.7 1c1 .4 2 1 3 1.6.6.6 1.3 1.2 1.4 2 .2 1 .2 1.7-.4 2.4v-.5h-.3v.5c.2.5 0 1-.4 1.2L92 36c-.4 0-1 0-1.4.3-1.4-1.5-3.2-2.5-5-3.2 0 .2-.2.2-.2.3 0 0 .2 0 .3.2l2.8 1.4h.2c-1.2-.5-2.5-1-3.8-1.3 1 .6 2.3 1 3.5 1.5v.2c-.4 0-.7-.2-1-.3v.2l.4.3c.8.4 1.7 1 2.6 1.3 0 .2-.2.4-.3.5.7 0 .8 0 1 .6.6 1 1 2.2 1 3.4 0 1-.3 1.8-1 2.5l-.2.2h.8c.2 0 .4-.2.4-.3.5-1.6 1-3 .4-4.7 0-.4-.3-.8-.5-1 0-.4 0-.6.2-.8.7-.6 1.4-1 2-1.7.5-.3.8-.7 1-1l1.8 2v.2c0 .3 0 .7-.3 1v.3c.3-.3.4-.7.6-1 .2 0 .4 0 .5.2v.7c0-.2.2-.2.2-.3 1.2 1.4 1.2 3.3 0 4.7-.4.6-1 1-1.8 1.2-.2 0-.5 0-.8.2l.8.2.3 1.7c.4 1.7-.6 3-1.4 4.2-.7 1.2-2 1.8-3 2.5-1.6.8-3 1.5-4.5 2-1.4.7-2.8 1-4.3 1h-2.7l-.6.2v-1c0-1 0-2.2-.3-3.3 0 0 0-.4.2-.4.6-.4 1.4-.4 2.2-.3.8 0 1.5.5 2.3.6.7 0 1.4.4 2 .8 1 .5 2 1 3 1h.4c-1.4-.3-2.6-.8-3.8-1.5h1.6v-.2h-.3c-.6 0-1.2 0-1.7-.2-.4 0-.7-.3-1-.4l-2.3-.6c-.4 0-.8-.2-1.3-.4l1.3-1V49H82c-.8.6-1.8 1-2.7 1.6L78 49c-1-1.4-2.6-2.4-4.2-3.2l-1-.6h-.4V45c2-.3 3.4-2 4.8-3.3.6-.6 1.2-1.3 2-1.8.3-.5.7-.7 1.2-1l2-.7H82c-1-.2-1.8 0-2.7.6-1.3.7-2.2 1.8-3.2 2.8-1 1-2 2-3.4 2.2-.6.2-1.3.2-2 .2-.4 0-1-.3-1.4-.5-.4 0-.8-.3-1.2-.5-.4 0-.5-.3-.4-.6 0-.7 0-1.4.2-2 0-1 0-2 .2-3 0-3 1-5.7 2.4-8.3V29l-.7.8c-1 2.2-1.8 4.5-2 7 0 1.8-.3 3.6-.4 5.4v.8c-3-1.3-6-1.2-9.2-1h4.4l-3 .3c-.3 0-.6 0-1 .2-1 .3-2 0-3-.7l-.6-.6 1-.6h-1c0-1 .4-1.7.7-2.4.3-.8.7-1.6 1.4-2V36c-.3 0-.4 0-.5.2-.6.5-1 1.2-1.3 2l-.6 2.2-.3.3-1.5.2c-1.3 0-2.5-.4-3.7-1l-1-1c-.5-.7-1-1.6-1-2.7 0-.2-.2-.5-.6-.3.2.8 0 1.8.6 2.6-1 .6-2.2 1.2-3.6 1.3-1.7 0-3.4-.5-5-1-1.2-.6-2-1.5-2.8-2.4l-2-2.4-.5-.3c2 2 3.4 4.6 6.2 5.8-.4 0-.7-.2-1-.3v.2c.3 0 .6.3 1 .4 0 .7-.4 1-1 1.2l-1 1-1-2.7c-.5 1-.3 2 0 3 0 .3-.3.4-.4.5.6-.3.7.3 1 .5 0-.3 0-.5.2-.7.4.3.3 0 .3-.3l3.3-1.3c.2 0 .3-.3.5-.4l.7-.2h3.5c1 0 2 .3 3 .8l-.7.6c.8 0 1.4 0 2 .2 1.7 0 3.3.3 5 1 .5 0 1 .5 1.5 1 1 .7 1.8 1.6 2.7 2.5 0 0 .3 0 .4.2 0 0 0-.2.2-.2L56.5 44c.8.3 1.2 1 2.2 1L57 43.5h7.4c1.8 0 3.5.4 5 1 .6 0 1 .3 1.4.7 1 1.3 2.4 2 3.7 3 1 .6 2.2 1.2 3 2 1 1.2 1.7 2.5 1.6 4 0 1 0 2.2-.2 3.3v.3l-.4-1h-.2c-.2.8-.3 1.7-.3 2.6l.6-.8c0 .7-.3 1.2-.5 1.6-.3.5-.6 1.2-1 1.5-.6.2-1 .8-2 .8-.2 0-.5 0-.8.2-1.3.7-2.8.7-4.3 1-1.2 0-2.3 0-3.4-.3h-1c.2 0 .3.2.3.3-1.4.2-2.2 1-2.8 2v.2h.3c.8-1.3 2-1.6 3.4-1.5h2.8c1.3 0 2.7-.2 4-.4.4 0 1-.3 1.3-.4-.2.2-.5.5-1 .7-.5.4-1.2.8-2 1 0 .2-.3.3.2.5-1.3.5-2.4 1-3.6 1.3L66 68c-1 .4-2 .3-3.3.2l-4.8-.6h-.2c.4 0 .8 0 1.2-.2l-.4-.2c-.8 0-1.6 0-2.4-.2l-.6-.3H55c-.6 0-1-.4-1.7-.5-1-.4-2-.5-3.2-.5h-7l-8.7.4c-2.8.2-5.6.4-8.3.8-3 .3-6 .8-8.8 1.2-.8.2-1.6.2-2.6.3.4-.5.5-1 1-1.2.7-.2 1-.7 1.7-1 1.7-1 3-2.7 4.5-4 .5-.3 1-.5 1.7-.4.4 0 1 0 1.3.2.6 0 1.3 1 1.4 1.7v1h.6V64l.2.2h.2v-.8c-.2-.5-.4-1 .3-1V62l.8.3c0-.2-.3-.4-.6-.5l.6-.3c2-.4 4-1 6-1H39c2 0 4 .2 6-.3h.2c.4-.5.8 0 1 0 2.2 1 4.4 1.5 6.7 1.4l2.3-.3c.4 0 .8 0 1.2.2 1 .8 2 1.4 3.5 1.4.3 0 .6 0 1 .2h.5l-1-.5-3.4-1.3-.2-.2s.3 0 .4-.2l-2-1 .3.3h-1l.7.5-2.8.4c-2.3 0-4.4-.4-6.5-1.5-.2 0-.3-.2-.4-.3l-1.7-.8s-.2 0-.2.2l1.2.6v.2c-.4 0-1 .4-1.4.4-2 .2-4 .2-5.8 0-1.8-.4-3.5-.3-5.3 0l-5.7 1.4c-.3 0-.7 0-1-.2-1.6-.4-3.2-.7-4.7-.6-.7 0-1.2-.3-1.7-.6l-2-1.4h-.5c1.7 1 3 2.5 5.3 2.7 0 0 0 .2-.2.2-3 1.6-5.6 3.7-7.4 6.6 0 .3-.2.4-.4.4-1.3.2-2.6.4-3.8 1h-.4l-1-.5c-.5-.2-.4-.4-.3-.7l1.2-3c.2-.3.2-.7.3-1l.3-.6c0-.2 0-.2.3-.3l-.7-.7c-1-.6-2-1-2.8-2-1-1-1.8-2-2.4-3.5l-.3-.6h-.2l1 2c0 .4.4.7.6 1v.4zm27.8-7l.6-.3h1c1.5 0 3 0 4.5-.5 0 0 .4 0 .6-.2l-.6 3h.2l.2-.5c.3-1 .6-1.8 1.3-2.4 0 0 .4-.2.6 0 1.7 0 3.5 0 5.2-.2l1.6-.3h.6c0 .3 0 .4-.2.5-.8 1-1 2.2-.8 3.4l.3-1.2c0-.6.2-1.2.5-1.8 0-.4.3-.4.7-.2h.2l1.7.6c2 .7 4 .8 6 1l.3-.2c-.7-.2-1.4-.2-2.2-.3 1.3 0 2.6-.2 3.7.4l2 .7c-.5.6-1 1.2-1.3 1.8-.4.8-.5 1.8-.2 2V58c.2-1 .6-2 1.3-2.6.5-.4 1.2-.8 2-.5l1.2.4h.2V55h2c-.8 1.2-.8 1.2-.6 1.6l.3-.6c0-.2.2-.3.3-.5.4-.4.8-.3 1 0l2.8 5c0 .3.3.5.4.6h.2l-1-2c-.5-.8-1-1.6-1.3-2.4l.6.5c0-.3-.2-.5-.4-.7l-.6-1c-.2-.4 0-.8.4-1l1.6-.7c1-.5 1.7-1.3 3-1.2L73 52h1c-.3-.3-1-.3-1.3 0-.3 0-.6.2-.8.3-1.4.4-2.6 1-3.8 1.7-.7.4-1.5.8-2.5.8-.7 0-1.4 0-2-.2-.6 0-1-.2-1.5-.7-.4 0-2.5-.7-2.7-1l.3-.3h-1.8c-1.8 0-3.6 0-5.3-.4-1-.3-2-.4-2.7-1-.2-.2-.5-.2-.8-.3h-.3c-.2-.2-.5-.2-.8-.3l.2.5h-1l-4.4.2-2.4-.3c-.3 0-.6 0-.8-.3-.3-.4-.6-1-1-1.3 0-.2-.3-.3-.4-.5h-.2l1.5 2.2h-.6s0 .2-.2.3h-.5c-1.3.6-2.7 1-4.2 1-.3 0-.6-.2-.8-.5L32 50.3l-4-3.5c-1.7-1.2-3-2.5-4-4.3l-1.5-2.7v-.5c-.3 0-.5-.5-1-1.8-.4-.7 0-1.4.2-2.2-.4.3-.6.7-.6 1.2V38c0-.6-.3-1-.5-1.5h-.2v.4c1 1.7 1.7 3.5 2.6 5.2.6 1.2 1.3 2.4 2.3 3.3.4.3 1 .6 1.3 1l2.4 2.2c1 1 2.2 2 3.5 2.8.2 0 .3.3.5.4h-.5l-.4-.2c.3.5.7.6 1 .7.4 0 .6.3.8.4zM70 20h-.2v.4c0 1.5.2 3 .8 4.3.3.6 0 1.3-1 1.2-1.5-.2-3.2 0-4.7.7-.4.2-.8.3-1 0l-.4-2v-.5c0-.6-.2-1.2-.3-1.7-.4 0-.5-.2-.3-.5 0-.2.3-.4.4-.6 1.6-1.5 3.4-2.7 5.4-3.5l.4-.3h-.9v-.4-.2c0 .2 0 .2-.2.2-2 1.2-4 2.3-5.3 4.6v-.2c-.8-1.2-1.6-2.2-2.5-3.2-.7-.7-1.2-1.4-1.5-2.4h-.3c0 .2 0 .5.3.7l2.5 3.7c.6 1 1 2 1 3 0 .3 0 .7.2 1 0 1 .4 1.7.5 2.6 0 .7 0 1.4-.7 2-.2 0-.3.2-.4.4.2 0 .5-.3.8-.6 0 1-.7 2-.6 3l-.2 4v.4h.2v-1.4c0 .4 0 .7.2 1V35c.3.2.4.4.5.6-.4-1.2-.4-2.3 0-3.4 0-1 .3-2.2.6-3.4l.2.7h.2v-.6c-.3-1-.3-1 .5-1.4.2-.2.6-.2 1-.3.6-.2 1.4-.2 2-.6.5-.2 1 0 1.5 0-.3 0-.6.2-1 .5.5 0 .7 0 1-.3.3-.3.7-.3 1 0 .4 0 .7.3 1 .2.5-.2 1 0 1 .3h.7L75 29c.3.2.5.5.4 1v.4c.2 0 .3 0 .4-.2l1.6 2.8-1-.6v.2l2.7 2c.2 0 .2 0 .3-.2-.2 0-.3-.3-.5-.4h1l3 .3c.4 0 .7-.2 1-.3-.3 0-.6 0-1-.2h-3.2c-1.2-.3-1.7-.8-2-2 0-1-.5-2-1-2.8-.6-.7-.7-.7 0-1.4l3.2-3.2.3-.3c0-.2.2-.3.3-.5l.4-.3h-.3c-.2 0-.4.3-.5.5-.7 1-1.5 1.7-2.3 2.4-.6.6-1.2 1-2 1.3-.3.3-.7.3-1 0-.5-.4-1-.6-1.5-.8h-.4l2 1s-.2 0-.2.2h-.4L72 26.3l-.3-.3-.2-1.7c0-.3 0-.6.2-1h-.2l-.2-.4v-2.3c-.2 0-.2-.3-.2-.4l-.3.6V22l.3 2.3c-.8-1.4-1-3-1-4.4zM20.8 48.5h-1.3c-.2-.2-.5-.2-.7-.3-1-.8-2.2-1.6-3-2.6-1.5-1.5-2-3.3-1.2-5.3 0-.2.3-.5.3-.8-.2-.3 0-.5 0-.8l.5-.7.5-1.5V36h-.4v.3l-1.5 3-.4 3c0 .3 0 .8.4 1.2.7 1.4 1.7 2.6 2.8 3.7l1 1-1.8 2c-.6 1-1 2-1.3 3h-.4c-.8.3-1.7.4-2.5.6-1.4.3-2.6.2-3.8-.6l-1-.7h-.4l2.6 1.7c-.3 0-.7.2-1 .4h1l-.3 1L8 58v.4h.2c0-.4.3-1 .4-1.3V60h.2v-.6c0-.3 0-.6.2-1l.2-.4c0-1 .2-2 .5-2.8 0-.5.4-.8 1-1 .8 0 1.5-.2 2.3-.3l1.5-.4c0 .4 0 .6-.2.8v.8c-.5 2.4-.4 4.8.4 7.2l.2.2v-.3c-.5-1.8-.6-3.6-.5-5.4 0 0 .2 0 .3.2C15 54 16 51 18 48.5l2 1 .5.5c.7 1.7 1.6 3.3 3 4.5 1 1 2 2 3.5 2.7.4.2.7.4.7 1l.5-.5c-.2 0-.4-.3-.5-.4-.5-.4-1-1-1.5-1.3-.8-.4-1.6-1-2.2-1.7-1-1-1.8-2-2.2-3.3 0-.4-.3-.8-.5-1.2-.3-.7-.3-.7.3-1.2l-.8-.2zm27.7-38l-1-1c-.4-.6-1-1-1.7-1.2-1.7 0-3.4 0-5 .7h-.4v.3h.3c1.2-.5 2.3-.8 3.5-1 .8 0 1.7 0 2.3.5l2.2 2.6v.4c0 1 0 2-1 3v.6c.7.4.3 1.4 1 2v-.7s0 .3.2.4l.8 2 .6 1.2c1 1 1.7 2 2.4 3 1 1.4 1.2 2.7 1 4.3-.3 1-.5 2.2-.6 3.2 0 1 0 1.7.3 2.5h.2c-.3-1.4-.4-2.7 0-4v2c.2 0 .2-.3.2-.4 0-1.5.2-3 .4-4.6l.2-.4V25l1.2-1.8L57 22h-.2c-1 .6-1.7 1.6-2.7 2.5h.7l-.3.6h-.2c-.3-1.8-2-3-2.8-4.8h.2c-1-.8-1-1.8-.8-2.8 0-1 .5-2 1.4-2.7h-.5l-.5.8c-.6.7-1 1.3-2 2 0-.7-.3-1.2-.5-1.7-.3-.6-.2-1.2 0-1.8.4-.7.6-1.5.8-2.3.3-1.3.7-2.5 1.8-3.3.7-.6 1.5-1 2.4-1.3h.3l-.2-.2c-2.3.7-4 2-4.5 4.6-.3-.3 0-1-.8-1zM10 46.2c-.4-.2-.5-.4-.8-.7H9c-.6-1-1-2-1.4-3v-.8c.2-.4.5-1 .8-1.2.6-.7 1.3-1.2 2-1.8.4-.2.7-.6 1.3-.5 0 0 0-.2-.2-.3l1.5-1c-.6 0-1 .4-1.6.7 0-.2 0-.3-.2-.4-.3-1-.3-1.8 0-2.7v-.5H11c0 .7-.3 1.3-.3 2l.3 2c-1.8.8-3.4 2.2-4 4.2 0 .2 0 .4.2.6.2 1 .4 1.7 1 2.5 0 .3.3.6.4.8v.3c-.3.7-.6 1.2-1 1.6-.3.6-.4 1.2-.4 2v.2h.3c0-.3 0-.5.2-.8l.6-1.6c.3-.6.7-1.2 1.6-1.3zM60 6.8h-.3c0 1 0 2-.5 2.7-.3-.4-.6-.8-1-1-.4-.7-1-1-2-1.3 0 0-.2 0-.2.2 0 .3-.3 0-.4 0H54h.4l3 1c1.2.5 1.7 2 1.2 3 0-.2 0-.5-.2-.8h-.2c0 .3 0 .6.2 1v.8l.2.3.2-.3c.2.4 0 1 .4 1.2l.6.8v.8l-.3 1.2c.2 0 .3-.2.3-.3 0-.8.7-1 1.3-1h.2c2 0 3.8 0 5.7.2h.4c-.7-.4-2.7-.5-7-.3v-.4c-.2-1-.5-1.8-1.2-2.5-.2 0-.3-.4 0-.6 0-.3 0-.5.2-.8.5-1 .5-2 .6-3v-1zM93 49.5v-.2c-2-1.3-4.4-1.8-6.7-2l.3-.8c.3-1 0-2-.5-3l-1-1.6c-.6-1.6-.5-3 .5-4.3v-.3c-.8 1-1.2 2-1 3.2 0 1 .6 1.7 1 2.5.5 1 1 2 .8 3 0 1.2-.3 1.6-1.3 1.5-.6 0-.7.3-1 .6.8.2 1 .2 1.6 0 0-.2 0-.3.3-.3l3 .4 3.4 1.4h.5zm-88.5-.8s-.2 0-.2-.2c0-.6 0-1.2-.2-1.8 0-1.4.4-2.8.8-4l.2-.5c-.3 0-.5.2-.5.3-.2.6-.5 1.2-.5 1.8C4 45.3 4 46 4 47c0 .5 0 1.2.2 1.7 0 .3 0 .5-.2.7-.8.8-1.4 1.6-1.8 2.7l-.6 2v.4c.4-1.8 2-4.5 2.8-4.6l.5 1 .3.2v-.3l-.4-1c-.2 0 0 0 0-.2l-.3-.8zM46 43.4v1c.4 1 .8 2 1.6 2.6v.2c0 .6.6.6.8 1 .4-.2.6.2.7.5l1.2 2c0 .2 0 .3.2.4h.2l-.6-1.3c1 1 1.3 1.4 2 1h-.4c-.7-.2-1-.7-1.4-1.3-.5-1-1-1.6-1.7-2.4-.5-.6-1.4-.8-1.6-1.7-.6-.3-.6-.8-.7-1.2 0-.2 0-.4-.2-.6zm50.5-.7h.2V42c-.3-.6-.2-1.3 0-2 0-.3.3-.7 0-1-.4 0-.6.4-.6.8 0 1 0 2 .5 3z"/><path fill="#FFF" d="M16 22c-.8 0-.8-.2-.8-.8.3-1.5 1.2-2.6 2.2-3.6l3-3c.7-.6 1.5-1 2.2-1.2l8.6-4 .3.2h.6c.5.2.5.3.4.6-.2.6-.4 1-.5 1.7 0 .2-.2.4-.5.5L30 13c0 .2-.4.3-.6.3-1.4 0-2.8 0-4.2.5-.8.3-1.5.6-2.2 1.2-.8.6-1.7 1.4-2.3 2.3-1 1.5-2.3 2.8-3.6 4-.2.4-.8.5-1 .6zM31 81c1.6-.2 3.3-.4 5-1 1.7-.4 3.3-1 5-1.7l-.2.2c-.5.2-.8.6-1 1-.3.5-.6.7-1 .8-.5.3-1 .4-1.7.6H37l.4.2c-1 .3-2-.2-3-.4.5.4 1 .5 1.6.7h-2.2-.2c-.7.3-1.2-.2-1.7-.4v.2c0 .2.4.4.6.5-.5 0-1 0-1.4-.6zM18.8 68.7c7-1.4 14-2.5 21.4-2.3v.3c-1.5 0-3.2 0-5 .2-3.7 0-7.4.2-11 .8l-4 1c-.4 0-1 .2-1.4 0zM46.7 67.3h-.2v.2h1.8v.7h-1.7c-.5-.2-1-.3-1.5 0-.2.2-.6 0-1 0-1.5.3-3 .7-4.4.6-1 0-2-.3-2.8-.4-.3 0-.7 0-1-.2 1 0 2.2 0 3.3.2 1.3.2 2.5.2 3.7-.3l2.7-.8h1.2zM26.5 67L19 68.4l-3.2.6-2 .6c-1 .2-1.8 0-2.7-.3l1.7-.4c.5-.2 1-.5 1.5-.2l1-.3 8.8-1.2 2-.3h.5zM46.5 40.3l1.2-.8.8.7c1 .8 2.3 1.2 3.7 1h1.6c.2 0 .4 0 .6.2l1.4 1c0 .2.2.3.4.4h-.5c-1.3-.7-2.7-1.2-4-1.3-1-.2-1.8 0-2.7-.2h-.5l-2-1z"/><path fill="#FFF" d="M34.7 67.2l4-.2 5-.2H45l-3 .8h-1.4c-.2 0-.4 0-.6-.2h-5.4V67zM73.8 46l1.3.8c1.6 1 3 2 4 3.7v.7s.3 0 .3.2c.3 1 .5 1.8.4 3l-.6-2c-.3-2-1.4-3.4-3-4.6l-2.3-1.6V46zM81 38.5c-1.7.6-3 2-4.3 3.3l-2 2c-1 .8-2.2 1.2-3.4 1-.2 0-.3-.2-.4-.3h.2c2 0 3.4-1 4.7-2l2.7-3c.7-.5 1.5-1 2.4-1zM67.2 43.5c-3-.6-6.2 0-9.2-.2l5-.4v-.3c-1.2-.3-2.3 0-3.4 0 2.6-.4 5 0 7.6.8zM78.4 17.8c2.5 0 5.8 2.6 7 5.6-2-2.6-3.8-4.8-7-5.6zM91 18.5c-2-2-4-3.4-6.3-4.6 2.7.6 4.6 2.4 6.2 4.5zM21 62.3l-5 4.4c0-1 3.7-4 5-4.5zM78 16.5c-1.5-1-3-1.4-4.3-1.7-.3 0-.6 0-.8-.2-.3 0-.4 0-.6-.2v-.2c.8 0 1.6.2 2.3.4l2.2.8c.3.2.7.5 1 1zM5.4 66.8l1 1 1.2.8c.2 0 .5.3.3.6 0 0 .2 0 .3-.2l1.4.6c-1.5.4-3.4-1-4.3-2.8zM40.6 79c1.7-1.3 3.4-2.4 4.8-4 0 .7-.5 1-1 1.5-1 1-2.3 1.8-3.7 2.5zM97.6 36.6c.7-1.6 1.4-3.2 1.2-5 .3 1 .4 1.8.2 2.8 0 .3-.3.5-.5.8l-.8 1.4z"/><path fill="#FFF" d="M78.4 51.2c-1.2-2-3-2.7-4.8-3.8v-.2c1 .6 2 1.2 3.2 1.7.7.3 1.4 1.3 1.6 2.2zM47.7 76.6c.3 0 .7 0 1-.2 0 .2-.3.4-.6.7.3 0 .3.2.4.2l-1.5 2 .7-2.6zM48.3 66.5h-5c1.7-.2 3.4 0 5 0zM12 23.8L9.3 26c.5-1 1.5-1.7 2.7-2.2zM38.4 68H42c-1.3.3-2.5.3-3.6 0zM98.8 30.4l-2-3.8c1 1 1.7 2.4 2 3.8zM75.3 47.8c-1-.4-1.8-1-2.7-1.3v-.2l.4.2c.2 0 .4.3.6 0h.2c.5.4 1 1 1.6 1.3zM79.5 56.5L79 59c-.3-1 .3-1.7.3-2.5h.2zM48.4 66.8c0 .4-.3.5-.6.4-.5 0-1-.2-1.4-.4h2zM95.7 34c0-.8.3-1.6.4-2.3v-1c.4 1.2.2 2.2-.3 3.2zM39.4 32l-2-2h.2l2 2h-.2zM32.5 12.3l2-.4c-.7 0-1.3.6-2 .4zM76 62.7c-.4.8-1.2 1-2 1.2l2-1.3zM94.8 29.2l-2.2-1.6c.8.4 1.6.7 2.2 1.6zM86.7 27c.3.7.5 1.5.2 2.4 0-1-.2-1.7-.3-2.5zM55.7 5.8l-2.3.2c.4-.2.7-.4 1-.2h1.3zM54.7 42.8c1 .2 2 .8 2.7 1.4-1-.5-1.7-1-2.7-1.4zM49.3 41.7l2.4.3h-2.4v-.3zM51 68.4c.2-.4.2-1 .2-1.4.4.4.3 1 0 1.4zM23.7 15.2l1-.6h.2l-1.2.8v-.2zM26.3 26.4V28c0-.6-.4-1 0-1.6zM74.4 63.4l-2 .6 2-.7zM39.7 80l1.3-.8-1.2 1zM39.5 17.5c0-.4 0-.7.2-1 .2.3.4.7-.2 1zM94.6 35l-1 1.2s-.2 0-.2-.2l1-1h.2zM47.4 39.2l-1 .5H46l1-.7.2.2zM26.6 14.2l-1.3.6v-.2l1.3-.5v.2zM47 76.6c.4 0 .4.4 0 1v-1zM36.3 41.4c0 .4.2.7.3 1h-.2l-.3-1h.3zM38.2 60.2h-1.8V60c.6 0 1.2 0 1.8.2zM36.5 23.2c0 .5.2 1 .3 1.4l-.4-1.3zM86 55.6l1.7-.5v.2l-1.6.5zM27.7 14.7c-.5 0-1 0-1.4.2.4-.2.8-.7 1.4-.3zM36.8 29.4c0-.2-.3-.4-.4-.6l.2-.3.3 1h-.2zM86.8 25l1 .6c-.3 0-.7-.3-1-.5z"/><path d="M33.8 53l-.7-.5c-.3 0-.7-.2-1-.7.2 0 .4 0 .5.2h.5l-.5-.5c-1.3-.7-2.4-1.8-3.5-2.8l-2.4-2.3c-.4-.4-1-.6-1.3-1-1-.8-1.7-2-2.4-3.2-1-1.7-1.8-3.5-2.6-5.3v-.4l.7 1.2v-1.3c0-.5.3-1 .7-1.2-.2.7-.6 1.4-.3 2.2.6 1.3.8 1.7 1.2 1.8v.5c.4 1 1 1.8 1.4 2.7 1 1.8 2.3 3 4 4.3 1.3 1 2.7 2.3 4 3.5.7.5 1.2 1 1.7 1.7.2.3.5.4.8.4 1.5 0 3-.3 4.2-.8h.5l.2-.4h.5l-1.6-2c0-.2 0-.2.2-.3l.5.4 1 1.3c.2.3.5.4.8.4l2.4.3h5.5c0-.3-.2-.4-.3-.6.3 0 .6 0 .8.2h.3c.3 0 .6 0 .8.2.7.7 1.7.8 2.6 1 1.6.6 3.4.6 5.2.5H60s0 .2-.2.3c.2.3 2.3 1 2.7.8.4.6 1 .7 1.5.8.6 0 1.3 0 2 .2 1 0 1.7-.4 2.4-.8 1.3-.7 2.4-1.3 3.8-1.7l.7-.4c.3-.3 1-.3 1.3 0h-1l.2.4c-1.2 0-2 .7-3 1.2l-1.5.7c-.4.2-.6.6-.4 1l.6 1 .5.7c-.2 0-.4-.2-.6-.4l1.3 2.3 1 2c-.2 0-.4-.2-.5-.4l-2.8-5c-.2-.4-.6-.5-1 0l-.3.4-.3.6c-.2-.4-.2-.4.6-1.5h-2v.4h-.3l-1.3-.5c-.7-.4-1.4 0-2 .4-.6.6-1 1.5-1 2.5-.2 0-.2 0-.2.3-.3-.3-.2-1.3.3-2l1-2c-.4 0-1.2-.3-1.8-.6-1-.6-2.4-.3-3.6-.4 1 0 1.6 0 2.3.2 0 0-.2.2-.4 0-2 0-4 0-6-.7l-1.6-.5h-.2c-.4-.3-.6-.3-.7 0l-.6 2c-.2.3-.2.7-.3 1.2-.2-1.3 0-2.5.7-3.5l.2-.4H49c-.4 0-1 0-1.5.2-1.7.2-3.5.3-5.2 0-.2 0-.5 0-.6.3-.7.7-1 1.6-1.3 2.5 0 0 0 .3-.2.5H40l.6-3c-.2 0-.5 0-.7.2-1.6.5-3 .5-4.6.6h-1-.6zm7-1.2s-.2 0-.2-.2l-2.8.7v.2l3-.7zm-18-11.2c-.5-.5-.4-1-1-1.2.4 1 .4 1 1 1.2zM70 20c0 1.6.2 3 1 4.5 0-.7 0-1.5-.2-2.3V21v-.7h.3s0 .3.2.4V23l.3.4h.2l-.2 1c0 .5 0 1 .2 1.7 0 .2.2.3.3.4l2.2 1.2h.4c-.6-.4-1.2-.8-2-1l.2-.2h.4c.5.3 1 .5 1.4 1 .4.2.8 0 1.2 0 .7-.4 1.3-1 2-1.3.7-.6 1.5-1.4 2-2.3l.6-.5h.2l-.3.3c0 .2-.4.3-.2.6 0 0 0 .3-.2.4l-3 3c-.2 0-.2.2-.3.2-.6.7-.5.7 0 1.4.6.8 1 1.8 1.2 2.8.2 1.2.7 1.7 2 2h4v.2c-.3 0-.6.3-1 .3-1 0-2 0-3-.2h-1c.2 0 .3.3.5.4l-.2.2-2.7-2v-.2l1 .6-1.5-2.8s-.2 0-.3.2V30c0-.5-.2-.8-.6-1l-2.3-1.5H72c0-.4-.5-.5-1-.3-.3 0-.6 0-1-.3-.3-.3-.7-.3-1 0-.3 0-.5.3-1 .2l1-.6h-1.5c-.6.5-1.4.5-2 .7-.4 0-.8 0-1 .3-.8.3-.8.5-.6 1.3v.4h-.2l-.2-.6-.7 3.4c-.4 1-.4 2.2 0 3.3-.2 0-.3-.3-.5-.5v.8c-.2-.3-.2-.6-.3-1v1.4H62v-.4c0-1.3.3-2.7.2-4 0-1 .5-2 .6-3l-.8.7c0-.3 0-.5.3-.6.7-.6.8-1.3.6-2l-.6-2.5c0-.4 0-.8-.2-1 0-1.2-.4-2.2-1-3-1-1.3-1.7-2.6-2.5-3.8-.2-.2-.2-.5-.3-.8h.3c.3 1 .8 1.7 1.5 2.4 1 1 1.7 2 2.4 3.2v.2c1.3-2.3 3.4-3.4 5.5-4.6h.4v.4H69.2l-.4.3c-2 .7-3.8 2-5.4 3.4 0 .2-.3.4-.4.6-.2.3 0 .5.3.5 0 .5.2 1 .4 1.7v.5c0 .7 0 1.4.2 2 .2.3.6.2 1 0 1.4-.7 3-1 4.7-.8.7 0 1.2-.7 1-1.3-.7-1.4-1-2.8-1-4.3V20h.3zm7.6 12.6c-.2-1.4-.7-2.7-1.7-4-.3.4-.2.6 0 1l1.2 2.2c0 .3 0 .6.4.8zM74 27.8v-.2l-2-1v.2l2 1zM66 19c-.7.4-1.3 1-2 1.3h.2l1.8-1.2zm-3.4 4.5h-.2l.3 1.5h.2l-.4-1.5zM20.8 48.4c.2 0 .5 0 .8.2-.6.5-.6.5-.3 1.2l.5 1c.4 1.5 1.2 2.5 2.2 3.5.6.7 1.4 1.3 2.2 1.7.6.3 1 1 1.5 1.3l.5.4-.4.5c0-.6-.4-.8-.8-1-1.4-.6-2.4-1.7-3.5-2.7-1.4-1.2-2.3-2.8-3-4.5l-.4-.4-2-1C16 51 15 53.8 15 57c0-.2-.2-.2-.3-.3 0 1.7 0 3.5.5 5.3v.3c-.2 0-.3 0-.3-.2-.8-2.4-1-4.8-.5-7.2v-.8c.2-.2.2-.4.3-.8-.6 0-1 .2-1.5.3-.8 0-1.5.2-2.3.3-.6 0-1 .4-1 1-.3.8-.6 1.7-.5 2.7l-.2.4c0 .3 0 .7-.2 1v.5h-.2V57l-.4 1.2L8 58l1-2.4v-1h-.8l1-.4-2.6-1.6v-.2H7c.2.3.6.5 1 .8 1.2.8 2.4 1 3.8.6l2.5-.5c.2 0 .3 0 .4-.2.4-.8.7-1.8 1.3-2.7.5-.7 1-1.4 1.7-2-.2-.4-.5-.8-1-1-1-1.2-2-2.4-2.7-3.8-.3-.4-.5-1-.4-1.4 0-.8.2-1.7.5-2.6l1.5-3V36h.4v.2l-.5 1.5c0 .3-.3.5-.4.7 0 .3-.2.5 0 .8 0 .3-.3.6-.4 1-.7 2-.3 3.7 1 5.2 1 1 2.2 1.8 3.2 2.7.2.2.5.2.7.3H20.7zM48.5 10.5c.7 0 .5.6.8 1 .5-2.7 2.3-4 4.5-4.7h.2c0 .2-.2.3-.3.3-.8.4-1.7.8-2.4 1.4-1 .8-1.5 2-1.8 3.3l-.7 2.3c-.3.6-.4 1.2 0 1.8 0 .5.3 1 .5 1.6.8-.6 1.3-1.2 2-2l.4-.6h.5c-1 .6-1.3 1.5-1.4 2.6 0 1-.3 2 1 2.7-.2 0-.2.2-.2.2h-.2c.7 1.8 2.5 3 2.8 5h.2c0-.3.2-.5.3-.7h-.5c1-1 1.6-2 2.6-2.6h.2l-1.2 1.2-1 1.8c-.2.2 0 .5-.2.8l-.2.4-.5 4.6s0 .3-.2.4v-2c-.5 1.3-.4 2.6 0 4h-.3c-.2-.8-.4-1.6-.3-2.5 0-1 .3-2 .5-3.2.3-1.5 0-3-1-4.3-.6-1-1.4-2-2.3-3l-.6-1.2-1-2s0-.2-.2-.3v.6c-.6-.5-.2-1.5-.8-2V15v-.2c.8-1 .8-2 1-3v-.4l-2.3-2.6c-.6-.6-1.5-.4-2.3-.4-1.2 0-2.3.4-3.4.8h-.3s0-.2.2-.3c1.7-.7 3.4-1 5-.8 1 0 1.4.6 2 1.2.2.4.5.8.8 1zm2.3 9.3c-.5-1-.3-2.2 0-3.3l-1.4 1c.4.8.6 1.7 1.4 2.3zM10 46c-1 .2-1.4.8-1.7 1.4-.3.5-.4 1-.6 1.6l-.2.8h-.2v-.3c0-.7 0-1.3.4-2l1-1.4V46L8 45c-.6-.7-.8-1.5-1-2.4L7 42c.6-2 2.2-3.4 4-4.3 0-.7-.3-1.4-.3-2l.3-2c0 .3.2.5 0 .6 0 1 0 1.8.2 2.7l.2.4 1.5-.8v.2l-1.5 1s.2 0 .2.2c-.6 0-1 .3-1.3.5-.7.6-1.4 1-2 1.8l-.8 1.2v.7c.3 1 .8 2 1.4 3h.2l.7 1z"/><path d="M60 6.7v1c0 1 0 2-.6 3l-.3.7c0 .2 0 .5.2.7.7.8 1 1.7 1.3 2.6v.3c4.2-.3 6.2-.2 7 0l-.6.2H61c-.7 0-1.3 0-1.4.7l-.2.2.2-1.2v-.8l-.6-.8c-.4-.3-.2-.8-.4-1.2 0 0 0 .2-.2.3v-.3l-.2-1-.2-.8h.2c0 .3 0 .6.2 1 .5-1.3 0-2.7-1.3-3.2l-3-1H54h1.6c.2 0 .3.3.4 0h.3c.8 0 1.5.5 2 1l1 1.2c.4-.8.3-1.8.4-2.7h.2zm0 7.2c0-.4-.3-.8-.5-1 0 .3.2.6.4 1zM93.2 49.5h-.5L89.3 48c-1 0-2 0-3-.3-.2 0-.3 0-.4.2-.8.2-1 .2-1.7 0 .3-.2.4-.6 1-.5 1 0 1.2-.3 1.3-1.6 0-1-.3-2-.8-3-.4-.7-1-1.5-1-2.4-.2-1.2.2-2.2 1-3v-.2.3c-1 1.3-1 2.7-.4 4.2l1 1.6c.4 1 .7 2 .4 3l-.3.8c2.3 0 4.6.6 6.7 2zM4.7 48.7c0 .3 0 .5.2.8 0 0-.2.2 0 .3 0 .3 0 .6.3 1v.2s-.3 0-.4-.2c-.3-.3-.4-.7-.6-1-.8 0-2.4 2.8-2.7 4.6 0 0-.2-.3 0-.4 0-.6.2-1.3.5-2 .4-1 1-1.8 1.8-2.6.2-.2.2-.4.2-.7L4 47c0-1 0-1.8.2-2.7 0-.6.3-1.2.5-1.8L5 42s.2 0 .2.2v.4c-.5 1.3-1 2.7-1 4l.3 2h.2zM46 43.4c.2.2.2.4.3.7 0 .5 0 1 .6 1.3 0 1 1 1 1.5 1.7.6.7 1.2 1.5 1.7 2.4.4.6.7 1 1.4 1.3h.3c-.7.4-1 0-2-1l.6 1.3h-.2s-.2 0-.2-.2l-1-2c-.2-.4-.4-.8-.8-.7-.2-.2-.8-.2-.7-.8V47c-1-.7-1.3-1.6-1.7-2.5v-1zm2.6 4.2l-.8-1v.2l.8.8zM96.5 42.7c-.6-1-.5-2-.4-3 0-.3.3-.7.7-.8.3.3 0 .7 0 1-.2.7-.3 1.4 0 2v.6h-.2z"/><path fill="#FFF" d="M40.7 51.8l-3 .7v-.2l3-.7v.2zM22.7 40.6c-.5 0-.5-.2-1-1.2.7.2.6.7 1 1.2zM77.6 32.6c-.3-.2-.3-.5-.4-.8L76 29.5c-.2-.3-.3-.5 0-.8 1 1.2 1.4 2.5 1.6 4zM74 27.8l-2-1 2 .8v.2zM66 19l-1.8 1.4c.5-.5 1-1 1.7-1.4zM62.6 23.5c0 .5.2 1 .3 1.4h-.3l-.3-1.5h.2zM50.8 19.8c-.8-.6-1-1.5-1.4-2.2l1.3-1c-.2 1-.4 2 0 3.2zM60 14l-.6-1c.3.2.5.6.6 1zM48.6 47.6l-1-.8h.2l1 .7h-.2z"/></svg>