<?xml version="1.0" encoding="utf-8"?>
<!-- Generator: Adobe Illustrator 16.0.0, SVG Export Plug-In . SVG Version: 6.00 Build 0)  -->
<!DOCTYPE svg PUBLIC "-//W3C//DTD SVG 1.1//EN" "http://www.w3.org/Graphics/SVG/1.1/DTD/svg11.dtd">
<svg version="1.1" id="Layer_1" xmlns="http://www.w3.org/2000/svg" xmlns:xlink="http://www.w3.org/1999/xlink" x="0px" y="0px"
	 width="220px" height="231px" viewBox="0 0 220 231" enable-background="new 0 0 220 231" xml:space="preserve">
<g>
	<g>
		<path fill="#FFFFFF" d="M1,1c73,0,146,0,219,0c0,76.667,0,153.333,0,230c-73,0-146,0-219,0C1,154.333,1,77.667,1,1z
			 M200.222,70.923c2.81-3.895,1.401-7.619-0.638-11.186c-3.132-5.475-4.805-10.63-0.756-16.728
			c1.768-2.662,1.973-6.69,1.953-10.093c-0.013-2.247-1.689-4.484-2.622-6.726c-2.142,1.027-4.691,1.617-6.353,3.162
			c-5.672,5.276-11.849,7.705-19.506,5.066c-2.83-0.975-5.831-1.493-8.594-2.615c-16.763-6.81-34.387-9.204-52.252-9.779
			c-17.39-0.56-33.915,4.34-50.287,9.509c-8.767,2.769-17.141,2.846-25.79-0.805c-4.307-1.817-9.263-2.564-13.972-2.78
			c-2.61-0.12-7.243,1.435-7.576,2.97c-0.68,3.138,0.531,6.92,1.736,10.148c0.761,2.037,3.295,3.353,4.362,5.35
			c1.481,2.775,3.096,5.846,3.262,8.865c0.211,3.859-1.764,7.9,2.056,11.128c0.384,0.325,0.215,1.542,0.024,2.271
			c-1.256,4.79-3.234,9.489-3.771,14.352c-1.307,11.842-2.358,23.745-2.725,35.647c-0.23,7.474,0.958,14.991,1.532,22.487
			c0.032,0.417,0.219,0.842,0.414,1.224c1.046,2.058,2.562,3.993,3.098,6.172c1.572,6.385,2.076,13.113,4.306,19.231
			c1.867,5.123,0.68,8.97-1.703,13.155c-2.534,4.453-5.285,8.847-7.199,13.567c-1.601,3.947,1.014,8.26,5.237,8.334
			c6.527,0.116,13.071-0.852,19.613-1.287c2.238-0.149,4.495-0.185,6.734-0.085c3.271,0.146,7.018,1.593,9.692,0.45
			c4.588-1.958,8.741-1.626,13.1-0.386c17.33,4.931,34.994,7.48,53.006,7.678c3.438,0.037,7.027,0.779,10.285,0.04
			c9.075-2.059,18.187-4.228,26.96-7.281c10.683-3.718,20.923-3.688,31.218,0.851c0.912,0.401,1.865,0.729,2.826,0.993
			c4.94,1.354,6.981-0.082,8.372-4.943c2.262-7.909-0.497-15.07-2.552-22.45c-1.224-4.394-1.671-9.001-2.486-13.509
			c-0.525-2.897-1.086-5.788-1.638-8.725c1.167-2.599,2.659-5.621,3.882-8.749c0.778-1.993,0.953-4.226,1.749-6.21
			c5.242-13.081,3.778-26.166-0.329-39.068c-1.219-3.826-1.684-7.05-0.651-11.035C205.871,82.839,206.089,76.372,200.222,70.923z"/>
		<path fill-rule="evenodd" clip-rule="evenodd" d="M200.222,70.923c5.867,5.449,5.649,11.916,4.02,18.212
			c-1.032,3.985-0.567,7.209,0.651,11.035c4.107,12.902,5.571,25.987,0.329,39.068c-0.796,1.984-0.971,4.217-1.749,6.21
			c-1.223,3.128-2.715,6.15-3.882,8.749c0.552,2.937,1.112,5.827,1.638,8.725c0.815,4.508,1.263,9.115,2.486,13.509
			c2.055,7.38,4.813,14.541,2.552,22.45c-1.391,4.861-3.432,6.297-8.372,4.943c-0.961-0.264-1.914-0.592-2.826-0.993
			c-10.295-4.538-20.535-4.568-31.218-0.851c-8.773,3.054-17.885,5.223-26.96,7.281c-3.258,0.739-6.848-0.003-10.285-0.04
			c-18.012-0.197-35.676-2.747-53.006-7.678c-4.358-1.24-8.512-1.572-13.1,0.386c-2.675,1.143-6.422-0.305-9.692-0.45
			c-2.24-0.1-4.497-0.064-6.734,0.085c-6.542,0.436-13.085,1.403-19.613,1.287c-4.223-0.074-6.837-4.387-5.237-8.334
			c1.914-4.721,4.665-9.114,7.199-13.567c2.383-4.186,3.57-8.032,1.703-13.155c-2.23-6.118-2.734-12.847-4.306-19.231
			c-0.537-2.179-2.052-4.114-3.098-6.172c-0.194-0.382-0.382-0.807-0.414-1.224c-0.574-7.496-1.763-15.014-1.532-22.487
			c0.367-11.902,1.418-23.806,2.725-35.647c0.537-4.862,2.514-9.562,3.771-14.352c0.191-0.729,0.36-1.946-0.024-2.271
			c-3.82-3.228-1.845-7.269-2.056-11.128c-0.166-3.02-1.78-6.09-3.262-8.865c-1.066-1.997-3.601-3.312-4.362-5.35
			c-1.205-3.229-2.417-7.011-1.736-10.148c0.333-1.535,4.966-3.09,7.576-2.97c4.709,0.216,9.665,0.963,13.972,2.78
			c8.649,3.65,17.023,3.573,25.79,0.805c16.372-5.169,32.897-10.068,50.287-9.509c17.865,0.575,35.489,2.97,52.252,9.779
			c2.763,1.122,5.764,1.641,8.594,2.615c7.657,2.639,13.834,0.21,19.506-5.066c1.661-1.545,4.211-2.135,6.353-3.162
			c0.933,2.241,2.609,4.479,2.622,6.726c0.02,3.402-0.186,7.431-1.953,10.093c-4.049,6.098-2.376,11.253,0.756,16.728
			C201.623,63.304,203.031,67.028,200.222,70.923z M113.047,202.074c-1.156,0.679-2.312,1.357-3.468,2.037
			c0.141,0.239,0.281,0.479,0.421,0.719c1.275-0.641,2.55-1.281,3.824-1.922c1.101-0.836,2.201-1.672,3.303-2.508
			c-0.254-0.284-0.507-0.567-0.761-0.852C115.26,200.391,114.153,201.232,113.047,202.074z M80.997,192.986c0,1.003,0,2.006,0,3.01
			c-1.681,0.377-3.36,0.755-5.041,1.132c0.274,0.585,0.548,1.169,0.822,1.754c1.408-0.96,2.816-1.919,4.225-2.879
			c0.993,0.335,1.986,0.67,2.98,1.005c0.281,0.678,0.563,1.355,0.845,2.033c1.727-1.004,3.454-2.009,5.181-3.013
			c3.661-2.347,7.323-4.692,10.984-7.039c2.664-1.004,5.328-2.008,7.992-3.011l0.039,0.044c-0.985,1.004-1.971,2.009-2.957,3.012
			c-1.664,1.369-3.327,2.738-4.991,4.106c-3.207,1.854-6.414,3.707-9.621,5.561c0.312,0.5,0.623,1,0.935,1.5
			c4.243-0.322,7.291-2.615,9.522-6.253c1.705-1.303,3.41-2.606,5.115-3.91c4.264-1.984,8.528-3.968,12.793-5.952
			c-0.945,2.34-2.432,3.783-4.109,4.949c-2.513,1.747-5.159,3.3-7.749,4.935c-2.61,0.863-5.112,1.825-5.285,6.236
			c2.598-1.772,4.454-3.038,6.311-4.305c5.839-3.566,11.679-7.133,17.519-10.7c0.27,0.438,0.54,0.876,0.811,1.313
			c-3.643,2.428-7.285,4.856-10.928,7.284c0.284,0.51,0.567,1.02,0.852,1.529c1.74-0.569,3.481-1.138,5.35-1.748
			c0.145,0.906,0.284,1.781,0.401,2.517c5.76-1.762,11.317-3.463,17.143-5.245c0.276,1.761,0.549,3.498,0.779,4.967
			c3.5-0.38,6.72-0.73,10.623-1.155c-1.152,1.525-1.839,2.435-2.525,3.344c-3.25,2.229-6.5,4.457-9.75,6.686
			c0.354,0.427,0.709,0.854,1.062,1.28c2.89-2.661,5.778-5.323,8.668-7.984c3.023-1.974,6.047-3.948,9.071-5.922
			c0.336,0.396,0.673,0.79,1.009,1.186c-2.718,2.591-5.436,5.182-9.05,8.627c11.495-2.262,21.637-4.566,29.433-12.883
			c0.317,0.43,0.635,0.859,0.952,1.289c-1.039,1.584-2.078,3.167-2.836,4.32c6.273,1.731,12.354,3.421,18.441,5.088
			c5.428,1.485,6.596,0.702,7.877-4.881c1.648-7.183-1.638-13.31-3.933-19.698c-1.282-3.57-3.302-7.454-2.85-10.918
			c0.53-4.067,1.208-7.274-1.671-8.695c2.191-5.584,4.35-10.561,6.069-15.685c0.871-2.599,0.273-5.823,1.51-8.141
			c4.561-8.546,2.397-16.87,0.44-25.489c-1.442-6.354-4.534-12.19-2.264-19.634c2.118-6.94-0.54-9.197-6.482-9.996
			c-0.235-0.031-0.415-0.476-0.917-1.092c0.677-1.264,1.432-2.686,2.198-4.1c2.451-4.518,3.318-8.355-0.849-13.05
			c-2.013-2.267-1.64-7.354-1.13-10.994c0.774-5.517,2.609-10.886,3.994-16.317c-0.567-0.278-1.135-0.557-1.702-0.835
			c-1.256,0.931-2.579,1.782-3.754,2.806c-4.278,3.728-8.84,6.531-14.889,5.255c-3.361-0.709-6.821-1.057-10.1-2.028
			c-8.44-2.502-16.657-5.941-25.226-7.789c-25.726-5.546-51.096-4.405-75.907,5.22c-9.137,3.544-18.523,6.018-28.333,1.524
			c-3.454-1.582-7.396-2.101-11.114-3.105c-3.037-2.512-6.029-2.588-10.488,0.875c3.987,0.887,6.738,1.499,9.49,2.111
			c0.244,1.437,0.488,2.874,0.739,4.351c2.723,0,5.422,0,9.115,0c-1.683,1.605-2.636,2.515-3.941,3.761
			c4.27,1.502,8.058,2.835,11.708,4.12c-4.513,1.233-9.067,2.479-13.621,3.724l0.028,0.018c-2.667-1.38-3.502-0.157-3.821,2.424
			c-0.585,4.735,0.268,8.613,3.513,12.602c2.482,3.051,4.402,3.916,7.832,2.731c3.508-1.212,7.085-2.228,10.834-3.393
			c-0.217,4.925-2.343,7.574-6.459,8.778c-1.063,0.311-1.95,1.221-2.918,1.854l0.031-0.017c-3.647,0.603-7.294,1.204-10.94,1.806
			c-0.151-0.632-0.302-1.265-0.453-1.896c5.92-1.76,11.84-3.52,17.759-5.279c-0.194-0.687-0.389-1.372-0.583-2.059
			c-4.693,1.237-9.325,2.976-14.098,3.553c-3.829,0.462-4.687,2.179-4.702,5.458c-0.017,3.723-0.297,7.443-0.517,12.363
			c-1.263-1.82-1.649-2.378-2.573-3.709c-0.344,5.54-0.632,10.165-0.919,14.789c-0.002,0.309-0.004,0.616-0.007,0.925
			c-0.129,1.23-0.257,2.462-0.561,5.361c2.924-2.359,4.749-3.831,6.574-5.303L27.999,102c1.295-0.588,2.59-1.177,3.886-1.765
			c-0.018-0.498-0.036-0.997-0.054-1.495c4.034-2.529,8.068-5.059,12.102-7.589c-0.412-0.689-0.825-1.38-1.237-2.07
			c-5.558,2.652-11.116,5.306-16.674,7.959c-0.616-0.857-1.894-2.323-1.749-2.48c2.596-2.823,5.044-5.964,8.174-8.07
			c4.065-2.734,8.701-4.619,13.091-6.869c0.236,0.179,0.472,0.357,0.708,0.535c-1.75,1.945-3.501,3.891-5.252,5.836
			c-1.844,0.961-3.688,1.922-5.532,2.884c0.25,0.437,0.499,0.873,0.749,1.31c1.88-1.09,3.76-2.181,5.64-3.271
			c1.574-0.416,3.148-0.832,5.269-1.394c-2.93,7.08-2.956,7.051-7.656,11.269c-0.455,0.408-0.327,1.466-0.47,2.222l0.009-0.016
			c-1.339,0-2.679,0-3.561,0c0.602,1.935,1.08,3.469,1.557,5.004c-5.967-1.069-10.06,2.274-14.012,5.951
			c-0.578,0.946-1.704,1.927-1.647,2.833c0.404,6.361,1.051,12.708,1.684,19.767c3.804-1.686,6.461-2.964,9.196-4.045
			c2.711-1.072,5.5-1.946,8.255-2.906c0.089,0.318,0.177,0.637,0.266,0.956c-5.482,2.732-10.964,5.466-16.446,8.199
			c0.23,0.742,0.46,1.485,0.691,2.229c1.814-0.344,3.65-0.603,5.438-1.054c2.214-0.559,4.387-1.277,6.577-1.927l-0.003-0.004
			c-2.456,1.58-4.756,3.523-7.404,4.652c-3.722,1.588-3.564,3.55-1.487,6.544c3.062-1.097,5.955-2.132,8.848-3.168
			c-1.508,1.2-3.105,2.306-4.5,3.624c-1.67,1.578-3.372,3.363,0.526,4.359c-1.008,1.32-2.017,2.641-3.025,3.961
			c0.481,3.026,1.389,6.062,1.331,9.077c-0.066,3.471-0.227,6.62,3.207,8.727c0.232,0.143-0.279,1.497-0.445,2.286
			c-1.251,2.511-2.502,5.021-3.753,7.532c-0.43,0.804-0.859,1.608-1.289,2.413c-1.012,1.986-2.024,3.974-3.037,5.96
			c-0.728,0.965-1.455,1.931-2.938,3.896c3.268-0.229,5.069-0.355,8.213-0.576c-1.829-1.316-2.512-1.809-3.195-2.301
			c2.685-1.481,5.684-2.586,7.996-4.514c7.697-6.419,15.319-12.951,22.612-19.819c3.212-3.025,6.928-4.665,9.938-2.525
			c-9.141,7.317-18.205,14.573-27.269,21.829c0.197,0.317,0.395,0.635,0.592,0.953c4.919-2.857,9.838-5.716,14.757-8.573
			c0.216,0.399,0.433,0.799,0.648,1.197c-10.086,8.442-22.66,12.72-34.658,19.635c9.41,1.906,17.978,3.995,24.264-5.093l0.109-0.135
			c0.628-0.163,1.584-0.131,1.818-0.527c0.568-0.962,0.8-2.122,1.167-3.203c1.906,1.274,5.46-0.141,5.861,3.595
			c0.037,0.404,0.075,0.809,0.113,1.214c-2.367,0.757-4.734,1.515-7.348,2.352c7.99,2.028,12.768,0.112,16.323-6.347
			c1.675-1.008,3.349-2.016,5.023-3.023c2.981-2.665,5.964-5.331,8.945-7.996c0.693-0.677,1.387-1.353,2.081-2.028
			c1.852-0.842,3.703-1.684,6.111-2.777c-0.517,1.677-0.836,2.717-1.156,3.756c-2.333,1.668-4.666,3.336-6.999,5.004
			c-2.309,1.689-4.616,3.379-6.924,5.069c-1.627,2.317-5.584,3.013-5.703,6.381c0.763,0.679,1.525,1.358,2.287,2.037
			c1.443-2.136,2.887-4.272,4.33-6.409c2.01-2.008,4.021-4.016,6.031-6.023c1.334-0.007,2.668-0.013,4.002-0.02
			c-0.009,1.678-0.017,3.355-0.025,5.032C82.319,191.013,81.658,191.999,80.997,192.986z M136,203.995
			c2.573-1.575,5.147-3.15,7.721-4.726c-0.286-0.427-0.573-0.853-0.86-1.279c-2.281,1.705-4.562,3.41-6.844,5.116
			c-1.993,0.646-3.985,1.293-5.979,1.939c0.187,0.46,0.373,0.919,0.56,1.379C132.398,205.614,134.199,204.805,136,203.995z
			 M30.001,47.003c1.409,0,2.817,0,4.226,0c-0.007-0.346-0.014-0.691-0.02-1.036c-1.399,0-2.797,0-4.196,0
			c-3.167-0.123-4.099-6.366-8.76-2.914C23.531,45.9,25.581,48.882,30.001,47.003z M17.894,37.379
			c0.177,0.75,0.354,1.499,0.532,2.248c1.612-0.381,3.224-0.762,4.835-1.143c-0.121-0.63-0.241-1.26-0.361-1.89
			C21.231,36.856,19.563,37.118,17.894,37.379z M112.609,198.673c-0.324-0.494-0.647-0.988-0.971-1.482
			c-1.33,1.058-2.66,2.114-3.989,3.172c0.265,0.346,0.528,0.691,0.793,1.036C109.831,200.49,111.22,199.582,112.609,198.673z
			 M124.296,201.699c0.237,0.332,0.475,0.665,0.712,0.997c1.435-0.908,2.868-1.816,4.303-2.726c-0.193-0.292-0.387-0.585-0.58-0.877
			C127.253,199.962,125.774,200.831,124.296,201.699z"/>
		<path fill-rule="evenodd" clip-rule="evenodd" fill="#FFFFFF" d="M26.981,32.051c3.719,1.005,7.66,1.523,11.114,3.105
			c9.811,4.493,19.197,2.02,28.333-1.524c24.812-9.625,50.182-10.766,75.907-5.22c8.568,1.848,16.785,5.287,25.226,7.789
			c3.278,0.972,6.738,1.319,10.1,2.028c6.049,1.276,10.61-1.527,14.889-5.255c1.175-1.023,2.498-1.875,3.754-2.806
			c0.567,0.278,1.135,0.557,1.702,0.835c-1.385,5.432-3.22,10.801-3.994,16.317c-0.51,3.64-0.883,8.728,1.13,10.994
			c4.167,4.694,3.3,8.532,0.849,13.05c-0.767,1.414-1.521,2.836-2.198,4.1c0.502,0.616,0.682,1.061,0.917,1.092
			c5.942,0.799,8.601,3.056,6.482,9.996c-2.271,7.443,0.821,13.279,2.264,19.634c1.957,8.619,4.12,16.943-0.44,25.489
			c-1.236,2.317-0.639,5.542-1.51,8.141c-1.72,5.124-3.878,10.101-6.069,15.685c2.879,1.421,2.201,4.628,1.671,8.695
			c-0.452,3.464,1.567,7.348,2.85,10.918c2.295,6.389,5.581,12.516,3.933,19.698c-1.281,5.583-2.449,6.366-7.877,4.881
			c-6.088-1.667-12.168-3.356-18.441-5.088c0.758-1.153,1.797-2.736,2.836-4.32c-0.317-0.43-0.635-0.859-0.952-1.289
			c-7.796,8.316-17.938,10.621-29.433,12.883c3.614-3.445,6.332-6.036,9.05-8.627c-0.336-0.396-0.673-0.79-1.009-1.186
			c-3.024,1.974-6.048,3.948-9.071,5.922l0.02,0.019c0.687-0.909,1.373-1.818,2.525-3.344c-3.903,0.425-7.123,0.775-10.623,1.155
			c-0.23-1.469-0.503-3.206-0.779-4.967c-5.825,1.782-11.383,3.483-17.143,5.245c-0.117-0.735-0.257-1.61-0.401-2.517
			c-1.868,0.61-3.609,1.179-5.35,1.748c-0.284-0.51-0.567-1.02-0.852-1.529c3.643-2.428,7.285-4.856,10.928-7.284
			c-0.271-0.438-0.541-0.875-0.811-1.313c-5.84,3.567-11.68,7.134-17.519,10.701c-0.342-0.644-0.684-1.288-1.025-1.933
			c2.59-1.635,5.236-3.188,7.749-4.935c1.678-1.166,3.164-2.609,4.109-4.949c-4.265,1.984-8.529,3.968-12.794,5.952
			c-0.319-0.335-0.639-0.669-0.958-1.003c0.985-1.004,1.971-2.009,2.955-3.014c1.563-0.438,3.126-0.875,4.689-1.312
			c-0.209-0.431-0.417-0.86-0.625-1.291c-1.367,0.854-2.734,1.707-4.103,2.561c-2.664,1.003-5.328,2.007-7.992,3.011l0.013,0.02
			c1.229-1.296,2.439-2.61,3.691-3.885c2.621-2.669,1.651-3.875-1.662-4.158c-0.394-0.924-0.786-1.849-1.18-2.772
			c-0.641,0.588-1.282,1.176-2.141,1.963c1.396,0.372,2.325,0.62,3.253,0.868c-2.989,0.994-5.979,1.989-8.968,2.984
			c-2.324,0.333-4.648,0.666-6.973,0.998c-0.34-0.29-0.681-0.581-1.021-0.871c0.72-0.979,1.439-1.957,2.159-2.936
			c2.733-1.403,5.467-2.807,8.2-4.21c-0.366-0.544-0.732-1.088-1.099-1.632c-2.488,1.801-4.977,3.602-7.465,5.404
			c-0.601,0.077-1.202,0.152-1.805,0.228c-0.006-0.679-0.011-1.357-0.017-2.036c0.32-1.039,0.64-2.079,1.156-3.756
			c-2.408,1.094-4.26,1.936-6.112,2.777c0.687-1.276,1.372-2.554,2.058-3.832c1.906-0.927,3.813-1.853,5.72-2.777
			c-0.258-0.43-0.516-0.859-0.773-1.288c-1.021,0.656-2.044,1.312-3.065,1.97c0.479-1.333,0.959-2.666,1.439-4.003
			c-5.064-1.549-8.596,0.04-11.342,3.964c1.157,0.786,2.046,1.392,2.936,1.996c-0.667,1.658-1.334,3.316-2.001,4.976
			c-2.353,2.322-4.705,4.645-7.058,6.967c-2.66,1.683-5.321,3.365-7.981,5.048c-0.646-0.001-1.292-0.002-1.938-0.004
			c-1.044,0.937-2.089,1.873-3.133,2.81c-0.399-3.731-3.953-2.316-5.859-3.591c-0.367,1.081-0.6,2.241-1.167,3.203
			c-0.234,0.396-1.19,0.364-1.819,0.528c-1.223-0.371-2.444-0.743-3.666-1.115c-0.038,0.492-0.075,0.984-0.113,1.477
			c1.224-0.076,2.447-0.151,3.67-0.228c-6.286,9.088-14.854,6.999-24.264,5.093c11.998-6.915,24.571-11.192,34.658-19.635
			c-0.216-0.398-0.433-0.798-0.648-1.197c-4.919,2.857-9.838,5.716-14.757,8.573c-0.198-0.318-0.395-0.636-0.592-0.953
			c9.063-7.256,18.128-14.512,27.269-21.829c-3.011-2.14-6.727-0.5-9.938,2.525c-7.293,6.868-14.916,13.4-22.612,19.819
			c-2.312,1.928-5.311,3.032-7.996,4.514c-0.694-0.34-1.387-0.68-2.08-1.02c1.012-1.986,2.024-3.974,3.036-5.96
			c7.838-5.646,15.677-11.29,23.515-16.936c-0.224-0.216-0.447-0.432-0.672-0.647c-3.668,0.314-7.336,0.629-12.113,1.038
			c2.177,1.018,3.253,1.521,5.315,2.484c-3.513,2.305-6.315,4.142-9.115,5.979c-0.628-0.62-1.257-1.241-1.886-1.862
			c0.165-0.791,0.676-2.146,0.444-2.288c-3.434-2.106-3.273-5.256-3.207-8.727c0.058-3.016-0.85-6.051-1.331-9.076
			c1.68-0.999,3.359-1.997,5.039-2.996c2.661-2.32,5.322-4.64,7.982-6.96l0.045-0.032c1.996-0.331,3.991-0.662,5.987-0.993
			c-3.44,2.356-6.88,4.713-10.32,7.068c0.311,0.482,0.621,0.965,0.932,1.447c5.041-3.023,10.082-6.047,15.123-9.071
			c0.208,0.321,0.416,0.642,0.624,0.962c-3.162,2.826-6.325,5.653-9.488,8.48c0.222,0.281,0.444,0.562,0.667,0.844
			c1.882-1.214,3.764-2.428,5.645-3.643c0.914,0.613,1.829,1.227,2.745,1.841c-3.006,2.665-6.012,5.33-9.017,7.997
			c-5.322,0.65-9.465,3.438-13.192,7.042c4.408-1.291,8.542-3.141,12.614-5.116c0.429-0.208,0.499-1.159,0.735-1.765
			c1.532-0.485,3.063-0.97,4.891-1.548c-0.188,1.431-0.323,2.465-0.581,4.436c8.616-2.812,10.545-11,15.437-16.711
			c-1.944,0.586-3.889,1.172-5.833,1.758c0.492-1.225,1.371-2.441,1.397-3.677c0.06-2.833,1.354-5.972-1.422-8.345
			c-0.25,0.003-0.501,0.005-0.752,0.006c-2.409,0.338-4.819,0.676-7.229,1.013c0.322-0.789,0.644-1.578,0.966-2.366
			c-0.441-0.335-0.884-0.67-1.325-1.005c-1.544,1.787-3.088,3.575-4.631,5.362c-0.673,0.354-1.346,0.708-2.02,1.062
			c-2.649,0.973-5.298,1.945-7.947,2.919l-0.074,0.045c-2.893,1.036-5.785,2.071-8.847,3.168c-2.077-2.994-2.235-4.956,1.487-6.544
			c2.648-1.129,4.949-3.072,7.404-4.652c2.667-1.333,5.334-2.666,8.001-3.999c1.676-0.42,3.352-0.84,5.027-1.26
			c-0.216-0.46-0.432-0.919-0.648-1.378c-1.459,0.88-2.918,1.76-4.378,2.64c-2.667,1.333-5.333,2.667-8,4.001
			c-2.19,0.649-4.363,1.368-6.577,1.927c-1.787,0.451-3.623,0.71-5.438,1.054c-0.23-0.743-0.46-1.486-0.691-2.229
			c5.482-2.733,10.964-5.467,16.446-8.199c-0.088-0.319-0.177-0.638-0.266-0.956c-2.755,0.96-5.544,1.834-8.255,2.906
			c-2.735,1.081-5.392,2.359-9.196,4.045c-0.633-7.059-1.28-13.405-1.684-19.767c-0.057-0.906,1.069-1.887,1.647-2.832
			c0.004,0.351,0.009,0.701,0.013,1.052c-0.272,1.139-0.543,2.277-0.806,3.379c4.498-2.342,8.619-4.429,12.681-6.626
			c2.107-1.14,4.11-2.474,6.16-3.72c6.311-1.123,6.311-1.123,5.913-4.481c-2.074,1.532-4.023,2.972-5.971,4.411
			c-1.326,0.012-2.651,0.023-3.977,0.035l-0.001-0.002c-0.478-1.535-0.955-3.069-1.557-5.004c0.882,0,2.221,0,3.561,0
			c3.12-0.949,6.24-1.897,9.36-2.847c-0.253-0.563-0.505-1.127-0.758-1.691c-2.87,1.519-5.741,3.036-8.611,4.554
			c0.143-0.756,0.015-1.813,0.47-2.222c4.7-4.218,4.726-4.188,7.656-11.269c-2.121,0.562-3.695,0.978-5.268,1.395
			c-0.285-0.308-0.572-0.615-0.858-0.924c1.751-1.945,3.502-3.891,5.252-5.836c-0.236-0.178-0.472-0.356-0.708-0.535
			c-4.39,2.25-9.026,4.135-13.091,6.869c-3.13,2.106-5.578,5.247-8.174,8.07c-0.145,0.157,1.133,1.623,1.749,2.479
			c0.331,0.323,0.663,0.646,0.994,0.969c-1.673,1.003-3.347,2.006-5.02,3.009c0.288-4.625,0.575-9.25,0.919-14.79
			c0.923,1.331,1.31,1.889,2.573,3.709c0.219-4.92,0.5-8.641,0.517-12.363c0.015-3.279,0.873-4.996,4.702-5.458
			c4.772-0.577,9.405-2.315,14.098-3.553c0.194,0.687,0.389,1.372,0.583,2.059c-5.919,1.76-11.839,3.52-17.759,5.279
			c0.151,0.632,0.302,1.265,0.453,1.896c3.646-0.602,7.293-1.203,10.94-1.806c-3.034,1.583-6.067,3.165-9.1,4.748
			c0.268,0.532,0.536,1.063,0.803,1.596c3.45-1.753,6.9-3.507,10.349-5.262c2.854-0.657,5.71-1.313,8.566-1.969
			c-3.583-1.894-6.393-0.974-8.689,1.824c-0.653-0.307-1.306-0.613-1.959-0.921c0.968-0.634,1.855-1.544,2.918-1.854
			c4.116-1.204,6.243-3.854,6.459-8.778c-3.749,1.165-7.326,2.181-10.834,3.393c-3.43,1.185-5.35,0.319-7.832-2.731
			c-3.245-3.988-4.098-7.866-3.513-12.602c0.319-2.581,1.155-3.804,3.821-2.424c-3.954,1.879-1.722,3.341,0.483,4.282
			c2.042,0.872,4.333,1.158,6.516,1.702c-2.33,0.932-4.659,1.863-7.208,2.883c6.852,6.823,12.373,0.357,18.45-1.093
			c-1.392-1.314-2.909-1.843-4.449-1.923c-2.265-0.119-4.546,0.081-6.82,0.146c1.435-0.42,2.869-0.84,3.836-1.123
			c-3.57-1.612-7.203-3.252-10.836-4.893c4.554-1.245,9.108-2.49,13.621-3.724c-3.65-1.285-7.438-2.618-11.708-4.12
			c1.306-1.246,2.259-2.155,3.941-3.761c-3.693,0-6.392,0-9.115,0c-0.251-1.477-0.495-2.914-0.739-4.352
			C26.316,34.041,26.648,33.046,26.981,32.051z M56.015,107.015c-0.342-0.34-0.685-0.68-1.026-1.02
			c-0.663,0.002-1.326,0.003-1.99,0.005c-0.719-0.763-1.713-2.307-2.113-2.165c-3.642,1.285-7.261,2.702-10.726,4.408
			c-2.959,1.457-5.712,3.333-8.544,5.044c-2.133,1.289-4.248,2.608-6.37,3.914c0.258,0.41,0.517,0.82,0.775,1.23
			c4.321-1.804,8.642-3.606,12.963-5.41c0.729,3.752-2.336,3.606-4.511,4.495c-3.075,1.257-6.082,2.679-9.118,4.03
			c0.259,0.545,0.518,1.09,0.777,1.634c5.286-2.395,10.572-4.788,15.858-7.183c1.662-1.674,3.325-3.348,4.987-5.021
			c1.668-0.983,3.337-1.967,5.005-2.95c0.929,0.653,1.857,1.307,2.786,1.959c0.41-0.997,0.82-1.993,1.23-2.99L56.015,107.015z
			 M122.004,46.007c-1.145,0.764-2.288,1.526-3.433,2.29c0.377,0.376,0.753,0.752,1.129,1.127c0.764-1.145,1.527-2.29,2.292-3.435
			c1.374-0.385,2.749-0.771,4.123-1.155c-0.204-0.44-0.409-0.882-0.613-1.323C124.336,44.343,123.17,45.175,122.004,46.007z
			 M124.939,103.921c-1.95,1.238-3.899,2.476-5.85,3.714c0.317,0.4,0.635,0.802,0.952,1.202c1.679-1.587,3.358-3.174,5.034-4.763
			c1.062-0.866,2.124-1.732,3.187-2.599c-0.337-0.317-0.674-0.635-1.011-0.952C126.481,101.656,125.71,102.789,124.939,103.921z
			 M189.959,181.956c-0.044-0.766-0.089-1.531-0.133-2.296c-1.296,0.402-2.592,0.806-3.888,1.209c0.111,0.38,0.223,0.76,0.335,1.14
			c0.906,0,1.813,0,2.721,0c-0.637,1.401-1.273,2.802-2.11,4.646C191.664,186.863,189.938,183.903,189.959,181.956z M75.992,42.93
			c0.002-0.316,0.002-0.633,0.001-0.949c2.236-1.401,4.473-2.804,6.809-4.269c-0.69-3.583-2.847-4.591-6.099-2.387
			c-2.295,1.555-4.405,3.414-6.438,5.31c-1.324,1.235-3.672,2.693-0.316,4.393c-1.488,1.377-2.977,2.754-4.466,4.132
			c0.298,0.336,0.596,0.673,0.894,1.01c1.882-1.07,3.764-2.142,5.646-3.213C75.846,48.259,76.671,47.421,75.992,42.93z
			 M165.996,98.008c-0.924,0.522-1.849,1.045-2.772,1.566c0.327,0.321,0.653,0.643,0.98,0.964c0.603-0.853,1.205-1.704,1.807-2.556
			c3.006,3.438-1.828,4.269-3.097,7.772c2.458-1.781,4.076-2.491,4.998-3.723C169.533,99.868,169.626,97.921,165.996,98.008z
			 M176.919,171.954c-1.03,0.498-2.062,0.996-3.092,1.494c0.13,0.457,0.26,0.913,0.391,1.369c3.745-0.645,7.49-1.288,11.235-1.933
			c-0.088-0.522-0.177-1.045-0.265-1.567c-1.743,0.238-3.487,0.478-5.23,0.717c-0.019-0.619-0.037-1.238-0.056-1.857
			C178.908,170.77,177.913,171.362,176.919,171.954z M164.011,128.012c-6.389,1.477-10.463,5.899-14.003,11.001
			c-0.938-0.411-1.875-0.823-3.245-1.426c0.441,3.828,1.447,4.037,3.232,1.405c4.664-3.667,9.329-7.334,13.993-11.001
			c2.936-2.694,2.936-2.694,0.314-4.72C164.209,124.791,164.109,126.401,164.011,128.012z M165.016,54
			c-0.006,0.333-0.013,0.665-0.02,0.997c-0.195,1.025-0.391,2.051-0.8,4.196c3.963-2.732,7.008-4.833,10.408-7.178
			C170.404,49.459,167.912,52.684,165.016,54z M138.116,38.832c-2.987,1.111-5.975,2.223-8.962,3.335
			c0.289,0.606,0.577,1.214,0.866,1.821c5.728-2.071,11.455-4.143,17.183-6.213c-0.246-0.657-0.493-1.313-0.74-1.971
			C143.681,36.814,140.898,37.823,138.116,38.832z M152.797,80.871c-0.935,0.035-1.869,0.071-2.805,0.106
			c-0.292-0.633-0.585-1.267-0.877-1.899c0.464-0.881,0.928-1.761,1.912-3.631c-11.326,9.095-10.829,7.656-3.714,14.144
			c1.9-2.75,3.867-5.598,5.832-8.448c0.646-0.585,1.29-1.17,1.936-1.754c-0.521-0.254-1.044-0.508-1.566-0.762
			C153.275,79.375,153.036,80.123,152.797,80.871z M121.96,57.959c-1.216,0.449-2.932,0.561-3.521,1.433
			c-0.72,1.066-0.494,2.771-0.678,4.199c1.108-0.478,2.217-0.955,3.325-1.434c2.972-1.69,5.899-3.469,8.94-5.023
			c1.041-0.532,2.368-0.503,3.565-0.729c-0.216,1.182-0.432,2.362-0.646,3.544c-1.448,0.376-2.896,0.751-4.345,1.127
			c0.104,0.433,0.207,0.864,0.311,1.297c1.37-0.145,2.739-0.288,4.109-0.432c2.752-2.463,5.504-4.926,9.063-8.111
			c-2.997,0.993-4.823,1.6-6.65,2.205c-0.222-0.478-0.443-0.955-0.665-1.433c1.55-1.021,3.101-2.04,4.65-3.06
			c-0.145-0.367-0.289-0.733-0.434-1.101c-1.979,0.729-3.957,1.456-6.901,2.539c2.085-1.895,3.312-3.009,4.539-4.123
			c-7.105,1.741-13.83,3.87-20.402,6.397c-1.395,0.536-2.23,2.525-3.323,3.846c0.449,0.376,0.898,0.751,1.347,1.127
			c1.905-1.241,3.764-2.572,5.765-3.632C120.329,56.427,121.293,57.474,121.96,57.959z M193.367,148.567
			c-0.271-0.564-0.543-1.128-0.815-1.691c-1.802,0.896-5.17,1.85-5.14,2.681c0.143,3.945-2.63,3.969-5.044,4.98
			c-3.053,1.278-5.929,2.978-8.881,4.496c0.375,0.605,0.75,1.211,1.125,1.816C180.798,156.649,189.227,156.061,193.367,148.567z
			 M48.91,118.212c-0.314-0.638-0.627-1.276-0.941-1.915c-7.028,2.975-14.057,5.948-21.085,8.923
			c0.307,0.685,0.613,1.37,0.919,2.056C34.839,124.254,41.875,121.233,48.91,118.212z M106.896,106.853
			c6.954,1.417,11.737-1.317,15.135-6.556c-0.233-0.432-0.467-0.862-0.701-1.294C116.52,101.619,111.708,104.236,106.896,106.853z
			 M190.168,187.711c-0.679,0.968-1.357,1.935-2.036,2.902c1.453,0.556,3.208,1.918,4.301,1.51c2.817-1.053,5.342-2.889,7.982-4.411
			c-0.295-0.726-0.59-1.452-0.884-2.179C196.41,186.259,193.289,186.985,190.168,187.711z M157.229,43.815
			c0.321-0.313,0.643-0.626,0.964-0.939c-0.832-1.167-1.997-3.46-2.444-3.327c-4.582,1.358-9.047,3.109-13.545,4.751
			C147.702,46.224,151.599,37.985,157.229,43.815z M76.278,165.55c-0.519-0.286-1.975-1.508-2.351-1.236
			c-3.371,2.441-6.553,5.146-9.79,7.772c0.328,0.359,0.656,0.719,0.983,1.078C68.581,170.803,72.041,168.441,76.278,165.55z
			 M48.193,63.243c-0.158-0.545-0.316-1.09-0.474-1.635c-5.049,1.66-10.099,3.319-15.148,4.979c0.184,0.558,0.368,1.116,0.552,1.675
			C38.146,66.59,43.169,64.917,48.193,63.243z M184.715,124.18c5.868,2.612,8.907,0.788,11.207-3.177
			C192.406,122,189.06,122.948,184.715,124.18z M62.635,159.541c0.414,0.545,0.828,1.09,1.242,1.635
			c2.593-1.991,5.187-3.983,7.779-5.976c-0.423-0.551-0.847-1.101-1.27-1.651C67.803,155.546,65.219,157.544,62.635,159.541z
			 M150.297,106.938c0.397,0.565,0.795,1.132,1.192,1.697c2.684-1.62,5.366-3.24,8.049-4.861c-0.303-0.495-0.606-0.99-0.909-1.485
			C155.852,103.839,153.074,105.389,150.297,106.938z M198.387,143.314c-4.134-2.938-6.293-1.713-8.094,0.697
			c0.145,0.481,0.289,0.964,0.433,1.446C193.058,144.806,195.39,144.153,198.387,143.314z M181.518,126.646
			c-3.024-3.723-4.758-3.453-6.723,0.852C176.982,127.22,178.867,126.981,181.518,126.646z M133.652,78.25
			c0.272,0.464,0.545,0.927,0.817,1.391c2.216-1.348,4.433-2.695,6.648-4.043c-0.204-0.341-0.409-0.681-0.613-1.021
			C138.221,75.801,135.937,77.025,133.652,78.25z M82.763,44.819c0.378,0.514,0.755,1.027,1.133,1.541
			c1.844-1.432,3.688-2.862,5.531-4.294c-0.322-0.419-0.646-0.837-0.969-1.256C86.56,42.146,84.661,43.483,82.763,44.819z
			 M188.213,143.003c-0.263-0.525-0.525-1.051-0.788-1.576c-1.491,0.755-2.981,1.51-4.473,2.265
			c0.353,0.636,0.706,1.271,1.059,1.906C185.411,144.732,186.812,143.868,188.213,143.003z M151.694,67.127
			c-5.78-0.685-2.97,3.064-2.984,5.179C149.628,70.713,150.546,69.12,151.694,67.127z M93.418,46.732
			c-0.353-0.522-0.705-1.045-1.058-1.567c-1.48,1.047-2.962,2.095-4.442,3.142c0.251,0.386,0.502,0.771,0.752,1.157
			C90.253,48.554,91.835,47.643,93.418,46.732z M187.802,170.034c0.513,0.055,1.026,0.108,1.539,0.162c0-1.544,0-3.088,0-4.632
			c-0.345-0.012-0.689-0.022-1.034-0.034C188.138,167.032,187.97,168.533,187.802,170.034z M140.424,65.856
			c-0.309-0.394-0.617-0.787-0.925-1.181c-1.254,1.037-2.507,2.074-3.76,3.111c0.321,0.386,0.642,0.772,0.963,1.158
			C137.942,67.916,139.184,66.886,140.424,65.856z M163.831,138.168c-0.261-0.288-0.521-0.576-0.783-0.864
			c-1.473,1.143-2.945,2.285-4.418,3.428c0.35,0.4,0.7,0.801,1.051,1.201C161.064,140.678,162.447,139.423,163.831,138.168z
			 M161.2,61.441c-0.303-0.424-0.606-0.849-0.909-1.273c-0.895,0.773-1.789,1.548-2.684,2.321c0.264,0.315,0.527,0.631,0.791,0.946
			C159.332,62.771,160.266,62.106,161.2,61.441z M153.03,121.46c0.263,0.544,0.525,1.089,0.788,1.633
			c1.339-0.754,2.678-1.509,4.017-2.263c-0.19-0.384-0.38-0.767-0.57-1.15C155.853,120.273,154.441,120.866,153.03,121.46z
			 M188.361,172.977c0.3,0.472,0.599,0.944,0.898,1.417c0.852-0.796,1.703-1.592,2.556-2.388c-0.255-0.309-0.509-0.617-0.763-0.926
			C190.155,171.712,189.259,172.344,188.361,172.977z M188.618,138.683c0.158,0.434,0.316,0.867,0.475,1.301
			c1.051-0.438,2.101-0.874,3.151-1.311c-0.146-0.387-0.293-0.773-0.439-1.16C190.742,137.902,189.681,138.293,188.618,138.683z
			 M195.747,178.143c-0.618,0.677-1.227,1.086-1.166,1.329c0.13,0.526,0.604,0.969,0.937,1.444c0.346-0.303,0.975-0.604,0.976-0.91
			C196.496,179.487,196.104,178.967,195.747,178.143z M127.306,75.26c-0.26-0.214-0.521-0.428-0.78-0.641
			c-0.6,0.698-1.2,1.397-1.8,2.097c0.278,0.225,0.557,0.45,0.835,0.676C126.142,76.681,126.724,75.971,127.306,75.26z
			 M135.989,90.103c-0.357-0.286-0.714-0.572-1.071-0.858c-0.49,0.784-0.98,1.568-1.47,2.354c0.303,0.192,0.605,0.385,0.909,0.578
			C134.901,91.484,135.445,90.794,135.989,90.103z M195.713,114.315c0.095,0.347,0.19,0.694,0.285,1.041
			c0.971-0.234,1.942-0.468,2.913-0.702c-0.111-0.402-0.223-0.804-0.333-1.206C197.623,113.737,196.668,114.026,195.713,114.315z
			 M81.576,50.222c0.248,0.352,0.496,0.703,0.744,1.055c0.848-0.687,1.696-1.372,2.545-2.059c-0.225-0.253-0.449-0.507-0.674-0.76
			C83.319,49.046,82.447,49.634,81.576,50.222z M78.519,50.707c0.426-0.874,0.737-1.369,0.868-1.908
			c0.025-0.104-0.768-0.623-0.978-0.521c-0.361,0.173-0.716,0.661-0.773,1.06C77.593,49.629,78.031,49.99,78.519,50.707z"/>
		<path fill-rule="evenodd" clip-rule="evenodd" d="M35.934,175.924c2.801-1.837,5.603-3.674,9.116-5.979
			c-2.062-0.963-3.138-1.467-5.315-2.484c4.776-0.409,8.445-0.724,12.113-1.038c0.225,0.216,0.448,0.432,0.672,0.647
			c-7.838,5.646-15.676,11.29-23.515,16.936c0.43-0.805,0.859-1.609,1.288-2.411c1.517-1.57,3.035-3.144,4.554-4.716
			c0.385-0.295,0.769-0.59,1.154-0.885L35.934,175.924z"/>
		<path fill-rule="evenodd" clip-rule="evenodd" fill="#FFFFFF" d="M27.015,98.008c-0.331-0.323-0.663-0.646-0.994-0.969
			c5.558-2.652,11.116-5.306,16.674-7.958c0.412,0.69,0.825,1.381,1.237,2.07c-4.034,2.53-8.068,5.06-12.101,7.591
			C30.227,98.499,28.621,98.254,27.015,98.008z"/>
		<path fill-rule="evenodd" clip-rule="evenodd" fill="#FFFFFF" d="M59.019,190.991c0.646,0.002,1.292,0.003,1.939,0.004
			c1.34,0.01,2.679,0.02,4.019,0.028c-3.556,6.459-8.333,8.375-16.323,6.347c2.613-0.837,4.98-1.595,7.348-2.353
			C58.425,194.738,59.955,193.789,59.019,190.991z"/>
		<path fill-rule="evenodd" clip-rule="evenodd" fill="#FFFFFF" d="M32.979,150.01c-3.898-0.996-2.196-2.781-0.526-4.359
			c1.396-1.318,2.993-2.424,4.5-3.624c0,0,0.074-0.045,0.074-0.045c2.305-0.299,4.61-0.598,6.915-0.896
			c-0.307,0.966-0.613,1.933-0.92,2.898l-0.045,0.032c-3.335,1.967-8.544,0.812-9.962,5.976L32.979,150.01z"/>
		<path fill-rule="evenodd" clip-rule="evenodd" fill="#FFFFFF" d="M23,111.003c-0.004-0.351-0.009-0.701-0.013-1.052
			c3.952-3.678,8.044-7.021,14.012-5.952L37,104.001C32.334,106.335,27.667,108.669,23,111.003z"/>
		<path fill-rule="evenodd" clip-rule="evenodd" fill="#FFFFFF" d="M26.981,32.051c-0.333,0.995-0.665,1.99-0.998,2.985
			c-2.751-0.611-5.502-1.224-9.49-2.11C20.952,29.463,23.944,29.539,26.981,32.051z"/>
		<path fill-rule="evenodd" clip-rule="evenodd" fill="#FFFFFF" d="M101.912,193.948c-2.231,3.638-5.279,5.931-9.522,6.253
			c-0.312-0.5-0.623-1-0.935-1.5c3.207-1.854,6.414-3.707,9.62-5.562C101.354,193.408,101.633,193.679,101.912,193.948z"/>
		<path fill-rule="evenodd" clip-rule="evenodd" fill="#FFFFFF" d="M30.001,47.003c-4.42,1.879-6.47-1.103-8.75-3.95
			c4.661-3.452,5.593,2.791,8.759,2.914C30.007,46.312,30.004,46.657,30.001,47.003z"/>
		<path fill-rule="evenodd" clip-rule="evenodd" fill="#FFFFFF" d="M100.993,188.989c-3.661,2.347-7.323,4.692-10.984,7.039
			c-0.332-0.676-0.664-1.351-0.997-2.026c0.748-0.923,1.495-1.846,2.243-2.768c3.25-0.742,6.501-1.484,9.751-2.226L100.993,188.989z
			"/>
		<path fill-rule="evenodd" clip-rule="evenodd" d="M68.938,185.947c2.353-2.322,4.705-4.645,7.058-6.967
			c0.311-0.034,0.617-0.088,0.921-0.161c0.677,0.395,1.353,0.789,2.028,1.185c-2.981,2.665-5.964,5.331-8.945,7.996
			C69.646,187.315,69.292,186.632,68.938,185.947z"/>
		<path fill-rule="evenodd" clip-rule="evenodd" fill="#FFFFFF" d="M85.981,178.954c0.006,0.679,0.011,1.357,0.017,2.036
			c-1.003,1.339-2.005,2.678-3.008,4.017l0.016-0.014c-1.334,0.007-2.668,0.013-4.002,0.02c-0.008-0.352-0.015-0.703-0.021-1.055
			C81.315,182.29,83.648,180.622,85.981,178.954z"/>
		<path fill-rule="evenodd" clip-rule="evenodd" d="M68.938,185.947c0.354,0.685,0.708,1.368,1.062,2.053
			c-1.675,1.008-3.349,2.016-5.023,3.023c-1.34-0.009-2.679-0.019-4.019-0.028C63.617,189.312,66.278,187.63,68.938,185.947z"/>
		<path fill-rule="evenodd" clip-rule="evenodd" fill="#FFFFFF" d="M78.982,183.958c0.007,0.352,0.014,0.703,0.021,1.055
			c-2.011,2.008-4.021,4.016-6.031,6.022c-0.305-0.669-0.609-1.339-0.914-2.008C74.366,187.337,76.674,185.647,78.982,183.958z"/>
		<path fill-rule="evenodd" clip-rule="evenodd" fill="#FFFFFF" d="M72.059,189.027c0.305,0.669,0.609,1.339,0.914,2.008
			c-1.443,2.138-2.887,4.274-4.33,6.41c-0.762-0.679-1.524-1.358-2.287-2.037C66.475,192.04,70.432,191.345,72.059,189.027z"/>
		<path fill-rule="evenodd" clip-rule="evenodd" fill="#FFFFFF" d="M107.962,193.97c0.342,0.645,0.684,1.289,1.025,1.933
			c-1.856,1.266-3.713,2.531-6.311,4.304C102.85,195.795,105.352,194.833,107.962,193.97z"/>
		<path fill-rule="evenodd" clip-rule="evenodd" fill="#FFFFFF" d="M89.013,194.002c0.332,0.676,0.664,1.351,0.996,2.026
			c-1.727,1.004-3.454,2.009-5.181,3.013c-0.281-0.678-0.563-1.355-0.845-2.033l0.029-0.035
			C85.679,195.982,87.346,194.992,89.013,194.002z"/>
		<path fill-rule="evenodd" clip-rule="evenodd" d="M27.015,98.008c1.606,0.246,3.211,0.491,4.816,0.734
			c0.017,0.496,0.035,0.995,0.053,1.491c-1.295,0.588-2.59,1.178-3.886,1.767l0.003-0.001c-2.004-0.02-4.009-0.039-6.013-0.059
			c0.003-0.309,0.005-0.616,0.007-0.925C23.668,100.014,25.342,99.011,27.015,98.008z"/>
		<path fill-rule="evenodd" clip-rule="evenodd" fill="#FFFFFF" d="M25.969,189.966c0.693,0.34,1.386,0.68,2.08,1.02
			c0.684,0.492,1.367,0.984,3.196,2.301c-3.144,0.221-4.946,0.348-8.213,0.576C24.514,191.896,25.241,190.931,25.969,189.966z"/>
		<path fill-rule="evenodd" clip-rule="evenodd" fill="#FFFFFF" d="M34.846,176.879c-1.519,1.572-3.037,3.146-4.554,4.716
			c1.252-2.513,2.503-5.023,3.755-7.533c0.63,0.622,1.259,1.243,1.887,1.863c-0.001-0.001,0.065,0.069,0.065,0.069
			C35.615,176.289,35.231,176.584,34.846,176.879z"/>
		<path fill-rule="evenodd" clip-rule="evenodd" fill="#FFFFFF" d="M17.894,37.379c1.669-0.261,3.337-0.522,5.006-0.784
			c0.12,0.63,0.24,1.26,0.361,1.89c-1.612,0.381-3.224,0.762-4.835,1.143C18.249,38.878,18.071,38.129,17.894,37.379z"/>
		<path fill-rule="evenodd" clip-rule="evenodd" fill="#FFFFFF" d="M21.988,101.94c2.004,0.02,4.009,0.039,6.013,0.059
			c-1.825,1.472-3.649,2.943-6.574,5.303C21.731,104.402,21.859,103.171,21.988,101.94z"/>
		<path fill-rule="evenodd" clip-rule="evenodd" fill="#FFFFFF" d="M86.007,184.136c0.34,0.29,0.681,0.581,1.021,0.871
			c-0.083,1.267-0.166,2.532-0.248,3.799c-1.267,0.406-2.533,0.813-3.799,1.221c0.009-1.678,0.017-3.355,0.025-5.033l-0.016,0.014
			C83.996,184.716,85.001,184.426,86.007,184.136z"/>
		<path fill-rule="evenodd" clip-rule="evenodd" fill="#FFFFFF" d="M148.991,197.988c-2.89,2.661-5.778,5.323-8.668,7.984
			c-0.354-0.427-0.708-0.854-1.062-1.28c3.25-2.229,6.5-4.457,9.75-6.686L148.991,197.988z"/>
		<path fill-rule="evenodd" clip-rule="evenodd" fill="#FFFFFF" d="M136.017,203.106c2.281-1.706,4.562-3.411,6.844-5.116
			c0.287,0.427,0.574,0.853,0.86,1.279c-2.573,1.575-5.147,3.15-7.721,4.726C136.003,203.698,136.009,203.402,136.017,203.106z"/>
		<path fill-rule="evenodd" clip-rule="evenodd" fill="#FFFFFF" d="M101.912,193.948c-0.279-0.27-0.559-0.54-0.837-0.809
			c1.665-1.367,3.328-2.736,4.992-4.104c0.32,0.334,0.64,0.668,0.959,1.003C105.322,191.342,103.617,192.646,101.912,193.948z"/>
		<path fill-rule="evenodd" clip-rule="evenodd" d="M78.945,180.004c-0.676-0.396-1.352-0.79-2.027-1.183
			c1.694-1.606,3.389-3.215,5.083-4.822c0.314-0.322,0.629-0.644,0.943-0.965c0.046,0.37,0.093,0.74,0.14,1.11
			c-0.687,1.277-1.372,2.555-2.059,3.831C80.332,178.651,79.639,179.327,78.945,180.004z"/>
		<path fill-rule="evenodd" clip-rule="evenodd" fill="#FFFFFF" d="M112.609,198.673c-1.39,0.909-2.778,1.817-4.167,2.726
			c-0.265-0.345-0.528-0.69-0.793-1.036c1.329-1.058,2.659-2.114,3.989-3.172C111.962,197.685,112.285,198.179,112.609,198.673z"/>
		<path fill-rule="evenodd" clip-rule="evenodd" fill="#FFFFFF" d="M34.994,150.976c-1.68,0.999-3.359,1.997-5.039,2.996
			c1.008-1.321,2.016-2.642,3.024-3.962l0.035-0.019C33.674,150.319,34.334,150.647,34.994,150.976z"/>
		<path fill-rule="evenodd" clip-rule="evenodd" fill="#FFFFFF" d="M80.997,195.996c0-1.004,0-2.007,0-3.01
			c1.335-0.332,2.669-0.665,4.003-0.998c-0.001,0.668-0.002,1.336-0.003,2.004c-0.328,0.993-0.656,1.987-0.984,2.98l-0.029,0.035
			c-0.994-0.335-1.987-0.67-2.98-1.005L80.997,195.996z"/>
		<path fill-rule="evenodd" clip-rule="evenodd" fill="#FFFFFF" d="M136.017,203.106c-0.008,0.296-0.014,0.592-0.017,0.889
			c-1.801,0.81-3.602,1.619-5.402,2.43c-0.187-0.46-0.373-0.919-0.56-1.379C132.031,204.399,134.023,203.753,136.017,203.106z"/>
		<path fill-rule="evenodd" clip-rule="evenodd" fill="#FFFFFF" d="M40.993,85.991c0.286,0.309,0.573,0.616,0.858,0.924
			c-1.881,1.089-3.761,2.18-5.641,3.27c-0.25-0.437-0.499-0.873-0.749-1.31C37.305,87.913,39.149,86.952,40.993,85.991z"/>
		<path fill-rule="evenodd" clip-rule="evenodd" fill="#FFFFFF" d="M81.003,196.003c-1.408,0.96-2.816,1.919-4.225,2.879
			c-0.274-0.585-0.548-1.169-0.822-1.754c1.681-0.377,3.36-0.755,5.041-1.132L81.003,196.003z"/>
		<path fill-rule="evenodd" clip-rule="evenodd" d="M85,191.988c-1.334,0.333-2.668,0.666-4.003,0.998
			c0.661-0.987,1.322-1.974,1.983-2.961c1.266-0.406,2.532-0.813,3.801-1.219c0.127,0.127,0.249,0.255,0.366,0.384
			C86.431,190.122,85.716,191.055,85,191.988z"/>
		<path fill-rule="evenodd" clip-rule="evenodd" fill="#FFFFFF" d="M124.296,201.699c1.479-0.868,2.957-1.737,4.435-2.605
			c0.193,0.292,0.387,0.585,0.58,0.877c-1.435,0.909-2.868,1.817-4.303,2.726C124.771,202.364,124.533,202.031,124.296,201.699z"/>
		<path fill-rule="evenodd" clip-rule="evenodd" fill="#FFFFFF" d="M113.047,202.074c1.106-0.842,2.213-1.684,3.319-2.525
			c0.254,0.284,0.507,0.567,0.761,0.852c-1.102,0.836-2.202,1.672-3.302,2.509C113.566,202.632,113.307,202.353,113.047,202.074z"/>
		<path fill-rule="evenodd" clip-rule="evenodd" d="M59.019,190.991c0.937,2.798-0.594,3.747-3.018,4.026
			c-0.038-0.404-0.076-0.809-0.114-1.215C56.93,192.864,57.975,191.928,59.019,190.991z"/>
		<path fill-rule="evenodd" clip-rule="evenodd" fill="#FFFFFF" d="M30.001,47.003c0.003-0.346,0.006-0.69,0.01-1.036
			c1.399,0,2.797,0,4.196,0c0.006,0.345,0.013,0.69,0.02,1.036C32.818,47.003,31.41,47.003,30.001,47.003z"/>
		<path fill-rule="evenodd" clip-rule="evenodd" fill="#FFFFFF" d="M27.999,102c1.296-0.589,2.591-1.179,3.886-1.767
			C30.589,100.823,29.293,101.412,27.999,102z"/>
		<path fill-rule="evenodd" clip-rule="evenodd" fill="#FFFFFF" d="M113.047,202.074c0.26,0.278,0.52,0.558,0.778,0.835
			c-1.275,0.64-2.55,1.28-3.825,1.921c-0.14-0.239-0.28-0.479-0.421-0.719C110.735,203.432,111.891,202.753,113.047,202.074z"/>
		<path fill-rule="evenodd" clip-rule="evenodd" d="M132.945,59.948c0.215-1.182,0.431-2.362,0.646-3.544
			c-1.197,0.227-2.524,0.197-3.565,0.729c-3.041,1.555-5.969,3.333-8.94,5.022c-0.009-0.432-0.018-0.861-0.025-1.291
			c1.256-0.879,2.512-1.758,3.768-2.638c-0.169-0.213-0.338-0.426-0.507-0.639c-0.766,0.148-1.531,0.297-2.297,0.444l-0.065-0.075
			c-0.666-0.484-1.63-1.531-1.95-1.362c-2.001,1.06-3.859,2.391-5.765,3.632c-0.448-0.376-0.897-0.751-1.347-1.127
			c1.093-1.32,1.929-3.31,3.323-3.846c6.572-2.527,13.297-4.656,20.402-6.397c-1.228,1.114-2.454,2.229-4.539,4.123
			c2.944-1.083,4.923-1.811,6.901-2.539c0.145,0.367,0.289,0.733,0.434,1.101c-1.55,1.02-3.101,2.039-4.65,3.06
			c0.222,0.478,0.443,0.955,0.665,1.433c1.827-0.605,3.653-1.212,6.65-2.205c-3.56,3.186-6.312,5.648-9.064,8.112
			C132.995,61.277,132.97,60.613,132.945,59.948z"/>
		<path fill-rule="evenodd" clip-rule="evenodd" d="M59.966,134.99c2.776,2.373,1.481,5.512,1.422,8.345
			c-0.026,1.235-0.905,2.452-1.397,3.677l0.023-0.017c-3.459-2.502-5.468,0.439-7.821,2.083c-1.882,1.215-3.764,2.429-5.646,3.643
			c-0.223-0.281-0.445-0.562-0.667-0.844c3.163-2.827,6.326-5.654,9.488-8.48c-0.208-0.32-0.416-0.641-0.624-0.962
			c-5.042,3.024-10.082,6.048-15.123,9.071c-0.311-0.482-0.621-0.965-0.932-1.447c3.44-2.355,6.88-4.712,10.32-7.068l-0.022,0.02
			c2-1.664,4-3.329,6.001-4.993l0.029-0.023C56.666,136.992,58.316,135.991,59.966,134.99z"/>
		<path fill-rule="evenodd" clip-rule="evenodd" d="M59.99,147.012c1.944-0.586,3.889-1.172,5.833-1.758
			c-4.892,5.711-6.82,13.898-15.437,16.711c0.258-1.971,0.394-3.005,0.581-4.436c-1.828,0.578-3.359,1.062-4.891,1.548l-0.158-0.163
			c3.006-2.665,6.012-5.33,9.019-7.994c1.692-1.308,3.384-2.616,5.076-3.925L59.99,147.012z"/>
		<path fill-rule="evenodd" clip-rule="evenodd" d="M51.982,108.026c-1.668,0.983-3.336,1.967-5.004,2.95
			c-1.985,0.69-3.969,1.38-5.954,2.069c-0.681-0.008-1.361-0.016-2.041-0.024c-4.321,1.804-8.642,3.606-12.963,5.41
			c-0.258-0.41-0.517-0.82-0.775-1.23c2.122-1.306,4.236-2.625,6.37-3.914c2.832-1.711,5.585-3.587,8.544-5.044
			c3.464-1.706,7.083-3.123,10.726-4.408c0.4-0.142,1.395,1.402,2.114,2.165c-0.025,0.337-0.051,0.673-0.076,1.01
			C52.609,107.349,52.296,107.688,51.982,108.026z"/>
		<path fill-rule="evenodd" clip-rule="evenodd" d="M36.982,57.008c2.274-0.065,4.556-0.266,6.821-0.146
			c1.54,0.08,3.057,0.608,4.449,1.923c-6.077,1.45-11.598,7.916-18.45,1.093c2.549-1.02,4.878-1.951,7.208-2.883L36.982,57.008z"/>
		<path fill-rule="evenodd" clip-rule="evenodd" d="M101.006,189.009c-3.25,0.741-6.501,1.483-9.752,2.224
			c-0.083-0.428-0.164-0.855-0.246-1.283c0.999-1.656,1.998-3.313,2.997-4.97c-0.001-0.324-0.003-0.647-0.005-0.971
			c2.989-0.995,5.979-1.99,8.968-2.984l0.067-0.06c3.313,0.284,4.283,1.49,1.662,4.159
			C103.445,186.398,102.235,187.713,101.006,189.009z M99.141,187.343c-0.128-0.241-0.257-0.482-0.385-0.724
			c-0.585,0.31-1.17,0.619-1.755,0.929c0.132,0.236,0.359,0.688,0.383,0.677C97.982,187.96,98.56,187.646,99.141,187.343z"/>
		<path fill-rule="evenodd" clip-rule="evenodd" d="M193.367,148.567c-4.141,7.493-12.569,8.082-18.755,12.282
			c-0.375-0.605-0.75-1.211-1.125-1.816c2.952-1.519,5.828-3.218,8.881-4.496c2.414-1.012,5.187-1.035,5.044-4.98
			c-0.03-0.831,3.338-1.784,5.14-2.681C192.824,147.439,193.096,148.003,193.367,148.567z"/>
		<path fill-rule="evenodd" clip-rule="evenodd" d="M149.992,80.978c0.936-0.035,1.87-0.071,2.805-0.106l0.352,0.274
			c-1.968,2.848-3.935,5.695-5.835,8.445c-7.115-6.487-7.612-5.049,3.714-14.144c-0.984,1.87-1.448,2.75-1.913,3.63
			c-0.303,1.179-0.605,2.357-0.908,3.537C148.801,82.068,149.396,81.523,149.992,80.978z"/>
		<path fill-rule="evenodd" clip-rule="evenodd" d="M69.947,45.027c-3.354-1.699-1.006-3.157,0.318-4.393
			c2.032-1.896,4.143-3.755,6.438-5.31c3.252-2.204,5.408-1.196,6.099,2.387c-2.336,1.465-4.572,2.867-6.809,4.269
			c-2.747-0.53-5.103-0.278-5.96,2.977L69.947,45.027z"/>
		<path fill-rule="evenodd" clip-rule="evenodd" d="M48.91,118.212c-7.036,3.021-14.071,6.042-21.107,9.063
			c-0.307-0.686-0.613-1.371-0.919-2.056c7.028-2.975,14.057-5.948,21.085-8.923C48.283,116.936,48.596,117.574,48.91,118.212z"/>
		<path fill-rule="evenodd" clip-rule="evenodd" d="M106.896,106.853c4.812-2.616,9.623-5.233,14.434-7.85
			c0.234,0.432,0.468,0.862,0.701,1.294C118.634,105.535,113.851,108.27,106.896,106.853z"/>
		<path fill-rule="evenodd" clip-rule="evenodd" d="M82.944,173.034c-0.314,0.321-0.629,0.643-0.943,0.965
			c-1.335,0.002-2.669,0.004-4.004,0.006c-0.89-0.604-1.778-1.21-2.936-1.996c2.746-3.924,6.277-5.513,11.342-3.964
			c-0.48,1.337-0.96,2.67-1.438,4.002C84.291,172.376,83.618,172.705,82.944,173.034z"/>
		<path fill-rule="evenodd" clip-rule="evenodd" d="M43.022,143.983c0.307-0.966,0.613-1.933,0.92-2.899
			c0.345-0.674,0.689-1.348,1.033-2.021c0.673-0.354,1.346-0.708,2.02-1.062c0.335,0,0.671,0,1.006,0
			c1.337-0.671,2.675-1.341,4.013-2.012l-0.028,0.021c2.409-0.337,4.819-0.675,7.227-1.013c-1.399,0.999-2.798,1.998-4.195,2.997
			l-0.029,0.023c-2,1.664-4.001,3.329-6.001,4.993l0.022-0.02C47.013,143.321,45.018,143.652,43.022,143.983z"/>
		<path fill-rule="evenodd" clip-rule="evenodd" d="M190.168,187.711c3.121-0.726,6.242-1.452,9.363-2.178
			c0.294,0.727,0.589,1.453,0.884,2.179c-2.641,1.522-5.165,3.358-7.982,4.411c-1.093,0.408-2.848-0.954-4.301-1.51
			C188.811,189.646,189.489,188.679,190.168,187.711z"/>
		<path fill-rule="evenodd" clip-rule="evenodd" d="M23,111.003c4.667-2.334,9.333-4.668,14-7.002
			c1.326-0.012,2.651-0.023,3.977-0.035l0.059,0.07c-2.05,1.246-4.053,2.58-6.16,3.72c-4.062,2.197-8.183,4.284-12.681,6.626
			C22.457,113.28,22.729,112.142,23,111.003z"/>
		<path fill-rule="evenodd" clip-rule="evenodd" d="M38.983,113.021c0.68,0.009,1.36,0.017,2.041,0.023
			c0.322,0.984,0.644,1.969,0.966,2.953c-5.286,2.395-10.572,4.788-15.858,7.183c-0.259-0.544-0.519-1.089-0.777-1.634
			c3.036-1.352,6.043-2.773,9.118-4.03C36.647,116.628,39.713,116.773,38.983,113.021z"/>
		<path fill-rule="evenodd" clip-rule="evenodd" d="M138.116,38.832c2.782-1.009,5.564-2.018,8.347-3.027
			c0.247,0.657,0.494,1.313,0.74,1.971c-5.728,2.07-11.455,4.142-17.183,6.213C132.719,42.27,135.417,40.551,138.116,38.832z"/>
		<path fill-rule="evenodd" clip-rule="evenodd" d="M157.229,43.815c-5.63-5.83-9.526,2.408-15.025,0.484
			c4.498-1.642,8.963-3.393,13.545-4.751c0.447-0.133,1.612,2.16,2.444,3.327C157.871,43.189,157.55,43.502,157.229,43.815z"/>
		<path fill-rule="evenodd" clip-rule="evenodd" d="M165.016,54c2.896-1.316,5.389-4.541,9.589-1.984
			c-3.4,2.345-6.445,4.445-10.408,7.178c0.409-2.146,0.604-3.171,0.801-4.196C165.006,54.665,165.012,54.333,165.016,54z"/>
		<path fill-rule="evenodd" clip-rule="evenodd" d="M37.009,56.994c-2.182-0.544-4.474-0.83-6.516-1.702
			c-2.206-0.941-4.438-2.403-0.483-4.282l-0.028-0.018c3.633,1.641,7.267,3.28,10.836,4.893c-0.967,0.283-2.402,0.703-3.836,1.123
			C36.982,57.008,37.009,56.994,37.009,56.994z"/>
		<path fill-rule="evenodd" clip-rule="evenodd" d="M76.278,165.55c-4.237,2.892-7.697,5.253-11.157,7.614
			c-0.327-0.359-0.655-0.719-0.983-1.078c3.237-2.627,6.419-5.331,9.79-7.772C74.304,164.042,75.76,165.264,76.278,165.55z"/>
		<path fill-rule="evenodd" clip-rule="evenodd" d="M48.193,63.243c-5.023,1.674-10.046,3.347-15.07,5.02
			c-0.184-0.559-0.368-1.117-0.552-1.675c5.05-1.66,10.099-3.319,15.148-4.979C47.877,62.153,48.035,62.698,48.193,63.243z"/>
		<path fill-rule="evenodd" clip-rule="evenodd" d="M150.009,139.014c3.539-5.103,7.613-9.525,14.002-11.002l-0.022-0.021
			c-4.664,3.667-9.329,7.334-13.993,11.001L150.009,139.014z"/>
		<path fill-rule="evenodd" clip-rule="evenodd" d="M46.077,159.077c-0.236,0.605-0.306,1.557-0.735,1.765
			c-4.073,1.976-8.206,3.825-12.614,5.116c3.728-3.604,7.87-6.392,13.192-7.042C45.918,158.914,46.077,159.077,46.077,159.077z"/>
		<path fill-rule="evenodd" clip-rule="evenodd" d="M184.715,124.18c4.345-1.231,7.691-2.18,11.207-3.177
			C193.622,124.968,190.583,126.792,184.715,124.18z"/>
		<path fill-rule="evenodd" clip-rule="evenodd" d="M62.635,159.541c2.584-1.997,5.168-3.995,7.752-5.992
			c0.423,0.551,0.847,1.101,1.27,1.651c-2.593,1.992-5.187,3.984-7.779,5.976C63.463,160.631,63.049,160.086,62.635,159.541z"/>
		<path fill-rule="evenodd" clip-rule="evenodd" d="M179.958,172.034c1.743-0.239,3.487-0.479,5.23-0.717
			c0.088,0.522,0.177,1.045,0.265,1.567c-3.745,0.645-7.49,1.288-11.235,1.933c-0.131-0.456-0.261-0.912-0.391-1.369
			c1.03-0.498,2.062-0.996,3.093-1.493C177.933,171.981,178.945,172.008,179.958,172.034z"/>
		<path fill-rule="evenodd" clip-rule="evenodd" d="M38.989,76.007c0.653,0.308,1.306,0.614,1.959,0.921l0.125,0.146
			c-3.45,1.754-6.9,3.508-10.35,5.261c-0.268-0.532-0.536-1.063-0.803-1.596c3.033-1.583,6.066-3.165,9.1-4.748L38.989,76.007z"/>
		<path fill-rule="evenodd" clip-rule="evenodd" d="M150.297,106.938c2.777-1.55,5.555-3.1,8.332-4.649
			c0.303,0.495,0.606,0.99,0.909,1.485c-2.683,1.621-5.365,3.241-8.049,4.861C151.092,108.07,150.694,107.504,150.297,106.938z"/>
		<path fill-rule="evenodd" clip-rule="evenodd" fill="#FFFFFF" d="M60.014,146.995c-1.692,1.309-3.384,2.617-5.076,3.925
			c-0.917-0.615-1.832-1.229-2.746-1.842C54.546,147.435,56.555,144.493,60.014,146.995z"/>
		<path fill-rule="evenodd" clip-rule="evenodd" d="M198.387,143.314c-2.997,0.839-5.329,1.491-7.661,2.144
			c-0.144-0.482-0.288-0.965-0.433-1.446C192.094,141.602,194.253,140.377,198.387,143.314z"/>
		<path fill-rule="evenodd" clip-rule="evenodd" d="M121.061,60.865c0.008,0.43,0.017,0.859,0.025,1.291
			c-1.108,0.479-2.217,0.957-3.325,1.435c0.184-1.429-0.042-3.133,0.678-4.199c0.59-0.872,2.306-0.983,3.521-1.433
			c-0.001-0.001,0.064,0.074,0.064,0.074C121.703,58.977,121.382,59.921,121.061,60.865z"/>
		<path fill-rule="evenodd" clip-rule="evenodd" d="M181.518,126.646c-2.65,0.336-4.535,0.574-6.723,0.852
			C176.76,123.192,178.493,122.923,181.518,126.646z"/>
		<path fill-rule="evenodd" clip-rule="evenodd" d="M138.116,38.832c-2.699,1.719-5.397,3.438-8.096,5.156
			c-0.289-0.607-0.577-1.215-0.866-1.821C132.142,41.055,135.129,39.943,138.116,38.832z"/>
		<path fill-rule="evenodd" clip-rule="evenodd" d="M34.994,150.976c-0.66-0.328-1.32-0.656-1.979-0.984
			c1.418-5.164,6.626-4.009,9.962-5.976C40.316,146.336,37.655,148.655,34.994,150.976z"/>
		<path fill-rule="evenodd" clip-rule="evenodd" d="M72.022,46.956c-1.882,1.071-3.764,2.143-5.646,3.213
			c-0.298-0.337-0.596-0.674-0.894-1.01c1.489-1.378,2.978-2.755,4.465-4.132c-0.001,0,0.085-0.07,0.085-0.069
			c1.653-0.341,3.307-0.683,4.961-1.023C74.004,44.941,73.013,45.949,72.022,46.956z"/>
		<path fill-rule="evenodd" clip-rule="evenodd" d="M87.802,180.761c2.489-1.801,4.978-3.602,7.466-5.402
			c0.366,0.544,0.732,1.088,1.099,1.632c-2.733,1.403-5.467,2.807-8.201,4.209C88.041,181.054,87.921,180.908,87.802,180.761z"/>
		<path fill-rule="evenodd" clip-rule="evenodd" d="M94,184.009c0.002,0.323,0.004,0.646,0.005,0.971
			c-2.285,1.404-4.57,2.809-6.855,4.212c-0.119-0.13-0.241-0.258-0.368-0.385c0.08-1.268,0.163-2.533,0.246-3.8
			C89.352,184.675,91.676,184.342,94,184.009z"/>
		<path fill-rule="evenodd" clip-rule="evenodd" fill="#FFFFFF" d="M41.99,115.998c-0.322-0.984-0.645-1.969-0.966-2.953
			c1.985-0.688,3.969-1.378,5.954-2.068C45.315,112.65,43.652,114.324,41.99,115.998z"/>
		<path fill-rule="evenodd" clip-rule="evenodd" d="M133.652,78.25c2.284-1.225,4.568-2.449,6.853-3.674
			c0.204,0.341,0.409,0.681,0.613,1.021c-2.216,1.348-4.433,2.695-6.648,4.043C134.197,79.177,133.925,78.714,133.652,78.25z"/>
		<path fill-rule="evenodd" clip-rule="evenodd" d="M82.763,44.819c1.898-1.336,3.797-2.673,5.695-4.009
			c0.323,0.419,0.646,0.837,0.969,1.256c-1.844,1.432-3.688,2.862-5.531,4.294C83.518,45.847,83.141,45.333,82.763,44.819z"/>
		<path fill-rule="evenodd" clip-rule="evenodd" d="M165.996,98.008c3.63-0.087,3.537,1.86,1.916,4.024
			c-0.922,1.231-2.54,1.941-4.998,3.723c1.269-3.504,6.103-4.335,3.097-7.772L165.996,98.008z"/>
		<path fill-rule="evenodd" clip-rule="evenodd" d="M188.213,143.003c-1.4,0.865-2.802,1.729-4.202,2.595
			c-0.353-0.636-0.706-1.271-1.059-1.906c1.491-0.755,2.981-1.51,4.473-2.265C187.688,141.952,187.95,142.478,188.213,143.003z"/>
		<path fill-rule="evenodd" clip-rule="evenodd" d="M151.694,67.127c-1.148,1.993-2.066,3.586-2.984,5.179
			C148.725,70.191,145.914,66.442,151.694,67.127z"/>
		<path fill-rule="evenodd" clip-rule="evenodd" d="M38.993,99.011c2.87-1.518,5.741-3.035,8.611-4.554
			c0.253,0.564,0.505,1.128,0.758,1.691c-3.12,0.949-6.24,1.897-9.36,2.847L38.993,99.011z"/>
		<path fill-rule="evenodd" clip-rule="evenodd" d="M40.949,76.928c2.297-2.798,5.106-3.718,8.689-1.824
			c-2.855,0.655-5.711,1.312-8.566,1.969C41.074,77.073,40.949,76.928,40.949,76.928z"/>
		<path fill-rule="evenodd" clip-rule="evenodd" d="M93.418,46.732c-1.583,0.91-3.165,1.821-4.748,2.731
			c-0.25-0.386-0.501-0.771-0.752-1.157c1.48-1.047,2.962-2.095,4.442-3.142C92.713,45.688,93.065,46.21,93.418,46.732z"/>
		<path fill-rule="evenodd" clip-rule="evenodd" d="M44.975,139.062c-0.344,0.674-0.688,1.348-1.033,2.021
			c-2.305,0.3-4.61,0.599-6.915,0.897C39.677,141.008,42.326,140.035,44.975,139.062z"/>
		<path fill-rule="evenodd" clip-rule="evenodd" d="M72.022,46.956c0.99-1.007,1.981-2.015,2.972-3.021
			c0.333-0.335,0.665-0.67,0.998-1.006C76.671,47.421,75.846,48.259,72.022,46.956z"/>
		<path fill-rule="evenodd" clip-rule="evenodd" d="M40.977,103.966c1.948-1.439,3.897-2.879,5.971-4.411
			c0.397,3.358,0.397,3.358-5.913,4.481C41.036,104.036,40.977,103.966,40.977,103.966z"/>
		<path fill-rule="evenodd" clip-rule="evenodd" d="M44.999,129.999c-2.667,1.333-5.334,2.666-8.001,3.999l0.003,0.004
			c2.667-1.334,5.333-2.668,8-4.001L44.999,129.999z"/>
		<path fill-rule="evenodd" clip-rule="evenodd" d="M48.001,138c-0.335,0-0.671,0-1.006,0c1.543-1.787,3.087-3.575,4.631-5.362
			c0.441,0.335,0.884,0.67,1.325,1.005c-0.322,0.788-0.644,1.577-0.966,2.366l0.028-0.021C50.676,136.659,49.338,137.329,48.001,138
			z"/>
		<path fill-rule="evenodd" clip-rule="evenodd" d="M187.802,170.034c0.168-1.501,0.336-3.002,0.505-4.504
			c0.345,0.012,0.689,0.022,1.034,0.034c0,1.544,0,3.088,0,4.632C188.828,170.143,188.314,170.089,187.802,170.034z"/>
		<path fill-rule="evenodd" clip-rule="evenodd" fill="#FFFFFF" d="M77.997,174.005c1.335-0.002,2.669-0.004,4.004-0.006
			c-1.694,1.607-3.389,3.216-5.083,4.822c-0.305,0.071-0.611,0.125-0.922,0.159C76.663,177.321,77.33,175.663,77.997,174.005z"/>
		<path fill-rule="evenodd" clip-rule="evenodd" d="M140.424,65.856c-1.24,1.029-2.481,2.06-3.722,3.089
			c-0.321-0.386-0.642-0.772-0.963-1.158c1.253-1.037,2.506-2.074,3.76-3.111C139.807,65.069,140.115,65.463,140.424,65.856z"/>
		<path fill-rule="evenodd" clip-rule="evenodd" d="M189.959,181.956c-0.021,1.947,1.705,4.907-3.075,4.698
			c0.837-1.844,1.474-3.244,2.11-4.646C189.315,181.991,189.637,181.974,189.959,181.956z"/>
		<path fill-rule="evenodd" clip-rule="evenodd" d="M51.982,108.026c0.313-0.339,0.627-0.678,0.941-1.017
			c1.025-0.005,2.051-0.01,3.075-0.016c-0.41,0.998-0.82,1.994-1.23,2.991C53.84,109.333,52.911,108.68,51.982,108.026z"/>
		<path fill-rule="evenodd" clip-rule="evenodd" d="M189.959,181.956c-0.322,0.018-0.644,0.035-0.965,0.053
			c-0.907,0-1.814,0-2.721,0c-0.112-0.38-0.224-0.76-0.335-1.14c1.296-0.403,2.592-0.807,3.888-1.209
			C189.87,180.425,189.915,181.19,189.959,181.956z"/>
		<path fill-rule="evenodd" clip-rule="evenodd" fill="#FFFFFF" d="M75.992,42.93c-0.333,0.336-0.665,0.671-0.998,1.006
			c-1.654,0.34-3.308,0.682-4.961,1.022c0.857-3.256,3.213-3.508,5.96-2.978C75.994,42.297,75.994,42.613,75.992,42.93z"/>
		<path fill-rule="evenodd" clip-rule="evenodd" d="M163.831,138.168c-1.384,1.255-2.767,2.51-4.15,3.765
			c-0.351-0.4-0.701-0.801-1.051-1.201c1.473-1.143,2.945-2.285,4.418-3.428C163.31,137.592,163.57,137.88,163.831,138.168z"/>
		<path fill-rule="evenodd" clip-rule="evenodd" d="M161.2,61.441c-0.935,0.665-1.868,1.33-2.802,1.994
			c-0.264-0.315-0.527-0.631-0.791-0.946c0.895-0.773,1.789-1.548,2.684-2.321C160.594,60.593,160.897,61.018,161.2,61.441z"/>
		<path fill-rule="evenodd" clip-rule="evenodd" d="M132.945,59.948c0.024,0.665,0.05,1.329,0.074,1.993
			c-1.369,0.143-2.738,0.286-4.108,0.431c-0.104-0.433-0.207-0.864-0.311-1.297C130.049,60.699,131.497,60.324,132.945,59.948z"/>
		<path fill-rule="evenodd" clip-rule="evenodd" d="M153.03,121.46c1.411-0.594,2.822-1.187,4.234-1.78
			c0.19,0.384,0.38,0.767,0.57,1.15c-1.339,0.754-2.678,1.509-4.017,2.263C153.556,122.549,153.293,122.004,153.03,121.46z"/>
		<path fill-rule="evenodd" clip-rule="evenodd" d="M188.361,172.977c0.897-0.633,1.794-1.265,2.691-1.896
			c0.254,0.309,0.508,0.617,0.763,0.926c-0.853,0.796-1.704,1.592-2.556,2.388C188.96,173.921,188.661,173.448,188.361,172.977z"/>
		<path fill-rule="evenodd" clip-rule="evenodd" d="M82.944,173.034c0.674-0.329,1.347-0.658,2.021-0.987
			c1.021-0.656,2.043-1.312,3.064-1.969c0.258,0.429,0.516,0.858,0.773,1.288c-1.906,0.925-3.813,1.851-5.72,2.777
			C83.037,173.774,82.99,173.404,82.944,173.034z"/>
		<path fill-rule="evenodd" clip-rule="evenodd" d="M164.011,128.012c0.099-1.61,0.198-3.221,0.292-4.74
			c2.621,2.025,2.621,2.025-0.314,4.72L164.011,128.012z"/>
		<path fill-rule="evenodd" clip-rule="evenodd" d="M188.618,138.683c1.062-0.39,2.124-0.78,3.187-1.17
			c0.146,0.387,0.293,0.773,0.439,1.16c-1.051,0.437-2.101,0.873-3.151,1.311C188.935,139.55,188.776,139.116,188.618,138.683z"/>
		<path fill-rule="evenodd" clip-rule="evenodd" fill="#FFFFFF" d="M149.992,80.978c-0.596,0.546-1.191,1.091-1.786,1.637
			c0.303-1.18,0.605-2.358,0.908-3.537C149.407,79.711,149.7,80.345,149.992,80.978z"/>
		<path fill-rule="evenodd" clip-rule="evenodd" d="M125.079,104.076c-1.679,1.587-3.358,3.174-5.037,4.761
			c-0.317-0.4-0.635-0.802-0.952-1.202c1.95-1.238,3.899-2.476,5.85-3.714L125.079,104.076z"/>
		<path fill-rule="evenodd" clip-rule="evenodd" d="M45,130.001c1.459-0.88,2.918-1.76,4.378-2.64
			c0.216,0.459,0.432,0.918,0.648,1.378c-1.676,0.42-3.352,0.84-5.027,1.26L45,130.001z"/>
		<path fill-rule="evenodd" clip-rule="evenodd" fill="#FFFFFF" d="M55.017,137.993c1.397-0.999,2.796-1.998,4.195-2.997
			c0.253-0.001,0.504-0.003,0.754-0.006C58.316,135.991,56.666,136.992,55.017,137.993z"/>
		<path fill-rule="evenodd" clip-rule="evenodd" d="M149.995,138.992c-1.785,2.632-2.791,2.423-3.232-1.405
			c1.37,0.603,2.308,1.015,3.245,1.426C150.009,139.014,149.995,138.992,149.995,138.992z"/>
		<path fill-rule="evenodd" clip-rule="evenodd" d="M121.991,45.988c-0.764,1.146-1.527,2.291-2.291,3.436
			c-0.376-0.375-0.752-0.751-1.129-1.127c1.145-0.764,2.288-1.526,3.433-2.29L121.991,45.988z"/>
		<path fill-rule="evenodd" clip-rule="evenodd" d="M195.747,178.143c0.357,0.824,0.749,1.345,0.746,1.863
			c-0.001,0.306-0.63,0.607-0.976,0.91c-0.333-0.476-0.807-0.918-0.937-1.444C194.521,179.229,195.129,178.819,195.747,178.143z"/>
		<path fill-rule="evenodd" clip-rule="evenodd" d="M127.306,75.26c-0.582,0.711-1.164,1.421-1.745,2.132
			c-0.278-0.226-0.557-0.451-0.835-0.676c0.6-0.699,1.2-1.398,1.8-2.097C126.785,74.832,127.046,75.046,127.306,75.26z"/>
		<path fill-rule="evenodd" clip-rule="evenodd" d="M135.989,90.103c-0.544,0.691-1.088,1.382-1.632,2.073
			c-0.304-0.193-0.606-0.386-0.909-0.578c0.489-0.785,0.979-1.569,1.47-2.354C135.275,89.53,135.632,89.816,135.989,90.103z"/>
		<path fill-rule="evenodd" clip-rule="evenodd" d="M195.713,114.315c0.955-0.289,1.91-0.578,2.865-0.867
			c0.11,0.402,0.222,0.804,0.333,1.206c-0.971,0.234-1.942,0.468-2.913,0.702C195.903,115.01,195.808,114.662,195.713,114.315z"/>
		<path fill-rule="evenodd" clip-rule="evenodd" d="M102.968,181.024c-0.928-0.248-1.856-0.496-3.253-0.868
			c0.858-0.787,1.5-1.375,2.141-1.963c0.394,0.924,0.786,1.849,1.18,2.772C103.035,180.965,102.968,181.024,102.968,181.024z"/>
		<path fill-rule="evenodd" clip-rule="evenodd" d="M122.004,46.007c1.166-0.832,2.332-1.664,3.498-2.496
			c0.204,0.441,0.409,0.883,0.613,1.323c-1.374,0.385-2.749,0.771-4.123,1.155C121.991,45.988,122.004,46.007,122.004,46.007z"/>
		<path fill-rule="evenodd" clip-rule="evenodd" d="M179.958,172.034c-1.013-0.026-2.025-0.053-3.038-0.079
			c0.993-0.593,1.988-1.186,2.982-1.778C179.921,170.796,179.939,171.415,179.958,172.034z"/>
		<path fill-rule="evenodd" clip-rule="evenodd" d="M81.576,50.222c0.871-0.588,1.743-1.176,2.615-1.764
			c0.225,0.253,0.449,0.507,0.674,0.76c-0.849,0.687-1.697,1.372-2.545,2.059C82.072,50.925,81.824,50.573,81.576,50.222z"/>
		<path fill-rule="evenodd" clip-rule="evenodd" d="M46.931,194.075c-1.224,0.076-2.447,0.151-3.67,0.228
			c0.038-0.492,0.076-0.984,0.113-1.477c1.222,0.372,2.443,0.744,3.666,1.115C47.041,193.94,46.931,194.075,46.931,194.075z"/>
		<path fill-rule="evenodd" clip-rule="evenodd" d="M124.939,103.921c0.771-1.132,1.542-2.265,2.312-3.397
			c0.337,0.317,0.674,0.635,1.011,0.952c-1.062,0.866-2.124,1.732-3.185,2.6C125.079,104.076,124.939,103.921,124.939,103.921z"/>
		<path fill-rule="evenodd" clip-rule="evenodd" d="M108.985,185.979c1.368-0.854,2.735-1.707,4.103-2.561
			c0.208,0.431,0.416,0.86,0.625,1.291c-1.563,0.438-3.126,0.875-4.689,1.312C109.024,186.022,108.985,185.979,108.985,185.979z"/>
		<path fill-rule="evenodd" clip-rule="evenodd" d="M152.797,80.871c0.239-0.748,0.479-1.496,0.718-2.244
			c0.522,0.254,1.045,0.508,1.566,0.762c-0.646,0.584-1.29,1.169-1.935,1.755C153.148,81.146,152.797,80.871,152.797,80.871z"/>
		<path fill-rule="evenodd" clip-rule="evenodd" d="M86.007,184.136c-1.006,0.29-2.011,0.58-3.017,0.871
			c1.003-1.339,2.005-2.678,3.008-4.017c0.603-0.075,1.204-0.15,1.805-0.228c0.118,0.146,0.238,0.291,0.362,0.437
			C87.446,182.179,86.727,183.157,86.007,184.136z"/>
		<path fill-rule="evenodd" clip-rule="evenodd" d="M78.519,50.707c-0.487-0.717-0.926-1.078-0.883-1.37
			c0.058-0.398,0.412-0.887,0.773-1.06c0.21-0.102,1.003,0.418,0.978,0.521C79.256,49.338,78.944,49.833,78.519,50.707z"/>
		<path fill-rule="evenodd" clip-rule="evenodd" d="M166.011,97.982c-0.602,0.852-1.204,1.703-1.807,2.556
			c-0.327-0.321-0.653-0.643-0.98-0.964c0.924-0.521,1.849-1.044,2.772-1.566L166.011,97.982z"/>
		<path fill-rule="evenodd" clip-rule="evenodd" fill="#FFFFFF" d="M55.999,106.994c-1.024,0.006-2.05,0.011-3.075,0.016
			c0.024-0.337,0.05-0.673,0.075-1.01c0.663-0.002,1.326-0.003,1.989-0.004c0.343,0.339,0.685,0.679,1.026,1.019
			C56.015,107.015,55.999,106.995,55.999,106.994z"/>
		<path fill-rule="evenodd" clip-rule="evenodd" fill="#FFFFFF" d="M165.016,54c-0.004,0.333-0.01,0.665-0.019,0.997
			C165.003,54.665,165.01,54.333,165.016,54z"/>
		<path fill-rule="evenodd" clip-rule="evenodd" d="M56.015,107.015c-0.342-0.34-0.684-0.68-1.026-1.019
			C55.33,106.335,55.673,106.675,56.015,107.015z"/>
		<path fill-rule="evenodd" clip-rule="evenodd" d="M34.846,176.879c0.385-0.295,0.769-0.59,1.154-0.885
			C35.615,176.289,35.231,176.584,34.846,176.879z"/>
		<path fill-rule="evenodd" clip-rule="evenodd" d="M91.008,189.949c0.082,0.428,0.163,0.855,0.246,1.283
			c-0.747,0.924-1.494,1.847-2.242,2.77c-1.666,0.99-3.333,1.98-4.999,2.971c0.328-0.993,0.656-1.987,0.984-2.98
			C87.001,192.645,89.004,191.297,91.008,189.949z"/>
		<path fill-rule="evenodd" clip-rule="evenodd" fill="#FFFFFF" d="M91.008,189.949c-2.004,1.348-4.007,2.695-6.011,4.043
			c0.001-0.668,0.002-1.336,0.003-2.004c0.716-0.934,1.431-1.866,2.147-2.798c2.287-1.402,4.572-2.807,6.857-4.211
			C93.006,186.636,92.007,188.293,91.008,189.949z"/>
		<path fill-rule="evenodd" clip-rule="evenodd" fill="#FFFFFF" d="M121.061,60.865c0.321-0.944,0.643-1.889,0.964-2.832
			c0.766-0.147,1.531-0.296,2.297-0.444c0.169,0.213,0.338,0.426,0.507,0.639C123.572,59.107,122.316,59.986,121.061,60.865z"/>
		<path fill-rule="evenodd" clip-rule="evenodd" fill="#FFFFFF" d="M48.986,143.01c2-1.664,4.001-3.329,6.001-4.993
			C52.986,139.681,50.986,141.346,48.986,143.01z"/>
		<path fill-rule="evenodd" clip-rule="evenodd" fill="#FFFFFF" d="M99.141,187.343c-0.581,0.304-1.158,0.617-1.757,0.882
			c-0.023,0.011-0.251-0.44-0.383-0.677c0.585-0.31,1.17-0.619,1.755-0.929C98.884,186.86,99.013,187.102,99.141,187.343z"/>
		<path fill-rule="evenodd" clip-rule="evenodd" fill="#FFFFFF" d="M48.001,138c1.337-0.671,2.675-1.341,4.013-2.012
			C50.676,136.659,49.338,137.329,48.001,138z"/>
	</g>
</g>
</svg>
