<svg xmlns="http://www.w3.org/2000/svg" width="100" height="100" viewBox="0 0 100 100"><path d="M95.5 28c3 2.6 3 6 2 9-.5 2-.2 3.7.4 5.6 2 6.5 2.7 13 0 19.7-.4 1-.4 2-.8 3l-2 4.5.8 4.4c.4 2.3.7 4.6 1.3 6.8 1 3.8 2.4 7.4 1.3 11.4-.7 2.4-1.8 3-4.2 2.4-.5 0-1-.2-1.5-.5C87.6 92 82.5 92 77 94c-4.4 1.5-9 2.6-13.6 3.6-1.6.4-3.4 0-5.2 0-9 0-18-1.4-26.7-4-2.2-.5-4.3-.7-6.6.3-1.2.5-3-.3-4.7-.3H17c-3.4.2-6.7.7-10 .7-2 0-3.5-2.3-2.7-4.2 1-2.4 2.4-4.6 3.7-7 1.2-2 1.8-4 .8-6.5-1-3-1.4-6.5-2-9.7-.4-1-1.2-2-1.7-3v-.7c-.4-3.8-1-7.6-1-11.3.3-6 .8-12 1.5-18 .3-2.5 1.3-4.8 2-7.2v-1.2c-2-1.6-1-3.6-1.2-5.6 0-1.5-1-3-1.6-4.5-.5-1-1.8-1.6-2.2-2.6-.6-1.8-1.2-3.7-1-5.3.3-.7 2.6-1.5 4-1.5 2.3.2 4.8.5 7 1.4 4.3 2 8.6 1.8 13 .5C33.7 5.5 42 3 50.8 3.4c9 .3 18 1.5 26.3 5l4.5 1.2c3.8 1.3 7 0 9.8-2.5.8-.8 2-1 3.2-1.6.5 1 1.3 2.2 1.3 3.3 0 1.8 0 3.8-1 5-2 3.2-1.2 5.8.4 8.6 1 1.8 1.7 3.6.3 5.6zm-44 66L50 95v.4l2-1c.6-.4 1-1 1.7-1.3-.2 0-.3-.2-.4-.3L51.6 94zm-16-4.6V91c-1 0-1.7.3-2.6.5l.3 1 2.2-1.6c.5 0 1 .2 1.5.4 0 .4.3.7.4 1L40 91c1.8-1.3 3.7-2.4 5.5-3.6l4-1.5-1.4 1.4-2.4 2-5 3c.3 0 .4.4.6.6 2 0 3.7-1.3 4.8-3l2.6-2 6.4-3c-.5 1-1.2 1.8-2 2.4-1.3 1-2.6 1.7-4 2.5-1.3.3-2.5.8-2.6 3 1.3-1 2.2-1.5 3.2-2 3-2 5.8-3.7 8.8-5.5 0 .2.3.4.4.6-1.8 1.4-3.7 2.6-5.5 3.8 0 .3.3.5.4.8l2.7-1 .2 1.4 8.7-2.7c0 1 .2 1.8.3 2.5l5.4-.6-1.3 1.7-5 3.3.7.6 4.3-4 4.6-3c.2 0 .3.3.5.5L70.2 94c5.8-1.3 11-2.4 15-6.6l.3.6-1.4 2.2 9.4 2.6c2.7.7 3.3.3 4-2.5.8-3.6-.8-6.7-2-10-.7-1.7-1.7-3.7-1.4-5.4.2-2.2.6-3.8-1-4.5 1.2-2.8 2.3-5.3 3.2-8 .4-1.2 0-2.8.7-4 2.2-4.3 1-8.5.2-12.8-.8-3.2-2.3-6.2-1.2-10 1-3.4-.3-4.6-3.2-5-.2 0-.3-.2-.5-.5l1-2c1.3-2.4 1.8-4.3-.3-6.7-1-1-1-3.7-.6-5.5.4-2.8 1.3-5.5 2-8.2l-.8-.4-2 1.4c-2 2-4.4 3.3-7.4 2.6-1.7-.3-3.5-.5-5-1-4.4-1.3-8.5-3-12.8-4-13-2.7-25.8-2-38.3 2.7-4.5 2-9.2 3-14.2 1C12 9 10 8.7 8.2 8.2 6.7 7 5.2 7 3 8.8l4.7 1L8 12h4.7l-2 2 6 2c-2.3.6-4.6 1.2-7 2C8.5 17 8 17.7 8 19c-.4 2.5 0 4.4 1.6 6.4 1.3 1.6 2.2 2 4 1.4L19 25c0 2.6-1.2 4-3.2 4.5-.6.2-1 .6-1.5 1l-5.5 1c0-.5 0-.8-.2-1 3-1 6-2 9-2.8l-.4-1c-2.3.6-4.7 1.5-7 1.8-2 .2-2.4 1-2.4 2.7l-.3 6.3-1.3-2-.5 7.6v.5l-.2 2.7c1.4-1.2 2.3-2 3.3-2.6l2-1V42l6-4-.6-1-8.4 4c-.3-.4-1-1-1-1.2 1.4-1.4 2.6-3 4.2-4 2-1.4 4.4-2.4 6.6-3.5l.4.2-2.7 3-2.8 1.4c0 .2.3.4.4.6l2.7-1.6 2.7-.7c-1.5 3.5-1.5 3.5-4 5.6v1h-2l1 2.6c-3-.6-5.2 1-7.2 3-.3.4-.8 1-.8 1.4.2 3.2.5 6.4 1 10 1.8-1 3-1.5 4.5-2l4-1.6c0 .2 0 .4.2.5L7 60c0 .4 0 .8.2 1.2 1-.2 2-.3 2.8-.6l3.3-1c-1.2 1-2.4 1.8-3.7 2.4-2 .8-1.8 1.8-.8 3.3l4.5-1.6-2.3 1.8c-.8.8-1.7 1.7.3 2.2l-1.6 2c.3 1.6.7 3 .7 4.6 0 1.8 0 3.3 1.6 4.4.2 0 0 .8-.2 1.2-.6 1-1.2 2.4-2 3.6 0 .5-.3 1-.5 1.3l-1.6 3-1.4 1.8c1.6 0 2.5 0 4-.3-.8-.6-1.2-1-1.5-1 1.3-1 3-1.4 4-2.4 4-3 7.7-6.4 11.4-10 1.6-1.4 3.5-2.2 5-1L15.5 85.7c0 .2.2.4.3.5l7.4-4.3.3.6C18.5 87 12 89 6 92.6c4.8 1 9 2 12.3-2.7.4-.2 1-.2 1-.4.3-.5.4-1 .6-1.6.8.6 2.6 0 2.8 1.8v.6l-3.6 1.2c4 1 6.4 0 8.2-3.2L30 87c1.4-1.5 3-2.8 4.4-4l1-1.2 3.2-1.4-.6 2-3.6 2.4c-1 1-2.3 1.7-3.4 2.6-1 1.2-3 1.5-3 3.2.5.4 1 .7 1.2 1 .8-1 1.5-2 2.2-3.2l3-3h2V88l-1 1.4zM63.2 95c1.3-1 2.6-1.6 4-2.4l-.6-.7-3.4 2.5-3 1 .3.7c1-.4 1.8-1 2.7-1.3zM9.8 15.7h2v-.5h-2c-1.6 0-2-3.2-4.4-1.4 1 1.3 2 2.8 4.4 1.8zm-6-4.8v1c1 0 1.8-.3 2.6-.4 0-.4 0-.7-.2-1-.8 0-1.7.3-2.5.4zm47.6 81.3l-.5-.8c-.8.5-1.4 1-2 1.6 0 .3.2.5.3.6l2-1.3zm6 1.5s0 .3.2.5l2.2-1.4c0-.2-.2-.4-.3-.5l-2.2 1.3z"/><path fill="#FFF" d="M8.3 8.3c1.8.5 3.8.8 5.5 1.6 5 2 9.7 1 14.3-1 12.6-4.7 25.4-5.3 38.4-2.5 4.3 1 8.4 2.6 12.7 4l5.2 1c3 .6 5.3-.8 7.5-2.7.6-.5 1.2-1 2-1.4l.7.4c-.7 2.7-1.6 5.4-2 8.2-.3 1.8-.4 4.4.6 5.5 2 2.4 1.6 4.3.4 6.6-.4.8-.8 1.5-1 2.2 0 .3.2.5.4.5 3 .4 4.3 1.6 3.2 5-1 3.8.4 6.8 1.2 10 1 4.3 2 8.5-.3 12.8-.7 1.2-.4 2.8-.8 4l-3 8c1.4.7 1 2.3.8 4.4-.3 1.6.7 3.6 1.4 5.4 1.2 3.2 2.8 6.3 2 10-.7 2.7-1.3 3-4 2.4-3-1-6-1.7-9.3-2.6l1.5-2.2c0-.2-.3-.4-.4-.6-4 4.2-9 5.3-14.8 6.5l4.6-4.5-.5-.6-4.6 3L71 90l-5.3.6-.4-2.5-8.7 2.7c0-.4 0-1-.2-1.3l-2.7 1c0-.4-.3-.6-.4-1 1.8-1 3.7-2.3 5.5-3.6l-.4-.5-8.8 5.4-.6-1 4-2.6c.8-.6 1.5-1.3 2-2.5l-6.4 3-.5-.6 1.6-1.5L52 85l-.4-.6-2 1.3-4 1.4 1.8-2c1.3-1.3.8-2-.8-2l-.6-1.5c-.3.2-.7.5-1 1 .6 0 1 .2 1.5.4L42 85c-1.2 0-2.3.2-3.5.4L38 85l1-1.5 4.2-2.2-.5-.8-3.8 2.7h-1v-1c0-.4.3-1 .6-1.8l-3 1.4 1-2 2.8-1.3c0-.2-.3-.4-.4-.6l-1.5.8.7-2c-2.6-.8-4.3 0-5.7 2l1.5 1-1 2.5-3.6 3.5-4 2.6h-1l-1.6 1.4c-.2-2-2-1.2-3-1.8 0 .5-.2 1-.5 1.6 0 .2-.6.2-1 .3l-1.8-.7v.8h1.8C15 94.4 10.8 93.4 6 92.4c6-3.5 12.5-5.6 17.5-10l-.3-.5-7.4 4.3-.3-.5 13.7-11c-1.5-1-3.4-.2-5 1.3-3.7 3.6-7.5 7-11.4 10-1 1-2.7 1.6-4 2.4l-1-.5 1.5-3L21 76.2s0-.2-.2-.3l-6 .5 2.6 1.3c-1.8 1-3.2 2-4.6 3l-1-1c0-.3.4-1 .2-1-1.7-1.2-1.6-2.7-1.6-4.5 0-1.5-.4-3-.6-4.6l2.5-1.5c1.3-1 2.7-2.3 4-3.5l3-.5-5.2 3.6c.3.2.5.4.6.7l7.6-4.6.4.4-4.8 4.3.3.4c1-.5 2-1 3-1.7.4.3 1 .6 1.3 1l-4.5 4C15 72.5 13 74 11 75.7c2.4-.7 4.4-1.6 6.5-2.6.2 0 .3-.6.4-1 .6 0 1.4-.4 2.3-.7 0 .7 0 1.3-.3 2.3 4.4-1.5 5.4-5.6 7.8-8.5l-3 1c.3-.7.8-1.3.8-2 0-1.4.7-3-.7-4h-.5c-1.2 0-2.4.2-3.7.4l.5-1.2-.6-.5-2.4 2.7-1 .5-4 1.5-4.5 1.6c-1-1.5-1-2.5.8-3.3 1.3-.6 2.5-1.5 3.7-2.3l4-2L20 57l-.5-.7-2.2 1.4-4 2-3.3 1-2.8.5c0-.4-.2-.8-.3-1 2.7-1.5 5.4-3 8.2-4.3 0-.2 0-.4-.2-.6L11 57c-1.5.4-2.8 1-4.7 2l-1-10c0-.5.6-1 1-1.4v.5L5.7 50l6.4-3.3 3-2c3.3-.5 3.3-.5 3-2.2l-3 2.2h-2c0-.7-.4-1.5-.7-2.5h1.8c1.6-.4 3-1 4.7-1.4 0-.3-.2-.6-.4-.8L14.3 42c0-.3 0-1 .2-1 2.4-2.2 2.4-2.2 4-5.8l-2.8.8c0-.2-.2-.4-.4-.5l2.7-3c-.2 0-.3 0-.4-.2-2.2 1-4.5 2-6.6 3.4-1.6 1-2.8 2.7-4 4-.2.2.5 1 .8 1.4 0 .2.3.4.5.5L5.7 43l.5-7.4 1.3 2c0-2.6.2-4.5.3-6.4 0-1.6.4-2.5 2.3-2.7 2.5-.3 5-1.2 7.2-1.8 0 .4.2.7.3 1l-9 2.7.3 1 5.5-1-4.6 2.4.4.8c2-.8 3.6-1.7 5.3-2.6l4.4-1c-1.8-1-3.3-.5-4.4 1l-1-.5c.5-.4 1-.8 1.5-1 2-.6 3-2 3.2-4.4L13.6 27c-1.8.6-2.7.2-4-1.4-1.6-2-2-4-1.8-6.3.2-1.2.6-1.8 2-1-2 .8-1 1.5.2 2 1 .5 2.2.6 3.3 1-1.2.3-2.3.8-3.6 1.3 3.4 3.5 6.2.2 9.3-.5-.7-.7-1.5-1-2.3-1h-3.4c.7 0 1.4-.3 2-.5L9.7 18c2.3-.8 4.5-1.4 6.8-2l-6-2 2-2H8.2c0-.7 0-1.5-.3-2.2l.5-1.5zM23 46c-.3 0-.5-.3-.6-.4h-1c-.4-.4-1-1.2-1-1-2 .5-3.8 1.2-5.5 2-1.6.8-3 1.8-4.4 2.6l-3.2 2c0 .2.2.4.4.6 2-1 4.3-1.8 6.5-2.7.4 2-1.2 2-2.3 2.4l-4.6 2 .4.8 8-3.6c1-.8 1.7-1.7 2.5-2.5 1-.4 1.7-1 2.5-1.4l1.5 1L23 46zm33-30.7l-1.6 1.2.6.6 1-1.7 2.2-.5c0-.3-.2-.5-.3-.7-.7.5-1.3 1-2 1.3zm1.6 29.2l-3 2c.2 0 .4.3.5.5l2.7-2.4c.5-.4 1-1 1.6-1.3l-.5-.5-1.2 1.7zm32.8 39.3v-1c-.8 0-1.4.3-2 .5v.6H90L88.7 86c2.4 0 1.5-1.4 1.6-2.4zM33 13.8v-.5l3.4-2c-.4-2-1.5-2.4-3-1.3-1.3.7-2.3 1.7-3.3 2.6-.6.7-1.8 1.4 0 2.2-1 .7-1.6 1.4-2.4 2l.5.6 3-1.6c2 .7 2.3.3 2-2zm45.3 27.7l-1.4.8c0 .2.2.4.4.5l1-1.3c1.4 1.8-1 2.2-1.7 4 1.3-1 2-1.3 2.5-2 1-1 1-2-1-2zm5.5 37.3l-1.6.7.2.7 5.7-1v-.7c-1 0-1.8.2-2.7.3v-1l-1.5 1zm-6.5-22c-3.2.6-5.3 2.8-7 5.4l-1.7-.7c.2 2 .7 2 1.6.7l7-5.6c1.6-1.3 1.6-1.3.2-2.3v2.4zm.5-37.4v.5l-.4 2 5.2-3.6c-2-1.3-3.3.3-4.8 1zm-13.6-7.7c-1.5.6-3 1-4.5 1.7l.5 1 8.6-3.2c0-.3-.2-.7-.4-1l-4.2 1.5zM71.6 33h-1.4c0-.4-.3-.7-.4-1 .2-.4.4-1 1-1.8-5.8 4.6-5.5 3.8-2 7l3-4.2 1-.8-.8-.4c0 .4-.2.7-.4 1zM56 21.3c-.5.2-1.4.2-1.7.7-.3.6-.2 1.5-.3 2.2l1.7-.7c1.5-1 3-1.8 4.5-2.6.5-.3 1.2-.3 1.8-.4 0 .6-.3 1.2-.4 1.8l-2.2.5.2.6 2-.2 4.6-4-3.3 1-.4-.7L65 18c-.2 0-.2-.2-.3-.4L61.2 19l2.3-2.2c-3.6 1-7 2-10.3 3.2-.7.3-1 1.3-1.7 2 .3 0 .5.3.7.5l3-1.8 1 .7zM92 67c0-.3-.2-.6-.3-.8-1 .4-2.6 1-2.6 1.3 0 2-1.3 2-2.5 2.5L82 72.3l.6 1c3-2.2 7.4-2.5 9.5-6.3zM19.4 51.7l-.5-1-10.6 4.6.5 1 10.6-4.6zM48.5 46c3.5.7 6-.7 7.6-3.3 0-.2 0-.4-.2-.7l-7.3 4zm42 40.7l-1 1.5c.7.3 1.6 1 2 .8 1.5-.6 2.8-1.5 4-2.3l-.3-1-4.7 1zM74 14.2l.4-.4c-.5-.6-1-1.8-1.3-1.7l-6.7 2.5c2.8 1 4.7-3.2 7.6-.3zM33 75.6l-1-.7c-1.8 1.2-3.4 2.5-5 4l.5.4 5.6-3.8zM19 24l-.3-.8-7.6 2.5c.2.3.3.6.3 1L19 24zm68.7 30.7c3 1.3 4.5.4 5.7-1.6l-5.7 1.7zM26.2 72.5l.6 1 4-3-.7-1-3.8 3zM70.4 46l.6 1c1.3-1 2.7-1.7 4-2.6l-.4-.7-4.2 2.3zm24.2 18.4c-2-1.5-3.2-1-4 .3v.7l4-1zM86 56c-1.4-2-2.3-1.8-3.3.4 1 0 2-.3 3.4-.4zM62 31.6l.4.7 3.4-2-.4-.6-3.4 2zm-25.6-17c0 .4.3.7.5 1l2.7-2.2-.5-.7-2.8 2zm53 49.6c0-.3-.2-.5-.3-.8L87 64.6l.6 1 2-1.4zM71.2 26c-2.8-.4-1.4 1.5-1.4 2.6L71 26zM41.8 15.7l-.5-.8c-.8.4-1.5 1-2.3 1.5l.3.6 2.4-1.3zm47.6 62c.2.2.5.2.7.2v-2.4h-.5c0 .7 0 1.5-.2 2.2zm-24-52.4c0-.2-.2-.4-.4-.6l-2 1.6.5.6 2-1.7zm12 36.5l-.5-.5-2.2 1.8.5.7 2.2-2zM75.8 23c-.3 0-.4-.3-.6-.5l-1.3 1 .5.6c.4-.2 1-.5 1.4-1zm-4.2 30.4l.3.8 2.2-1.2c0-.2-.2-.3-.3-.5l-2.2 1zm17.8 26l.4.6 1.3-1.2-.4-.4-1.4 1zm0-17.4l.3.7 1.5-.7c0-.2 0-.4-.2-.6l-1.6.6zm3.7 20l-.6.6c0 .2.3.5.5.7l.4-.4c0-.4 0-.7-.3-1zM58.8 30s-.3 0-.4-.2l-1 1c.2 0 .4.2.5.4.2-.4.5-.8.8-1zm4.4 7.6l-.6-.5-.7 1.3.3.3 1-1zm30 12.2l.2.5c.5 0 1-.3 1.5-.4l-.3-.7-1.4.5zM36 17.5l.3.5c.6-.3 1-.7 1.4-1 0-.2-.2-.3-.3-.4l-1.2 1zm-1.6.2l.5-1s-.4-.3-.5-.2c-.2 0-.4.3-.4.5l.4.7z"/><path d="M12.8 80.8c1.4-1 2.8-2 4.6-3l-2.7-1.3 6-.5c.2 0 .3.2.4.3-3.8 3-7.8 5.7-11.7 8.6l.6-1.3 2.2-2.4.6-.5z"/><path fill="#FFF" d="M8.3 41.5c-.2 0-.4-.3-.5-.4l8.4-4 .6 1-6 4-2.5-.5zM24.4 88.4h3c-1.8 3.3-4.2 4.2-8.2 3.2l3.7-1.2c1 0 2-.6 1.4-2zM11.3 67.7c-2-.5-1-1.4-.3-2.2l2.3-1.8 3.5-.5-.5 1.5c-1.7 1-4.3.4-5 3zM6.2 48v-.4c2-2 4-3.6 7-3-2.3 1-4.6 2.3-7 3.5zM8.3 8.3l-.6 1.5-4.7-1C5.2 7 6.7 7 8.3 8.3zM46 90c-1 1.7-2.7 3-4.8 3l-.5-.7c1.6-1 3.3-2 5-2.8l.3.4zM9.8 15.8c-2.3 1-3.3-.5-4.4-2 2.3-1.7 2.8 1.5 4.4 1.5v.5zM45.5 87.4L40 91l-.5-1c.4-.6.8-1 1-1.5l5-1z"/><path d="M29.4 85.8c1.2-1 2.4-2.3 3.5-3.5h.4l1 .6c-1.5 1.2-3 2.5-4.5 4l-.6-1.2z"/><path fill="#FFF" d="M38 82.3v1l-1.5 2h-2V85l3.5-2.5z"/><path d="M29.4 85.8l.5 1-2.6 1.6h-2c1.3-1 2.6-1.7 4-2.6z"/><path fill="#FFF" d="M34.4 84.8v.6l-3 3c0-.3-.3-.7-.4-1 1-1 2.3-1.7 3.4-2.6z"/><path fill="#FFF" d="M31 87.4c0 .3.3.7.4 1l-2.2 3.2-1-1c0-1.7 2-2 2.8-3.2zM49 90l.6 1c-1 .5-2 1-3.2 2 0-2.2 1.3-2.7 2.6-3zM39.5 90l.5 1c-1 .4-1.7 1-2.6 1.4 0-.3-.3-.6-.4-1l2.5-1.5z"/><path d="M8.3 41.5l2.4.4v.7l-2 1c-1-.2-2-.2-3-.2V43c1-.4 1.7-1 2.6-1.5z"/><path fill="#FFF" d="M7.7 88c.4 0 .7.2 1 .4l1.7 1c-1.6.3-2.5.3-4 .4l1.3-2zM12.2 81.3L10 83.7c.5-1.3 1.2-2.6 1.8-3.8l1 .8-.6.5zM3.7 11c.8 0 1.7-.3 2.5-.4 0 .3 0 .6.2 1-.8 0-1.6.3-2.5.5l-.3-1zM5.7 43.5h3l-3.2 2.7c0-1.4.2-2 .2-2.7zM38 85c.2 0 .3.2.5.4v2c-.8 0-1.4.3-2 .5v-2.6L38 85zM69.7 92c-1.4 1.2-3 2.6-4.3 4l-.6-.7c1.7-1 3.3-2.3 5-3.4zM63.2 94.5c1-1 2.3-1.7 3.4-2.6.2 0 .3.3.5.6L63.3 95v-.5zM46 90c0-.3-.3-.4-.4-.5l2.5-2c.3 0 .4.2.6.4-1 .6-1.7 1.2-2.6 2z"/><path d="M34.4 82.8c-.3 0-.7-.3-1-.5l2.6-2.5.4-.5v.6l-1 1.8-1 1z"/><path fill="#FFF" d="M51.4 92.3l-2 1.3c-.2 0-.4-.3-.5-.5l2-1.5c0 .3.2.5.4.8zM12.3 68.2l-2.6 1.5 1.6-2 1 .5zM35.5 91v-1.6l2-.5v1l-.5 1.4-1.5-.5zM63.2 94.5v.4c-1 .3-1.8.8-2.7 1.2 0-.3-.2-.5-.3-.7l3-1zM15.3 35.5c.2 0 .3.3.4.5-1 .5-2 1-2.8 1.6l-.5-.7 2.8-1.5zM35.5 91l-2.2 1.4c0-.3-.2-.6-.4-1 .8 0 1.6-.3 2.5-.5z"/><path d="M37.5 89c-.7 0-1.4.2-2 .4l1-1.5 2-.7v.2l-1 1.4z"/><path fill="#FFF" d="M57.3 93.8l2.2-1.3.3.4-2.2 1.3c0-.2-.2-.4-.3-.5zM51.6 94c.6-.5 1-1 1.7-1.3l.4.4c-.6.5-1 1-1.7 1.4 0-.2-.3-.3-.4-.4z"/><path d="M24.4 88.4c.5 1.4-.3 2-1.5 2l-.2-.6 1.6-1.4z"/><path fill="#FFF" d="M9.8 15.8v-.5h2v.5h-2zM8.8 43.6l2-1-2 1zM51.6 94l.4.4-2 1V95l1.6-1z"/><path d="M61.6 22.4c0-.6.3-1.2.4-1.8-.6 0-1.3 0-1.8.3-1.6.7-3 1.6-4.5 2.5v-.7c.6-.4 1.2-1 1.8-1.3 0 0 0-.2-.2-.3-.4 0-.8 0-1.2.2-.2-.3-.7-.8-1-.7-1 .5-1.8 1.2-2.8 1.8l-.7-.6c.6-.7 1-1.7 1.7-2 3.3-1.3 6.7-2.3 10.3-3.2l-2.3 2c1.5-.5 2.5-1 3.5-1.2 0 .2 0 .3.2.5l-2.4 1.7.3.7 3.2-1-4.5 4v-1zM25 60.2c1.3 1.2.6 2.7.6 4.2 0 .6-.5 1.2-.7 1.8-2-1.2-3 .2-4 1l-3 2c0-.2 0-.4-.2-.5l4.8-4.3-.4-.5-7.6 4.5c0-.2-.3-.5-.5-.7 2-1.2 3.6-2.4 5.3-3.6l3-2.5 2.6-1.5zM25 66.2l2.8-1c-2.4 3-3.4 7-7.8 8.6l.3-2.3-2.4.8h-.2l4.5-4 2.6-2zM20.8 46.6L18.3 48c-1 .4-2 .8-3 1h-1L7.8 52l-.4-.6 3.2-2c1.4-.8 2.8-1.8 4.3-2.5 1.6-1 3.5-1.6 5.3-2.2.2 0 .7.7 1 1v.6c0 .2-.3.4-.5.6zM13.3 21l3.4-.2c.8 0 1.6.3 2.3 1-3 .7-6 4-9.3.5l3.6-1.4zM45.5 87.4l-5 1V88l1.5-2.6V85l4.5-1.6c1.7 0 2.2.7 1 2l-2 2zm-1-1v-.2c-.4 0-.7.3-1 .5l.2.3c.3 0 .6-.3 1-.5zM92 67c-2 3.8-6.3 4-9.4 6.2l-.5-1 4.5-2.2c1.3-.5 2.6-.5 2.6-2.5 0-.4 1.8-1 2.7-1.3l.4.8zM70.2 33H71.8l-3 4.3c-3.5-3.3-3.8-2.5 2-7-.6.8-.8 1.3-1 1.7l-.5 1.8 1-.8zM30 14.8c-1.8-.8-.6-1.5 0-2.2 1-1 2-2 3.3-2.6 1.6-1 2.7-.6 3 1.2l-3.4 2c-1.4-.2-2.6 0-3 1.6zM19.3 51.7L8.7 56.3l-.5-1 10.6-4.5.5 1zM48.5 46c2.4-1.3 5-2.6 7.3-4 0 .3.2.5.3.7-1.6 2.6-4 4-7.5 3.3zM36.4 79.3c0 .2-.3.4-.4.5h-2l-1.5-1c1.4-2 3-2.8 5.7-2l-.7 2-1 .5z"/><path d="M16.3 64.7l.5-1.5.5-1 1-.5h.5l2-1 3.7-.5-2 1.5-3.2 2.5-3 .5zM90.5 86.7l4.7-1c0 .3.3.7.4 1-1.3.8-2.6 1.7-4 2.3-.5.2-1.4-.5-2.2-.8l1-1.5zM6.2 48c2.4-1 4.7-2.3 7-3.4h2l-3 2-6.4 3.2.4-1.7zM14.3 49h1l.5 1.6-8 3.6c0-.3-.2-.5-.4-.8l4.6-2c1-.5 2.7-.4 2.3-2.3zM64.2 11.7l4.2-1.5.4 1-8.6 3 4-2.5zM74 14.2c-3-3-5 1.3-7.7.3 2.3-.8 4.5-1.7 6.8-2.4.3 0 1 1.2 1.4 1.8-.2 0-.4.3-.5.4zM77.8 19.4c1.4-.7 2.7-2.3 4.8-1L77.4 22l.4-2v-.6zM13.3 21c-1-.4-2.3-.5-3.3-1s-2.2-1.2-.2-2l5.4 2.3-2 .6zM33 75.6l-5.5 3.8-.5-.5c1.6-1.5 3.2-2.8 5-4 0-.2.8.4 1 .6zM19 24c-2.6 1-5 1.7-7.7 2.6 0-.3 0-.6-.2-1 2.6-.7 5.2-1.6 7.7-2.4l.2.8zM70.2 62.2c1.8-2.6 4-4.8 7-5.5l-7 5.5zM18 72.3l-.5 1c-2 1-4 1.8-6.4 2.5 2-1.8 4-3.2 6.8-3.6zM87.7 54.7c2.2-.6 4-1 5.7-1.6-1.2 2-2.7 3-5.7 1.7zM26.2 72.5l4-3c0 .3.3.6.6 1l-4 3-.6-1zM85.3 78.8c1 0 1.8-.2 2.7-.3v.8l-5.6 1c0-.3 0-.5-.2-.8l1.6-.7h1.5zM14.3 30.5c.3 0 .7.3 1 .4-1.7 1-3.4 1.8-5.2 2.6 0-.2 0-.5-.3-.8l4.6-2.3zM70.4 46l4.2-2.3.4.7c-1.3 1-2.7 1.7-4 2.5l-.6-1z"/><path fill="#FFF" d="M25 66.2l-2.7 2c-.4-.3-1-.6-1.3-1 1-.8 2-2.2 4-1z"/><path d="M94.6 64.4l-4 1v-.7c.8-1.2 2-1.8 4-.3zM55.6 22.8v.7l-1.6.7c0-.7 0-1.6.3-2 .3-.6 1.2-.6 1.8-.8 0 .5-.2 1-.4 1.4zM86 56c-1.2 0-2.2.3-3.3.4 1-2.2 2-2.3 3.4-.4zM64.2 11.7c-1.3 1-2.7 1.8-4 2.6l-.5-1 4.5-1.6zM12.3 68.2c-.3 0-.7-.3-1-.5.7-2.6 3.3-2 5-3l-4 3.5zM31 15.8l-3 1.6-.4-.5 2.3-2.2 2.4-.5-1.5 1.5zM39 83.2c1-1 2.4-1.8 3.7-2.7 0 .3.3.6.5.8l-4 2.2c-.2 0-.2-.2-.3-.3zM42 85v.4l-3.4 2h-.2v-2L42 85z"/><path fill="#FFF" d="M15.8 50.6l-.5-1.5c1-.2 2-.6 3-1-.8 1-1.7 1.8-2.5 2.6z"/><path d="M62 31.6c1-.6 2.3-1.2 3.4-2 0 .3.2.5.4.7l-3.4 2-.4-.7zM36.4 14.7c1-.6 2-1.3 2.8-2l.5.7-2.8 2c-.3 0-.5-.4-.6-.7zM78.3 41.5c1.8 0 1.8 1 1 2-.5.7-1.3 1-2.6 2 .7-1.8 3-2.2 1.6-4zM89.5 64.2l-2 1.3-.7-1 2.3-1 .5.7zM71 26l-1.4 2.6c0-1-1.4-3 1.5-2.6zM14.3 42l4.3-2.2.4.8c-1.5.5-3 1-4.7 1.4zM15.3 31c1-1.5 2.6-2 4.4-1l-4.4 1zM41.7 15.7L39.3 17l-.4-.5L41 15l.5.7zM17.3 62.2l-.5 1-3.5.5 4-1.5zM31 15.8l1.4-1.5.5-.5c.3 2.3 0 2.7-2 2zM15.3 44.5l3-2.2c.2 1.7.2 1.7-3 2.3zM17.3 57.7l-4 2 4-2zM18.8 61.7h-.5l2.4-2.7.6.5c0 .4-.3.8-.5 1.2l-2 1zM89.3 77.8c0-.7 0-1.5.2-2.2h.5V78c-.2 0-.5 0-.7-.2z"/><path fill="#FFF" d="M34 79.8h2c-1 .8-1.7 1.6-2.6 2.5H33l1-2.5z"/><path d="M65.4 25.3l-2 1.6c0-.3-.2-.5-.4-.7l2-1.6c0 .2.2.4.4.6zM90.4 83.8c0 1 .8 2.5-1.6 2.4l1-2.3.6-.2zM20.8 46.6l.5-.5H23l-.8 1.6-1.4-1z"/><path d="M90.4 83.8h-2s0-.3-.2-.5l2-.6v1z"/><path fill="#FFF" d="M33 13.8l-.6.5-2.5.5c.4-1.6 1.6-1.8 3-1.5v.5z"/><path d="M77.2 61.8c-.7.6-1.4 1.2-2 2l-.6-.7c.7-.5 1.5-1 2.2-1.7 0 .2.3.3.4.5zM76 23c-.6.5-1 .8-1.5 1-.2 0-.3-.2-.4-.4l1.4-1c.2 0 .3.3.5.5zM61.6 22.4v1c-.6 0-1.3 0-2 .2 0-.2 0-.4-.2-.7l2.2-.6zM71.8 53.4l2-1 .4.6-2 1.2-.4-.8zM89.6 79.3c.4-.3 1-.6 1.3-1 0 .2.2.4.3.5L90 80l-.4-.7zM36.4 79.3c.4 0 .7-.3 1-.5l1.6-1c0 .3.3.5.4.7l-3 1.4v-.7zM77.3 56.7v-2.4c1.5 1 1.5 1 0 2.3zM89.7 62l1.6-.6c0 .2 0 .4.2.6l-1.6.7c-.2-.2-.2-.4-.3-.7z"/><path fill="#FFF" d="M70.2 33l-1 .8.6-1.8c0 .3.3.6.4 1z"/><path d="M57.7 44.6L55 47l-.3-.6 3-2v.2zM17.3 57.7l2.2-1.4c0 .3.3.5.4.7l-2.7.7z"/><path fill="#FFF" d="M22.4 61.7l2-1.5h.5l-2.6 1.5z"/><path d="M70.2 62.2c-1 1.3-1.4 1.2-1.6-.7l1.6.7zM56 15.3L55 17c-.2 0-.4-.3-.6-.5l1.7-1.2zM93.3 82c.2.3.4.6.3 1l-.4.3-.5-.7.6-.7zM58.8 30l-1 1.2c0-.2-.2-.3-.3-.4l1-1 .3.3zM63.2 37.6l-1 1-.3-.3c0-.4.4-.8.6-1.2l.6.6zM93.3 49.8l1.4-.5c0 .2 0 .4.2.6-.6 0-1 .2-1.6.3v-.5zM46.5 83.4L45 83c.3-.5.6-.8 1-1l.6 1.3z"/><path d="M56 15.3l2-1.2c0 .3 0 .5.2.8-.7 0-1.4.3-2 .5zM85.3 78.8h-1.5l1.5-1v1zM35.8 17.5l1.3-1 .4.5-1.3 1c0-.2 0-.4-.2-.5zM18.3 90h-1.8v-.7l2 .6h-.2zM57.6 44.5l1.2-1.7c0 .2.3.3.5.5-.6.4-1 1-1.6 1.3zM49.6 86l2-1.4.3.6-2.4.7zM71.6 33l.4-1.2c.3 0 .5.2.8.4l-1 .8h-.2zM38 85c-.5 0-1 .2-1.5.4l1.5-2c.3 0 .6 0 1-.2v.3L38 85zM34.2 17.7c-.2-.4-.5-.5-.4-.7 0-.2.2-.4.4-.5l.5.2c0 .3-.3.6-.5 1zM78.3 41.5c-.3.5-.6 1-1 1.3l-.4-.5 1.3-.8z"/><path fill="#FFF" d="M23 46h-1.7v-.4h1c.2 0 .4.3.6.5zM77.8 19.4V19.3z"/><path d="M23 46c-.3 0-.5-.3-.6-.4l.5.5zM12.2 81.3l.6-.5-.6.5zM40.5 88v.5c-.2.5-.6 1-1 1.4L37 91.3c0-.5.3-1 .5-1.5 1-.8 2-1.5 3-2z"/><path fill="#FFF" d="M40.5 88c-1 .5-2 1.2-3 2v-1l1-1.5 3.5-2-1.5 2.4zM55.6 22.8l.5-1.4c.5 0 1 0 1.3-.2l.2.3c-.6.4-1.2 1-2 1.3zM19.3 64.2l3-2.5-3 2.5zM44.6 86.5l-1 .5v-.3l.8-.5s0 .2.2.3zM18.8 61.7l2-1-2 1z"/></svg>