<?xml version="1.0" encoding="utf-8"?>
<!-- Generator: Adobe Illustrator 16.0.0, SVG Export Plug-In . SVG Version: 6.00 Build 0)  -->
<!DOCTYPE svg PUBLIC "-//W3C//DTD SVG 1.1//EN" "http://www.w3.org/Graphics/SVG/1.1/DTD/svg11.dtd">
<svg version="1.1" id="Layer_1" xmlns="http://www.w3.org/2000/svg" xmlns:xlink="http://www.w3.org/1999/xlink" x="0px" y="0px"
	 width="100px" height="100px" viewBox="0 0 100 100" enable-background="new 0 0 100 100" xml:space="preserve">
<g>
	<path fill-rule="evenodd" clip-rule="evenodd" stroke="#000000" stroke-miterlimit="10" d="M50.203,22.963
		c-2.141-2.367-3.925-4.84-6.185-6.744c-6.984-5.88-15.005-7.354-23.539-4.177c-8.53,3.175-13.568,9.539-15.155,18.532
		c-0.904,5.118,0.253,9.874,2.761,14.354c0.183,0.326,0.361,0.654,0.64,1.161c-1.151,0-2.147,0.063-3.126-0.039
		c-0.294-0.03-0.628-0.483-0.793-0.816C0.343,36.219,1.068,27.438,6.6,19.226c5.532-8.212,13.551-12.127,23.439-11.723
		c7.798,0.319,14.233,3.699,19.279,9.678c0.156,0.187,0.311,0.375,0.472,0.558c0.045,0.049,0.11,0.079,0.228,0.16
		c0.178-0.187,0.368-0.374,0.542-0.576c7.437-8.53,16.757-11.832,27.667-8.889c11.081,2.99,17.559,10.654,19.539,21.965
		c0.929,5.291-0.196,10.308-2.674,15.029c-0.165,0.314-0.646,0.595-1.012,0.645c-0.718,0.098-1.459,0.024-2.19,0.014
		c-0.132-0.002-0.266-0.043-0.592-0.102c4.143-6.683,4.844-13.647,1.864-20.872c-2.044-4.959-5.433-8.804-10.091-11.457
		c-5.817-3.316-12.001-4.016-18.437-2.199C58.202,13.273,53.666,17.55,50.203,22.963z"/>
	<path fill-rule="evenodd" clip-rule="evenodd" stroke="#000000" stroke-miterlimit="10" d="M40.552,23.796
		c4.891,14.22,9.704,28.216,14.589,42.421c0.303-0.456,0.528-0.771,0.725-1.102c2.969-4.991,5.938-9.98,8.887-14.986
		c0.331-0.563,0.677-0.836,1.38-0.835c10.824,0.025,21.649,0.02,32.475,0.024c0.273,0,0.547,0.03,0.911,0.052
		c0,0.978,0,1.923,0,3.007c-0.482,0-0.925,0-1.366,0c-9.988,0-19.979,0.015-29.967-0.022c-0.966-0.004-1.479,0.319-1.955,1.136
		c-3.706,6.373-7.459,12.718-11.199,19.073c-0.211,0.356-0.431,0.709-0.779,1.286c-4.761-14.03-9.459-27.872-14.232-41.933
		c-0.292,0.489-0.485,0.788-0.656,1.1c-3.393,6.189-6.786,12.378-10.165,18.575c-0.269,0.493-0.527,0.803-1.173,0.8
		c-9.015-0.024-18.03-0.018-27.045-0.021c-0.172,0-0.344-0.029-0.617-0.056c0-0.947,0-1.891,0-2.999c0.45,0,0.888,0,1.327,0
		c7.936,0,15.871-0.019,23.807,0.023c0.994,0.006,1.533-0.261,2.013-1.17c4.063-7.684,8.186-15.337,12.291-22.998
		C40.013,24.779,40.229,24.389,40.552,23.796z"/>
	<path fill-rule="evenodd" clip-rule="evenodd" stroke="#000000" stroke-miterlimit="10" d="M87.382,55.593
		C74.812,68.162,62.39,80.584,50.035,92.938C37.656,80.56,25.221,68.121,12.729,55.63c1.264,0,2.562-0.044,3.854,0.031
		c0.308,0.02,0.619,0.408,0.884,0.673C28.08,66.937,38.686,77.545,49.29,88.156c0.196,0.195,0.357,0.426,0.617,0.74
		c0.387-0.361,0.688-0.627,0.969-0.909c10.46-10.458,20.929-20.911,31.363-31.396c0.725-0.727,1.437-1.095,2.454-1.013
		C85.546,55.647,86.408,55.593,87.382,55.593z"/>
</g>
</svg>
