<?xml version="1.0" encoding="utf-8"?>
<!-- Generator: Adobe Illustrator 16.0.0, SVG Export Plug-In . SVG Version: 6.00 Build 0)  -->
<!DOCTYPE svg PUBLIC "-//W3C//DTD SVG 1.1//EN" "http://www.w3.org/Graphics/SVG/1.1/DTD/svg11.dtd">
<svg version="1.1" id="Layer_1" xmlns="http://www.w3.org/2000/svg" xmlns:xlink="http://www.w3.org/1999/xlink" x="0px" y="0px"
	 width="100px" height="100px" viewBox="0 0 100 100" enable-background="new 0 0 100 100" xml:space="preserve">
<g>
	<path fill-rule="evenodd" clip-rule="evenodd" d="M88.32,64.368c-0.367,3.004-1.3,5.629-2.65,8.109
		c-1.601,2.941-3.73,5.469-6.312,7.588c-5.907,4.846-12.591,8.145-20.106,9.57c-7.505,1.422-14.234-0.637-20.322-5.029
		c-1.348-0.973-2.653-2.061-3.769-3.285c-2.748-3.02-2.186-7.367,1.195-9.377c3.575-2.129,7.229-4.135,10.722-6.387
		c1.712-1.105,3.43-1.492,5.4-1.465c4.335,0.061,8.563,0.609,12.704,1.963c6.169,2.02,12.343,1.613,18.478-0.262
		C85.15,65.339,86.642,64.882,88.32,64.368z"/>
	<path fill-rule="evenodd" clip-rule="evenodd" d="M99.703,54.741c-0.093,4.904-0.529,10.158-1.93,15.266
		c-2.25,8.191-6.864,14.883-13.716,19.816c-13.449,9.682-28.293,12.615-44.339,8.111c-6.995-1.965-12.732-5.939-16.657-12.232
		c-0.093-0.148-0.206-0.418-0.305-0.416c-1.132,0.021-2.277,0.006-3.388,0.182c-0.38,0.062-0.866,0.588-0.979,0.99
		c-0.638,2.281-1.179,4.592-1.745,6.893c-0.042,0.168-0.02,0.355-0.027,0.531c-0.072,1.766-0.941,2.727-2.377,2.635
		c-1.374-0.092-2.148-1.16-2.025-2.836c0.214-2.926,0.738-5.785,1.895-8.502c1.052-2.473,2.671-4.178,5.59-4.191
		c1.423-0.006,2.854-0.234,4.263-0.123c0.677,0.053,1.624,0.492,1.919,1.039c3.785,7,9.9,10.854,17.401,12.465
		c14.77,3.17,28.231,0.084,39.953-9.52c6.445-5.283,10.054-12.295,11.266-20.584c1.14-7.805,1.223-15.54-0.931-23.183
		C91.63,34.18,88.214,28.147,82.681,23.46c-2.384-2.019-4.979-3.686-8.15-4.197c-0.072-0.012-0.147-0.05-0.212-0.037
		c-2.359,0.494-3.447-1.105-4.571-2.72c-2.539-3.653-4.466-7.597-5.715-11.867c-0.467-1.598,0.1-2.778,1.462-3.145
		c1.252-0.337,2.251,0.355,2.72,1.881c1.172,3.838,2.842,7.441,5.222,10.684c0.282,0.386,0.868,0.688,1.354,0.761
		c3.634,0.541,6.747,2.206,9.59,4.41c7.413,5.742,11.65,13.478,13.883,22.432C99.3,45.83,99.679,50.078,99.703,54.741z"/>
	<path fill-rule="evenodd" clip-rule="evenodd" d="M0.005,93.331c0.271-4.844,1.253-9.51,3.386-13.902
		c3.327-6.846,8.757-10.516,16.391-10.688c2.176-0.049,3.937-0.512,5.645-2.039c1.724-1.541,3.891-2.605,5.915-3.789
		c5.817-3.406,11.474-7.039,16.502-11.562c3.601-3.238,6.923-6.76,8.567-11.411c0.854-2.422,1.083-5.06,1.689-7.578
		c0.551-2.277,1.195-4.533,1.874-6.775c0.183-0.607,0.171-1.009-0.217-1.535c-3.612-4.924-6.228-10.347-7.938-16.206
		c-0.582-1.996-0.121-3.16,1.341-3.558c1.382-0.376,2.278,0.398,2.861,2.375c1.732,5.863,4.409,11.25,8.212,16.051
		c0.806,1.017,0.914,1.97,0.36,3.147c-1.421,3.021-2.216,6.257-2.575,9.545c-0.623,5.727-3.137,10.504-6.849,14.757
		C50.53,55.476,44.92,59.608,39.01,63.358c-2.522,1.602-5.181,2.994-7.671,4.641c-1.915,1.268-3.637,2.82-5.502,4.166
		c-0.566,0.408-1.311,0.701-2.001,0.773c-2.05,0.213-4.12,0.232-6.171,0.434c-3.659,0.361-6.494,2.193-8.626,5.131
		c-2.578,3.547-3.752,7.629-4.359,11.9c-0.145,1.021-0.209,2.055-0.253,3.084c-0.08,1.877-0.871,2.865-2.319,2.822
		C0.666,96.269-0.07,95.224,0.005,93.331z"/>
</g>
</svg>
