<svg id="Layer_1" data-name="Layer 1" xmlns="http://www.w3.org/2000/svg" viewBox="0 0 50 49.61"><title>globe_icon_black</title><path d="M0,23.85a0.3,0.3,0,0,0,.12-0.1c0-.27,0-0.54,0-0.81a11.1,11.1,0,0,1,.14-1.69c0.06-.3.07-0.59,0.11-0.89s0.1-.54.14-0.82a14.4,14.4,0,0,1,.36-1.59,1.94,1.94,0,0,0,.37-0.78c0.29-.19,0-0.58.25-0.77a10.41,10.41,0,0,1,.88-2.32,5.28,5.28,0,0,1,.42-0.63C3.1,13.66,3.1,13.66,3.07,14L2.9,13.83v0.74l-0.4.6,0.22,0.22a4,4,0,0,1-.82,2.89,3.2,3.2,0,0,0-.16-0.4,3.91,3.91,0,0,0-.31-0.4,5.4,5.4,0,0,0-.2,1c0,0.3-.15.57-0.13,0.88a1.76,1.76,0,0,0,.33,1.06,2,2,0,0,1,.2.56l-0.42.2,0.09,0.1H0.92a0.42,0.42,0,0,0-.11.13,2.27,2.27,0,0,0-.18.73c0.07,1-.2,2-0.13,2.95l-0.19.18L0.12,25c0-.14,0-0.31,0-0.47A0.3,0.3,0,0,0,0,24.47Q0,24.16,0,23.85ZM1.73,17a1.87,1.87,0,0,0,.62-1.75A4.13,4.13,0,0,0,1.73,17Z" transform="translate(0 -0.1)"/><path d="M0,25.47H0.23c0,0.34.09,0.69,0.15,1A7.17,7.17,0,0,0,.58,27.6a3.29,3.29,0,0,0,.15,1.08l-0.17.14a0.15,0.15,0,0,1-.07,0,2.19,2.19,0,0,1-.24-0.58,5.48,5.48,0,0,1-.14-1.37c0-.09,0-0.22-0.12-0.22V25.47Z" transform="translate(0 -0.1)"/><path d="M32.88,41.19a1.45,1.45,0,0,1-.8,1.36,3.17,3.17,0,0,0-.83.57c-0.47.43-.95,0.84-1.41,1.24L30,44.88l-0.65.59v0.26l0.55,0.44-0.22.27a2.23,2.23,0,0,1-2.07-.79,2.74,2.74,0,0,0-.06-0.3,1.38,1.38,0,0,0-.11-0.22l0.26-.51-0.25-.1a7.3,7.3,0,0,0,.53-2c0.11-.61.29-1.21,0.45-1.81a0.42,0.42,0,0,0,0-.11c0-.49.16-1,0.14-1.45a5.65,5.65,0,0,1,.2-1.22A6.7,6.7,0,0,0,29,36.3a1.6,1.6,0,0,0-.82-1.19c-0.28-.17-0.55-0.37-0.84-0.53a1.9,1.9,0,0,1-.7-1A8.39,8.39,0,0,0,25.9,32,17.82,17.82,0,0,1,25,30.35a1.55,1.55,0,0,0,0-.17,3.5,3.5,0,0,1,1.18-2.82,1.46,1.46,0,0,0,.44-1.2c0-.09-0.1-0.17-0.11-0.26a2.2,2.2,0,0,1,0-.37,3,3,0,0,0-.65-0.71l-0.25.39a2.27,2.27,0,0,1-1-.1,6.79,6.79,0,0,1-.65-0.4,1.06,1.06,0,0,1-.53-0.52,2,2,0,0,0-1.29-1.08,5.27,5.27,0,0,1-1.52-.71A2.16,2.16,0,0,0,19.19,22a4.2,4.2,0,0,1-1.05-.18A1.52,1.52,0,0,1,17,20.86H16.34l-0.48-.31a0.8,0.8,0,0,1,.48-0.62,26.11,26.11,0,0,1-2.82-3.05A3.26,3.26,0,0,0,14.23,18v0.46a1.07,1.07,0,0,1,.36.9,1.4,1.4,0,0,1-.83-0.91,0.73,0.73,0,0,0-.51-0.54V17.21a1.61,1.61,0,0,1-.4-0.8,2.06,2.06,0,0,0-.56-1,3,3,0,0,1-.66-2.22A5.56,5.56,0,0,1,12,11.91a2.7,2.7,0,0,0,.22-1.26L12,10.53a2.07,2.07,0,0,0-.22-1.19l-0.27.54-0.29-.19V8.59l-0.39-.33c-0.24.07-.53,0.13-0.8,0.23a2.22,2.22,0,0,0-.71.38,1,1,0,0,0-.63.58c-0.89.33-1.55,1.08-2.49,1.38a0.81,0.81,0,0,1,.45-0.58,1.84,1.84,0,0,0,.83-1A1.87,1.87,0,0,1,7.86,8.8a3.11,3.11,0,0,0,.58-0.7,1.34,1.34,0,0,1,.43-0.29l-0.4,0L8.35,7.62C8.62,7.1,9.31,7,9.59,6.54a1.75,1.75,0,0,1,.73-1,3.69,3.69,0,0,1,.33-0.24,4,4,0,0,1,1.53-.56A6.47,6.47,0,0,0,14,4.36a7.38,7.38,0,0,0,1.2-.13c0.39,0,.79,0,1.19,0l0.18-.34-0.24-.15-0.74.15c0-.68.61-0.73,1-1l-0.13-.23,0.42-.46,0,0.05,0.49-.22A0.68,0.68,0,0,0,17.21,2c-0.69.25-1.37,0.52-2,.79a1.53,1.53,0,0,1-.53.08,0.65,0.65,0,0,0-.52.28,0.68,0.68,0,0,1-.33.22A9.76,9.76,0,0,1,11.86,4a1.85,1.85,0,0,0-.44.16,0.21,0.21,0,0,1,.12-0.27,2.07,2.07,0,0,1,.25-0.15c0.08-.06.14-0.15,0.23-0.21A17.73,17.73,0,0,1,14.7,2a9.26,9.26,0,0,1,2.56-.9c0.58-.33,1.28-0.29,1.88-0.59A1.37,1.37,0,0,0,19.83.36,7.11,7.11,0,0,0,21.15.21C23,0,24.91.16,26.79,0.11c0.8,0,1.58.22,2.38,0.13,0.43,0.16.89,0.14,1.33,0.26a1.46,1.46,0,0,1,.37.37A3.9,3.9,0,0,1,29.43.75a1,1,0,0,0-.43,0H26l-0.16.21a0.46,0.46,0,0,0,.19.16,4.14,4.14,0,0,1,2,.81,9.57,9.57,0,0,1,1.74,1.24,1,1,0,0,0,.35.2A1.89,1.89,0,0,1,31,4a0.6,0.6,0,0,1,0,.27,2.79,2.79,0,0,0-.42.29,3.05,3.05,0,0,0-.32.43,3.48,3.48,0,0,0,.32,1.85,0.35,0.35,0,0,1-.14.47A2.39,2.39,0,0,0,30,7.11a4.56,4.56,0,0,1-1.52-1c-0.33-.31-0.71-0.58-1.07-0.87l-0.19.16,0-.49-0.36-.27V4a1.15,1.15,0,0,1-.77-0.62l-1-.57H24.3L24.15,3a9.44,9.44,0,0,1,1.69,1.76L26,6.14a0.47,0.47,0,0,1-.67.14C24.9,6,24.43,5.86,24,5.65a2,2,0,0,1-.62-0.17L23,5.24l0.71-.56V4.38a0.45,0.45,0,0,0-.18,0C23.12,4.55,23.06,4.52,23,4h-0.6V5l0.78,0.84a0.77,0.77,0,0,1,.94.07,3,3,0,0,1,.92.5,3.25,3.25,0,0,0,.75.36l0.35-.49c0.48,0.44.95,0.85,1.41,1.28a1.39,1.39,0,0,0,.71.41,0.9,0.9,0,0,1,.62.44c0.2,0.38.54,0.64,0.76,1a1.81,1.81,0,0,0,.25.25L30,9.35,30.58,10l0.15,0.51c-0.26.16-.29-0.16-0.45-0.18l-0.11.28L30,10.36H29.3a0.35,0.35,0,0,0-.09.08,1,1,0,0,1-.79.76,0.73,0.73,0,0,0-.25.28H26.66a14,14,0,0,1-1,2l-0.38.06a2.41,2.41,0,0,0,.16.34,0.69,0.69,0,0,1-.11.91c-0.14.18-.33,0.32-0.48,0.49s-0.37.42-.53,0.6v0.72L25,17.49v0.72l-0.26,0a3.36,3.36,0,0,1-.92-1.29,0.85,0.85,0,0,0-.62-0.47c-0.23,0-.46-0.1-0.7-0.12s-0.45,0-.69,0l-0.33.49-0.52-.12c-0.08.21-.29,0.09-0.43,0.17a4.22,4.22,0,0,0-1.38,1,5.06,5.06,0,0,0-.38.63,3.17,3.17,0,0,0,.79,2.3,1.22,1.22,0,0,0,.82,0,1.52,1.52,0,0,1,.7-0.11c0.13-.29.22-0.52,0.35-0.74a1.47,1.47,0,0,1,.27-0.27h1.06v0.54L22.36,21a1.1,1.1,0,0,1-.28,1h1.83l0.33,0.41c0,0.14,0,.36,0,0.59A5.89,5.89,0,0,0,24.38,24a2.17,2.17,0,0,0,.37.58,1.7,1.7,0,0,0,1.16-.22l1,0.39a3,3,0,0,1,2.4-1.15l-0.17.19c0.25,0.15.3-.13,0.38-0.17L30.76,24l0.51,0.46h0.56L31.88,24l0.19,0,0.06,0.37h0.8l0.22,0.34,0.07,0,0,0.31c0.38,0.29.68,0.68,1.08,1a5.94,5.94,0,0,0,1.41.67,1.6,1.6,0,0,1,1.18,1.15,1,1,0,0,0,.35.58l-0.37.55a1.86,1.86,0,0,1,1.3.35c0.46,0.24.95,0.44,1.4,0.69a1.24,1.24,0,0,0,.77.18l1.12,0.79,0.18-.15a0.32,0.32,0,0,1,.12.12,1.84,1.84,0,0,1,0,.83,4,4,0,0,1-.58,1,14.48,14.48,0,0,0-1.11,1.53,2.33,2.33,0,0,0-.25.64,4.19,4.19,0,0,1-1.39,2,3.17,3.17,0,0,1-.82.43,0.58,0.58,0,0,0-.31.31,1.22,1.22,0,0,1-.68.72,1,1,0,0,0-.31.3c-0.59.59-1.17,1.18-1.77,1.76a4.39,4.39,0,0,1-.71.54A1.2,1.2,0,0,1,32.88,41.19ZM20.62,7.6L21.12,8a0.41,0.41,0,0,0,.16.12h1c0.17,0.16.28,0.3,0.15,0.48H21.89l-0.12-.34-0.07.61a0.4,0.4,0,0,1-.39-0.37,0.86,0.86,0,0,0-.87.38l0.34,0.65,0.55-.18,0.49,0.24L22,9.41l-0.43-.35a1.39,1.39,0,0,1,1.19-.14,9.76,9.76,0,0,0,1,.19,1.29,1.29,0,0,0,0-.22,0.44,0.44,0,0,0-.08-0.11l1-.19V8.5l-0.48,0L23.87,8a1.11,1.11,0,0,0-.13-0.66c-0.18-.19-0.33-0.4-0.51-0.62V6.36L22.63,6l0-.16-1.28-.17-1,1a0.43,0.43,0,0,0-.45.31Zm-1.09-.78c-0.32,0-.43.35-0.74,0.42l-0.06-.18c0.35-.21.48-0.43,0.33-0.58H18.8l-0.45.45-0.21-.29,0.11-.11L18,6.35l-0.28.36H17.38V6.39l0.13,0,0.13-.09a2.17,2.17,0,0,0-1.26.38L16.7,7.11c0.18,0,.33-0.27.55,0l-0.81.49,1,0.41,0.22-.23h0.25L18.24,8l-0.29.31a2.67,2.67,0,0,0,.81,0L18.47,8Zm2.36-5.47V2.48h0.73l0.9,0.46,1.11-.41a1.6,1.6,0,0,0-.81-0.3c-0.33,0-.67-0.06-1-0.14a1.28,1.28,0,0,1-.44-0.29C22.24,1.7,22.12,1.57,21.89,1.36Zm-1,9a2.55,2.55,0,0,0,1.5.08L21.6,9.82A1.33,1.33,0,0,0,20.87,10.32Zm7.69,0.52,0.47-1-0.51,0-0.12.11-0.1-.38-0.16.34A1.73,1.73,0,0,0,28.56,10.84ZM16.39,6.31A3,3,0,0,0,17,5.54a1.88,1.88,0,0,0-1.08.07,0.42,0.42,0,0,0-.06.13h0.48Z" transform="translate(0 -0.1)"/><path d="M43.82,9.14l0.31,0.15L44,8.77l0.27-.05a4,4,0,0,0,.57,2l0.39,1,0-.72L44.52,9.54a3.9,3.9,0,0,1,1,1.09,5,5,0,0,1,.51.91,2.29,2.29,0,0,0,.61.88,0.83,0.83,0,0,1,.18.3c0.36,0.71.74,1.4,1.06,2.12s0.66,1.6,1,2.41a2.73,2.73,0,0,1,.07.62l-1.12-.8c-0.06.65,0.52,1,.63,1.52l0.2,0-0.15-.3,0.27-.06,0.12,0.06a1.36,1.36,0,0,1,.49,1.1c0.07,0.68.27,1.33,0.3,2a2.37,2.37,0,0,0,.13.87,6.47,6.47,0,0,1,.11.89A6,6,0,0,1,50,24.92c0,0.19,0,.38,0,0.56,0.09,0.84-.15,1.67-0.14,2.51,0,0.27-.13.53-0.12,0.82a5.84,5.84,0,0,1-.14.82,3,3,0,0,1-.21.78,6.56,6.56,0,0,0-.13.82,6.17,6.17,0,0,0-.14,1.38,4,4,0,0,1-.49,1.8,0.88,0.88,0,0,1-.34.41,1.89,1.89,0,0,0-.8.86c-0.22.37-.42,0.74-0.65,1.11a0.46,0.46,0,0,1-.21.06,14.13,14.13,0,0,0,.24-1.62A6.16,6.16,0,0,1,47,34.4a1.1,1.1,0,0,1,.12-0.77,0.43,0.43,0,0,0,0-.24,7,7,0,0,1,.22-1.65c0.07-.37.18-0.72,0.28-1.08a0.42,0.42,0,0,1,.12-0.13,4,4,0,0,0-.25-1.77,4.93,4.93,0,0,1,.09-1.46,1.36,1.36,0,0,0,0-.52A0.51,0.51,0,0,0,47,26.59L46.56,26l-1,.51a2.32,2.32,0,0,0-1.46.26l-0.56-.23a2.11,2.11,0,0,1-1-1.15,1.75,1.75,0,0,0-.68-0.78,1,1,0,0,1-.2-0.78c0-.5,0-1,0.05-1.48A2,2,0,0,0,42,21.7a4.68,4.68,0,0,1,.6-2.13A2.81,2.81,0,0,0,42.75,19a0.92,0.92,0,0,1,.55-0.39,4.46,4.46,0,0,0,.93-0.63V17.51l0.33-.27,0.16-.75a2,2,0,0,1-.25.11,1,1,0,0,1-.23,0V16.11H43.69l-0.22-.2a8.72,8.72,0,0,0,.26-2.37c0.36-.25.36-0.25,1.35,0.2l0-.58-1-1.57,0.56,0.11-0.57-.63V10.29l-0.49.49-0.37-.35V9.9l0.4-.34-0.14-.31Zm2.34,5.58A1.53,1.53,0,0,0,45.61,16a2,2,0,0,0,.86.27,1.48,1.48,0,0,1,.91.13,4.38,4.38,0,0,0-.83-1.63h-0.4Z" transform="translate(0 -0.1)"/><path d="M2.45,34.32A1,1,0,0,1,2.81,34c0.27,0,.14-0.28.3-0.32a2.76,2.76,0,0,1,.31-0.93,0.39,0.39,0,0,1,.13-0.14H4.23l0.28-.8a5.79,5.79,0,0,0,1.34.73L6,32.94l1,0.59V32.43l0.33-.28,0.2,0.52a2.36,2.36,0,0,0,.39.78,2.3,2.3,0,0,1,.47.92,2.56,2.56,0,0,0,.48.86,14.53,14.53,0,0,0,1,1.13,1.56,1.56,0,0,0,.27.6,1.58,1.58,0,0,1,.52,1.1,2.81,2.81,0,0,1-.09,1.51,1.37,1.37,0,0,0-.3.63,2,2,0,0,1-.13.53l-0.79.42,0.6,0.6,0,0.44A8,8,0,0,1,8.86,41.1c-0.44-.48-0.92-0.93-1.38-1.38a1.79,1.79,0,0,1-.32-0.28,3.71,3.71,0,0,0-1.24-1.22,5.19,5.19,0,0,0-.62-0.29l-0.12.26a1.21,1.21,0,0,1-1.3-.68,3.67,3.67,0,0,1-.66-1.35,4.87,4.87,0,0,0-.46-0.87C2.63,35,2.55,34.63,2.45,34.32Z" transform="translate(0 -0.1)"/><path d="M19.35,48.82a3.72,3.72,0,0,1,1.43-.35c0.75,0,1.5.19,2.26,0.13a1.29,1.29,0,0,0,.72-0.23,5.91,5.91,0,0,0,2.15.46,9.4,9.4,0,0,0,.94-0.2L27.11,49a0.24,0.24,0,0,0,.1,0,1.85,1.85,0,0,1,.85-0.22,1.58,1.58,0,0,0,.68-0.08,0.52,0.52,0,0,1-.19-0.05c-0.19-.16-0.38-0.33-0.6-0.52A1.76,1.76,0,0,1,29.08,48a0.84,0.84,0,0,0,.69.22h1.06a8.18,8.18,0,0,1,.82-0.13,2.11,2.11,0,0,0,.88-0.13c0.26-.1.52-0.16,0.77-0.25a6.22,6.22,0,0,1,1-.24A4,4,0,0,0,35.94,47a0.53,0.53,0,0,1,.79.06,7.74,7.74,0,0,1-1,.55c-1,.4-2,0.82-3,1.14l-1.16.35a4.9,4.9,0,0,1-1.14.24c-0.42,0-.83.16-1.26,0.16-0.27,0-.55.09-0.82,0.11a4.08,4.08,0,0,0-.87,0,7,7,0,0,1-1.89.11c-0.62,0-1.25,0-1.87,0A6.76,6.76,0,0,0,23,49.57a1,1,0,0,1-.82-0.11,2.9,2.9,0,0,1-1.07-.14A4,4,0,0,1,19.35,48.82Z" transform="translate(0 -0.1)"/><path d="M9.73,32.47a1.58,1.58,0,0,1-.48-0.07,1.67,1.67,0,0,1-.91-0.76l-0.63-.31-0.23.37H6.79l-0.34-.34H6.07l-0.27-.3,0.32-.13V30.7A6.92,6.92,0,0,0,4.5,29.43V29l-0.19-.19-0.22.23,0.13,0.22-0.15.17H3.28l-0.21-.33H3.55l0.29-.39L4.06,28l0.28,0.32,0.46,0.16c0.29,0.23.06,0.83,0.65,0.74L5.68,29A0.74,0.74,0,0,1,6,29a10.43,10.43,0,0,1,1.27.55c0.36,0.2.66,0.5,1,.73a0.84,0.84,0,0,0,.6.21,4.13,4.13,0,0,1,.56,0l0.46-.27,0-.48a0.69,0.69,0,0,1,.28,0c0.15,0.08.3,0.27,0.19,0.39a1.06,1.06,0,0,1-.58.63,0.36,0.36,0,0,0-.11.11H8.8L8.66,31A4.21,4.21,0,0,0,9.73,32.47Z" transform="translate(0 -0.1)"/><path d="M3,27.57v0.37l-0.81.24,0.4,0.05a1.13,1.13,0,0,1,.39.59l-0.45-.28C2.44,29,3,29.39,2.69,29.85l-0.14-.29-0.39.28-0.06-.2L2,29.7l-0.2-1.47H1.78l0,0.45L1.39,29,0.87,28.7c0-.48,0-1,0-1.42A3.53,3.53,0,0,1,1.33,26a0.65,0.65,0,0,1,.25-0.15A3.07,3.07,0,0,0,2,27.57H3Z" transform="translate(0 -0.1)"/><path d="M12.26,41.84V41.5a8.48,8.48,0,0,1,2-1L14,40.28,14.41,40a1.67,1.67,0,0,1-.14-1.17c0.5,0.43.6,1.05,1.14,1.28a1.51,1.51,0,0,1-.79.7,8.86,8.86,0,0,0-1.14.7,1.49,1.49,0,0,1-.56.3A2.88,2.88,0,0,1,12.26,41.84Z" transform="translate(0 -0.1)"/><path d="M27,20.18A1.32,1.32,0,0,1,26,20a2.19,2.19,0,0,0-1.16-.29l-0.2-.35-0.47.12,0,0.19H23.5V19.35L24.31,19A6.79,6.79,0,0,1,27,20,0.28,0.28,0,0,1,27,20.18Z" transform="translate(0 -0.1)"/><path d="M1.71,22.07a6.32,6.32,0,0,0,.1.77,2.07,2.07,0,0,0,.52.91,6.22,6.22,0,0,1,.42.54A0.83,0.83,0,0,1,2,25l0-.86a0.49,0.49,0,0,1-.46-0.47,3.07,3.07,0,0,1-.15-1.13A0.9,0.9,0,0,1,1.71,22.07Z" transform="translate(0 -0.1)"/><path d="M2.48,31.37L0.63,29.69A0.67,0.67,0,0,1,1.06,29l0.1,0.54L1.6,30H1.82c0.08,0.53.66,0.39,1,.72Z" transform="translate(0 -0.1)"/><path d="M34.51,6.16l-0.13.42A2.08,2.08,0,0,1,33,6.23H32.57l-0.37-.43A2.19,2.19,0,0,1,34.51,6.16Z" transform="translate(0 -0.1)"/><path d="M27.8,21.25l-0.26-.36,0.68-.05,0.21-.35a7.36,7.36,0,0,0,.79.11,1.15,1.15,0,0,1,.81.22l-0.17.25Z" transform="translate(0 -0.1)"/><path d="M13,27.6c-0.13-.24-0.18-0.33-0.22-0.42a1.13,1.13,0,0,0-.68-0.7,1,1,0,0,1-.48-0.43c0.47-.13.71,0,1.57,0.88Z" transform="translate(0 -0.1)"/><path d="M2.21,25.42l0.25-.1,0.26-.52A1.35,1.35,0,0,1,3,26l-0.19.3a0.59,0.59,0,0,1-.19-0.11C2.48,25.92,2.35,25.68,2.21,25.42Z" transform="translate(0 -0.1)"/><path d="M6.85,9l-0.58.38L5.55,9.19a1.06,1.06,0,0,1,1-.59Z" transform="translate(0 -0.1)"/><path d="M3.6,28.82C3,28.39,3.3,27.87,3.4,27.36H3.6v1.46Z" transform="translate(0 -0.1)"/><path d="M12,31.33H11.29a0.8,0.8,0,0,1-.56-0.7l0.19,0a0.2,0.2,0,0,1,.12,0Z" transform="translate(0 -0.1)"/><path d="M12.93,32.48l-0.17.14-0.31-.25L12.87,32a0.43,0.43,0,0,1,.21,0c0.08,0.08.1,0.21,0.18,0.29a0.7,0.7,0,0,1,.1.58Z" transform="translate(0 -0.1)"/><path d="M31.61,45.37v0.28L31.3,46H31l-0.25-.17a0.49,0.49,0,0,1,0-.16A0.78,0.78,0,0,1,31.61,45.37Z" transform="translate(0 -0.1)"/><path d="M3.38,31.33H2.89V31.12l0.52-.52,0.27,0Z" transform="translate(0 -0.1)"/><path d="M12.23,31.55l0.18-.18a0.33,0.33,0,0,1,.19.45H11.65l-0.15-.15A4,4,0,0,1,12.23,31.55Z" transform="translate(0 -0.1)"/><path d="M20.62,7.6V7.36l0.73,0.16,0.29,0.33a0.36,0.36,0,0,1-.09.12H21.12Z" transform="translate(0 -0.1)"/></svg>