<?xml version="1.0" encoding="utf-8"?>
<!-- Generator: Adobe Illustrator 19.2.0, SVG Export Plug-In . SVG Version: 6.00 Build 0)  -->
<svg version="1.1" id="Layer_1" xmlns="http://www.w3.org/2000/svg" xmlns:xlink="http://www.w3.org/1999/xlink" x="0px" y="0px"
	 viewBox="0 0 50 49.6" style="enable-background:new 0 0 50 49.6;" xml:space="preserve">
<title>globe_icon_black</title>
<g>
	<path d="M17.6,49.6c0-5.7,0-11.3,0-17.2c-5.9,0-11.6,0-17.4,0c0-5.1,0-9.8,0-14.9c5.7,0,11.3,0,17.3,0c0-6,0-11.7,0-17.4
		c5.1,0,9.8,0,14.9,0c0,5.7,0,11.4,0,17.3c5.9,0,11.5,0,17.3,0c0,5,0,9.8,0,14.9c-5.7,0-11.2,0-17.1,0c-0.4,3-0.2,5.9-0.2,8.7
		c0,2.8,0,5.7,0,8.7C27.4,49.6,22.7,49.6,17.6,49.6z"/>
</g>
</svg>
