<?xml version="1.0" encoding="utf-8"?>
<!-- Generator: Adobe Illustrator 16.0.0, SVG Export Plug-In . SVG Version: 6.00 Build 0)  -->
<!DOCTYPE svg PUBLIC "-//W3C//DTD SVG 1.1//EN" "http://www.w3.org/Graphics/SVG/1.1/DTD/svg11.dtd">
<svg version="1.1" id="Layer_1" xmlns="http://www.w3.org/2000/svg" xmlns:xlink="http://www.w3.org/1999/xlink" x="0px" y="0px"
	 width="100px" height="100px" viewBox="0 0 100 100" enable-background="new 0 0 100 100" xml:space="preserve">
<g>
	<path stroke="#000000" stroke-width="2" stroke-miterlimit="10" d="M92.473,78.018c-1.33,0-2.646,0-4.175,0
		c-0.257,0.227-0.752,0.514-1.036,0.938c-1.322,1.991-3.143,2.702-5.457,2.272c-0.144-0.027-0.291-0.039-0.414-0.057
		c-4.186-2.214-3.705-6.714-0.427-8.87c-0.282-1.331-0.563-2.715-0.866-4.093c-0.307-1.385-0.635-2.766-0.984-4.279
		c-2.613-0.309-4.416-1.725-5.354-4.33c-3.484,0-6.902,0-10.558,0c-0.81,2.268-2.638,3.555-5.306,3.688
		c-0.371,1.408-0.717,2.721-1.094,4.152c0.247,0.248,0.471,0.58,0.782,0.771c1.433,0.879,2.104,3.395,1.492,5.173
		c-0.595,1.736-2.437,3.067-4.257,3.116c-0.488,0.016-0.975,0.003-1.582,0.003c-1.441-0.581-2.53-1.742-3.369-3.22
		c-3.272,0.254-6.47,0.503-9.533,0.74c-1.553,2.834-1.474,3.449-5.419,4.586c-0.385,1.857-0.836,3.809-1.161,5.777
		c-0.063,0.379,0.374,0.836,0.578,1.26c0.351,0.73,0.898,1.433,1.014,2.197c0.28,1.879-0.916,3.426-2.71,3.776
		c-1.774,0.348-3.646-0.751-4.187-2.459c-0.591-1.87,0.19-3.597,1.975-4.347c0.269-0.112,0.547-0.203,0.78-0.287
		c0.604-1.098,1.47-4.983,1.448-6.502c-1.024-0.877-1.95-1.867-3.417-2.312c-0.955-0.289-1.719-1.229-2.541-1.91
		c-0.295-0.244-0.513-0.58-0.74-0.846c-0.262-0.04-0.456-0.1-0.646-0.094c-1.224,0.049-2.445,0.109-3.747,0.173
		c-0.204,0.308-0.425,0.621-0.629,0.946c-0.915,1.463-2.444,2.094-4.038,1.66c-1.501-0.408-2.65-1.877-2.721-3.478
		c-0.068-1.537,0.884-2.817,2.534-3.392c0.322-0.111,0.658-0.183,0.867-0.24c1.73,0.216,2.856,1.23,3.828,2.244
		c1.608,0,3.069,0,4.671,0c0.805-2.274,2.227-3.903,5.018-4.178c-0.765-1.912-1.444-3.61-2.134-5.336
		c-2.813-0.019-4.875-1.082-5.881-3.568c-1.45,0-2.772-0.033-4.089,0.012c-1.517,0.051-3.033,0.199-4.55,0.255
		c-0.885,0.031-1.43,0.388-1.807,1.216c-0.895,1.977-2.903,3.125-4.824,2.866c-2.136-0.29-3.763-1.833-4.154-4.003
		c-0.239-1.323,0.129-2.525,0.908-3.604c0.285-0.392,0.606-0.756,0.984-1.224c-0.368-1.002-0.734-1.999-1.067-2.904
		c-3.566-1.401-4.815-3.224-3.725-5.404c1.036-2.069,3.074-2.48,4.882-1.607c2.349,1.134,2.577,3.223,0.73,6.301
		c0.352,0.894,0.753,1.917,1.172,2.983c2.768-0.176,4.447,1.245,5.527,3.426c3.313-0.206,6.476-0.401,9.602-0.597
		c1.818-3.594,1.915-3.676,5.611-4.699c0.634-2.26,1.3-4.638,1.883-6.71c-1.057-1.503-1.917-2.728-2.778-3.951
		c0.067-0.088,0.133-0.176,0.2-0.265c-0.399-0.072-0.799-0.145-1.163-0.211c-0.406,0.478-0.691,0.878-1.039,1.213
		c-1.187,1.143-3.028,1.268-4.49,0.334c-1.326-0.847-1.972-2.659-1.475-4.133c0.506-1.503,2.033-2.504,3.679-2.363
		c1.332,0.113,2.247,0.942,2.953,1.969c0.388,0.562,0.71,1.055,1.567,0.936c0.368-0.557,0.714-1.209,1.185-1.753
		c0.474-0.548,1.072-0.989,1.762-1.608c-0.388-1.964-0.791-4.012-1.197-6.073c-0.979-0.327-1.855-0.621-2.686-0.898
		c-1.653-1.51-2.456-3.309-1.777-5.448c0.674-2.127,2.302-3.219,4.636-3.393c0.271-0.844,0.534-1.671,0.814-2.55
		c-0.326-0.44-0.656-0.853-0.951-1.292c-0.855-1.271-0.89-2.606-0.062-3.867c0.791-1.202,2.012-1.71,3.433-1.542
		c1.583,0.188,2.577,1.129,2.953,2.637c0.541,2.17-0.36,3.76-2.494,4.401c-0.232,0.069-0.459,0.152-0.848,0.283
		c-0.208,0.768-0.435,1.594-0.684,2.503c1.79,0.927,2.489,2.449,2.426,4.247c-0.065,1.816-0.938,3.279-2.734,4.291
		c0.399,2.114,0.795,4.205,1.21,6.4c2.718,0.257,4.417,1.704,5.196,4.28c3.475,0.083,6.842,0.163,10.346,0.246
		c0.75-2.458,2.369-3.934,5.089-4.268c0.319-1.341,0.633-2.656,0.97-4.07c-1.868-1.382-3.191-3.081-2.472-5.589
		c0.629-2.181,2.25-3.233,4.416-3.609c3.151,0.717,3.237,0.784,5.103,3.973c1.396,0,2.849,0,4.265,0
		c2.188-2.649,4.223-3.104,6.061-1.386c1.568,1.467,1.605,3.812,0.082,5.227c-1.805,1.679-3.766,1.196-6.202-1.688
		c-0.603,0-1.378,0-2.153,0c-0.73,0-1.461,0-2.363,0c-0.772,2.044-2.285,3.23-4.642,3.418c-0.313,1.304-0.618,2.57-0.897,3.745
		c0.851,1.187,1.166,1.409,2.375,1.651c0.074-0.354,0.168-0.708,0.217-1.067c0.242-1.743,1.275-2.877,2.957-3.224
		c1.414-0.291,3.05,0.503,3.851,1.873c0.632,1.077,0.49,2.844-0.312,3.897c-0.869,1.142-2.37,1.604-3.836,1.127
		c-0.555-0.181-1.073-0.47-1.803-0.797c-0.173,0.358-0.51,0.723-0.481,1.06c0.176,2.241-0.839,3.866-2.732,5.252
		c0.462,2.966,1.466,5.821,2.241,8.875c2.762,0.302,4.762,1.656,5.521,4.429c3.517,0.129,6.879,0.252,10.125,0.373
		c0.832-1.065,1.431-2.207,2.36-2.916c0.929-0.709,2.187-0.981,3.496-1.226c0.228-0.521,0.455-1.043,0.659-1.515
		c-2.032-3.228-1.826-5.117,0.501-6.452c1.45-0.833,4.106,0.011,4.944,2.092c0.861,2.139-0.248,3.851-3.426,5.005
		c-0.16,0.373-0.351,0.812-0.641,1.491c0.604,0.512,1.223,1.038,1.982,1.688c0.309-0.408,0.576-0.791,0.871-1.148
		c1.047-1.262,2.526-1.609,4.095-1.008c1.754,0.673,2.297,1.882,2.297,3.549c0,1.63-1.113,2.824-2.718,3.256
		c-0.973,0.263-1.838-0.018-2.676-0.461c-0.338-0.178-0.641-0.415-1.088-0.708c-0.521,1.765-1.344,3.224-3.105,4.128
		c0.658,2.881,1.3,5.67,1.961,8.544c2.531,0.229,4.146,1.478,4.796,3.86c1.571,0,3.024,0,4.644,0
		c0.735-1.357,1.871-2.375,3.752-2.45c2.24,0.598,3.26,1.558,3.389,3.29c0.133,1.777-0.553,3.021-2.116,3.646
		C95.123,81.217,93.71,79.82,92.473,78.018z M53.048,58.627c0.089-2.247,1.004-4.016,2.884-5.215
		c-0.814-3.053-1.596-5.966-2.391-8.936c-2.822-0.171-4.52-1.709-5.447-4.143c-3.55,0-6.966,0-10.352,0
		c-1.103,2.183-2.053,3.539-5.475,3.908c-0.637,2.319-1.29,4.704-1.964,7.163c0.538,0.402,0.995,0.744,1.359,1.019
		c3.345-0.144,5.018,1.048,5.164,3.575c0.054,0.936-0.337,1.721-0.923,2.41c-1.07,1.256-2.533,1.08-4.008,0.963
		c-0.375,0.395-0.729,0.77-1.08,1.135c0.161,0.439,0.262,0.764,0.392,1.073c0.712,1.718,1.488,3.41,2.125,5.155
		c0.372,1.021,0.95,1.473,2.036,1.537c1.791,0.103,3.12,1.051,4.056,2.562c0.227,0.367,0.451,0.733,0.668,1.087
		c1.696-0.095,3.3-0.166,4.903-0.279c1.594-0.111,3.187-0.267,4.814-0.404c0.632-2.66,2.414-3.926,4.974-4.31
		c0.348-1.448,0.675-2.81,0.929-3.862c-0.794-0.977-1.374-1.689-1.869-2.297c-1.231,0.355-1.231,0.355-1.672,1.616
		c-0.694,1.995-2.783,2.855-4.804,1.98c-1.867-0.808-2.718-3.189-1.766-4.949c0.997-1.843,3.273-2.384,5.055-1.192
		c0.363,0.243,0.701,0.527,1.074,0.811C52.104,58.919,52.473,58.805,53.048,58.627z"/>
</g>
</svg>
