<?xml version="1.0" encoding="utf-8"?>
<!-- Generator: Adobe Illustrator 19.2.0, SVG Export Plug-In . SVG Version: 6.00 Build 0)  -->
<svg version="1.1" id="Layer_1" xmlns="http://www.w3.org/2000/svg" xmlns:xlink="http://www.w3.org/1999/xlink" x="0px" y="0px"
	 viewBox="0 0 50 49.6" style="enable-background:new 0 0 50 49.6;" xml:space="preserve">
<title>globe_icon_black</title>
<g>
	<path d="M30.3,36.9c2.8-3,5.3-5.8,5.4-9.9c-0.9-0.7-1.8-0.6-2.7-0.4c-2.4,0.4-4.5,1.4-6.5,2.9c-0.4,0.3-0.8,0.6-1.3,0.9
		c-0.4-1.4,0-2.6,0.4-3.7c1-2.8,2.9-4.9,5.4-6.4c2.6-1.6,5.4-2.4,8.3-2.9c2.6-0.4,5.2-0.5,7.8-0.7c0.3,0,0.6,0.1,1.1,0.1
		c-0.3,1.3-0.5,2.5-0.8,3.8c-1.1,4.1-2.7,8-5.4,11.4C39,35.4,35.2,37.2,30.3,36.9z"/>
	<path d="M10.5,17.2c-0.3,3.4,1.5,5.8,3.5,8.2c-2.3,0.4-4.1-0.3-5.8-1.4c-1.7-1.2-2.9-2.8-3.8-4.6c-1.8-3.7-2.4-7.6-2.6-11.9
		C3.3,7.8,4.6,8,5.9,8.2c3,0.6,5.8,1.7,8.3,3.5c3.1,2.2,4.8,5.1,4.8,9.2C16.4,18.9,14,16.9,10.5,17.2z"/>
	<path d="M31.4,9.3c-2.6-0.2-4.5,1.1-6.3,2.7c-0.4-1-0.1-1.9,0.2-2.8c0.6-1.9,2-3.2,3.6-4.2c2.1-1.3,4.5-1.9,6.9-2.2
		c0.9-0.1,1.8-0.2,2.8-0.3c-0.3,4-1.2,7.6-3.7,10.6c-1.5,1.8-3.5,2.9-6.1,2.9C30.1,13.9,31.6,12,31.4,9.3z"/>
	<path d="M21.3,37c1.5-0.6,2.8-1.1,4-1.7c1.2-0.6,2.3-1.4,3.6-1.9c-0.7,0.7-1.3,1.5-2.1,2.1c-0.8,0.7-1.6,1.4-2.4,2
		c-0.8,0.6-1.8,1.1-2.7,1.7c0.7,3.6,2.2,6.8,4,10.1c-1.6,0-3,0-4.7,0c-0.5-2-1-4-1.4-6.1c-0.6-3.6-1-7.3-0.4-10.9
		c0.3-2-0.6-3.7-1.4-5.5c-0.5-1.2-1.2-2.3-1.7-3.5c1.6,1.1,2.7,2.7,3.6,4.5c0.2-0.4,0.3-0.7,0.4-1c0.7-1.9,1.4-3.9,2.2-5.8
		c0.3-0.7,0.3-1.3,0-2.1c-0.7-1.8-1.2-3.6-1.5-5.4c1,1.5,1.4,3.4,2.9,4.7c0.7-0.9,1.4-1.8,2-2.7C22.4,22.2,20.3,29.1,21.3,37z"/>
	<path d="M19.4,7.4c-1.3,1.3-0.9,3-1,4.8c-1.7-1-2.4-2.4-2.5-4.1c-0.3-2.9,0.8-5.4,2-7.8c4.4,2.8,6.8,7.8,4.5,11
		C20.7,8.1,20.7,8.1,19.4,7.4z"/>
</g>
</svg>
