<?xml version="1.0" encoding="utf-8"?>
<!-- Generator: Adobe Illustrator 16.0.0, SVG Export Plug-In . SVG Version: 6.00 Build 0)  -->
<!DOCTYPE svg PUBLIC "-//W3C//DTD SVG 1.1//EN" "http://www.w3.org/Graphics/SVG/1.1/DTD/svg11.dtd">
<svg version="1.1" id="Layer_1" xmlns="http://www.w3.org/2000/svg" xmlns:xlink="http://www.w3.org/1999/xlink" x="0px" y="0px"
	 width="100px" height="100px" viewBox="0 0 100 100" enable-background="new 0 0 100 100" xml:space="preserve">
<g>
	<g>
		<path d="M62.961,88.943c-16.274-6.242-27.208-22.148-27.208-39.581c0-17.432,10.934-33.338,27.208-39.58
			c0.771-0.295,1.278-1.035,1.278-1.86c0-0.825-0.508-1.564-1.278-1.86C57.661,4.031,52.077,3,46.363,3
			C33.979,3,22.336,7.823,13.579,16.58C4.822,25.336,0,36.979,0,49.363c0,12.385,4.822,24.028,13.579,32.784
			s20.4,13.58,32.784,13.58c5.713,0,11.298-1.031,16.598-3.064c0.77-0.295,1.278-1.035,1.278-1.859
			C64.239,89.977,63.73,89.238,62.961,88.943z M46.363,91.742c-23.368,0-42.379-19.012-42.379-42.379S22.995,6.984,46.363,6.984
			c3.508,0,6.961,0.425,10.318,1.266c-6.582,3.431-12.241,8.394-16.556,14.557c-5.466,7.808-8.356,16.991-8.356,26.556
			s2.89,18.749,8.356,26.557c4.314,6.162,9.974,11.125,16.556,14.557C53.324,91.316,49.871,91.742,46.363,91.742z"/>
	</g>
</g>
<g>
	<g>
		<path d="M81.076,32.568c-0.234-0.721-0.857-1.247-1.608-1.356l-6.738-0.979l-3.013-6.106c-0.336-0.68-1.028-1.11-1.787-1.11
			c-0.758,0-1.451,0.431-1.786,1.111l-3.013,6.105l-6.738,0.979c-0.751,0.109-1.374,0.635-1.608,1.356s-0.039,1.513,0.504,2.042
			l4.876,4.752l-1.151,6.711c-0.128,0.748,0.18,1.502,0.793,1.948c0.613,0.446,1.427,0.505,2.098,0.152l6.026-3.168l6.027,3.168
			c0.291,0.153,0.609,0.229,0.927,0.229c0.413,0,0.823-0.128,1.171-0.381c0.613-0.446,0.92-1.201,0.792-1.948l-1.151-6.711
			l4.877-4.752C81.115,34.082,81.311,33.29,81.076,32.568z M72.165,37.241c-0.47,0.458-0.684,1.117-0.573,1.763l0.646,3.765
			l-3.381-1.777c-0.29-0.152-0.608-0.229-0.928-0.229c-0.318,0-0.637,0.077-0.926,0.229l-3.382,1.778l0.646-3.765
			c0.111-0.646-0.104-1.306-0.572-1.763l-2.735-2.667l3.78-0.549c0.648-0.094,1.209-0.501,1.5-1.09l1.689-3.425l1.691,3.425
			c0.29,0.588,0.851,0.996,1.5,1.09l3.779,0.549L72.165,37.241z"/>
	</g>
</g>
<g>
	<g>
		<path d="M99.902,59.873c-0.234-0.721-0.857-1.246-1.607-1.355l-6.738-0.979l-3.014-6.105c-0.336-0.68-1.028-1.111-1.787-1.111
			c-0.758,0-1.45,0.432-1.786,1.111l-3.013,6.105l-6.738,0.979c-0.75,0.109-1.373,0.635-1.607,1.355
			c-0.234,0.723-0.039,1.514,0.504,2.043l4.875,4.752l-1.15,6.711c-0.129,0.748,0.18,1.502,0.793,1.949
			c0.613,0.445,1.426,0.504,2.098,0.15l6.026-3.168l6.026,3.168c0.292,0.154,0.609,0.23,0.928,0.23c0.412,0,0.823-0.129,1.17-0.381
			c0.613-0.447,0.921-1.201,0.793-1.949l-1.15-6.711l4.875-4.752C99.941,61.387,100.137,60.596,99.902,59.873z M90.992,64.547
			c-0.47,0.457-0.684,1.117-0.573,1.764l0.646,3.764l-3.381-1.777c-0.29-0.152-0.608-0.229-0.927-0.229s-0.638,0.076-0.927,0.229
			l-3.381,1.777l0.646-3.764c0.11-0.646-0.104-1.307-0.573-1.764l-2.734-2.666l3.779-0.549c0.649-0.096,1.21-0.502,1.5-1.09
			l1.69-3.426l1.69,3.426c0.29,0.588,0.852,0.994,1.5,1.09l3.78,0.549L90.992,64.547z"/>
	</g>
</g>
<g>
	<g>
		<path d="M38.766,78.848c-2.459-3.287-4.49-6.951-6.036-10.891c-0.402-1.023-1.557-1.527-2.582-1.125
			c-1.023,0.4-1.528,1.557-1.126,2.582c1.676,4.27,3.881,8.246,6.554,11.82c0.391,0.521,0.99,0.799,1.597,0.799
			c0.416,0,0.834-0.129,1.192-0.398C39.245,80.977,39.425,79.729,38.766,78.848z"/>
	</g>
</g>
<g>
	<g>
		<path d="M44.84,85.414c-0.858-0.748-1.701-1.549-2.506-2.377c-0.766-0.791-2.027-0.811-2.816-0.045
			c-0.79,0.766-0.81,2.027-0.044,2.816c0.881,0.91,1.806,1.787,2.748,2.609c0.377,0.328,0.844,0.49,1.308,0.49
			c0.556,0,1.108-0.232,1.502-0.684C45.755,87.396,45.669,86.137,44.84,85.414z"/>
	</g>
</g>
</svg>
